<svg width="1366" height="760" viewBox="0 0 1366 760" fill="none" xmlns="http://www.w3.org/2000/svg">
<g clip-path="url(#clip0)">
<rect width="1366" height="760" fill="white"/>
<ellipse cx="783.417" cy="562.181" rx="119.5" ry="83.184" transform="rotate(4.02055 783.417 562.181)" fill="black"/>
<path d="M598 595.5V568.5L613.5 533.5V558L598 595.5Z" fill="black" stroke="black" stroke-width="3" stroke-linejoin="round"/>
<path d="M557.5 623L558 596L573.5 561V585.5L557.5 623Z" fill="black" stroke="black" stroke-width="3" stroke-linejoin="round"/>
<path d="M624 473V436L585.5 529L600 532L624 473Z" fill="black" stroke="black" stroke-width="3" stroke-linejoin="round"/>
<path d="M571.5 590.5V564L598 569V595.5L571.5 590.5Z" fill="black" stroke="black" stroke-width="3" stroke-linejoin="round"/>
<path d="M502 613V584.5L557.5 594V623L502 613Z" fill="black" stroke="black" stroke-width="3" stroke-linejoin="round"/>
<path d="M411 561V534L516.5 553.5L505 578.5L411 561Z" fill="black" stroke="black" stroke-width="3" stroke-linejoin="round"/>
<path d="M571.5 564L558.5 594.5L502 584.5L516.5 553.5L411 534L421 510L549.5 422L624 436L585.5 529.5L613.5 533.5L599 569L571.5 564Z" fill="white" stroke="black" stroke-width="3" stroke-linejoin="round"/>
<path d="M559.5 455L479 509.5L533 519.5L559.5 455Z" stroke="black" stroke-width="3" stroke-linejoin="round"/>
<path d="M559.5 455.5L548 482.848L502.5 513.652L480 509L559.5 455.5Z" fill="black"/>
<path d="M791.5 648L821.021 503.785C821.527 501.31 824.172 499.919 826.498 500.903L831.96 503.214C833.725 503.96 834.712 505.854 834.314 507.729L804.5 648H791.5Z" fill="white"/>
<path d="M844.972 670.205L872.028 536.795C872.53 534.317 875.177 532.921 877.506 533.906L882.964 536.216C884.727 536.962 885.715 538.852 885.32 540.725L857.67 671.825C857.279 673.676 855.647 675 853.756 675H848.893C846.364 675 844.47 672.683 844.972 670.205Z" fill="white"/>
<path d="M824.947 529.631L873.94 562.293C876.041 563.694 876.335 566.665 874.55 568.45L872.844 570.156C871.485 571.516 869.35 571.715 867.761 570.632L819.756 537.88C818.16 536.791 817.57 534.717 818.355 532.951L819.073 531.335C820.08 529.07 822.884 528.256 824.947 529.631Z" fill="white"/>
<path d="M817.541 567.294L866.493 599.928C868.416 601.21 868.856 603.85 867.452 605.686L865.846 607.786C864.555 609.474 862.17 609.858 860.414 608.66L812.463 575.946C811.023 574.963 810.385 573.162 810.886 571.492L811.491 569.473C812.264 566.898 815.305 565.803 817.541 567.294Z" fill="white"/>
<path d="M809.992 602.927L858.985 635.589C861.085 636.989 861.379 639.961 859.595 641.746L857.889 643.452C856.529 644.811 854.394 645.011 852.806 643.928L804.8 611.176C803.204 610.087 802.615 608.013 803.399 606.247L804.118 604.631C805.125 602.365 807.929 601.552 809.992 602.927Z" fill="white"/>
<path d="M735 106V259M735 259L164.5 654M735 259L1269.5 618.5" stroke="black" stroke-width="3" stroke-linecap="round"/>
<path d="M1112 371L1039 324L1015 477L1035.5 488L1112 371Z" fill="black" stroke="black" stroke-width="3" stroke-linejoin="round"/>
<path d="M989.5 558L971 554L984.5 506L1013 522.5L989.5 558Z" fill="black" stroke="black" stroke-width="3" stroke-linejoin="round"/>
<path d="M1033 542L1014 535L1029.5 479L1060.5 500.5L1033 542Z" fill="black" stroke="black" stroke-width="3" stroke-linejoin="round"/>
<path fill-rule="evenodd" clip-rule="evenodd" d="M971 553.5L993 520L1014 534.5L1042 492.5L1020 477L1095 363L1036 321L892 404.765L873 434L951.5 490L929.5 524L971 553.5ZM944 424.5L1024 378L979 450.5L944 424.5Z" fill="white"/>
<path d="M993 520L993.852 518.766C993.52 518.536 993.109 518.45 992.712 518.528C992.316 518.605 991.968 518.839 991.746 519.177L993 520ZM971 553.5L970.131 554.723C970.463 554.959 970.877 555.049 971.277 554.974C971.677 554.899 972.03 554.664 972.254 554.323L971 553.5ZM1014 534.5L1013.15 535.734C1013.48 535.963 1013.89 536.049 1014.28 535.973C1014.68 535.898 1015.02 535.667 1015.25 535.332L1014 534.5ZM1042 492.5L1043.25 493.332C1043.7 492.655 1043.53 491.742 1042.86 491.274L1042 492.5ZM1020 477L1018.75 476.176C1018.3 476.852 1018.47 477.76 1019.14 478.226L1020 477ZM1095 363L1096.25 363.824C1096.7 363.15 1096.53 362.246 1095.87 361.778L1095 363ZM1036 321L1036.87 319.778C1036.39 319.436 1035.75 319.407 1035.25 319.703L1036 321ZM892 404.765L891.246 403.468C891.042 403.586 890.87 403.75 890.742 403.947L892 404.765ZM873 434L871.742 433.183C871.304 433.856 871.475 434.755 872.129 435.221L873 434ZM951.5 490L952.759 490.815C953.195 490.142 953.024 489.245 952.371 488.779L951.5 490ZM929.5 524L928.24 523.185C927.804 523.859 927.976 524.757 928.631 525.223L929.5 524ZM1024 378L1025.27 378.791C1025.64 378.206 1025.56 377.449 1025.08 376.955C1024.6 376.461 1023.84 376.357 1023.25 376.703L1024 378ZM944 424.5L943.246 423.203C942.81 423.457 942.531 423.912 942.502 424.416C942.474 424.919 942.701 425.403 943.106 425.704L944 424.5ZM979 450.5L978.106 451.704C978.442 451.954 978.868 452.052 979.281 451.974C979.693 451.895 980.053 451.648 980.274 451.291L979 450.5ZM991.746 519.177L969.746 552.677L972.254 554.323L994.254 520.823L991.746 519.177ZM1014.85 533.266L993.852 518.766L992.147 521.234L1013.15 535.734L1014.85 533.266ZM1040.75 491.668L1012.75 533.668L1015.25 535.332L1043.25 493.332L1040.75 491.668ZM1019.14 478.226L1041.14 493.726L1042.86 491.274L1020.86 475.774L1019.14 478.226ZM1093.75 362.176L1018.75 476.176L1021.25 477.824L1096.25 363.824L1093.75 362.176ZM1035.13 322.222L1094.13 364.222L1095.87 361.778L1036.87 319.778L1035.13 322.222ZM892.754 406.061L1036.75 322.297L1035.25 319.703L891.246 403.468L892.754 406.061ZM874.257 434.817L893.257 405.582L890.742 403.947L871.742 433.183L874.257 434.817ZM952.371 488.779L873.871 432.779L872.129 435.221L950.629 491.221L952.371 488.779ZM930.759 524.815L952.759 490.815L950.24 489.185L928.24 523.185L930.759 524.815ZM971.869 552.277L930.369 522.777L928.631 525.223L970.131 554.723L971.869 552.277ZM1023.25 376.703L943.246 423.203L944.754 425.797L1024.75 379.297L1023.25 376.703ZM980.274 451.291L1025.27 378.791L1022.73 377.209L977.726 449.709L980.274 451.291ZM943.106 425.704L978.106 451.704L979.894 449.296L944.894 423.296L943.106 425.704Z" fill="black"/>
<path d="M1024 378L944 424.5L979 450.5L1024 378Z" stroke="black" stroke-width="3" stroke-linejoin="round"/>
<path d="M1024.06 377.611L1009 402.5L962 433L981.5 447L979 451.5L944 424.5L1024.06 377.611Z" fill="black"/>
</g>
<defs>
<clipPath id="clip0">
<rect width="1366" height="760" fill="white"/>
</clipPath>
</defs>
</svg>
