<svg width="700" height="72" viewBox="0 0 700 72" fill="none" xmlns="http://www.w3.org/2000/svg">
<path fill-rule="evenodd" clip-rule="evenodd" d="M90.4205 40.3414V42.6492C90.4205 48.1324 88.7536 55.477 82.3906 61.4366C76.0362 67.3882 65.2388 71.7323 47.4534 71.7323H43.4157C25.7796 71.7323 14.8451 66.6093 8.33935 59.5455C1.8636 52.5144 0 43.8021 0 37.0264V34.3489C0 27.532 1.83958 18.9021 8.31294 11.967C14.8122 5.00406 25.7471 0 43.4157 0H47.4534C65.1681 0 75.9655 4.06374 82.3393 9.85537C88.738 15.6698 90.4205 22.9885 90.4205 28.9046V31.2123H62.3499L62.1915 29.7946C62.1255 29.2034 61.7926 27.1271 59.6968 25.1839C57.6038 23.2434 53.5148 21.2162 45.4794 21.2162C38.0311 21.2162 33.8849 23.3472 31.5707 25.9452C29.2224 28.5814 28.508 31.9787 28.508 34.9736V36.0446C28.508 38.9788 29.26 42.5062 31.6634 45.2789C34.0254 48.0038 38.1988 50.2483 45.5691 50.2483C53.5521 50.2483 57.6203 48.2027 59.7054 46.2607C61.7965 44.3131 62.1296 42.2508 62.1941 41.7375L62.3695 40.3414H90.4205ZM88.8182 41.9352V42.6492C88.8182 42.9374 88.8133 43.2308 88.8031 43.529C88.4462 53.943 81.5607 70.1385 47.4534 70.1385H43.4157C8.78055 70.1385 1.60229 50.057 1.60229 37.0264V34.3489C1.60229 21.229 8.69082 1.59377 43.4157 1.59377H47.4534C81.5445 1.59377 88.4704 16.8406 88.8051 28.0248C88.8139 28.321 88.8182 28.6144 88.8182 28.9046V29.6186H63.784C63.6045 28.012 62.0791 19.6225 45.4794 19.6225C29.9564 19.6225 26.9057 28.5475 26.9057 34.9736V36.0446C26.9057 42.3814 30.1359 51.842 45.5691 51.842C62.0791 51.842 63.6045 43.3632 63.784 41.9352H88.8182ZM134.512 72H131.551C115.882 72 106.803 67.7683 101.677 62.0635C96.5774 56.3891 95.6721 49.5655 95.6721 44.9697V43.7202C95.6721 39.169 96.5773 32.2651 101.654 26.494C106.764 20.6846 115.823 16.3329 131.461 16.3329H134.601C150.757 16.3329 159.858 20.6737 164.868 26.4959C169.844 32.2783 170.48 39.1818 170.48 43.631V45.059C170.48 49.552 169.844 56.3759 164.846 62.0617C159.82 67.7789 150.697 72 134.512 72ZM132.717 53.8183H133.435C137.449 53.8183 139.81 52.3112 141.216 50.4497C142.678 48.5138 143.228 46.0261 143.228 43.988C143.228 41.7076 142.67 39.2629 141.233 37.4247C139.85 35.6562 137.497 34.2469 133.435 34.2469H132.717C128.505 34.2469 126.167 35.6658 124.828 37.4127C123.428 39.2376 122.924 41.6753 122.924 43.988C122.924 46.1175 123.404 48.5935 124.811 50.4963C126.155 52.3141 128.496 53.8183 132.717 53.8183ZM177.75 70.6612V17.6717H203.836V23.1812C207.6 19.9419 213.895 16.3329 223.589 16.3329H224.486C232.332 16.3329 238.134 18.82 241.973 22.7252C245.796 26.6133 247.533 31.7647 247.533 36.8479V70.6612H221.179V44.1665C221.179 41.8321 220.572 39.9039 219.345 38.5712C218.143 37.2651 216.132 36.2996 212.821 36.2996C209.679 36.2996 207.533 37.2902 206.164 38.7498C204.777 40.2282 204.015 42.3703 204.015 44.9697V70.6612H177.75ZM203.836 25.3401C203.204 25.9478 202.673 26.5225 202.233 27.0303V19.2655H179.353V69.0675H202.413V44.9697C202.413 39.1684 205.822 34.7059 212.821 34.7059C220.089 34.7059 222.781 38.9899 222.781 44.1665V69.0675H245.931V36.8479C245.931 27.3873 239.471 17.9267 224.486 17.9267H223.589C213.39 17.9267 207.198 22.1025 203.836 25.3401ZM299.046 51.4085V70.6612H278.062C273.829 70.6612 269.995 69.4875 267.202 66.9539C264.386 64.3992 262.821 60.6358 262.821 55.8583V35.7641H252.682V17.6717H262.821V2.67753H288.817V17.6717H299.046V35.7641H288.817V47.915C288.817 49.7335 289.07 50.4502 289.361 50.7802C289.599 51.0502 290.189 51.4085 292.06 51.4085H299.046ZM292.06 53.0023C288.112 53.0023 287.214 51.5743 287.214 47.915V34.1704H297.443V19.2655H287.214V4.2713H264.423V19.2655H254.284V34.1704H264.423V55.8583C264.423 64.6942 270.166 69.0675 278.062 69.0675H297.443V53.0023H292.06ZM307.216 33.7369C307.691 27.0817 311.883 18.0159 336.775 18.0159H339.825C367.192 18.0159 369.615 27.5658 369.615 35.3306V50.6818C369.615 52.4668 370.153 53.2701 372.038 53.2701H374.819V69.0675H356.156C352.06 69.0675 349.633 66.7543 348.341 64.4005C348.049 63.8669 347.814 63.3312 347.632 62.8199C347.337 63.1438 346.933 63.5743 346.401 64.0648C343.857 66.4132 338.403 70.1385 328.161 70.1385H326.635C312.638 70.1385 305.908 63.3554 305.908 54.0733V53.6271C305.908 44.4342 311.651 39.6147 329.327 38.4544L343.504 37.6511C346.106 37.4726 347.004 36.5801 347.004 34.7951V34.7059C347.004 32.5638 345.927 30.6896 338.659 30.6896H338.3C330.494 30.6896 329.955 34.0811 329.865 35.3306H307.164V35.2414C307.164 34.7581 307.179 34.2548 307.216 33.7369ZM343.394 36.0611C343.397 36.0609 343.4 36.0607 343.403 36.0605C344.59 35.9781 345.035 35.7449 345.187 35.6155C345.253 35.5591 345.401 35.4219 345.401 34.7951V34.7059C345.401 34.2931 345.347 34.0217 345.259 33.8255C345.183 33.6553 345.043 33.4557 344.704 33.2438C343.931 32.7608 342.238 32.2833 338.659 32.2833H338.3C334.592 32.2833 332.967 33.0938 332.261 33.7262C331.594 34.323 331.497 34.9807 331.464 35.4442L331.37 36.7423L343.394 36.0611ZM328.357 36.9244C319.915 37.5487 313.966 39.0522 310.08 41.7162C305.901 44.581 304.306 48.6396 304.306 53.6271V54.0733C304.306 59.1225 306.152 63.6115 309.994 66.8091C313.803 69.9787 319.395 71.7323 326.635 71.7323H328.161C338.496 71.7323 344.268 68.082 347.152 65.5377C348.7 68.1275 351.518 70.6612 356.156 70.6612H376.422V51.6763H372.038C371.586 51.6763 371.392 51.617 371.326 51.5876C371.316 51.5656 371.301 51.5261 371.285 51.4621C371.247 51.3055 371.217 51.0595 371.217 50.6818V35.3306C371.217 31.2933 370.59 26.358 366.012 22.5402C361.543 18.8131 353.618 16.4222 339.825 16.4222H336.775C323.206 16.4222 315.339 19.0755 310.863 22.911C306.313 26.8101 305.562 31.6684 305.562 35.2414V36.9244H328.357ZM371.297 51.5717C371.297 51.571 371.301 51.5732 371.308 51.5792C371.301 51.575 371.297 51.5723 371.297 51.5717ZM338.198 49.4881L338.192 49.4891C334.5 50.0713 332.472 50.6423 331.374 51.2854C330.87 51.5804 330.641 51.8473 330.518 52.0739C330.391 52.3084 330.301 52.6389 330.301 53.1808V53.3593C330.301 54.1184 330.592 54.688 331.283 55.1398C332.061 55.6478 333.432 56.0496 335.608 56.0496C339.349 56.0496 341.778 54.913 343.26 53.502C344.761 52.0727 345.401 50.2622 345.401 48.7183V48.2533C343.515 48.6057 340.91 49.049 338.198 49.4881ZM345.401 46.6313C343.531 46.9858 340.81 47.4504 337.941 47.915C330.583 49.0753 328.699 50.3248 328.699 53.1808V53.3593C328.699 55.9476 330.942 57.6434 335.608 57.6434C343.773 57.6434 347.004 52.6453 347.004 48.7183V46.3085C346.59 46.4 346.046 46.5091 345.401 46.6313ZM452.055 46.7675V48.4505C452.055 52.4049 451.204 58.3765 446.378 63.3469C441.548 68.3224 433.023 72 418.33 72H413.933C399.416 72 390.699 67.9605 385.646 62.2807C380.626 56.6371 379.49 49.6688 379.49 44.345V43.0955C379.49 37.8328 380.729 31.0825 385.795 25.6457C390.882 20.1855 399.564 16.3329 413.843 16.3329H417.343C432.771 16.3329 441.539 19.9517 446.433 24.7834C451.342 29.629 452.055 35.3995 452.055 38.9899V40.6729H424.971L424.813 39.2552C424.755 38.7397 424.431 37.5048 423.294 36.4081C422.19 35.3444 420.152 34.2469 416.356 34.2469H415.638C412.007 34.2469 409.886 35.4674 408.625 37.0794C407.309 38.7612 406.742 41.1073 406.742 43.631V43.7202C406.742 46.3331 407.331 48.8802 408.697 50.7319C410.005 52.505 412.151 53.8183 415.728 53.8183H416.446C420.282 53.8183 422.267 52.5982 423.33 51.4229C424.442 50.194 424.745 48.7932 424.813 48.1853L424.971 46.7675H452.055ZM450.453 48.3613V48.4505C450.453 48.9258 450.44 49.4292 450.408 49.955C449.94 57.7229 445.39 70.4062 418.33 70.4062H413.933C385.489 70.4062 381.093 54.6088 381.093 44.345V43.0955C381.093 33.0101 385.848 17.9267 413.843 17.9267H417.343C445.661 17.9267 449.949 30.3036 450.406 37.4854C450.44 38.0178 450.453 38.5217 450.453 38.9899V39.0792H426.405C426.226 37.4726 424.611 32.6531 416.356 32.6531H415.638C407.562 32.6531 405.14 38.1867 405.14 43.631V43.7202C405.14 49.343 407.652 55.4121 415.728 55.4121H416.446C424.88 55.4121 426.226 49.9678 426.405 48.3613H450.453ZM502.512 51.4085V70.6612H481.528C477.295 70.6612 473.461 69.4875 470.668 66.9539C467.852 64.3992 466.287 60.6358 466.287 55.8583V35.7641H456.148V17.6717H466.287V2.67753H492.283V17.6717H502.512V35.7641H492.283V47.915C492.283 49.7335 492.536 50.4502 492.827 50.7802C493.065 51.0502 493.654 51.4085 495.526 51.4085H502.512ZM495.526 53.0023C491.578 53.0023 490.68 51.5743 490.68 47.915V34.1704H500.909V19.2655H490.68V4.2713H467.889V19.2655H457.75V34.1704H467.889V55.8583C467.889 64.6942 473.632 69.0675 481.528 69.0675H500.909V53.0023H495.526ZM625.089 1.07101V34.3489C625.089 41.0052 624.191 50.3646 618.399 58.0731C612.54 65.8716 601.941 71.643 583.288 71.643H580.507C561.16 71.643 550.431 65.8858 544.627 58.0655C538.895 50.3412 538.258 40.9614 538.258 34.3489V1.07101H565.509V34.1704C565.509 37.8315 566.147 41.4682 568.35 44.1802C570.498 46.8254 574.404 48.9095 581.673 48.9095H582.032C589.206 48.9095 593.013 46.8297 595.095 44.1964C597.238 41.4866 597.837 37.8479 597.837 34.1704V1.07101H625.089ZM539.86 2.66478H563.907V34.1704C563.907 41.7567 566.509 50.5033 581.673 50.5033H582.032C597.017 50.5033 599.439 41.7567 599.439 34.1704V2.66478H623.487V34.3489C623.487 47.4687 619.897 70.0492 583.288 70.0492H580.507C542.462 70.0492 539.86 47.4687 539.86 34.3489V2.66478ZM674.064 35.8804C684.1 36.3302 690.604 38.0178 694.612 40.9398C698.773 43.9736 700 48.1413 700 52.7346V53.5378C700 57.8833 698.944 62.6551 693.936 66.224C689.086 69.6801 680.767 71.8215 666.813 71.8215H664.301C649.837 71.8215 641.718 68.9905 637.216 65.093C632.637 61.1278 632.101 56.3261 632.101 53.2701V51.4085H659.793L659.969 52.8046C660.027 53.2684 660.196 53.8887 660.883 54.4353C661.612 55.016 663.151 55.6926 666.365 55.6926H666.544C669.598 55.6926 671.234 55.2701 672.058 54.806C672.442 54.5901 672.613 54.3859 672.698 54.2374C672.784 54.0868 672.838 53.8963 672.838 53.6271C672.838 53.2637 672.777 53.108 672.729 53.0282C672.686 52.9559 672.565 52.795 672.152 52.5973C671.23 52.1556 669.411 51.7819 665.903 51.5583L665.891 51.5575L658.02 50.9343C658.014 50.934 658.008 50.9336 658.001 50.9332C648.234 50.3888 641.973 48.3453 638.142 45.1805C634.218 41.9382 633.088 37.7307 633.088 33.5456V33.0101C633.088 30.7507 633.486 28.521 634.556 26.4617C635.631 24.3916 637.337 22.5902 639.801 21.1224C644.659 18.2279 652.513 16.6007 664.66 16.6007H666.724C680.052 16.6007 688.171 18.6097 692.986 21.8757C697.961 25.2508 699.192 29.8058 699.192 34.0811V35.7641H672.471L672.168 34.5569C672.021 33.9731 671.83 33.4267 671.186 32.9511C670.486 32.4345 669.02 31.8371 665.916 31.8371H665.467C662.495 31.8371 660.946 32.1594 660.178 32.5528C659.839 32.7265 659.716 32.8825 659.659 32.9835C659.595 33.096 659.533 33.2845 659.533 33.6348C659.533 33.9428 659.594 34.1016 659.659 34.203C659.727 34.3092 659.886 34.4881 660.302 34.6894C661.205 35.1263 662.911 35.4792 665.978 35.6123C665.98 35.6124 665.983 35.6125 665.986 35.6126L674.064 35.8804ZM665.916 37.2049C659.725 36.9371 657.93 35.7769 657.93 33.6348C657.93 31.4928 659.456 30.2433 665.467 30.2433H665.916C672.466 30.2433 673.364 32.7423 673.722 34.1704H697.59V34.0811C697.59 33.5796 697.572 33.0774 697.532 32.5766C696.939 25.234 691.503 18.1944 666.724 18.1944H664.66C640.523 18.1944 634.691 24.7098 634.691 33.0101V33.5456C634.691 41.3104 638.818 48.272 658.11 49.343L666.006 49.9678C673.005 50.414 674.44 51.485 674.44 53.6271C674.44 55.5906 672.825 57.2864 666.544 57.2864H666.365C659.545 57.2864 658.558 54.4303 658.379 53.0023H633.704V53.2701C633.704 53.685 633.714 54.1292 633.744 54.5961C634.131 60.5566 637.757 70.2277 664.301 70.2277H666.813C694.539 70.2277 698.398 61.6596 698.398 53.5378V52.7346C698.398 44.1665 693.911 38.3652 673.992 37.4726L665.916 37.2049ZM134.512 70.4062H131.551C100.774 70.4062 97.2744 53.8056 97.2744 44.9697V43.7202C97.2744 34.9736 100.774 17.9267 131.461 17.9267H134.601C166.365 17.9267 168.878 34.9736 168.878 43.631V45.059C168.878 53.8056 166.365 70.4062 134.512 70.4062ZM132.717 55.4121H133.435C142.408 55.4121 144.83 48.5398 144.83 43.988C144.83 38.9899 142.408 32.6531 133.435 32.6531H132.717C123.475 32.6531 121.322 38.9899 121.322 43.988C121.322 48.629 123.385 55.4121 132.717 55.4121Z" fill="#0000FF"/>
</svg>
