<svg width="150" height="150" viewBox="0 0 150 150" fill="none" xmlns="http://www.w3.org/2000/svg" class="contact-text">
<path d="M63 11.4027C58 12.3027 56.4 9.60266 56.1 7.70266L56 7.30266C55.6 5.40266 56.1 2.30266 61.2 1.40266L61.8 1.30266C66.9 0.402664 68.2 2.50266 68.5 4.20266V4.30266L64.9 5.00266C64.8 4.80266 64.4 3.60266 62 4.00266C59.8 4.40266 59.6 5.80266 59.7 6.70266V6.90266C59.9 7.80266 60.6 9.10266 62.8 8.70266C65.2 8.30266 65.2 7.00266 65.2 6.80266L68.8 6.10266V6.20266C69.1 7.70266 68.6 10.4027 63.6 11.3027L63 11.4027Z"/>
<path d="M77.6 0.102605C82.8 0.302606 83.8 3.10261 83.8 5.10261V5.50261C83.7 7.50261 82.6 10.4026 77.3 10.2026H76.7C71.5 10.0026 70.5 7.10261 70.5 5.10261V4.70261C70.6 2.70261 71.7 -0.0973945 77 0.00260549L77.6 0.102605ZM77.2 2.80261C74.7 2.70261 74.3 4.10261 74.2 5.00261V5.10261C74.2 6.10261 74.6 7.50261 77 7.50261C79.5 7.60261 79.9 6.20261 80 5.20261V5.10261C80 4.20261 79.7 2.90261 77.2 2.80261Z"/>
<path d="M89.6 5.90254L88.2 11.4025L84.8 10.6025L87.2 1.10254L90.7 2.00254L94.5 8.60254L95.8 3.30254L99.2 4.10254L96.8 13.6025L93.5 12.8025L89.6 5.90254Z"/>
<path d="M102.4 5.20264L112.7 10.2026L111.5 12.6026L108 10.9026L104.9 17.3026L101.7 15.8026L104.8 9.40264L101.3 7.70264L102.4 5.20264Z"/>
<path d="M116 22.5025L111.9 19.5025L110.4 20.4025L107.5 18.3025L117 13.1025L120.8 15.8025L118.8 26.5025L115.7 24.3025L116 22.5025ZM116.5 20.1025L117.2 16.5025L114 18.3025L116.5 20.1025Z"/>
<path d="M122.7 31.1027C119.3 27.3027 120.7 24.6027 122.2 23.3027L122.5 23.0027C123.9 21.7027 126.8 20.5027 130.2 24.3027L130.6 24.7027C134.1 28.5027 133 30.8027 131.7 31.9027L131.6 32.0027L129.1 29.3027C129.3 29.1027 130 28.1027 128.4 26.3027C126.9 24.6027 125.6 25.2027 124.9 25.8027L124.8 25.9027C124.1 26.5027 123.4 27.8027 124.9 29.5027C126.5 31.3027 127.6 30.6027 127.8 30.5027L130.3 33.2027L130.2 33.3027C129.1 34.3027 126.6 35.4027 123.1 31.6027L122.7 31.1027Z"/>
<path d="M136.1 31.4026L142 41.2026L139.7 42.6026L137.7 39.2026L131.6 42.9026L129.8 39.9026L135.9 36.2026L133.9 32.8026L136.1 31.4026Z"/>
<path d="M140.6 49.5026L145.1 48.2026L146.1 51.6026L141.6 52.9026C140.5 53.2026 139.4 53.9026 140 56.1026V56.2026C140.6 58.3026 142 58.3026 143 58.0026L147.5 56.7026L148.5 60.1026L144 61.4026C142.1 61.9026 138.8 62.4026 137.3 57.2026L137.2 56.8026C135.7 51.4026 138.8 50.1026 140.6 49.5026Z"/>
<path d="M139.7 70.1025V69.8025C139.3 64.6025 141.3 63.9025 142.6 63.8025H142.7L143 67.6025C142.6 67.7025 141.9 67.9025 142 69.7025V69.8025C142.1 71.6025 142.6 71.8025 143.1 71.8025C143.6 71.8025 143.9 71.5025 143.8 69.9025L143.7 68.5025C143.5 64.9025 144.8 63.8025 146.3 63.7025H146.4C148.1 63.6025 149.4 64.5025 149.8 68.8025V69.4025C150.2 74.1025 148.6 75.0025 147.2 75.1025H147.1L146.8 71.4025C147.2 71.3025 147.7 71.0025 147.6 69.4025V69.3025C147.5 67.7025 147.1 67.4025 146.7 67.5025C146.3 67.5025 146 67.8025 146.1 69.3025L146.2 70.7025C146.4 74.5025 145.4 75.5025 143.6 75.6025H143.4C141.8 75.5025 140.1 74.9025 139.7 70.1025Z"/>
<path d="M145 86.1025L142.4 85.8025L143 81.1025L145.6 81.4025L145 86.1025Z"/>
<path d="M136.4 96.1026C138.1 91.3026 141.2 91.3026 143 91.9026L143.4 92.0026C145.2 92.6026 147.6 94.6026 146 99.4026L145.8 100.003C144.1 104.903 141.6 105.003 140 104.403H139.9L141.1 100.903C141.3 101.003 142.6 101.103 143.4 98.8026C144.2 96.6026 143.1 95.8026 142.2 95.5026L142.1 95.4026C141.2 95.1026 139.7 95.1026 139 97.2026C138.2 99.5026 139.3 100.103 139.5 100.203L138.3 103.703H138.2C136.8 103.203 134.7 101.503 136.4 96.6026V96.1026Z"/>
<path d="M138.9 114.403C136.2 118.903 133.2 118.303 131.5 117.303L131.2 117.103C129.5 116.103 127.6 113.603 130.3 109.103L130.6 108.603C133.3 104.103 136.4 104.703 138.1 105.803L138.4 106.003C140.1 107.103 142 109.503 139.2 113.903L138.9 114.403ZM136.8 112.703C138.1 110.603 137.1 109.503 136.3 109.003L136.2 108.903C135.4 108.403 134 108.103 132.7 110.203C131.4 112.303 132.4 113.403 133.2 113.903L133.3 114.003C134.1 114.503 135.5 114.903 136.8 112.703Z"/>
<path d="M127.9 122.003L123.8 118.103L126.2 115.603L133.3 122.403L130.8 125.003H123.2L127.2 128.803L124.8 131.303L117.7 124.503L120.1 122.003H127.9Z"/>
<path d="M122.3 133.403L112.9 139.903L111.4 137.703L114.6 135.503L110.6 129.703L113.5 127.703L117.5 133.503L120.7 131.303L122.3 133.403Z"/>
<path d="M100.4 136.703L105 134.603V132.903L108.2 131.403L108.1 142.203L103.9 144.103L95.6001 137.103L99.0001 135.503L100.4 136.703ZM102.3 138.403L105.1 140.803V137.103L102.3 138.403Z"/>
<path d="M89.6999 138.303C94.6999 137.203 96.3999 139.803 96.7999 141.703L96.8999 142.103C97.2999 144.003 96.9999 147.103 91.9999 148.203L91.3999 148.303C86.3999 149.403 84.8999 147.303 84.5999 145.703V145.603L88.1999 144.803C88.2999 145.003 88.7999 146.203 91.1999 145.603C93.3999 145.103 93.5999 143.703 93.3999 142.803V142.603C93.1999 141.703 92.3999 140.403 90.1999 140.903C87.7999 141.403 87.8999 142.703 87.8999 142.903L84.2999 143.703V143.603C83.9999 142.103 84.2999 139.403 89.2999 138.303H89.6999Z"/>
<path d="M82.7 149.703L71.3 150.003L71.2 147.303L75.1 147.203L75 140.103L78.6 140.003L78.8 147.103L82.7 147.003V149.703Z"/>
<path d="M64.8 144.703L63.7 149.303L60.2999 148.503L61.4 144.003C61.7 142.903 61.6 141.603 59.4 141.003H59.2999C57.1999 140.503 56.5 141.703 56.2 142.803L55.0999 147.303L51.7 146.503L52.7999 141.903C53.1999 140.003 54.4999 136.903 59.7999 138.103L60.2 138.203C65.6 139.503 65.2 142.903 64.8 144.703Z"/>
<path d="M47.4 133.703L47.7 133.803C52.4 136.003 52 138.103 51.5 139.303V139.403L48 137.803C48.1 137.403 48.3 136.703 46.7 135.903H46.6C45 135.103 44.6 135.503 44.4 135.903C44.2 136.303 44.3 136.703 45.7 137.403L46.9 138.003C50.2 139.603 50.5 141.203 49.8 142.703V142.803C49.1 144.303 47.6 145.003 43.7 143.203L43.2 143.003C38.9 141.003 38.9 139.203 39.6 137.903V137.803L43 139.403C42.9 139.803 42.9 140.403 44.4 141.103H44.5C45.9 141.803 46.3 141.603 46.5 141.203C46.7 140.803 46.5 140.403 45.2 139.803L43.9 139.203C40.5 137.503 40.2 136.103 40.9 134.503L41 134.403C41.6 132.903 43 131.703 47.4 133.703Z"/>
<path d="M30.8 130.402L32.4001 128.302L36.2001 131.102L34.6 133.202L30.8 130.402Z"/>
<path d="M26.3999 118.003C29.7999 121.803 28.1999 124.603 26.7999 125.903L26.4999 126.203C24.9999 127.503 22.1999 128.603 18.7999 124.803L18.3999 124.403C14.9999 120.503 16.1999 118.303 17.3999 117.203L17.4999 117.103L19.8999 119.903C19.6999 120.103 18.9999 121.103 20.5999 122.903C22.0999 124.603 23.3999 124.103 24.0999 123.503L24.1999 123.403C24.8999 122.803 25.5999 121.503 24.0999 119.803C22.4999 118.003 21.3999 118.603 21.1999 118.703L18.7999 115.903L18.8999 115.803C20.0999 114.803 22.5999 113.803 25.9999 117.703L26.3999 118.003Z"/>
<path d="M9.30003 111.103C6.80003 106.503 8.70003 104.203 10.5 103.203L10.8 103.003C12.6 102.003 15.6 101.603 18.2 106.203L18.5 106.703C21 111.303 19 113.603 17.3 114.603L17 114.803C15.2 115.803 12.2 116.203 9.70003 111.603L9.30003 111.103ZM11.7 110.103C12.9 112.303 14.3 112.003 15.1 111.503L15.2 111.403C16 110.903 17 109.903 15.9 107.703C14.7 105.503 13.3 105.803 12.4 106.303L12.3 106.403C11.5 106.903 10.5 107.903 11.7 110.103Z"/>
<path d="M8.1001 97.8026L13.5001 96.2026L14.5001 99.5026L5.1001 102.303L4.1001 98.8026L7.9001 92.2026L2.6001 93.8026L1.6001 90.5026L11.0001 87.7026L12.0001 91.0026L8.1001 97.8026Z"/>
<path d="M1 87.2025L0 75.8025L2.7 75.6025L3 79.5025L10.1 78.9025L10.4 82.4025L3.3 83.1025L3.6 87.0025L1 87.2025Z"/>
<path d="M8.89995 66.6026L8.39995 71.7026L9.89995 72.6026L9.59995 76.1026L0.199951 70.7026L0.599951 66.1026L10.8 62.4026L10.5 66.2026L8.89995 66.6026ZM6.49995 67.4026L2.99995 68.6026L6.19995 70.4026L6.49995 67.4026Z"/>
<path d="M12.9 56.6025C11.4 61.5025 8.3 61.6025 6.4 61.1025L6 60.9025C4.1 60.3025 1.7 58.5025 3.1 53.6025L3.3 53.1025C4.8 48.2025 7.3 48.0025 8.9 48.4025H9L8 52.0025C7.8 52.0025 6.5 51.8025 5.8 54.2025C5.1 56.4025 6.3 57.2025 7.2 57.5025H7.4C8.3 57.8025 9.8 57.7025 10.4 55.5025C11.1 53.2025 10 52.6025 9.8 52.5025L10.9 49.0025H11C12.5 49.4025 14.6 51.1025 13.1 56.0025L12.9 56.6025Z"/>
<path d="M6.3999 44.8026L11.7999 34.7026L14.1999 36.0026L12.2999 39.5026L18.5999 42.9026L16.8999 46.0026L10.5999 42.6026L8.7999 46.1026L6.3999 44.8026Z"/>
<path d="M19.6 31.7027L16.2 28.5027L18.6 25.9027L22 29.1027C22.8 29.9027 24 30.5027 25.5 28.8027C27 27.2027 26.3 26.0027 25.5 25.3027L22.1 22.1027L24.5 19.5027L27.9 22.7027C29.2999 24.0027 31.4 26.7027 27.7 30.6027L27.4 30.9027C23.7 35.0027 21 33.0027 19.6 31.7027Z"/>
<path d="M37.8 22.0026L37.5 22.2026C33.2 25.2026 31.6 23.9026 30.9 22.8026V22.7026L34 20.5026C34.2 20.8026 34.8 21.3026 36.3 20.3026H36.4C37.9 19.3026 37.8 18.7026 37.5 18.4026C37.2 18.0026 36.8 17.9026 35.5 18.8026L34.4 19.6026C31.4 21.6026 29.8 21.1026 28.9 19.8026L28.8 19.7026C27.8 18.3026 28 16.7026 31.5 14.2026L32 13.9026C35.8 11.2026 37.4 12.1026 38.2 13.3026V13.4026L35.1 15.6026C34.8 15.3026 34.3 15.0026 33 16.0026L32.9 16.1026C31.6 17.0026 31.5 17.4026 31.8 17.8026C32 18.1026 32.4 18.2026 33.7 17.4026L34.9 16.6026C38.1 14.5026 39.4 14.9026 40.4 16.3026L40.5 16.4026C41.4 17.4026 41.7 19.2026 37.8 22.0026Z"/>
<path d="M48.8 9.30249L49.9 11.7025L45.6 13.6025L44.5 11.1025L48.8 9.30249Z"/>
</svg>
