<svg width="670" height="365" viewBox="0 0 670 365" fill="none" xmlns="http://www.w3.org/2000/svg">
<mask id="path-1-inside-1" fill="white">
<path d="M0 82.7797H28.4295V31.9309L52.3758 82.7797H70.9643L95.1294 31.9309V82.7797H123.996V1.42158H85.0697L62.6542 47.8963L40.676 1.42158H0V82.7797Z"/>
<path d="M191.107 0C147.807 0 138.841 23.4014 138.731 40.2416V43.5222C138.731 60.1437 147.807 84.2012 191.107 84.2012H196.028C239.546 84.2012 248.403 60.1437 248.403 43.5222V40.2416C248.403 23.4014 239.437 0 196.028 0H191.107ZM217.568 41.1165V42.3193C217.568 50.1927 214.069 61.784 193.622 61.784C173.284 61.784 169.566 50.1927 169.566 42.3193V41.1165C169.566 33.3524 172.956 22.0892 193.513 22.0892C214.179 22.0892 217.568 33.3524 217.568 41.1165Z"/>
<path d="M337.57 82.7797H365.89V1.42158H337.133V46.9121L293.286 1.42158H263.216V82.7797H291.974V35.8675L337.57 82.7797Z"/>
<path d="M458.113 82.7797H489.386L450.897 1.42158H412.298L374.684 82.7797H404.097L410.002 69.548H452.1L458.113 82.7797ZM418.64 50.5207L430.996 22.7453L443.571 50.5207H418.64Z"/>
<path d="M498.135 82.7797H526.565V31.9309L550.511 82.7797H569.099L593.265 31.9309V82.7797H622.131V1.42158H583.205L560.789 47.8963L538.811 1.42158H498.135V82.7797Z"/>
<path d="M669.998 1.42158H640.475V82.7797H669.998V1.42158Z"/>
<path d="M0 176.753H96.7022C141.971 176.753 150.937 155.648 150.937 137.058V133.777C150.937 115.406 141.096 95.3947 96.7022 95.3947H0V176.753ZM29.5229 116.281H93.2031C117.368 116.281 120.102 127.654 120.102 135.527V136.183C120.102 144.384 117.478 155.757 93.2031 155.757H29.5229V116.281Z"/>
<path d="M195.174 95.4013H165.651V176.759H195.174V95.4013Z"/>
<path d="M293.308 166.371C294.839 168.886 296.807 174.026 297.245 176.759H318.129V131.269H263.238V146.469H286.529C286.091 148.984 281.827 156.311 264.223 156.311C245.853 156.311 240.604 145.485 240.604 136.299V135.206C240.604 125.583 245.415 115.85 264.223 115.85C282.374 115.85 285.435 122.411 286.201 124.489H317.145V124.052C317.145 112.242 308.507 94.0891 266.081 94.0891H262.254C220.485 94.0891 209.988 116.725 209.988 134.659V136.846C209.988 155.436 220.922 177.962 258.318 177.962H260.177C281.062 177.962 290.684 169.214 293.308 166.371Z"/>
<path d="M364.743 95.4013H335.22V176.759H364.743V95.4013Z"/>
<path d="M379.01 117.819H411.595V176.759H441.008V117.819H473.593V95.4013H379.01V117.819Z"/>
<path d="M551.794 176.759H583.067L544.578 95.4013H505.979L468.365 176.759H497.778L503.683 163.528H545.78L551.794 176.759ZM512.321 144.5L524.677 116.725L537.252 144.5H512.321Z"/>
<path d="M591.816 95.4013V176.759H669.997V153.686H621.339V95.4013H591.816Z"/>
<path d="M0 270.726H28.4295V219.877L52.3758 270.726H70.9643L95.1294 219.877V270.726H123.996V189.368H85.0697L62.6542 235.842L40.676 189.368H0V270.726Z"/>
<path d="M191.107 187.946C147.807 187.946 138.841 211.348 138.731 228.188V231.468C138.731 248.09 147.807 272.147 191.107 272.147H196.028C239.546 272.147 248.403 248.09 248.403 231.468V228.188C248.403 211.348 239.437 187.946 196.028 187.946H191.107ZM217.568 229.063V230.265C217.568 238.139 214.069 249.73 193.622 249.73C173.284 249.73 169.566 238.139 169.566 230.265V229.063C169.566 221.299 172.956 210.035 193.513 210.035C214.179 210.035 217.568 221.299 217.568 229.063Z"/>
<path d="M337.57 270.726H365.89V189.368H337.133V234.858L293.286 189.368H263.216V270.726H291.974V223.814L337.57 270.726Z"/>
<path d="M458.113 270.726H489.386L450.897 189.368H412.298L374.684 270.726H404.097L410.002 257.494H452.1L458.113 270.726ZM418.64 238.467L430.996 210.691L443.571 238.467H418.64Z"/>
<path d="M498.135 270.726H526.565V219.877L550.511 270.726H569.099L593.265 219.877V270.726H622.131V189.368H583.205L560.789 235.842L538.811 189.368H498.135V270.726Z"/>
<path d="M669.998 189.368H640.475V270.726H669.998V189.368Z"/>
<path d="M0 363.804H96.797C142.066 363.804 151.032 342.699 151.032 324.109V320.828C151.032 302.457 141.191 282.446 96.797 282.446H0V363.804ZM29.5229 303.332H93.298C117.463 303.332 120.197 314.705 120.197 322.578V323.234C120.197 331.436 117.572 342.808 93.298 342.808H29.5229V303.332Z"/>
<path d="M195.177 282.439H165.654V363.797H195.177V282.439Z"/>
<path d="M293.311 353.409C294.842 355.924 296.81 361.063 297.248 363.797H318.132V318.307H263.242V333.507H286.532C286.094 336.022 281.83 343.348 264.226 343.348C245.856 343.348 240.607 332.522 240.607 323.337V322.243C240.607 312.62 245.418 302.888 264.226 302.888C282.377 302.888 285.438 309.449 286.204 311.527H317.148V311.089C317.148 299.279 308.51 281.127 266.084 281.127H262.257C220.488 281.127 209.991 303.763 209.991 321.697V323.884C209.991 342.473 220.925 365 258.321 365H260.18C281.065 365 290.687 356.252 293.311 353.409Z"/>
<path d="M364.746 282.439H335.223V363.797H364.746V282.439Z"/>
<path d="M379.013 304.856H411.598V363.797H441.011V304.856H473.596V282.439H379.013V304.856Z"/>
<path d="M551.797 363.797H583.07L544.581 282.439H505.982L468.368 363.797H497.781L503.686 350.566H545.783L551.797 363.797ZM512.324 331.538L524.68 303.763L537.255 331.538H512.324Z"/>
<path d="M591.819 282.439V363.797H670V340.724H621.342V282.439H591.819Z"/>
</mask>
<path d="M0 82.7797H28.4295V31.9309L52.3758 82.7797H70.9643L95.1294 31.9309V82.7797H123.996V1.42158H85.0697L62.6542 47.8963L40.676 1.42158H0V82.7797Z" stroke="white" stroke-width="2" mask="url(#path-1-inside-1)"/>
<path d="M191.107 0C147.807 0 138.841 23.4014 138.731 40.2416V43.5222C138.731 60.1437 147.807 84.2012 191.107 84.2012H196.028C239.546 84.2012 248.403 60.1437 248.403 43.5222V40.2416C248.403 23.4014 239.437 0 196.028 0H191.107ZM217.568 41.1165V42.3193C217.568 50.1927 214.069 61.784 193.622 61.784C173.284 61.784 169.566 50.1927 169.566 42.3193V41.1165C169.566 33.3524 172.956 22.0892 193.513 22.0892C214.179 22.0892 217.568 33.3524 217.568 41.1165Z" stroke="white" stroke-width="2" mask="url(#path-1-inside-1)"/>
<path d="M337.57 82.7797H365.89V1.42158H337.133V46.9121L293.286 1.42158H263.216V82.7797H291.974V35.8675L337.57 82.7797Z" stroke="white" stroke-width="2" mask="url(#path-1-inside-1)"/>
<path d="M458.113 82.7797H489.386L450.897 1.42158H412.298L374.684 82.7797H404.097L410.002 69.548H452.1L458.113 82.7797ZM418.64 50.5207L430.996 22.7453L443.571 50.5207H418.64Z" stroke="white" stroke-width="2" mask="url(#path-1-inside-1)"/>
<path d="M498.135 82.7797H526.565V31.9309L550.511 82.7797H569.099L593.265 31.9309V82.7797H622.131V1.42158H583.205L560.789 47.8963L538.811 1.42158H498.135V82.7797Z" stroke="white" stroke-width="2" mask="url(#path-1-inside-1)"/>
<path d="M669.998 1.42158H640.475V82.7797H669.998V1.42158Z" stroke="white" stroke-width="2" mask="url(#path-1-inside-1)"/>
<path d="M0 176.753H96.7022C141.971 176.753 150.937 155.648 150.937 137.058V133.777C150.937 115.406 141.096 95.3947 96.7022 95.3947H0V176.753ZM29.5229 116.281H93.2031C117.368 116.281 120.102 127.654 120.102 135.527V136.183C120.102 144.384 117.478 155.757 93.2031 155.757H29.5229V116.281Z" stroke="white" stroke-width="2" mask="url(#path-1-inside-1)"/>
<path d="M195.174 95.4013H165.651V176.759H195.174V95.4013Z" stroke="white" stroke-width="2" mask="url(#path-1-inside-1)"/>
<path d="M293.308 166.371C294.839 168.886 296.807 174.026 297.245 176.759H318.129V131.269H263.238V146.469H286.529C286.091 148.984 281.827 156.311 264.223 156.311C245.853 156.311 240.604 145.485 240.604 136.299V135.206C240.604 125.583 245.415 115.85 264.223 115.85C282.374 115.85 285.435 122.411 286.201 124.489H317.145V124.052C317.145 112.242 308.507 94.0891 266.081 94.0891H262.254C220.485 94.0891 209.988 116.725 209.988 134.659V136.846C209.988 155.436 220.922 177.962 258.318 177.962H260.177C281.062 177.962 290.684 169.214 293.308 166.371Z" stroke="white" stroke-width="2" mask="url(#path-1-inside-1)"/>
<path d="M364.743 95.4013H335.22V176.759H364.743V95.4013Z" stroke="white" stroke-width="2" mask="url(#path-1-inside-1)"/>
<path d="M379.01 117.819H411.595V176.759H441.008V117.819H473.593V95.4013H379.01V117.819Z" stroke="white" stroke-width="2" mask="url(#path-1-inside-1)"/>
<path d="M551.794 176.759H583.067L544.578 95.4013H505.979L468.365 176.759H497.778L503.683 163.528H545.78L551.794 176.759ZM512.321 144.5L524.677 116.725L537.252 144.5H512.321Z" stroke="white" stroke-width="2" mask="url(#path-1-inside-1)"/>
<path d="M591.816 95.4013V176.759H669.997V153.686H621.339V95.4013H591.816Z" stroke="white" stroke-width="2" mask="url(#path-1-inside-1)"/>
<path d="M0 270.726H28.4295V219.877L52.3758 270.726H70.9643L95.1294 219.877V270.726H123.996V189.368H85.0697L62.6542 235.842L40.676 189.368H0V270.726Z" stroke="white" stroke-width="2" mask="url(#path-1-inside-1)"/>
<path d="M191.107 187.946C147.807 187.946 138.841 211.348 138.731 228.188V231.468C138.731 248.09 147.807 272.147 191.107 272.147H196.028C239.546 272.147 248.403 248.09 248.403 231.468V228.188C248.403 211.348 239.437 187.946 196.028 187.946H191.107ZM217.568 229.063V230.265C217.568 238.139 214.069 249.73 193.622 249.73C173.284 249.73 169.566 238.139 169.566 230.265V229.063C169.566 221.299 172.956 210.035 193.513 210.035C214.179 210.035 217.568 221.299 217.568 229.063Z" stroke="white" stroke-width="2" mask="url(#path-1-inside-1)"/>
<path d="M337.57 270.726H365.89V189.368H337.133V234.858L293.286 189.368H263.216V270.726H291.974V223.814L337.57 270.726Z" stroke="white" stroke-width="2" mask="url(#path-1-inside-1)"/>
<path d="M458.113 270.726H489.386L450.897 189.368H412.298L374.684 270.726H404.097L410.002 257.494H452.1L458.113 270.726ZM418.64 238.467L430.996 210.691L443.571 238.467H418.64Z" stroke="white" stroke-width="2" mask="url(#path-1-inside-1)"/>
<path d="M498.135 270.726H526.565V219.877L550.511 270.726H569.099L593.265 219.877V270.726H622.131V189.368H583.205L560.789 235.842L538.811 189.368H498.135V270.726Z" stroke="white" stroke-width="2" mask="url(#path-1-inside-1)"/>
<path d="M669.998 189.368H640.475V270.726H669.998V189.368Z" stroke="white" stroke-width="2" mask="url(#path-1-inside-1)"/>
<path d="M0 363.804H96.797C142.066 363.804 151.032 342.699 151.032 324.109V320.828C151.032 302.457 141.191 282.446 96.797 282.446H0V363.804ZM29.5229 303.332H93.298C117.463 303.332 120.197 314.705 120.197 322.578V323.234C120.197 331.436 117.572 342.808 93.298 342.808H29.5229V303.332Z" stroke="white" stroke-width="2" mask="url(#path-1-inside-1)"/>
<path d="M195.177 282.439H165.654V363.797H195.177V282.439Z" stroke="white" stroke-width="2" mask="url(#path-1-inside-1)"/>
<path d="M293.311 353.409C294.842 355.924 296.81 361.063 297.248 363.797H318.132V318.307H263.242V333.507H286.532C286.094 336.022 281.83 343.348 264.226 343.348C245.856 343.348 240.607 332.522 240.607 323.337V322.243C240.607 312.62 245.418 302.888 264.226 302.888C282.377 302.888 285.438 309.449 286.204 311.527H317.148V311.089C317.148 299.279 308.51 281.127 266.084 281.127H262.257C220.488 281.127 209.991 303.763 209.991 321.697V323.884C209.991 342.473 220.925 365 258.321 365H260.18C281.065 365 290.687 356.252 293.311 353.409Z" stroke="white" stroke-width="2" mask="url(#path-1-inside-1)"/>
<path d="M364.746 282.439H335.223V363.797H364.746V282.439Z" stroke="white" stroke-width="2" mask="url(#path-1-inside-1)"/>
<path d="M379.013 304.856H411.598V363.797H441.011V304.856H473.596V282.439H379.013V304.856Z" stroke="white" stroke-width="2" mask="url(#path-1-inside-1)"/>
<path d="M551.797 363.797H583.07L544.581 282.439H505.982L468.368 363.797H497.781L503.686 350.566H545.783L551.797 363.797ZM512.324 331.538L524.68 303.763L537.255 331.538H512.324Z" stroke="white" stroke-width="2" mask="url(#path-1-inside-1)"/>
<path d="M591.819 282.439V363.797H670V340.724H621.342V282.439H591.819Z" stroke="white" stroke-width="2" mask="url(#path-1-inside-1)"/>
</svg>
