<svg width="1923" height="482" viewBox="0 0 1923 482" fill="none" xmlns="http://www.w3.org/2000/svg">
<path d="M400.472 160.196V320.594" stroke="#808080"/>
<path d="M1200.69 160.196V320.593" stroke="#808080"/>
<path d="M1760.35 320.267V480.664" stroke="#808080"/>
<path d="M918.832 320.301V480.698" stroke="#808080"/>
<path d="M879.722 319.999V480.396" stroke="#808080"/>
<path d="M838.611 320.301V480.698" stroke="#808080"/>
<path d="M320.491 480.501L480.446 320.514" stroke="#808080"/>
<path d="M1440.68 480.348L1600.64 320.361" stroke="#808080"/>
<path d="M1120.71 160.506L1280.67 0.519104" stroke="#808080"/>
<path d="M320.832 320.824L480.391 480.416" stroke="#808080"/>
<path d="M1441.02 320.672L1600.58 480.263" stroke="#808080"/>
<path d="M1121.05 0.82959L1280.61 160.421" stroke="#808080"/>
<path d="M480.065 320.071L640.597 480.644" stroke="#808080"/>
<path d="M1121.18 320.038L960.862 480.648" stroke="#808080"/>
<path d="M320.283 320.701L240.529 400.534M320.308 480.33L240.529 400.534M240.529 400.534H0.68146" stroke="#808080"/>
<path d="M1760.32 160.638L1680.57 240.471M1760.35 320.267L1680.57 240.471M1680.57 240.471H1440.72" stroke="#808080"/>
<rect x="320.478" y="160.493" width="159.989" height="160.001" stroke="#808080"/>
<rect x="-0.5" y="0.5" width="159.989" height="160.001" transform="matrix(-1 0 0 1 1280.19 319.842)" stroke="#808080"/>
<rect class="line line_2 line_2_1" x="-0.5" y="0.5" width="159.989" height="160.001" transform="matrix(-1 0 0 1 1280.19 319.842)" stroke="#808080"/>
<rect x="-0.5" y="0.5" width="320.977" height="160.001" transform="matrix(-1 0 0 1 1921.01 319.842)" stroke="#808080"/>
<rect x="1120.7" y="160.493" width="159.989" height="160.001" stroke="#808080"/>
<rect class="line line_2 line_2_2" x="1120.7" y="160.493" width="159.989" height="160.001"/>
<rect x="320.478" y="320.495" width="159.989" height="160.001" stroke="#808080"/>
<rect x="1440.54" y="320.436" width="159.989" height="159.908" stroke="#808080"/>
<rect class="line line_2 line_3_3" x="1440.54" y="320.436" width="159.989" height="159.908"/>
<rect x="1120.7" y="0.5" width="159.989" height="160.001" stroke="#808080"/>
<rect x="640.745" y="320.499" width="159.989" height="160.001" stroke="#808080"/>
<rect class="line line_2 line_2_4" x="640.745" y="320.499" width="159.989" height="160.001"/>
<rect x="960.719" y="160.493" width="159.989" height="160.001" stroke="#808080"/>
<rect class="line line_2 line_2_3" x="960.719" y="160.493" width="159.989" height="160.001"/>
<rect x="800.728" y="320.499" width="159.989" height="160.001" stroke="#808080"/>
<rect x="160.489" y="320.495" width="159.989" height="160.001" stroke="#808080"/>
<rect x="1600.53" y="160.432" width="159.989" height="160.001" stroke="#808080"/>
<rect class="line line_2 line_3_1" x="1600.53" y="160.432" width="159.989" height="160.001"/>
<rect x="0.5" y="320.495" width="159.989" height="160.001" stroke="#808080"/>
<rect class="line line_1 line_1_4" x="0.5" y="320.495" width="159.989" height="160.001"/>
<rect x="1440.54" y="160.432" width="159.989" height="160.001" stroke="#808080"/>
<rect x="160.489" y="160.493" width="159.989" height="160.001" stroke="#808080"/>
<rect x="-0.5" y="0.5" width="159.989" height="160.001" transform="matrix(-1 0 0 1 1440.18 319.842)" stroke="#808080"/>
<path d="M400.472 81.4852L479.752 160.138L321.191 160.138L400.472 81.4852Z" stroke="#808080"/>
<path class="line line_1 line_1_1" d="M400.472 81.4852L479.752 160.138L321.191 160.138L400.472 81.4852Z"/>
<path d="M320.477 240.494C320.477 284.677 284.663 320.495 240.483 320.495C196.303 320.495 160.489 284.677 160.489 240.494C160.489 196.311 196.303 160.493 240.483 160.493C284.663 160.493 320.477 196.311 320.477 240.494Z" stroke="#808080"/>
<path class="line line_1 line_1_2" d="M320.477 240.494C320.477 284.677 284.663 320.495 240.483 320.495C196.303 320.495 160.489 284.677 160.489 240.494C160.489 196.311 196.303 160.493 240.483 160.493C284.663 160.493 320.477 196.311 320.477 240.494Z"/>
<path d="M1280.69 400.343C1280.69 444.526 1316.5 480.343 1360.68 480.343C1404.86 480.343 1440.68 444.526 1440.68 400.343C1440.68 356.16 1404.86 320.342 1360.68 320.342C1316.5 320.342 1280.69 356.16 1280.69 400.343Z" stroke="#808080"/>
<path d="M0.504394 320.994C0.504394 276.815 36.3223 241 80.5059 241C124.689 241 160.507 276.815 160.507 320.994" stroke="#808080"/>
<path class="line line_1 line_1_3" d="M0.504394 320.994C0.504394 276.815 36.3223 241 80.5059 241C124.689 241 160.507 276.815 160.507 320.994"/>
<path d="M640.746 319.999C640.746 275.816 676.561 239.998 720.741 239.998C764.92 239.998 800.735 275.816 800.735 319.999" stroke="#808080"/>
<path d="M1922.01 480.934C1877.83 480.934 1842.01 445.117 1842.01 400.934C1842.01 356.75 1877.83 320.933 1922.01 320.933" stroke="#808080"/>
<path class="line line_1 line_3_2" d="M1922.01 480.934C1877.83 480.934 1842.01 445.117 1842.01 400.934C1842.01 356.75 1877.83 320.933 1922.01 320.933"/>
<path d="M800.735 319.946C800.735 408.589 728.881 480.449 640.245 480.449" stroke="#808080"/>
<path d="M960.862 320.994C960.862 232.346 1032.65 160.482 1121.21 160.482" stroke="#808080"/>
<path d="M1440.52 320.933C1440.52 232.285 1368.73 160.421 1280.18 160.421" stroke="#808080"/>
</svg>
