<svg width="328" height="246" viewBox="0 0 328 246" fill="none" xmlns="http://www.w3.org/2000/svg">
<g clip-path="url(#clip0)">
<path d="M123.416 81.8584V163.82" stroke="#808080"/>
<path d="M246.049 245.453L327.784 163.701" stroke="#808080"/>
<path d="M82.9375 81.9375L164.283 0.265625" stroke="#808080"/>
<path d="M246.225 163.859L327.758 245.409" stroke="#808080"/>
<path d="M82.7231 0.424316L163.812 82" stroke="#808080"/>
<path d="M82.786 163.536L0.609375 245.672" stroke="#808080"/>
<path d="M409.382 82.084L368.628 122.878M409.395 163.653L368.628 122.878M368.628 122.878H246.069" stroke="#808080"/>
<rect x="-0.5" y="0.5" width="81.2635" height="81.2699" transform="matrix(-1 0 0 1 163.549 163.436)" stroke="#808080"/>
<rect x="82.7852" y="82.2539" width="81.2635" height="81.6836" stroke="#808080"/>
<rect x="246.188" y="163.936" width="81.2976" height="81.27" stroke="#808080"/>
<rect x="82.7852" y="0.5" width="81.2635" height="81.875" stroke="#808080"/>
<rect x="0.5" y="82.5" width="82.1875" height="81.4375" stroke="#808080"/>
<path d="M1 163V246" stroke="#808080"/>
<path d="M327.472 81.7231V163.993" stroke="#808080"/>
<rect x="246.222" y="82.2231" width="81.2635" height="81.7144" stroke="#808080"/>
<rect x="-0.5" y="0.5" width="82" height="81.2699" transform="matrix(-1 0 0 1 245.625 163.436)" stroke="#808080"/>
<path d="M164.537 204.571C164.537 227.013 182.729 245.206 205.169 245.206C227.609 245.206 245.801 227.013 245.801 204.571C245.801 182.129 227.609 163.936 205.169 163.936C182.729 163.936 164.537 182.129 164.537 204.571Z" stroke="#808080"/>
<path d="M0.867187 164.024C0.867187 119.207 37.5508 82.875 82.8023 82.875" stroke="#808080"/>
<path d="M245.969 163.993C245.969 118.882 209.285 82.3125 164.034 82.3125" stroke="#808080"/>
<path d="M327.664 122.655H245.703V81.7589H327.664V122.655Z" stroke="#0000FF" stroke-width="2" stroke-dasharray="5 5"/>
<rect x="-1" y="1" width="80.2635" height="80.2699" transform="matrix(-1 0 0 1 162.549 163.436)" stroke="#0000FF" stroke-width="2" stroke-dasharray="5 5"/>
</g>
<defs>
<clipPath id="clip0">
<rect width="328" height="246" fill="white"/>
</clipPath>
</defs>
</svg>
