<svg width="1233" height="396" viewBox="0 0 1233 396" fill="none" xmlns="http://www.w3.org/2000/svg">
<path d="M359.398 0C438.989 0 455.343 42.9006 455.343 73.7137V79.7574C455.343 110.174 439.088 154.264 359.398 154.264H350.379C270.986 154.264 254.434 110.174 254.434 79.7574V73.7137C254.632 42.9006 271.085 0 350.379 0H359.398ZM354.839 38.7393C314.201 38.7393 307.263 59.5456 307.263 75.2989V77.4786C307.263 94.2227 314.201 115.029 355.037 115.128C393.495 115.227 402.415 96.2043 402.415 77.4786V75.2989C402.415 59.5456 395.477 38.7393 354.839 38.7393Z"/>
<path d="M482.7 308.726V336.963C482.7 336.963 482.7 336.963 528.294 336.765C522.743 347.762 510.155 355.986 484.781 355.986C443.945 355.887 437.007 335.08 437.007 318.336V316.057C437.007 300.304 443.945 279.498 484.583 279.498C508.966 279.498 521.256 287.028 527.104 296.44C542.071 296.341 570.815 296.341 583.105 296.44C576.861 269.194 553.866 240.759 489.142 240.759H480.123C400.73 240.759 384.376 283.659 384.178 314.472V320.516C384.178 350.933 400.829 395.022 480.123 395.022H489.142C568.932 395.022 585.088 350.933 585.088 320.516V314.472C585.088 312.59 584.889 308.726 584.889 308.726H482.7V308.726Z"/>
<path d="M1177.9 154.66V0.0991211H1232.02V154.66H1177.9Z"/>
<path d="M0.296875 241.155H178.212C259.587 241.155 277.626 277.813 277.626 311.5C277.626 313.977 277.626 318.931 277.626 321.507C277.626 355.589 261.172 394.23 178.212 394.23H0.296875V241.155ZM52.4323 355.688H174.842C219.345 355.688 225.094 334.882 225.094 319.822C225.094 318.534 225.094 315.958 225.094 314.67C225.094 300.205 219.048 279.399 174.842 279.399H52.4323V355.688Z"/>
<path d="M358.604 394.131H304.486V241.155H358.604V394.131Z"/>
<path d="M669.237 394.131H615.119V241.155H669.237V394.131Z"/>
<path d="M695.305 241.155H868.66V280.191H808V394.131H755.072V280.191H695.404V241.155H695.305Z"/>
<path d="M1144.4 355.787H1232.02V394.428H1091.28V240.857H1144.3L1144.4 355.787Z"/>
<path d="M680.635 52.6102L704.721 0.0991211H652.189L628.104 52.6102H680.635Z" class="change-fill"/>
<path d="M671.021 52.6102H618.489V86.792L535.429 0.0991211H482.699V154.66H535.231V65.1931L621.165 154.66H671.021V52.6102Z"/>
<path d="M156.109 0.0991211L113.984 87.5846L71.7606 0.0991211H0V154.66H52.5319V64.2023L96.1433 154.66H131.627L174.446 65.9857V154.66H226.978V0.0991211H156.109Z"/>
<path d="M1072.94 0.0991211L1030.81 87.5846L988.591 0.0991211H916.83V154.66H969.362V64.2023L1012.97 154.66H1048.46L1091.28 65.9857V154.66H1143.81V0.0991211H1072.94Z"/>
<path d="M1073.14 394.428L1004.15 240.857H929.519L860.533 394.428H909.992L920.697 370.649H1013.07L1023.78 394.428H1073.14ZM938.043 332.009L966.886 267.906L995.729 332.009H938.043Z"/>
<path d="M831.689 0.0991211H782.923L823.165 91.2505H716.019L688.068 153.669H737.528L748.232 129.891H840.51L851.215 153.669H900.674L831.689 0.0991211Z"/>
</svg>
