<svg width="483" height="72" viewBox="0 0 483 72" fill="none" xmlns="http://www.w3.org/2000/svg">
<path fill-rule="evenodd" clip-rule="evenodd" d="M31.7143 17.563V68.8831H54.9519V17.563H84.9949V1.69396H1.67129V17.563H31.7143ZM30.043 19.2569V70.5771H56.6232V19.2569H86.6662V0H0V19.2569H30.043ZM118.259 0H92.8024V70.5771H118.259V46.8617C118.259 43.2569 119.414 40.2846 121.722 37.9447C124.031 35.6047 127.338 34.4348 131.643 34.4348C136.011 34.4348 139.13 35.5415 141.002 37.7549C142.874 39.9684 143.81 42.7826 143.81 46.1976V70.5771H169.361V37.7549C169.361 35.7312 168.955 33.581 168.144 31.3043C167.333 29.0277 165.96 26.9407 164.026 25.0435C162.154 23.1462 159.627 21.5652 156.445 20.3004C153.263 19.0356 149.332 18.4032 144.652 18.4032H144.091C140.16 18.4032 136.697 18.8459 133.702 19.7312C130.77 20.5534 128.243 21.5336 126.121 22.6719C124 23.747 122.284 24.8538 120.974 25.9921C120.594 26.3189 120.247 26.6223 119.931 26.9024C119.207 27.5436 118.65 28.0623 118.259 28.4585V0ZM167.689 68.8831V37.7549C167.689 35.9616 167.33 34.0071 166.572 31.8797C165.858 29.8751 164.638 28.0014 162.864 26.2608L162.854 26.2511L162.844 26.2413C161.175 24.5495 158.862 23.0808 155.835 21.8774C152.904 20.7127 149.195 20.0971 144.652 20.0971H144.091C140.279 20.0971 136.979 20.5269 134.17 21.3574L134.148 21.364C131.302 22.1617 128.894 23.101 126.903 24.169L126.886 24.1783L126.869 24.1871C124.827 25.2215 123.237 26.2565 122.061 27.2782L122.056 27.2828C120.814 28.3524 119.953 29.138 119.441 29.6563L116.588 32.5481V1.69396H94.4736V68.8831H116.588V46.8617C116.588 42.8519 117.889 39.4344 120.541 36.7469C123.253 33.9978 127.041 32.7408 131.643 32.7408C136.244 32.7408 139.947 33.904 142.271 36.6525C144.446 39.2243 145.481 42.4513 145.481 46.1976V68.8831H167.689ZM223.487 44.4605V48.664C223.487 50.302 223.06 51.8771 222.25 53.3697C221.435 54.8715 220.271 56.183 218.804 57.3158L218.783 57.3316L218.762 57.3468C217.29 58.4128 215.542 59.2727 213.546 59.9469L213.522 59.9551L213.498 59.9624C211.445 60.5866 209.19 60.8876 206.747 60.8876C205.087 60.8876 203.607 60.7208 202.345 60.3445L202.331 60.3405L202.318 60.3362C201.179 59.9756 200.166 59.4801 199.339 58.8089L199.305 58.7815L199.272 58.7522C198.54 58.0924 197.971 57.3119 197.614 56.4078C197.301 55.6137 197.12 54.7988 197.12 53.9763V53.8814C197.12 52.1231 197.811 50.6111 199.269 49.6261L199.289 49.6123L199.31 49.5991C200.589 48.7885 202.44 48.2389 204.68 47.8493C204.682 47.8489 204.684 47.8485 204.686 47.8482L223.487 44.4605ZM204.969 49.5178C202.785 49.8972 201.194 50.4032 200.196 51.0356C199.26 51.668 198.792 52.6166 198.792 53.8814V53.9763C198.792 54.5455 198.916 55.1462 199.166 55.7787C199.416 56.4111 199.821 56.9802 200.383 57.4862C201.007 57.9921 201.818 58.4032 202.816 58.7194C203.877 59.0356 205.187 59.1937 206.747 59.1937C209.056 59.1937 211.146 58.9091 213.018 58.3399C214.89 57.7075 216.481 56.917 217.791 55.9684C219.101 54.9565 220.1 53.8182 220.786 52.5534C221.472 51.2885 221.815 49.9921 221.815 48.664V46.4822L204.969 49.5178ZM223.385 60.2348L223.931 63.4608C224.249 65.3445 224.984 66.6538 226.045 67.5495C227.129 68.4022 228.549 68.8831 230.426 68.8831H249.906V57.3778H248.863C247.864 57.3778 246.609 57.1815 245.801 56.1991L245.744 56.1296L245.695 56.0543C245.189 55.2859 245.04 54.3683 245.04 53.502V34.6245C245.04 33.6113 244.928 32.5216 244.698 31.352L244.69 31.3117L244.684 31.271C244.534 30.2631 244.158 29.2499 243.52 28.2247L243.493 28.1814L243.468 28.1365C242.934 27.1512 242.04 26.1609 240.691 25.1926L240.677 25.1827L240.663 25.1725C239.424 24.2439 237.641 23.3652 235.244 22.5754L235.22 22.5675L235.196 22.5588C232.923 21.7319 229.97 21.0888 226.301 20.6549L226.286 20.653L226.27 20.6509C222.687 20.1584 218.305 19.9074 213.111 19.9074H207.87C200.379 19.9074 194.614 20.4747 190.509 21.56C186.311 22.6702 183.314 24.0176 181.384 25.5238C179.466 27.0695 178.386 28.6473 177.943 30.2286C177.587 31.6294 177.373 32.94 177.291 34.1637H197.87C197.895 34.0836 197.921 34.0026 197.948 33.9208C198.263 32.8796 198.946 32.023 199.792 31.3214L199.82 31.2987L199.848 31.2772C200.854 30.5126 202.223 29.9693 203.815 29.5661C205.507 29.1372 207.756 28.9464 210.491 28.9464H210.865C213.38 28.9464 215.444 29.0717 217.012 29.3447C218.503 29.544 219.798 29.8584 220.785 30.3584C221.665 30.8046 222.529 31.4658 222.952 32.4704C223.288 33.1007 223.487 33.7928 223.487 34.5296C223.487 35.6198 223.128 36.6379 222.342 37.435C221.541 38.2473 220.319 38.5453 219.203 38.6784L219.179 38.6812L194.906 40.866C191.242 41.1754 188.186 41.7282 185.715 42.5036L185.703 42.5075L185.69 42.5111C183.274 43.228 181.386 44.1591 179.969 45.2636L179.953 45.2763L179.936 45.2886C178.533 46.3282 177.547 47.5516 176.927 48.9586C176.348 50.3531 176.035 52.0141 176.035 53.9763V55.1146C176.035 56.9649 176.392 58.7592 177.113 60.5095C177.867 62.1919 179.063 63.7535 180.756 65.1859C182.425 66.5362 184.622 67.6793 187.398 68.5788C190.126 69.4003 193.538 69.8317 197.669 69.8317H198.698C202.236 69.8317 205.267 69.553 207.809 69.0139L207.816 69.0123C210.487 68.4586 212.677 67.7927 214.412 67.0307C216.206 66.243 217.567 65.4557 218.543 64.6866L218.56 64.6731L218.578 64.66C219.734 63.7965 220.563 63.0951 221.102 62.5492L223.385 60.2348ZM186.906 70.1976C183.973 69.249 181.571 68.0158 179.699 66.498C177.827 64.917 176.454 63.1462 175.581 61.1858C174.77 59.2253 174.364 57.2016 174.364 55.1146V53.9763C174.364 51.8261 174.707 49.9289 175.394 48.2846C176.142 46.5771 177.328 45.1225 178.95 43.9209C180.572 42.6561 182.663 41.6443 185.221 40.8854C187.841 40.0632 191.024 39.4941 194.767 39.1779L219.008 36.996C220.068 36.8696 220.786 36.6166 221.16 36.2372C221.597 35.7945 221.815 35.2253 221.815 34.5296C221.815 34.087 221.691 33.6443 221.441 33.2016C221.254 32.6957 220.786 32.253 220.037 31.8735C219.288 31.4941 218.196 31.2095 216.761 31.0198C215.326 30.7668 213.361 30.6403 210.865 30.6403H210.491C207.808 30.6403 205.717 30.83 204.22 31.2095C202.723 31.5889 201.599 32.0632 200.851 32.6324C200.164 33.2016 199.728 33.8024 199.54 34.4348C199.353 35.004 199.228 35.4783 199.166 35.8577H175.581V35.2885C175.581 34.9195 175.593 34.5446 175.616 34.1637C175.7 32.7824 175.938 31.3233 176.33 29.7866C176.891 27.7628 178.233 25.8972 180.354 24.1897C182.538 22.4822 185.782 21.0593 190.088 19.9209C194.393 18.7826 200.32 18.2134 207.87 18.2134H213.111C218.352 18.2134 222.814 18.4664 226.495 18.9723C230.239 19.415 233.327 20.0791 235.761 20.9644C238.256 21.7866 240.222 22.7352 241.657 23.8103C243.154 24.8854 244.246 26.0553 244.933 27.3202C245.681 28.5217 246.149 29.7549 246.336 31.0198C246.586 32.2846 246.711 33.4862 246.711 34.6245V53.502C246.711 54.1976 246.836 54.7352 247.085 55.1146C247.397 55.4941 247.99 55.6838 248.863 55.6838H251.578V70.5771H230.426C228.242 70.5771 226.433 70.0079 224.997 68.8696C223.994 68.0296 223.25 66.9425 222.765 65.6082C222.557 65.0336 222.396 64.4133 222.283 63.747C221.906 64.1293 221.426 64.5578 220.844 65.0325C220.463 65.3431 220.038 65.6735 219.569 66.0237C218.446 66.9091 216.949 67.7628 215.077 68.585C213.205 69.4071 210.896 70.1028 208.151 70.6719C205.468 71.2411 202.317 71.5257 198.698 71.5257H197.669C193.426 71.5257 189.838 71.083 186.906 70.1976ZM281.219 19.5415H255.949V70.5771H281.406V46.8617C281.406 43.2569 282.56 40.2846 284.869 37.9447C287.177 35.6047 290.484 34.4348 294.789 34.4348C299.157 34.4348 302.277 35.5415 304.149 37.7549C306.02 39.9684 306.956 42.7826 306.956 46.1976V70.5771H332.507V37.7549C332.507 35.7312 332.101 33.581 331.29 31.3043C330.479 29.0277 329.106 26.9407 327.172 25.0435C325.3 23.1462 322.773 21.5652 319.591 20.3004C316.409 19.0356 312.478 18.4032 307.799 18.4032H307.237C303.306 18.4032 299.843 18.8142 296.848 19.6364C293.916 20.4585 291.389 21.4387 289.267 22.5771C287.146 23.7154 285.43 24.8538 284.12 25.9921C283.669 26.3836 283.259 26.7414 282.89 27.0655C282.185 27.684 281.628 28.1799 281.219 28.5534V19.5415ZM297.29 21.2702C294.446 22.0676 292.039 23.0066 290.049 24.0742C287.998 25.1748 286.395 26.2462 285.208 27.2782C283.899 28.4149 282.945 29.2577 282.337 29.8125L279.547 32.3569V21.2355H257.62V68.8831H279.734V46.8617C279.734 42.8519 281.035 39.4344 283.687 36.7469C286.399 33.9978 290.187 32.7408 294.789 32.7408C299.39 32.7408 303.093 33.904 305.418 36.6525C307.592 39.2243 308.628 42.4513 308.628 46.1976V68.8831H330.836V37.7549C330.836 35.9616 330.476 34.0071 329.718 31.8797C329.004 29.8751 327.785 28.0014 326.01 26.2608L326 26.2511L325.99 26.2413C324.321 24.5495 322.009 23.0808 318.981 21.8774C316.051 20.7127 312.341 20.0971 307.799 20.0971H307.237C303.419 20.0971 300.109 20.4967 297.29 21.2702ZM365.401 0H339.944V70.5771H365.401V47.6206L384.119 70.5771H413.039L389.548 42.1186L410.044 19.5415H382.622L365.401 39.4625V0ZM383.38 21.2355L364.172 43.4544L384.906 68.8831H409.462L387.325 42.0655L406.235 21.2355H383.38ZM363.73 1.69396H341.615V68.8831H363.73V1.69396ZM430.391 69.3796L430.404 69.3821C433.902 69.9933 438.138 70.306 443.13 70.306H448.277C455.584 70.306 461.418 69.834 465.817 68.9178C470.269 67.9907 473.573 66.7812 475.831 65.354C478.127 63.839 479.49 62.2248 480.135 60.5649L480.139 60.5528L480.144 60.5408C480.934 58.5965 481.329 56.5707 481.329 54.4506V53.7866C481.329 51.4228 480.979 49.4311 480.325 47.7754L480.313 47.7443L480.302 47.7127C479.763 46.1724 478.668 44.8075 476.862 43.6426L476.837 43.6264L476.812 43.6093C475.065 42.3917 472.523 41.3794 469.085 40.6458C465.662 39.9154 461.154 39.4466 455.528 39.2584C455.526 39.2584 455.524 39.2583 455.522 39.2583L444.948 38.9737C442.979 38.9093 441.317 38.7796 439.981 38.5764L439.932 38.569L439.884 38.5588C438.642 38.2937 437.573 37.9783 436.729 37.5896C435.874 37.1956 435.057 36.6206 434.566 35.7495C434.173 35.053 433.971 34.2893 433.971 33.4862V33.3913C433.971 32.5624 434.156 31.7605 434.566 31.0331C435.077 30.1269 435.932 29.5826 436.813 29.2517C437.758 28.8586 438.912 28.6182 440.214 28.484C441.628 28.282 443.387 28.1875 445.47 28.1875H445.563C447.855 28.1875 449.794 28.3765 451.312 28.8089C452.739 29.1411 453.989 29.6051 454.927 30.2826C455.789 30.848 456.525 31.6113 456.872 32.6335C456.908 32.7326 456.943 32.8316 456.976 32.9305H479.41C479.282 31.5416 478.892 30.1799 478.229 28.8366L478.219 28.8161L478.21 28.7954C477.523 27.3032 476.162 25.8535 473.915 24.5105L473.901 24.5024L473.888 24.4941C471.687 23.121 468.529 21.9715 464.324 21.1068C460.169 20.2524 454.77 19.8125 448.09 19.8125H443.13C436.261 19.8125 430.735 20.2527 426.517 21.1077L426.499 21.1114C422.297 21.9137 419.189 23.0307 417.068 24.3887L417.054 24.3974L417.041 24.4057C414.868 25.7385 413.528 27.1822 412.832 28.6802C412.119 30.356 411.763 32.1113 411.763 33.9605V34.5296C411.763 36.2063 412.064 37.8605 412.675 39.5012C413.288 40.9906 414.411 42.4325 416.155 43.804C417.875 45.0935 420.318 46.2499 423.562 47.2255C426.755 48.1225 430.941 48.6809 436.162 48.8681C436.165 48.8682 436.167 48.8683 436.169 48.8684L446.831 49.1527C448.917 49.2168 450.642 49.3458 451.982 49.5492C453.37 49.7506 454.595 50.0718 455.536 50.5919C456.376 51.0565 457.159 51.7217 457.559 52.681C457.938 53.4048 458.091 54.2058 458.091 55.0198V55.2095C458.091 56.0399 457.907 56.837 457.54 57.5797C457.071 58.5319 456.23 59.1872 455.322 59.6519C454.404 60.1528 453.178 60.5039 451.758 60.7654C450.246 61.0441 448.325 61.1722 446.031 61.1722H445.844C443.397 61.1722 441.33 60.947 439.722 60.4284L439.689 60.418L439.657 60.4062C438.185 59.8634 436.928 59.2119 435.976 58.4081L435.918 58.3589L435.865 58.3045C435.044 57.4732 434.41 56.5306 434.124 55.4655C434.074 55.2791 434.028 55.0943 433.988 54.9114H411.238C411.287 55.6413 411.389 56.4222 411.545 57.2556C411.749 58.2873 412.194 59.4296 412.925 60.6877C413.621 61.8217 414.64 62.9804 416.029 64.1532C417.34 65.2607 419.155 66.2839 421.535 67.1886C423.893 68.0847 426.832 68.82 430.377 69.3775L430.391 69.3796ZM409.905 57.581C409.729 56.6439 409.615 55.754 409.563 54.9114C409.541 54.5598 409.53 54.2165 409.53 53.8814V53.2174H435.455C435.455 53.7233 435.549 54.3241 435.736 55.0198C435.923 55.7154 436.36 56.4111 437.046 57.1067C437.795 57.7391 438.856 58.3083 440.228 58.8142C441.601 59.2569 443.473 59.4783 445.844 59.4783H446.031C448.277 59.4783 450.087 59.3518 451.46 59.0988C452.832 58.8458 453.862 58.5296 454.548 58.1502C455.297 57.7707 455.796 57.3281 456.046 56.8221C456.295 56.3162 456.42 55.7787 456.42 55.2095V55.0198C456.42 54.3873 456.295 53.8498 456.046 53.4071C455.858 52.9012 455.422 52.4585 454.735 52.079C454.049 51.6996 453.051 51.415 451.74 51.2253C450.492 51.0356 448.839 50.9091 446.78 50.8459L436.11 50.5613C430.807 50.3715 426.47 49.8024 423.101 48.8538C419.732 47.8419 417.08 46.6087 415.146 45.1542C413.212 43.6364 411.87 41.9605 411.121 40.1265C410.435 38.2925 410.092 36.4269 410.092 34.5296V33.9605C410.092 31.8735 410.497 29.8814 411.309 27.9842C412.182 26.087 413.804 24.4111 416.175 22.9565C418.546 21.4387 421.884 20.2688 426.19 19.4466C430.557 18.5613 436.204 18.1186 443.13 18.1186H448.09C454.829 18.1186 460.351 18.5613 464.656 19.4466C468.961 20.332 472.331 21.5336 474.764 23.0514C477.197 24.5059 478.851 26.1818 479.724 28.0791C480.501 29.6527 480.955 31.2699 481.087 32.9305C481.115 33.272 481.128 33.6153 481.128 33.9605V34.6245H455.671C455.609 34.1818 455.484 33.7075 455.297 33.2016C455.11 32.6324 454.673 32.1265 453.986 31.6838C453.3 31.1779 452.271 30.7668 450.898 30.4506C449.588 30.0711 447.809 29.8814 445.563 29.8814H445.47C443.411 29.8814 441.726 29.9763 440.416 30.166C439.168 30.2925 438.169 30.5138 437.421 30.83C436.734 31.083 436.266 31.4308 436.017 31.8735C435.767 32.3162 435.642 32.8221 435.642 33.3913V33.4862C435.642 33.9921 435.767 34.4664 436.017 34.9091C436.266 35.3518 436.734 35.7312 437.421 36.0474C438.107 36.3636 439.043 36.6482 440.228 36.9012C441.476 37.0909 443.067 37.2174 445.002 37.2806L455.578 37.5652C461.255 37.7549 465.873 38.2292 469.429 38.9881C472.986 39.747 475.762 40.8221 477.759 42.2134C479.818 43.5415 481.191 45.1858 481.877 47.1462C482.626 49.0435 483 51.2569 483 53.7866V54.4506C483 56.7905 482.563 59.0356 481.69 61.1858C480.879 63.2727 479.225 65.1383 476.729 66.7826C474.234 68.3636 470.708 69.6285 466.153 70.5771C461.599 71.5257 455.64 72 448.277 72H443.13C438.076 72 433.739 71.6838 430.121 71.0514C426.502 70.4822 423.444 69.7233 420.948 68.7747C418.453 67.8261 416.456 66.7194 414.959 65.4546C413.461 64.1897 412.307 62.8933 411.496 61.5652C410.685 60.1739 410.154 58.8458 409.905 57.581Z" fill="#0000FF"/>
</svg>
