<?xml version="1.0" standalone="no"?>
<!DOCTYPE svg PUBLIC "-//W3C//DTD SVG 1.1//EN" "http://www.w3.org/Graphics/SVG/1.1/DTD/svg11.dtd" >
<svg>
<metadata>
Created by FontForge 20120731 at Thu Aug 22 00:34:07 2019
 By www
Copyright (C)2017 Commercial Type.
</metadata>
<defs>
<font id="DrukWideCyWeb-Bold" horiz-adv-x="706" >
  <font-face 
    font-family="Druk Wide Cy Web Bold"
    font-weight="700"
    font-stretch="normal"
    units-per-em="1000"
    panose-1="0 0 0 0 0 0 0 0 0 0"
    ascent="800"
    descent="-200"
    x-height="538"
    cap-height="744"
    bbox="-114 -299 2647 1201"
    underline-thickness="84"
    underline-position="64"
    unicode-range="U+000D-FB04"
  />
<missing-glyph horiz-adv-x="304" 
 />
    <glyph glyph-name="f_f" unicode="ff" horiz-adv-x="972" 
d="M119 0v373h-106v165h106v53q0 32 9.5 60t32 48.5t60.5 32.5t95 12h193v-144h-83q-23 0 -30 -9.5t-7 -29.5v-23h172v53q0 32 9.5 60t32 48.5t60.5 32.5t95 12h194v-144h-84q-23 0 -30 -9.5t-7 -29.5v-23h121v-165h-121v-373h-270v373h-172v-373h-270z" />
    <glyph glyph-name="f_i" unicode="fi" horiz-adv-x="872" 
d="M832 583h-272v161h272v-161zM832 0h-272v538h272v-538zM507 600h-81q-23 0 -30 -9.5t-7 -29.5v-23h118v-165h-118v-373h-270v373h-106v165h106v53q0 32 9.5 60t32 48.5t60.5 32.5t95 12h191v-144z" />
    <glyph glyph-name="f_l" unicode="fl" horiz-adv-x="872" 
d="M507 600h-81q-23 0 -30 -9.5t-7 -29.5v-23h118v-165h-118v-373h-270v373h-106v165h106v53q0 32 9.5 60t32 48.5t60.5 32.5t95 12h191v-144zM832 0h-272v744h272v-744z" />
    <glyph glyph-name="emdash.alt" unicode="&#x2014;&#x2014;" horiz-adv-x="2680" 
d="M2647 227h-2614v142h2614v-142z" />
    <glyph glyph-name=".notdef" horiz-adv-x="304" 
 />
    <glyph glyph-name=".null" horiz-adv-x="0" 
 />
    <glyph glyph-name="nonmarkingreturn" unicode="&#xd;" horiz-adv-x="304" 
 />
    <glyph glyph-name="NULL" horiz-adv-x="0" 
 />
    <glyph glyph-name="NULL" horiz-adv-x="0" 
 />
    <glyph glyph-name="space" unicode=" " horiz-adv-x="304" 
 />
    <glyph glyph-name="exclam" unicode="!" horiz-adv-x="381" 
d="M365 744l-92 -504h-166l-91 504h349zM332 0h-283v195h283v-195z" />
    <glyph glyph-name="quotedbl" unicode="&#x22;" horiz-adv-x="542" 
d="M510 482h-217v262h217v-262zM248 482h-216v262h216v-262z" />
    <glyph glyph-name="numbersign" unicode="#" horiz-adv-x="835" 
d="M503 451h-138l-35 -124h138zM434 203h-138l-57 -203h-166l57 203h-127l34 124h127l34 124h-127l35 124h127l47 169h167l-48 -169h139l47 169h167l-48 -169h128l-35 -124h-127l-35 -124h128l-35 -124h-128l-57 -203h-166z" />
    <glyph glyph-name="dollar" unicode="$" horiz-adv-x="1007" 
d="M310 537q0 -10 5 -19.5t19 -17t40.5 -13.5t69.5 -9v119q-47 -2 -73.5 -7t-40 -13t-17 -18t-3.5 -20v-2zM693 229q0 13 -5 24t-21 19.5t-46 14.5t-80 9v-145q51 2 81 9.5t45.5 18t20.5 22.5t5 24v4zM444 -75v62q-146 2 -232 30t-130 68t-56.5 84.5t-12.5 80.5v11h292
q0 -15 5 -31.5t20 -32t42 -27.5t72 -17v146l-70 3q-104 3 -171.5 22t-107.5 49t-56 68.5t-16 81.5v9q0 45 18 85t65.5 70.5t129 48t208.5 17.5v59h97v-59q129 -2 211.5 -22t130 -52t65.5 -73t18 -84v-9h-289q-1 11 -5.5 24t-18.5 25t-40.5 21t-71.5 13v-122l73 -3
q102 -3 174 -17t117.5 -40.5t66 -66t20.5 -94.5v-14q0 -48 -17 -93.5t-65.5 -80.5t-137 -56.5t-231.5 -21.5v-62h-97z" />
    <glyph glyph-name="percent" unicode="%" horiz-adv-x="1451" 
d="M320 321q-96 0 -154.5 22t-90 54t-42 68.5t-10.5 65.5v16q0 29 10.5 64.5t42.5 67t90 52.5t154 21h22q96 0 154 -21t89.5 -52.5t42 -67t10.5 -64.5v-16q0 -29 -10.5 -65.5t-42 -68.5t-89.5 -54t-154 -22h-22zM1240 744l-816 -744h-215l816 744h215zM330 453q32 0 54 7
t35.5 19t19.5 26.5t6 29.5v6q0 16 -5.5 30.5t-19 26t-35.5 18t-55 6.5q-32 0 -54 -6.5t-35.5 -18t-19 -26t-5.5 -30.5v-5q0 -15 6 -30t19.5 -27t35 -19t53.5 -7zM1108 -8q-95 0 -153.5 22t-90 54t-42 68.5t-10.5 65.5v16q0 29 10.5 65t42.5 67.5t90 52.5t154 21h22
q96 0 154 -21t90 -52.5t42.5 -67.5t10.5 -65v-16q0 -29 -10.5 -65.5t-42 -68.5t-89.5 -54t-154 -22h-24zM1120 124q32 0 54 7t35.5 19t19.5 26.5t6 29.5v7q0 16 -6 30.5t-19.5 25.5t-35.5 17.5t-54 6.5q-33 0 -55 -6.5t-35.5 -17.5t-19 -25.5t-5.5 -30.5v-5q0 -16 6 -31
t19.5 -27t35.5 -19t54 -7z" />
    <glyph glyph-name="ampersand" unicode="&#x26;" horiz-adv-x="1144" 
d="M412 577q0 -26 24 -48.5t78 -59.5q54 17 88.5 39t34.5 55q0 15 -5.5 27t-19 20.5t-36.5 13.5t-59 5q-32 0 -52 -4t-32 -11t-16.5 -16.5t-4.5 -20.5zM500 139q77 0 133 12l-281 185q-22 -11 -39 -30.5t-17 -50.5v-3q0 -21 10.5 -41t34.5 -36t63 -26t96 -10zM1081 -11
q-47 0 -85.5 3.5t-71.5 10.5t-62 17t-56 24q-54 -24 -133 -41t-193 -17q-138 0 -228 18.5t-143.5 49t-75 70t-21.5 81.5v10q0 75 61.5 121t181.5 65q-53 40 -76.5 82t-23.5 87v8q0 33 13.5 66t50.5 58.5t103 41.5t171 16h56q103 0 166 -16.5t97.5 -42t46 -55.5t11.5 -57v-5
q0 -30 -12.5 -57.5t-42 -50.5t-78.5 -42t-122 -32l195 -131q29 48 37.5 97t8.5 83h245q-1 -70 -29.5 -138.5t-82.5 -128.5q34 -8 72.5 -11t89.5 -3z" />
    <glyph glyph-name="quotesingle" unicode="'" horiz-adv-x="281" 
d="M249 482h-217v262h217v-262z" />
    <glyph glyph-name="parenleft" unicode="(" horiz-adv-x="361" 
d="M27 341q0 78 17 146t45.5 126.5t65.5 107t77 87.5h136q-57 -91 -94 -209t-37 -258t37.5 -260t93.5 -212h-136q-41 40 -78 89t-65.5 107.5t-45 127.5t-16.5 148z" />
    <glyph glyph-name="parenright" unicode=")" horiz-adv-x="361" 
d="M-6 -131q55 93 92.5 212.5t37.5 259.5t-37 258t-93 209h135q40 -39 77 -87.5t65.5 -107t45.5 -126.5t17 -146q0 -79 -16.5 -148t-44.5 -127.5t-65.5 -107.5t-78.5 -89h-135v0z" />
    <glyph glyph-name="asterisk" unicode="*" horiz-adv-x="470" 
d="M386 713l68 -127l-135 -34l135 -36l-68 -127l-99 81l31 -116h-166l33 116l-100 -81l-69 127l134 36l-134 34l69 127l98 -84l-31 115h166l-30 -115z" />
    <glyph glyph-name="plus" unicode="+" horiz-adv-x="626" 
d="M404 233v-176h-183v176h-191v151h191v175h183v-175h192v-151h-192z" />
    <glyph glyph-name="comma" unicode="," horiz-adv-x="344" 
d="M108 -111q14 26 26 56t16 55h-119v195h282v-159q0 -18 -5.5 -38.5t-14 -40.5t-19 -37.5t-19.5 -30.5h-147z" />
    <glyph glyph-name="hyphen" unicode="-" horiz-adv-x="396" 
d="M363 390v-186h-330v186h330z" />
    <glyph glyph-name="period" unicode="." horiz-adv-x="344" 
d="M313 0h-282v195h282v-195z" />
    <glyph glyph-name="slash" unicode="/" horiz-adv-x="491" 
d="M163 -131h-201l339 939h202z" />
    <glyph glyph-name="zero" unicode="0" horiz-adv-x="1136" 
d="M1113 358q0 -34 -7 -74.5t-26.5 -82t-55.5 -80t-94 -69t-141.5 -48.5t-197.5 -18h-45q-115 0 -198 18t-141.5 48.5t-94.5 69t-55.5 80t-26.5 82t-7 74.5v30q0 34 7 75t26.5 82t55.5 79.5t94.5 68t141.5 47.5t198 18h45q114 0 197.5 -18t141.5 -47.5t94 -68t55.5 -79.5
t26.5 -82t7 -75v-30zM818 382q0 29 -11 60t-39 57t-76.5 42.5t-123.5 16.5q-77 0 -126 -16.5t-76.5 -42.5t-38 -57t-10.5 -60v-12q0 -29 11 -61t39 -59t77 -44.5t124 -17.5t123.5 17.5t76.5 44t39 58.5t11 61v13z" />
    <glyph glyph-name="one" unicode="1" horiz-adv-x="531" 
d="M18 440v155q50 3 88 14.5t66.5 30.5t48.5 45.5t33 58.5h226v-744h-282v440h-180z" />
    <glyph glyph-name="two" unicode="2" horiz-adv-x="1011" 
d="M25 0v87q0 25 2.5 55.5t15 63t37 66t69 65t111.5 58.5t164 48q35 8 75 16t69 13q35 7 56 13.5t31.5 13t13.5 13.5t3 16q0 10 -5.5 18.5t-23 15.5t-49.5 11t-85 4q-64 0 -100 -11t-54 -26.5t-22.5 -32t-5.5 -27.5h-290v7q0 23 4.5 52.5t20 59.5t44.5 58.5t78.5 51
t121.5 36t173 13.5h43q141 0 228.5 -19t136 -51t66 -73.5t17.5 -87.5v-4q0 -46 -15.5 -81t-53.5 -62t-104 -46.5t-166 -35.5l-160 -27q-64 -11 -103 -22.5t-60.5 -22.5t-28.5 -21t-7 -18h446v88h263v-275h-956z" />
    <glyph glyph-name="three" unicode="3" horiz-adv-x="1028" 
d="M483 -14q-106 0 -182.5 15t-129 39t-84 54.5t-48 61.5t-22 60t-5.5 50v9h293q1 -6 6 -23t24.5 -34.5t59 -31t109.5 -13.5t110.5 7t61 18t26 23.5t5.5 23.5q0 10 -4 19.5t-14.5 17t-28 11.5t-45.5 4h-249v178h242q26 0 42.5 3.5t25.5 9.5t12.5 13.5t3.5 16.5v1q0 10 -5 20
t-24.5 18t-59 13.5t-108.5 5.5t-106.5 -10t-55.5 -23.5t-21.5 -26t-4.5 -18.5h-291v10q0 19 4.5 44.5t20.5 53.5t45.5 55t80.5 48.5t125.5 35t179.5 13.5h43q107 0 183.5 -8.5t129 -23t83.5 -33.5t48 -40.5t22 -44t5 -42.5v-6q0 -28 -12 -49.5t-31 -37.5t-42.5 -26
t-45.5 -14q27 -6 55 -18.5t51 -34.5t37.5 -54t14.5 -75v-7q0 -46 -18.5 -92t-71 -83t-147 -60t-245.5 -23h-48z" />
    <glyph glyph-name="four" unicode="4" horiz-adv-x="1014" 
d="M533 748h312v-414h155v-192h-155v-142h-283v142h-549v161zM562 556l-260 -222h260v222z" />
    <glyph glyph-name="five" unicode="5" horiz-adv-x="982" 
d="M478 -14q-104 0 -177.5 13t-123 34t-79 47.5t-44.5 53.5t-19.5 52.5t-4.5 43.5v7h295q1 -4 6.5 -15t23 -22.5t52 -20.5t94.5 -9q54 0 87 7.5t51 19.5t24 27.5t6 30.5v4q0 15 -6 30t-24 27t-51 19.5t-87 7.5q-59 0 -94 -8t-53 -18.5t-24 -19.5t-7 -12h-279v459h868v-181
h-587v-121q6 5 23 16t48.5 22t78.5 19.5t113 8.5h9q112 0 183.5 -20t112.5 -53.5t56 -78.5t15 -95v-6q0 -31 -7 -63t-25 -61.5t-49.5 -56t-80 -46t-116.5 -31t-160 -11.5h-48z" />
    <glyph glyph-name="six" unicode="6" horiz-adv-x="1042" 
d="M507 -15q-104 0 -180 17t-130 45.5t-87.5 66t-52.5 79t-26 84.5t-7 82v24q0 39 7.5 81.5t27 84.5t53.5 79.5t87 66.5t128 46t177 17h42q137 0 224 -23.5t136 -58.5t67 -77t18 -78v-4h-288q-2 3 -9 13t-25 20t-51 18t-88 8q-71 0 -114 -17.5t-66 -42.5t-30.5 -53t-7.5 -48
v-5q8 6 26.5 17.5t54 23t91 20.5t137.5 9h12q117 0 192.5 -18t120 -49t61.5 -71.5t17 -86.5v-9q0 -43 -16 -89t-65.5 -84.5t-143 -63t-247.5 -24.5h-45zM338 242q0 -13 7.5 -26.5t29 -25t60 -18.5t100.5 -7q63 0 101 7t59 18t27.5 24t6.5 26v3q0 13 -6.5 26.5t-27.5 24.5
t-59 17.5t-101 6.5q-62 0 -100.5 -6.5t-60 -16.5t-29 -23.5t-7.5 -26.5v-3z" />
    <glyph glyph-name="seven" unicode="7" horiz-adv-x="981" 
d="M961 744v-167q-12 -14 -31 -35t-42.5 -48t-50.5 -60t-54 -70q-40 -54 -64 -100t-37 -88t-17 -83.5t-4 -86.5v-6h-318v89q0 40 8 75t29 71t56.5 76t90.5 90q78 69 122 106.5t46 50.5h-389v-144h-275v330h930z" />
    <glyph glyph-name="eight" unicode="8" horiz-adv-x="1019" 
d="M985 549q0 -34 -14.5 -61t-38.5 -47t-53.5 -32t-59.5 -16q35 -6 68.5 -19.5t59 -34.5t41 -50t15.5 -65v-11q0 -22 -5.5 -48t-22.5 -51t-48.5 -48.5t-84 -41.5t-129 -28.5t-182.5 -10.5h-43q-108 0 -185 10.5t-129.5 28.5t-83.5 41.5t-47.5 48.5t-21.5 50.5t-5 48.5v11
q0 36 16 64.5t41.5 49.5t58.5 35t68 20q-31 5 -61 17t-53.5 31.5t-38 46.5t-14.5 61v9q0 19 4.5 41t20 44.5t45.5 43t80.5 36.5t125 25.5t179.5 9.5h44q105 0 179 -9.5t124.5 -25.5t80 -36.5t45 -43t20 -44.5t4.5 -41v-9zM690 534q0 10 -5 20.5t-23.5 19.5t-54.5 14.5
t-98 5.5q-63 0 -99 -5.5t-54.5 -14.5t-23 -19.5t-4.5 -20.5v-3q0 -11 5 -22t24 -20t54.5 -14.5t97.5 -5.5q61 0 97 5.5t55 14.5t24 20t5 22v3zM710 234q0 12 -6.5 24t-27.5 21.5t-60.5 15t-106.5 5.5t-106.5 -5.5t-60.5 -15t-27 -21.5t-6 -24v-3q0 -11 6.5 -23.5t27.5 -22.5
t60.5 -16.5t105.5 -6.5q67 0 106.5 6.5t60.5 16.5t27.5 22.5t6.5 23.5v3z" />
    <glyph glyph-name="nine" unicode="9" horiz-adv-x="1042" 
d="M704 502q0 13 -7.5 26.5t-29 24t-60 17.5t-100.5 7q-63 0 -101 -6.5t-58.5 -17.5t-27.5 -24.5t-7 -26.5v-2q0 -13 7 -26.5t27.5 -24t58.5 -17.5t101 -7t101.5 7t59.5 17.5t28.5 24t7.5 26.5v2zM500 -15q-136 0 -223 23.5t-137.5 59t-69.5 77t-19 76.5v5h287q2 -5 9 -14.5
t25.5 -20t52 -18t88.5 -7.5q70 0 113 18t66 43.5t30.5 53t7.5 47.5v4q-8 -6 -26 -17.5t-52.5 -23.5t-87.5 -21t-130 -9h-13q-116 0 -193.5 19t-124 51t-66 74.5t-19.5 89.5v9q0 29 6 59t24 58.5t50 53t83 43t125 29.5t175 11h45q104 0 180.5 -15.5t131.5 -42.5t90 -63.5
t55 -77.5t27.5 -85.5t7.5 -86.5v-24q0 -39 -7 -82.5t-25.5 -85.5t-52 -80t-86 -67t-127.5 -46t-177 -17h-43z" />
    <glyph glyph-name="colon" unicode=":" horiz-adv-x="346" 
d="M314 300h-282v195h282v-195zM314 0h-282v195h282v-195z" />
    <glyph glyph-name="semicolon" unicode=";" horiz-adv-x="346" 
d="M314 300h-282v195h282v-195zM109 -111q14 26 26 56t16 55h-119v195h282v-159q0 -18 -5.5 -38.5t-14 -40.5t-19 -37.5t-19.5 -30.5h-147z" />
    <glyph glyph-name="less" unicode="&#x3c;" horiz-adv-x="548" 
d="M30 218v170l486 156v-162l-319 -80l319 -78v-161z" />
    <glyph glyph-name="equal" unicode="=" horiz-adv-x="593" 
d="M559 478v-140h-525v140h525zM559 280v-139h-525v139h525z" />
    <glyph glyph-name="greater" unicode="&#x3e;" horiz-adv-x="541" 
d="M32 224l315 78l-315 80v162l479 -156v-170l-479 -155v161z" />
    <glyph glyph-name="question" unicode="?" horiz-adv-x="907" 
d="M270 249v67q0 27 5 48.5t21.5 39.5t47 32.5t82.5 26.5l99 23q28 6 45 12.5t26.5 13t13 13.5t3.5 15q0 9 -3.5 17t-18.5 14.5t-45 10t-83 3.5q-63 0 -97.5 -9t-51 -22.5t-20 -28t-4.5 -26.5h-275v12q0 23 2.5 50t15 54t38.5 52t72.5 44.5t117 31t172.5 11.5h53
q87 0 151.5 -8.5t109.5 -24t73.5 -36t44 -44t21.5 -49t6 -50.5v-7q0 -33 -9.5 -63.5t-31.5 -56t-58.5 -45t-89.5 -32.5l-101 -24q-20 -5 -32 -10.5t-18 -12.5t-8 -16t-2 -21v-5h-272zM549 0h-281v195h281v-195z" />
    <glyph glyph-name="at" unicode="@" horiz-adv-x="1333" 
d="M674 -157q-138 0 -240 18t-174 50t-118.5 75t-72.5 93t-36 104t-10 108v12q0 56 10.5 110t37.5 102.5t73 90t117.5 71.5t170 47t231.5 17h14q153 0 259.5 -18.5t177 -49t110 -70.5t58.5 -82.5t23.5 -85.5t4.5 -80v-11q0 -52 -15 -106.5t-52.5 -98.5t-102.5 -72.5
t-165 -28.5h-17q-51 0 -85 8t-55.5 19.5t-32.5 25t-17 24.5q-8 -8 -25 -20.5t-44 -25.5t-66 -22t-90 -9h-14q-80 0 -130.5 23.5t-78.5 60.5t-36 82.5t-2 89.5l7 54q4 32 18 66.5t42 63t72 46.5t109 18h15q55 0 96 -9t69.5 -21.5t47 -26t29.5 -23.5l9 71h265l-46 -358
q-5 -37 32 -37q26 0 49 14t40 41t27 66.5t10 90.5v3q0 33 -2.5 67t-17 66t-45 59.5t-85.5 48.5t-139.5 33t-206.5 12h-14q-158 0 -255.5 -27t-150.5 -73.5t-71 -107.5t-18 -130v-11q0 -41 7.5 -83t27.5 -80t55.5 -71t92 -57.5t136 -38.5t187.5 -14q124 0 211 9.5t145.5 23
t93 28.5t54.5 25l41 -103q-18 -9 -54 -24t-99.5 -28.5t-159.5 -23.5t-232 -10zM767 296q7 53 -22 79.5t-88 26.5q-29 0 -48 -8t-31 -20.5t-18 -29t-8 -33.5l-3 -23q-3 -20 0.5 -39.5t14.5 -34.5t30 -24.5t49 -9.5q32 0 54 8t36.5 21.5t21.5 32t10 38.5z" />
    <glyph glyph-name="A" unicode="A" horiz-adv-x="1107" 
d="M538 562l-122 -256h247zM754 120h-425l-57 -120h-288l368 744h382l389 -744h-311z" />
    <glyph glyph-name="B" unicode="B" horiz-adv-x="1078" 
d="M48 744h700q81 0 134.5 -14.5t84.5 -38t43.5 -54t12.5 -62.5v-11q0 -35 -13 -60.5t-32.5 -43t-42 -28t-40.5 -14.5q25 -6 54.5 -18t55.5 -34t43.5 -56t17.5 -83v-12q0 -44 -15 -83t-51 -68.5t-96.5 -46.5t-151.5 -17h-704v744zM332 575v-105h330q44 0 60 15.5t16 36.5v2
q0 22 -16 36.5t-60 14.5h-330zM332 303v-128h348q28 0 45 6t26.5 15t13 20.5t3.5 22.5v3q0 12 -3.5 23t-13 19.5t-27 13.5t-44.5 5h-348z" />
    <glyph glyph-name="C" unicode="C" horiz-adv-x="1126" 
d="M549 -14q-114 0 -197.5 18t-142 47.5t-95 68.5t-57 80.5t-27.5 83t-7 76.5v29q0 35 6.5 76.5t26.5 82.5t56 79t94.5 67t142.5 46.5t200 17.5h39q113 0 195.5 -15.5t140 -41t93 -58t55.5 -66t27 -65t7 -55.5v-13h-295q-2 7 -10 26t-33.5 38.5t-73 34.5t-128.5 15
q-77 0 -125.5 -15.5t-76 -40.5t-37.5 -56t-10 -62v-12q0 -30 11 -62.5t39 -60t76.5 -45t123.5 -17.5q55 0 94 8t66 20t43 26.5t25 28t12.5 24.5t4.5 15h294v-16q0 -24 -7 -56.5t-27.5 -66.5t-56.5 -67t-93.5 -59t-139.5 -42t-194 -16h-39z" />
    <glyph glyph-name="D" unicode="D" horiz-adv-x="1133" 
d="M48 744h528q161 0 265 -30.5t164.5 -80t84 -112.5t23.5 -129v-30q0 -42 -9 -85.5t-31.5 -83.5t-61.5 -75.5t-98.5 -61.5t-142 -41t-193.5 -15h-529v744zM332 197h211q93 0 147.5 18t83 44.5t36.5 57t8 54.5v6q0 24 -8 54t-36.5 56.5t-83 44t-147.5 17.5h-211v-352z" />
    <glyph glyph-name="E" unicode="E" horiz-adv-x="913" 
d="M871 744v-182h-543v-93h532v-181h-532v-102h551v-186h-831v744h823z" />
    <glyph glyph-name="F" unicode="F" horiz-adv-x="890" 
d="M855 744v-182h-526v-93h515v-183h-515v-286h-281v744h807z" />
    <glyph glyph-name="G" unicode="G" horiz-adv-x="1159" 
d="M525 -14q-102 0 -178.5 17t-132.5 45.5t-92.5 66t-58.5 79.5t-31 85t-9 82v28q0 40 8.5 83t30.5 84t60 77.5t96.5 64.5t140 44t191.5 16h39q114 0 196.5 -14t140.5 -37.5t93.5 -53t56 -61.5t27.5 -63.5t8 -57.5v-1h-296q-2 7 -10.5 22.5t-33.5 31.5t-71.5 28t-125.5 12
q-75 0 -124.5 -15t-79 -40.5t-41.5 -58.5t-12 -70v-11q0 -36 14 -69.5t44.5 -60t79 -42.5t117.5 -16q72 0 120.5 11t78.5 26.5t42.5 31t12.5 24.5h-261v145h551v-419h-179q-2 9 -5.5 22.5t-8.5 28t-10.5 28.5t-10.5 24q-11 -12 -35 -32t-66 -38.5t-104 -32.5t-149 -14h-23z
" />
    <glyph glyph-name="H" unicode="H" horiz-adv-x="1128" 
d="M48 744h284v-263h465v263h283v-744h-283v283h-465v-283h-284v744z" />
    <glyph glyph-name="I" unicode="I" horiz-adv-x="379" 
d="M331 0h-283v744h283v-744z" />
    <glyph glyph-name="J" unicode="J" horiz-adv-x="948" 
d="M421 -11q-88 0 -153 16t-111 42.5t-75.5 61t-46 71.5t-22.5 74.5t-6 69.5v6h279q1 -11 6 -32.5t21.5 -42.5t48.5 -37t88 -16h8q45 0 76.5 12.5t51 35t28.5 53t9 66.5v375h284v-381q0 -39 -6 -81.5t-22.5 -84t-46 -79.5t-77 -66.5t-114.5 -45.5t-159 -17h-61v0z" />
    <glyph glyph-name="K" unicode="K" horiz-adv-x="1046" 
d="M48 0v744h284v-294l366 294h353l-433 -338l447 -406h-370l-363 333v-333h-284z" />
    <glyph glyph-name="L" unicode="L" horiz-adv-x="875" 
d="M332 744v-531h516v-213h-800v744h284z" />
    <glyph glyph-name="M" unicode="M" horiz-adv-x="1320" 
d="M48 744h390l228 -418l232 418h374v-744h-281v464l-261 -464h-145l-260 464v-464h-277v744z" />
    <glyph glyph-name="N" unicode="N" horiz-adv-x="1128" 
d="M366 744l432 -423v423h282v-744h-284l-466 451v-451h-282v744h318z" />
    <glyph glyph-name="O" unicode="O" horiz-adv-x="1176" 
d="M611 758q120 0 207 -17.5t147 -47t97 -67.5t57 -79t27 -82t7 -76v-30q0 -35 -6.5 -76t-27 -82.5t-57 -80t-97 -68.5t-147.5 -48t-207 -18h-45q-120 0 -207.5 18t-147.5 48t-97 68.5t-57 80t-27 82.5t-7 76v30q0 35 6.5 76t27 82t57.5 79t97 67.5t147 47t208 17.5h45z
M859 382q0 30 -11.5 61t-41.5 56.5t-82.5 42t-135.5 16.5q-84 0 -137 -16.5t-82.5 -42t-40.5 -56.5t-11 -61v-12q0 -29 11.5 -61.5t41.5 -59.5t82.5 -44.5t135.5 -17.5q82 0 135 17t83 43.5t41.5 58.5t11.5 62v14z" />
    <glyph glyph-name="P" unicode="P" horiz-adv-x="1037" 
d="M332 233v-233h-284v744h620q103 0 171 -19t108.5 -52.5t57 -78.5t16.5 -96v-16q0 -51 -17 -96t-57.5 -79t-108.5 -54t-170 -20h-336zM332 419h302q49 0 71.5 18.5t22.5 49.5v3q0 32 -22 50t-72 18h-302v-139z" />
    <glyph glyph-name="Q" unicode="Q" horiz-adv-x="1176" 
d="M481 -11q-100 7 -173 27.5t-124 51t-82.5 67.5t-49 76t-23.5 77t-6 71v30q0 35 7 76.5t27 82.5t57 79t97.5 67t147.5 46.5t207 17.5h45q119 0 206 -17.5t147 -46.5t97 -67t57.5 -79t27.5 -82.5t7 -76.5v-30q0 -31 -5.5 -68t-21.5 -74.5t-44.5 -73.5t-74.5 -66t-112 -52.5
t-156 -31.5l128 -148h-386v144zM859 382q0 30 -11.5 61.5t-41.5 57t-82.5 41.5t-135.5 16q-84 0 -137 -16t-82.5 -41.5t-40.5 -56.5t-11 -62v-12q0 -30 11.5 -62.5t41.5 -59t82.5 -44t135.5 -17.5q82 0 135 17t83 43.5t41.5 58.5t11.5 62v14z" />
    <glyph glyph-name="R" unicode="R" horiz-adv-x="1070" 
d="M332 435h326q47 0 66.5 18.5t19.5 45.5v1q0 26 -19 44.5t-67 18.5h-326v-128zM332 0h-284v744h676q163 0 238 -50t75 -141v-11q0 -41 -15.5 -70t-38.5 -48.5t-49 -31t-47 -16.5q69 -16 111 -60.5t42 -116.5v-110q0 -39 4.5 -56.5t9.5 -27.5v-5h-290q-5 6 -7 14.5t-2 24.5
v87q0 64 -33.5 96.5t-117.5 32.5h-272v-255z" />
    <glyph glyph-name="S" unicode="S" horiz-adv-x="1036" 
d="M468 -14q-103 0 -176.5 13t-124 34t-80.5 48.5t-46.5 57t-21.5 58.5t-5 53v10h312q1 -15 7.5 -33.5t26 -34t55.5 -26.5t97 -11h9q60 0 95.5 6t55 15.5t25.5 22t6 26.5v1q0 14 -5.5 25.5t-23.5 20.5t-52.5 14t-93.5 7l-138 4q-108 3 -178.5 22.5t-112 49.5t-58 69
t-16.5 83v9q0 45 18 86.5t66 72.5t131 49.5t213 18.5h89q138 0 226 -20t138 -53t69 -75.5t19 -86.5v-8h-309q-1 10 -6.5 23.5t-24 26t-54 21t-95.5 8.5h-10q-56 0 -88.5 -4.5t-49.5 -12t-21.5 -17.5t-4.5 -21v-1q0 -11 5.5 -21t23 -18t49 -12.5t84.5 -5.5l134 -3
q106 -3 180.5 -17t122 -41.5t69 -68.5t21.5 -97v-14q0 -47 -17 -92.5t-67 -81t-140 -57.5t-237 -22h-91v0z" />
    <glyph glyph-name="T" unicode="T" horiz-adv-x="977" 
d="M346 541h-321v203h926v-203h-321v-541h-284v541z" />
    <glyph glyph-name="U" unicode="U" horiz-adv-x="1104" 
d="M40 744h285v-333q0 -34 9 -69.5t34.5 -64.5t69.5 -47.5t115 -18.5q69 0 113.5 18.5t69.5 47.5t34.5 64.5t9.5 69.5v333h284v-355q0 -36 -7 -79.5t-26.5 -88.5t-53.5 -86.5t-88.5 -74.5t-132 -52.5t-182.5 -19.5h-40q-108 0 -187 19.5t-133.5 52.5t-88.5 74.5t-53 86.5
t-25.5 88.5t-6.5 79.5v355z" />
    <glyph glyph-name="V" unicode="V" horiz-adv-x="1076" 
d="M363 0l-376 744h322l250 -519l235 519h295l-349 -744h-377z" />
    <glyph glyph-name="W" unicode="W" horiz-adv-x="1535" 
d="M278 0l-290 744h316l169 -491l149 491h320l151 -483l164 483h291l-290 -744h-329l-155 470l-150 -470h-346z" />
    <glyph glyph-name="X" unicode="X" horiz-adv-x="1083" 
d="M-11 0l341 382l-330 362h363l189 -219l190 219h337l-322 -359l337 -385h-349l-208 233l-206 -233h-342z" />
    <glyph glyph-name="Y" unicode="Y" horiz-adv-x="1049" 
d="M387 280l-407 464h340l217 -257l221 257h311l-398 -466v-278h-284v280z" />
    <glyph glyph-name="Z" unicode="Z" horiz-adv-x="954" 
d="M920 744v-151l-488 -390h493v-203h-896v152l474 396h-468v196h885z" />
    <glyph glyph-name="bracketleft" unicode="[" horiz-adv-x="374" 
d="M48 808h312v-118h-111v-702h111v-119h-312v939z" />
    <glyph glyph-name="backslash" unicode="\" horiz-adv-x="491" 
d="M-11 808h203l337 -939h-200z" />
    <glyph glyph-name="bracketright" unicode="]" horiz-adv-x="374" 
d="M14 -12h111v702h-111v118h312v-939h-312v119z" />
    <glyph glyph-name="asciicircum" unicode="^" horiz-adv-x="737" 
d="M367 600l-130 -176h-235l238 320h258l237 -320h-240z" />
    <glyph glyph-name="underscore" unicode="_" horiz-adv-x="847" 
d="M1 -20h845v-142h-845v142z" />
    <glyph glyph-name="grave" unicode="`" 
d="M285 583l-111 161h270l88 -161h-247z" />
    <glyph glyph-name="a" unicode="a" horiz-adv-x="846" 
d="M521 254l-180 -32q-35 -6 -50.5 -16t-15.5 -30v-1q0 -9 4 -19t13.5 -18t26 -13t41.5 -5q37 0 67 9.5t51 25t32 35.5t11 41v23zM526 72q-10 -10 -28.5 -24t-48.5 -27t-73.5 -22t-101.5 -9h-11q-68 0 -115 14.5t-77 39t-43.5 55.5t-13.5 64v12q0 34 11.5 60.5t37.5 46
t67.5 32t101.5 17.5l259 23q17 2 23.5 8.5t6.5 17.5q0 7 -3.5 14.5t-15.5 13.5t-35 9.5t-63 3.5h-4q-43 0 -67 -6t-35.5 -15t-14.5 -18.5t-4 -15.5h-252v6q0 27 8.5 58.5t43 58.5t103.5 45t190 18h56q84 0 143.5 -7.5t99 -21t63 -30.5t35 -36.5t15 -39.5t3.5 -38v-199
q0 -11 4.5 -17t18.5 -6h29v-157h-226q-35 0 -58 18.5t-29 53.5z" />
    <glyph glyph-name="b" unicode="b" horiz-adv-x="935" 
d="M312 744v-279q8 6 27.5 20t52 28t77.5 24.5t104 10.5h21q91 0 152.5 -22t99 -59t53 -85t15.5 -100v-21q0 -52 -17 -100.5t-56 -86.5t-102 -61t-155 -23h-20q-56 0 -100 10t-76 23.5t-52 27t-29 20.5q-5 -14 -8.5 -34t-5.5 -37h-253v744h272zM312 268q0 -23 10 -46
t30.5 -41t51 -29.5t71.5 -11.5h6q45 0 75.5 11.5t48.5 30t25.5 41t7.5 45.5v4q0 24 -7.5 47t-25.5 41t-48.5 29t-75.5 11h-6q-42 0 -72.5 -11t-51 -29t-30 -41t-9.5 -47v-4z" />
    <glyph glyph-name="c" unicode="c" horiz-adv-x="887" 
d="M415 -15q-86 0 -149 13t-107 34.5t-71.5 49.5t-42.5 59t-20.5 62.5t-5.5 59.5v18q0 28 5.5 59t20.5 61t42 57.5t71 48.5t107 33.5t149 12.5h62q90 0 154 -12.5t108 -33t70.5 -46.5t40.5 -53t18.5 -52t4.5 -43v-3h-278q-1 7 -6.5 22.5t-21 31.5t-44.5 27.5t-77 11.5h-4
q-43 0 -71.5 -11t-45 -28.5t-23 -40t-6.5 -45.5v-5q0 -24 7 -48.5t23.5 -44t44.5 -31.5t71 -12h4q48 0 76.5 12t44.5 28.5t21.5 32.5t6.5 24h278v-2q0 -18 -4 -43.5t-17.5 -53t-39 -54.5t-70 -48.5t-109.5 -34.5t-157 -13h-60z" />
    <glyph glyph-name="d" unicode="d" horiz-adv-x="932" 
d="M620 274q0 22 -10.5 44.5t-31.5 40t-52.5 28.5t-74.5 11h-5q-44 0 -73.5 -11t-46.5 -28.5t-24 -40t-7 -44.5v-5q0 -22 8 -44.5t26 -41t47 -30t71 -11.5h4q43 0 75 11.5t53 29.5t31 40.5t10 45.5v5zM892 744v-744h-271v78q-7 -8 -24.5 -22.5t-48.5 -29t-77 -25.5t-109 -11
h-17q-88 0 -150 22.5t-101 60t-57 86.5t-18 103v21q0 51 17 99t54.5 85t98 59t148.5 22h19q62 0 107.5 -9.5t77.5 -22t51 -26t28 -20.5v274h272z" />
    <glyph glyph-name="e" unicode="e" horiz-adv-x="888" 
d="M444 421q-39 0 -66 -6t-45 -16.5t-28.5 -25.5t-15.5 -33h310q-8 38 -43 59.5t-112 21.5zM869 194q0 -19 -5 -41.5t-20 -46t-42 -45.5t-71 -38.5t-107.5 -27t-151.5 -10.5h-53q-124 0 -202 25.5t-122 65.5t-60 89.5t-16 96.5v20q0 47 15 95t58.5 87t121 64t202.5 25h55
q88 0 151.5 -12.5t108 -34.5t72 -51t42.5 -61.5t20.5 -67t5.5 -66.5v-30h-585q3 -21 13.5 -39t30 -31.5t49 -21t70.5 -7.5h1q48 0 77.5 8.5t45.5 19.5t21.5 21.5t6.5 15.5h268v-2z" />
    <glyph glyph-name="f" unicode="f" horiz-adv-x="530" 
d="M510 600h-84q-23 0 -30 -9.5t-7 -29.5v-23h121v-165h-121v-373h-270v373h-106v165h106v53q0 32 9.5 60t32 48.5t60.5 32.5t95 12h194v-144z" />
    <glyph glyph-name="g" unicode="g" horiz-adv-x="942" 
d="M450 396q-45 0 -75 -9.5t-48 -24.5t-25.5 -34.5t-7.5 -39.5v-5q0 -21 8 -41.5t26 -36.5t48 -26t74 -10h6q45 0 77.5 10t53.5 26t31 36.5t10 41.5v3q0 21 -10 41t-31 35.5t-53.5 24.5t-77.5 9h-6zM429 -195q-84 0 -144.5 10.5t-102.5 27t-67.5 37.5t-39.5 42.5t-18.5 41
t-4.5 33.5v3h273q1 -5 5.5 -12.5t19 -15t42 -12.5t73.5 -5h3q49 0 81 12t50 31t25 43.5t7 50.5v11q-9 -9 -27 -22.5t-49 -26.5t-76.5 -22t-109.5 -9h-16q-93 0 -156.5 21.5t-103 57.5t-57 82t-17.5 95v18q0 47 16 92t53 80.5t97.5 57t149.5 21.5h22q66 0 112.5 -9t79 -21.5
t51.5 -26t30 -22.5v69h272v-448q0 -41 -14.5 -90.5t-57 -93t-120.5 -72.5t-204 -29h-77z" />
    <glyph glyph-name="h" unicode="h" horiz-adv-x="897" 
d="M40 744h272v-300q9 9 29.5 26.5t54.5 35t81.5 31t110.5 13.5h6q75 0 126 -20t81.5 -50t43.5 -66t13 -68v-346h-273v257q0 54 -30 89t-100 35q-69 0 -106 -37t-37 -94v-250h-272v744z" />
    <glyph glyph-name="i" unicode="i" horiz-adv-x="352" 
d="M312 583h-272v161h272v-161zM312 0h-272v538h272v-538z" />
    <glyph glyph-name="j" unicode="j" horiz-adv-x="352" 
d="M312 583h-272v161h272v-161zM8 -27q18 0 25 7t7 30v528h272v-578q0 -41 -9 -69.5t-24.5 -46t-36 -25t-42.5 -7.5h-228v161h36z" />
    <glyph glyph-name="k" unicode="k" horiz-adv-x="807" 
d="M40 0v744h272v-416l184 210h293l-219 -238l251 -300h-309l-200 242v-242h-272z" />
    <glyph glyph-name="l" unicode="l" horiz-adv-x="352" 
d="M312 0h-272v744h272v-744z" />
    <glyph glyph-name="m" unicode="m" horiz-adv-x="1382" 
d="M40 0v538h270v-96q9 9 29 27t52.5 36t78.5 31.5t107 13.5h6q46 0 82.5 -9t63.5 -24.5t45.5 -35.5t30.5 -42q16 15 41 34t59.5 36.5t80 29t101.5 11.5h7q72 0 120 -20t76.5 -50.5t40.5 -66.5t12 -67v-346h-272v258q0 26 -6 48.5t-19 39t-34 26t-52 9.5q-64 0 -98 -37.5
t-34 -92.5v-251h-273v258q0 26 -6 48.5t-19 39t-34 26t-52 9.5q-64 0 -98 -37.5t-34 -92.5v-251h-272z" />
    <glyph glyph-name="n" unicode="n" horiz-adv-x="897" 
d="M40 538h270v-95q10 9 31 27t55 36t81.5 31t110.5 13h6q75 0 126 -20t81.5 -50t43.5 -66t13 -68v-346h-273v257q0 54 -30 89t-100 35q-69 0 -106 -37t-37 -94v-250h-272v538z" />
    <glyph glyph-name="o" unicode="o" horiz-adv-x="927" 
d="M427 -15q-86 0 -150 12.5t-109 34t-74 49.5t-45.5 59t-23 63t-6.5 61v16q0 28 6 59.5t22.5 62t45.5 58t74 48t109 33t150 12.5h76q89 0 154 -12.5t110 -33.5t73 -48t43.5 -57.5t20.5 -61.5t5 -59v-18q0 -29 -5 -60.5t-20 -62.5t-42.5 -59t-73 -49.5t-111 -34
t-155.5 -12.5h-74zM464 401q-50 0 -83 -11.5t-52 -29.5t-26.5 -40.5t-7.5 -44.5v-4q0 -22 7.5 -45.5t26.5 -43t51.5 -32t83.5 -12.5h1q50 0 82.5 13t51.5 32.5t26.5 43t7.5 44.5v4q0 22 -7.5 44.5t-26.5 40.5t-51.5 29.5t-82.5 11.5h-1z" />
    <glyph glyph-name="p" unicode="p" horiz-adv-x="933" 
d="M312 268q0 -22 9.5 -45t30 -41.5t52 -30t75.5 -11.5h5q45 0 75 12t47.5 30.5t24.5 41t7 44.5v4q0 23 -7 46t-24.5 41t-47.5 29t-75 11h-5q-45 0 -76.5 -11t-51.5 -29t-29.5 -40.5t-9.5 -46.5v-4zM312 538v-75q8 7 28 21t52 28.5t77.5 25t104.5 10.5h21q93 0 154 -22
t98 -59t52 -84t15 -98v-21q0 -50 -16 -99t-54 -88t-100.5 -63t-156.5 -24h-19q-57 0 -101.5 9.5t-76.5 22t-51.5 25.5t-26.5 19v-254h-272v726h272z" />
    <glyph glyph-name="q" unicode="q" horiz-adv-x="931" 
d="M892 538v-726h-272v261q-9 -9 -28.5 -23.5t-51 -27.5t-76 -22.5t-104.5 -9.5h-14q-91 0 -153.5 23t-101 61.5t-55.5 87.5t-17 101v21q0 50 16.5 97.5t54 84.5t98.5 59.5t150 22.5h18q62 0 108 -10t78 -23.5t52 -27t30 -21.5q6 14 11 35t6 37h251zM620 275
q0 22 -10.5 44.5t-31.5 39.5t-53 28t-75 11h-5q-44 0 -73 -11t-46 -28.5t-24 -39.5t-7 -45v-5q0 -22 7.5 -44.5t25 -41t46.5 -30.5t72 -12h5q43 0 75 11.5t53 30t31 41.5t10 46v5z" />
    <glyph glyph-name="r" unicode="r" horiz-adv-x="790" 
d="M310 439q8 12 25.5 30.5t45 36.5t65.5 31t89 13h12q67 0 110.5 -21t69 -55t36 -76.5t10.5 -85.5v-54h-264v19q0 45 -22 77.5t-75 32.5q-48 0 -74 -32.5t-26 -83.5v-271h-272v538h270v-99z" />
    <glyph glyph-name="s" unicode="s" horiz-adv-x="814" 
d="M372 -15q-81 0 -139 9.5t-98 24.5t-64 35t-37 41.5t-17 42t-4 38.5v7h277q0 -8 3 -19t14.5 -21.5t33.5 -18t60 -7.5h2q36 0 58 4t33.5 10t15.5 14t4 17v2q0 10 -3.5 17.5t-14.5 13.5t-31.5 9t-53.5 4l-114 3q-85 3 -139 18.5t-85 39t-42.5 52.5t-11.5 59v6q0 33 13.5 63
t51.5 53.5t107.5 37t180.5 13.5h53q108 0 177 -14t108 -37.5t53.5 -53.5t14.5 -62v-7h-272q-1 7 -4 15.5t-14 16t-32.5 13t-57.5 5.5h-1q-33 0 -53.5 -2.5t-32 -7t-15.5 -11.5t-4 -16v-1q0 -8 4 -15t15 -12t30.5 -8.5t50.5 -4.5l113 -3q91 -3 148 -15t89.5 -33.5t44 -52
t11.5 -70.5v-7q0 -37 -13.5 -70.5t-53.5 -59t-113 -40.5t-191 -15h-55v0z" />
    <glyph glyph-name="t" unicode="t" horiz-adv-x="514" 
d="M259 0q-70 0 -106.5 38t-36.5 115v220h-103v165h103v157h270v-157h103v-165h-103v-159q0 -25 8 -36t37 -11h58v-167h-230z" />
    <glyph glyph-name="u" unicode="u" horiz-adv-x="887" 
d="M847 0h-270v96q-10 -10 -30.5 -28t-54 -36t-80 -31t-108.5 -13h-7q-75 0 -124.5 20.5t-79.5 52t-42 68t-12 69.5v340h273v-257q0 -26 6.5 -48.5t21.5 -39.5t38.5 -26.5t57.5 -9.5q68 0 104 38t36 93v250h271v-538z" />
    <glyph glyph-name="v" unicode="v" horiz-adv-x="837" 
d="M-11 538h291l148 -350l141 350h279l-245 -538h-359z" />
    <glyph glyph-name="w" unicode="w" horiz-adv-x="1219" 
d="M202 0l-212 538h283l105 -339l103 339h280l105 -338l103 338h260l-200 -538h-304l-108 326l-108 -326h-307z" />
    <glyph glyph-name="x" unicode="x" horiz-adv-x="848" 
d="M-10 0l248 277l-243 261h309l123 -141l120 141h299l-237 -257l250 -281h-303l-135 158l-134 -158h-297z" />
    <glyph glyph-name="y" unicode="y" horiz-adv-x="827" 
d="M119 -22h122q15 0 20 5t5 12v1q0 8 -6 20.5t-17 33.5l-254 488h290l150 -346l139 346h270l-259 -561q-39 -85 -86.5 -125t-120.5 -40h-253v166z" />
    <glyph glyph-name="z" unicode="z" horiz-adv-x="752" 
d="M22 0v146l358 233h-358v159h707v-143l-369 -230h370v-165h-708z" />
    <glyph glyph-name="braceleft" unicode="{" horiz-adv-x="393" 
d="M224 -131q-88 0 -133.5 27t-45.5 87q0 31 13.5 67.5t29.5 72t29.5 66.5t13.5 50q0 43 -44 43h-68v118h68q23 0 33.5 9.5t10.5 25.5q0 21 -13.5 51.5t-29.5 65t-29.5 70t-13.5 65.5q0 59 42.5 90t136.5 31h156v-118h-85q-45 0 -45 -36q0 -16 10.5 -42.5t22.5 -56t22.5 -59
t10.5 -51.5q0 -42 -23.5 -66.5t-81.5 -36.5q58 -11 81.5 -33t23.5 -57q0 -24 -10.5 -55.5t-22.5 -62.5t-22.5 -58.5t-10.5 -43.5q0 -44 53 -44h77v-119h-156z" />
    <glyph glyph-name="bar" unicode="|" horiz-adv-x="371" 
d="M279 -131h-187v939h187v-939z" />
    <glyph glyph-name="braceright" unicode="}" horiz-adv-x="393" 
d="M14 -12h76q53 0 53 44q0 16 -10 43.5t-22.5 58.5t-22.5 62.5t-10 55.5q0 35 23 57t81 33q-58 12 -81 36.5t-23 66.5q0 22 10 51.5t22.5 59t22.5 56t10 42.5q0 36 -45 36h-84v118h155q94 0 136.5 -31t42.5 -90q0 -30 -13.5 -65.5t-29 -70t-29 -65t-13.5 -51.5
q0 -16 10 -25.5t33 -9.5h68v-118h-68q-23 0 -33 -11t-10 -32q0 -19 13.5 -50t29 -66.5t29 -72t13.5 -67.5q0 -60 -45.5 -87t-133.5 -27h-155v119z" />
    <glyph glyph-name="asciitilde" unicode="~" horiz-adv-x="694" 
d="M516 243q-30 0 -54 4.5t-46.5 12.5t-45.5 20t-50 27q-18 10 -30.5 17t-21.5 11.5t-15.5 6t-13.5 1.5q-13 0 -18 -8t-5 -22v-87h-193v148q0 28 7 58t25 54.5t48.5 40t76.5 15.5q30 0 54 -4.5t46.5 -13t44.5 -20t48 -25.5q32 -17 51 -27t32 -10q22 0 22 31v88h193v-172
q0 -26 -8 -52t-26 -47t-47.5 -34t-73.5 -13z" />
    <glyph glyph-name="exclamdown" unicode="&#xa1;" horiz-adv-x="360" 
d="M-1.17773 -205.955l92.0449 503.97h166.08l91.0449 -503.97h-349.17zM31.8379 538h283.139v-194.988h-283.139v194.988z" />
    <glyph glyph-name="cent" unicode="&#xa2;" horiz-adv-x="901" 
d="M400 -77v62q-83 1 -143.5 15t-103 35.5t-69 49.5t-41 58.5t-19.5 61t-5 58.5v18q0 41 12.5 87.5t53 87t115.5 68t200 29.5v61h102v-61q87 -1 149 -14.5t104.5 -34t68 -46t39 -52t18 -51t4.5 -42.5v-3h-277q-1 7 -5.5 19.5t-15.5 26.5t-31.5 26t-53.5 18v-260
q33 6 53.5 19t31.5 27t15.5 27.5t5.5 20.5h277v-2q0 -18 -3.5 -43t-16.5 -52t-38 -53.5t-67.5 -48t-105.5 -35.5t-152 -15v-62h-102zM295 273q0 -21 5 -42t17 -39t32.5 -31.5t50.5 -19.5v259q-31 -5 -51 -17.5t-32 -29t-17 -36t-5 -39.5v-5z" />
    <glyph glyph-name="sterling" unicode="&#xa3;" horiz-adv-x="960" 
d="M933 0h-917v165h57q48 0 74.5 15.5t26.5 53.5v2q0 17 -4 37t-11 42h-143v113h106q-7 23 -11 46t-4 46v7q0 39 14.5 79t56 73t115 53.5t192.5 20.5h41q91 0 155.5 -12t108 -32.5t69 -47.5t38.5 -56t16.5 -58.5t3.5 -55.5v-9h-278q-1 13 -5 30.5t-17 33t-38 26t-68 10.5
q-41 0 -66.5 -8.5t-39.5 -23t-19.5 -33.5t-5.5 -39q0 -22 6 -50h352v-113h-332q3 -20 3 -37q0 -25 -7.5 -43t-18.5 -31.5t-24.5 -23t-26.5 -15.5h311v96h290v-261z" />
    <glyph glyph-name="yen" unicode="&#xa5;" horiz-adv-x="1016" 
d="M371 158h-258v88h258v48h-258v88h192l-325 362h335l207 -245l210 245h305l-316 -362h193v-88h-258v-48h258v-88h-258v-158h-285v158z" />
    <glyph glyph-name="brokenbar" unicode="&#xa6;" horiz-adv-x="371" 
d="M279 383h-187v425h187v-425zM279 -131h-187v459h187v-459z" />
    <glyph glyph-name="section" unicode="&#xa7;" horiz-adv-x="956" 
d="M644 198q13 8 22.5 21t9.5 32q0 12 -4 22.5t-14.5 19.5t-30 16.5t-50.5 12.5q-66 10 -111.5 18t-76.5 13.5t-51 9.5t-34 7q-12 -6 -22.5 -19.5t-10.5 -33.5q0 -12 4 -22.5t15 -20t31 -17t52 -12.5q65 -11 110.5 -18.5t76 -12.5t50.5 -9t34 -7zM444 -209q-92 0 -157 11
t-109 29.5t-69.5 42t-39 48.5t-17 50t-3.5 46v4h269q1 -11 5 -26.5t19.5 -29t46 -23t84.5 -9.5h5q37 0 61 4t37 10.5t18 15.5t5 19v2q0 10 -3.5 19.5t-15.5 17t-35 14.5t-63 13l-204 30q-77 11 -128 30.5t-81.5 44.5t-43 55.5t-12.5 63.5v10q0 31 11.5 55t32 41.5t47.5 29.5
t58 18q-47 25 -66.5 61t-19.5 80v10q0 40 17.5 73.5t61 57t117 36.5t185.5 13h56q86 0 147 -9t102.5 -24t66.5 -35.5t38 -44t17 -48.5t4 -49v-3h-267q-1 9 -4.5 21.5t-17.5 24.5t-41.5 20t-75.5 8h-7q-42 0 -67.5 -3t-39 -8.5t-18 -13.5t-4.5 -18v-2q0 -9 3.5 -17t15 -14.5
t33 -12.5t57.5 -12l235 -34q75 -11 123.5 -28t77 -40.5t39.5 -52.5t11 -64v-10q0 -34 -14 -58.5t-36 -42t-48 -28t-51 -16.5q40 -21 61.5 -56.5t21.5 -85.5v-9q0 -38 -15.5 -74t-57 -64.5t-115 -46t-188.5 -17.5h-55z" />
    <glyph glyph-name="dieresis" unicode="&#xa8;" 
d="M613 583h-238v161h238v-161zM329 583h-237v161h237v-161z" />
    <glyph glyph-name="copyright" unicode="&#xa9;" horiz-adv-x="1185" 
d="M581 -12q-111 0 -195.5 14t-146.5 39.5t-103.5 60t-66.5 76t-35.5 87.5t-10.5 94v28q0 47 10.5 92.5t35 86.5t66 76t103.5 60t146.5 39.5t195.5 14.5h24q111 0 196 -14.5t147 -40t103.5 -60t66 -75.5t35 -86.5t10.5 -92.5v-28q0 -48 -10.5 -94.5t-35.5 -87.5t-66.5 -76
t-103.5 -60t-146.5 -39t-195.5 -14h-23zM157 364q0 -57 20 -108.5t68.5 -90t130.5 -61t206 -22.5h21q124 0 206 22.5t130.5 61t68.5 90t20 108.5v17q0 61 -20 113t-68.5 89.5t-130.5 58.5t-206 21h-21q-124 0 -206 -21t-130.5 -58.5t-68.5 -89.5t-20 -113v-17zM590 147
q-111 0 -178.5 22t-103.5 54.5t-48 70.5t-12 70v23q0 33 11.5 70t47.5 69t103 53t179 21h20q75 0 129 -9.5t91 -25t59.5 -35t35 -40t16.5 -40t4 -34.5v-7h-223q-1 4 -5.5 14t-17.5 20.5t-37.5 18.5t-64.5 8q-39 0 -63.5 -7.5t-38.5 -19.5t-19.5 -28t-5.5 -34v-7
q0 -17 5.5 -34t20 -31t39 -22.5t63.5 -8.5q41 0 65 9t36.5 20.5t17 22.5t5.5 16h223v-10q0 -16 -4 -36t-16.5 -41t-35 -41t-59.5 -36t-90.5 -25.5t-127.5 -9.5h-21z" />
    <glyph glyph-name="ordfeminine" unicode="&#xaa;" horiz-adv-x="609" 
d="M261 471q48 0 74.5 22t26.5 50v11l-111 -20q-43 -9 -43 -32q0 -13 12 -22t41 -9zM372 436q-8 -8 -21 -17.5t-34 -18.5t-51 -15t-70 -6h-8q-50 0 -83.5 10t-53.5 26t-28.5 36.5t-8.5 42.5v7q0 46 39 71.5t127 33.5l161 14q12 2 16.5 5.5t4.5 11.5q0 5 -2.5 9.5t-10 8
t-21.5 5.5t-38 2h-6q-26 0 -40.5 -3.5t-21.5 -9t-9 -11t-2 -9.5h-188v4q0 17 5 37.5t29 38.5t73 30t137 12h39q87 0 137 -11t75.5 -27.5t32 -36.5t6.5 -38v-126q0 -7 2.5 -11.5t12.5 -4.5h22v-110h-164q-23 0 -38.5 12.5t-19.5 37.5z" />
    <glyph glyph-name="guillemotleft" unicode="&#xab;" horiz-adv-x="570" 
d="M317 114h-185l-121 173l121 170h187l-118 -170zM552 114h-185l-116 173l119 170h186l-114 -170z" />
    <glyph glyph-name="registered" unicode="&#xae;" horiz-adv-x="672" 
d="M355 756q94 0 152.5 -19t91.5 -49t44.5 -66t11.5 -69v-14q0 -35 -14 -71.5t-48.5 -65.5t-92.5 -47.5t-146 -18.5h-34q-92 0 -151 18.5t-93 47.5t-46.5 65.5t-12.5 71.5v14q0 33 12 69t45.5 66t92.5 49t153 19h35zM339 395q81 0 128.5 14.5t71.5 37t30.5 49.5t6.5 53
q0 25 -6.5 51t-30.5 47.5t-71.5 35t-128.5 13.5h-3q-83 0 -130.5 -13t-72 -34.5t-31 -48.5t-6.5 -54q0 -26 6.5 -52.5t31 -48.5t72 -36t130.5 -14h3zM365 565q14 0 19.5 5.5t5.5 13.5t-5.5 12.5t-19.5 4.5h-71v-36h71zM294 440h-113v214h222q30 0 49 -4.5t30.5 -12
t15.5 -17.5t4 -21v-1q0 -23 -16.5 -34.5t-34.5 -13.5q26 -5 39.5 -18.5t13.5 -32.5v-35q0 -9 1.5 -13t4.5 -8v-3h-115q-2 2 -3.5 4.5t-1.5 9.5v23q0 17 -6.5 24.5t-25.5 7.5h-64v-69z" />
    <glyph glyph-name="macron" unicode="&#xaf;" 
d="M127 722h452v-129h-452v129z" />
    <glyph glyph-name="degree" unicode="&#xb0;" horiz-adv-x="430" 
d="M215 367q-44 0 -81 14t-65 39.5t-43.5 61t-15.5 79.5q0 43 15.5 79t43.5 61.5t65 39.5t81 14q43 0 80.5 -14t65 -39.5t43.5 -61.5t16 -79q0 -44 -16 -79.5t-43.5 -61t-65 -39.5t-80.5 -14zM215 483q36 0 58 21.5t22 56.5t-22 57t-58 22q-35 0 -57.5 -22t-22.5 -57
t22.5 -56.5t57.5 -21.5z" />
    <glyph glyph-name="two.sup" unicode="&#xb2;" horiz-adv-x="554" 
d="M13 376v47q0 27 7 52.5t32.5 48.5t76.5 42.5t138 34.5q27 4 43 8.5t25 8t12 7.5t3 9v1q0 4 -2.5 8t-10 7t-21 5t-36.5 2q-27 0 -42.5 -4.5t-23.5 -11.5t-10.5 -14t-2.5 -13h-182v4q0 17 6.5 40t31.5 44t74.5 35.5t136.5 14.5h19q79 0 128.5 -9.5t76.5 -25.5t36.5 -37.5
t9.5 -45.5v-5q0 -27 -13 -45.5t-41.5 -31.5t-73 -21.5t-108.5 -15.5q-60 -8 -93 -13t-41 -16h369v-110h-524z" />
    <glyph glyph-name="three.sup" unicode="&#xb3;" horiz-adv-x="569" 
d="M261 369q-87 0 -137 16t-76 38t-33 46t-7 39v5h184q0 -3 2.5 -10t11 -13.5t25.5 -11.5t47 -5q29 0 46.5 2.5t26.5 6.5t11.5 9t2.5 10v2q0 10 -8.5 15.5t-34.5 5.5h-112v90h107q25 0 33 5t8 12v2q0 4 -2.5 8t-11.5 7t-25.5 5t-44.5 2q-30 0 -46 -4t-24 -9t-10 -10t-2 -8
h-178v5q0 11 5.5 31.5t29 41t72 35.5t134.5 15h34q86 0 137 -8.5t77.5 -22t34 -30.5t7.5 -33v-4q0 -27 -22.5 -43.5t-54.5 -20.5q39 -6 66 -28.5t27 -61.5v-4q0 -23 -9.5 -45.5t-38 -40.5t-81 -29.5t-138.5 -11.5h-33z" />
    <glyph glyph-name="acute" unicode="&#xb4;" 
d="M263 744h268l-111 -161h-246z" />
    <glyph glyph-name="paragraph" unicode="&#xb6;" horiz-adv-x="811" 
d="M323 316h-58q-69 0 -117.5 16t-79 43.5t-44 65t-13.5 81.5v19q0 43 11 80t39.5 64.5t78 43t126.5 15.5h534v-124h-76v-620h-152v620h-98v-620h-151v316z" />
    <glyph glyph-name="periodcentered" unicode="&#xb7;" horiz-adv-x="344" 
d="M313 220h-282v195h282v-195z" />
    <glyph glyph-name="cedilla" unicode="&#xb8;" 
d="M169 -167h109q21 0 28.5 6t7.5 16q0 9 -7.5 15.5t-28.5 6.5h-71v123h138v-49q60 0 97.5 -7t58.5 -20.5t28.5 -32.5t7.5 -42v-3q0 -21 -8 -40.5t-29 -33.5t-58.5 -22.5t-97.5 -8.5h-175v92z" />
    <glyph glyph-name="one.sup" unicode="&#xb9;" horiz-adv-x="334" 
d="M15 580v93q31 1 53 7t37.5 15t25.5 21.5t16 27.5h154v-368h-186v204h-100z" />
    <glyph glyph-name="ordmasculine" unicode="&#xba;" horiz-adv-x="635" 
d="M293 376q-89 0 -144 18t-85 45.5t-40 59.5t-10 61v11q0 29 10 60.5t40 58t85 44t144 17.5h50q92 0 147 -17.5t84 -44t38 -58.5t9 -60v-11q0 -29 -8.5 -61t-38 -59.5t-84.5 -45.5t-148 -18h-49zM216 565q0 -14 4.5 -28.5t16 -26t31 -19t49.5 -7.5h1q30 0 49.5 7.5t31 19
t16 26t4.5 28.5v2q0 15 -5 29t-16.5 25t-31 17.5t-48.5 6.5h-1q-29 0 -48.5 -6.5t-31 -17.5t-16.5 -25t-5 -29v-2z" />
    <glyph glyph-name="guillemotright" unicode="&#xbb;" horiz-adv-x="570" 
d="M14 457h186l119 -170l-116 -173h-185l110 173zM253 114l116 173l-118 170h187l121 -170l-121 -173h-185z" />
    <glyph glyph-name="onequarter" unicode="&#xbc;" horiz-adv-x="1006" 
d="M15 580v93q31 1 53 7t37.5 15t25.5 21.5t16 27.5h154v-368h-186v204h-100zM967 744l-820 -744h-189l814 744h195zM717 369h201v-190h75v-107h-75v-72h-185v72h-272v95zM733 179v100l-127 -100h127z" />
    <glyph glyph-name="onehalf" unicode="&#xbd;" horiz-adv-x="1080" 
d="M967 744l-820 -744h-189l814 744h195zM15 580v93q31 1 53 7t37.5 15t25.5 21.5t16 27.5h154v-368h-186v204h-100zM538 0v47q0 27 7 52.5t32.5 48.5t76.5 42.5t138 34.5q27 4 43 8.5t25 8t12 7.5t3 9v1q0 4 -2.5 8t-10 7t-21 5t-36.5 2q-27 0 -42.5 -4.5t-23.5 -11.5
t-10.5 -14t-2.5 -13h-182v4q0 17 6.5 40t31.5 44t74.5 35.5t136.5 14.5h19q79 0 128.5 -9.5t76.5 -25.5t36.5 -37.5t9.5 -45.5v-5q0 -27 -13 -45.5t-41.5 -31.5t-73 -21.5t-108.5 -15.5q-60 -8 -93 -13t-41 -16h369v-110h-524z" />
    <glyph glyph-name="threequarters" unicode="&#xbe;" horiz-adv-x="1197" 
d="M1157 744l-820 -744h-189l814 744h195zM261 370q-87 0 -137 16t-76 38t-33 46t-7 39v5h184q0 -3 2.5 -10t11 -13.5t25.5 -11.5t47 -5q29 0 46.5 2.5t26.5 6.5t11.5 9t2.5 10v2q0 10 -8.5 15.5t-34.5 5.5h-112v90h107q25 0 33 5t8 12v2q0 4 -2.5 8t-11.5 7t-25.5 5
t-44.5 2q-30 0 -46 -4t-24 -9t-10 -10t-2 -8h-178v5q0 11 5.5 31.5t29 41t72 35.5t134.5 15h34q86 0 137 -8.5t77.5 -22t34 -30.5t7.5 -33v-4q0 -27 -22.5 -43.5t-54.5 -20.5q39 -6 66 -28.5t27 -61.5v-4q0 -23 -9.5 -45.5t-38 -40.5t-81 -29.5t-138.5 -11.5h-33zM909 369
h201v-190h75v-107h-75v-72h-185v72h-272v95zM925 179v100l-127 -100h127z" />
    <glyph glyph-name="questiondown" unicode="&#xbf;" horiz-adv-x="899" 
d="M626.868 289.016v-66.9961q0 -26.999 -5.00293 -48.4971q-5.00195 -21.499 -21.5098 -39.498t-47.0234 -32.498q-30.5146 -14.499 -82.54 -26.498l-99.0479 -22.999q-28.0137 -5.99902 -45.0225 -12.499q-17.0088 -6.49902 -26.5127 -12.999
q-9.50488 -6.5 -13.0068 -13.499q-3.50098 -7 -3.50098 -14.999q0 -9 3.50098 -16.999q3.50195 -8 18.5088 -14.499q15.0078 -6.5 45.0225 -10q30.0146 -3.49902 83.04 -3.49902q63.0312 0 97.5479 8.99902t51.0254 22.499q16.5078 13.499 20.0098 27.998
q3.50098 14.499 4.50195 26.498h275.134v-11.999q0 -22.999 -2.50098 -49.9971t-15.0068 -53.9971q-12.5059 -26.998 -38.5195 -51.9961q-26.0117 -24.999 -72.5352 -44.498q-46.5225 -19.498 -117.057 -30.998q-70.5352 -11.499 -172.584 -11.499h-53.0264
q-87.042 0 -151.574 8.5q-64.5312 8.49902 -109.554 23.998q-45.0215 15.499 -73.5352 35.998t-44.0215 43.9971q-15.5078 23.499 -21.5107 48.9971t-6.00293 50.4971v6.99902q0 32.998 9.50488 63.4961q9.50488 30.499 31.5146 55.9971q22.0117 25.498 58.5293 44.9971
t89.543 32.498l101.05 23.999q20.0098 4.99902 32.0156 10.499t18.0088 12.499q6.00293 7 8.00391 15.999q2.00098 9 2.00098 20.999v5h272.133zM347.732 538h281.137v-194.988h-281.137v194.988z" />
    <glyph glyph-name="Agrave" unicode="&#xc0;" horiz-adv-x="1107" 
d="M538 562l-122 -256h247zM754 120h-425l-57 -120h-288l368 744h382l389 -744h-311zM671 789h-257l-101 155h279z" />
    <glyph glyph-name="Aacute" unicode="&#xc1;" horiz-adv-x="1107" 
d="M538 562l-122 -256h247zM754 120h-425l-57 -120h-288l368 744h382l389 -744h-311zM496 944h279l-101 -155h-257z" />
    <glyph glyph-name="Acircumflex" unicode="&#xc2;" horiz-adv-x="1107" 
d="M538 562l-122 -256h247zM754 120h-425l-57 -120h-288l368 744h382l389 -744h-311zM847 789h-244l-62 58l-61 -58h-241l162 155h282z" />
    <glyph glyph-name="Atilde" unicode="&#xc3;" horiz-adv-x="1107" 
d="M538 562l-122 -256h247zM754 120h-425l-57 -120h-288l368 744h382l389 -744h-311zM671 793q-17 0 -31 1.5t-29 5t-33 9t-42 13.5q-23 8 -36 11.5t-24 3.5t-14.5 -6.5t-3.5 -14.5v-29h-161v85q0 15 4.5 32.5t16.5 32t34 24t58 9.5h4q17 0 31.5 -1.5t30 -5.5t33.5 -9.5
t42 -12.5q20 -7 34 -11t25 -4q8 0 12.5 6t4.5 14v29h161v-79q0 -16 -3.5 -34t-15.5 -33.5t-34 -25.5t-59 -10h-5v0z" />
    <glyph glyph-name="Adieresis" unicode="&#xc4;" horiz-adv-x="1107" 
d="M538 562l-122 -256h247zM754 120h-425l-57 -120h-288l368 744h382l389 -744h-311zM812 789h-245v155h245v-155zM519 789h-246v155h246v-155z" />
    <glyph glyph-name="Aring" unicode="&#xc5;" horiz-adv-x="1107" 
d="M538 562l-122 -256h247zM754 120h-425l-57 -120h-288l368 744h382l389 -744h-311zM344 899q0 24 9.5 46t32.5 38t61.5 25.5t96.5 9.5t96 -9.5t60.5 -25.5t31.5 -38t9 -46q0 -25 -9 -46.5t-31.5 -37.5t-60.5 -25.5t-96 -9.5q-59 0 -97.5 9.5t-61.5 25.5t-32 38t-9 46z
M467 900q0 -21 18 -33.5t59 -12.5q40 0 57.5 12.5t17.5 33.5q0 20 -17.5 32t-57.5 12q-41 0 -59 -12t-18 -32z" />
    <glyph glyph-name="AE" unicode="&#xc6;" horiz-adv-x="1516" 
d="M668 568l-191 -266h191v266zM668 116h-325l-83 -116h-286l540 744h960v-182h-526v-93h516v-181h-516v-102h534v-186h-814v116z" />
    <glyph glyph-name="Ccedilla" unicode="&#xc7;" horiz-adv-x="1126" 
d="M549 -14q-114 0 -197.5 18t-142 47.5t-95 68.5t-57 80.5t-27.5 83t-7 76.5v29q0 35 6.5 76.5t26.5 82.5t56 79t94.5 67t142.5 46.5t200 17.5h39q113 0 195.5 -15.5t140 -41t93 -58t55.5 -66t27 -65t7 -55.5v-13h-295q-2 7 -10 26t-33.5 38.5t-73 34.5t-128.5 15
q-77 0 -125.5 -15.5t-76 -40.5t-37.5 -56t-10 -62v-12q0 -30 11 -62.5t39 -60t76.5 -45t123.5 -17.5q55 0 94 8t66 20t43 26.5t25 28t12.5 24.5t4.5 15h294v-16q0 -24 -7 -56.5t-27.5 -66.5t-56.5 -67t-93.5 -59t-139.5 -42t-194 -16h-39zM390 -167h109q21 0 28.5 6t7.5 16
q0 9 -7.5 15.5t-28.5 6.5h-71v123h138v-49q60 0 97.5 -7t58.5 -20.5t28.5 -32.5t7.5 -42v-3q0 -21 -8 -40.5t-29 -33.5t-58.5 -22.5t-97.5 -8.5h-175v92z" />
    <glyph glyph-name="Egrave" unicode="&#xc8;" horiz-adv-x="913" 
d="M871 744v-182h-543v-93h532v-181h-532v-102h551v-186h-831v744h823zM618 789h-257l-101 155h279z" />
    <glyph glyph-name="Eacute" unicode="&#xc9;" horiz-adv-x="913" 
d="M871 744v-182h-543v-93h532v-181h-532v-102h551v-186h-831v744h823zM408 944h279l-101 -155h-257z" />
    <glyph glyph-name="Ecircumflex" unicode="&#xca;" horiz-adv-x="913" 
d="M871 744v-182h-543v-93h532v-181h-532v-102h551v-186h-831v744h823zM774 789h-244l-62 58l-61 -58h-241l162 155h282z" />
    <glyph glyph-name="Edieresis" unicode="&#xcb;" horiz-adv-x="913" 
d="M871 744v-182h-543v-93h532v-181h-532v-102h551v-186h-831v744h823zM738 789h-245v155h245v-155zM445 789h-246v155h246v-155z" />
    <glyph glyph-name="Igrave" unicode="&#xcc;" horiz-adv-x="379" 
d="M331 0h-283v744h283v-744zM319 789h-257l-101 155h279z" />
    <glyph glyph-name="Iacute" unicode="&#xcd;" horiz-adv-x="379" 
d="M331 0h-283v744h283v-744zM143 944h279l-101 -155h-257z" />
    <glyph glyph-name="Icircumflex" unicode="&#xce;" horiz-adv-x="379" 
d="M331 0h-283v744h283v-744zM494 789h-244l-62 58l-61 -58h-241l162 155h282z" />
    <glyph glyph-name="Idieresis" unicode="&#xcf;" horiz-adv-x="379" 
d="M331 0h-283v744h283v-744zM459 789h-245v155h245v-155zM166 789h-246v155h246v-155z" />
    <glyph glyph-name="Eth" unicode="&#xd0;" horiz-adv-x="1148" 
d="M63 296h-61v157h61v291h528q161 0 265 -30.5t164.5 -80t84 -112.5t23.5 -129v-30q0 -42 -9 -85.5t-31.5 -83.5t-61.5 -75.5t-98.5 -61.5t-142 -41t-193.5 -15h-529v296zM347 453h301v-157h-301v-99h211q93 0 147.5 18t83 44.5t36.5 57t8 54.5v6q0 24 -8 54t-36.5 56.5
t-83 44t-147.5 17.5h-211v-96z" />
    <glyph glyph-name="Ntilde" unicode="&#xd1;" horiz-adv-x="1128" 
d="M366 744l432 -423v423h282v-744h-284l-466 451v-451h-282v744h318zM696 793q-17 0 -31 1.5t-29 5t-33 9t-42 13.5q-23 8 -36 11.5t-24 3.5t-14.5 -6.5t-3.5 -14.5v-29h-161v85q0 15 4.5 32.5t16.5 32t34 24t58 9.5h4q17 0 31.5 -1.5t30 -5.5t33.5 -9.5t42 -12.5
q20 -7 34 -11t25 -4q8 0 12.5 6t4.5 14v29h161v-79q0 -16 -3.5 -34t-15.5 -33.5t-34 -25.5t-59 -10h-5v0z" />
    <glyph glyph-name="Ograve" unicode="&#xd2;" horiz-adv-x="1176" 
d="M611 758q120 0 207 -17.5t147 -47t97 -67.5t57 -79t27 -82t7 -76v-30q0 -35 -6.5 -76t-27 -82.5t-57 -80t-97 -68.5t-147.5 -48t-207 -18h-45q-120 0 -207.5 18t-147.5 48t-97 68.5t-57 80t-27 82.5t-7 76v30q0 35 6.5 76t27 82t57.5 79t97 67.5t147 47t208 17.5h45z
M859 382q0 30 -11.5 61t-41.5 56.5t-82.5 42t-135.5 16.5q-84 0 -137 -16.5t-82.5 -42t-40.5 -56.5t-11 -61v-12q0 -29 11.5 -61.5t41.5 -59.5t82.5 -44.5t135.5 -17.5q82 0 135 17t83 43.5t41.5 58.5t11.5 62v14zM717 789h-257l-101 155h279z" />
    <glyph glyph-name="Oacute" unicode="&#xd3;" horiz-adv-x="1176" 
d="M611 758q120 0 207 -17.5t147 -47t97 -67.5t57 -79t27 -82t7 -76v-30q0 -35 -6.5 -76t-27 -82.5t-57 -80t-97 -68.5t-147.5 -48t-207 -18h-45q-120 0 -207.5 18t-147.5 48t-97 68.5t-57 80t-27 82.5t-7 76v30q0 35 6.5 76t27 82t57.5 79t97 67.5t147 47t208 17.5h45z
M859 382q0 30 -11.5 61t-41.5 56.5t-82.5 42t-135.5 16.5q-84 0 -137 -16.5t-82.5 -42t-40.5 -56.5t-11 -61v-12q0 -29 11.5 -61.5t41.5 -59.5t82.5 -44.5t135.5 -17.5q82 0 135 17t83 43.5t41.5 58.5t11.5 62v14zM541 944h279l-101 -155h-257z" />
    <glyph glyph-name="Ocircumflex" unicode="&#xd4;" horiz-adv-x="1176" 
d="M611 758q120 0 207 -17.5t147 -47t97 -67.5t57 -79t27 -82t7 -76v-30q0 -35 -6.5 -76t-27 -82.5t-57 -80t-97 -68.5t-147.5 -48t-207 -18h-45q-120 0 -207.5 18t-147.5 48t-97 68.5t-57 80t-27 82.5t-7 76v30q0 35 6.5 76t27 82t57.5 79t97 67.5t147 47t208 17.5h45z
M859 382q0 30 -11.5 61t-41.5 56.5t-82.5 42t-135.5 16.5q-84 0 -137 -16.5t-82.5 -42t-40.5 -56.5t-11 -61v-12q0 -29 11.5 -61.5t41.5 -59.5t82.5 -44.5t135.5 -17.5q82 0 135 17t83 43.5t41.5 58.5t11.5 62v14zM893 789h-244l-62 58l-61 -58h-241l162 155h282z" />
    <glyph glyph-name="Otilde" unicode="&#xd5;" horiz-adv-x="1176" 
d="M611 758q120 0 207 -17.5t147 -47t97 -67.5t57 -79t27 -82t7 -76v-30q0 -35 -6.5 -76t-27 -82.5t-57 -80t-97 -68.5t-147.5 -48t-207 -18h-45q-120 0 -207.5 18t-147.5 48t-97 68.5t-57 80t-27 82.5t-7 76v30q0 35 6.5 76t27 82t57.5 79t97 67.5t147 47t208 17.5h45z
M859 382q0 30 -11.5 61t-41.5 56.5t-82.5 42t-135.5 16.5q-84 0 -137 -16.5t-82.5 -42t-40.5 -56.5t-11 -61v-12q0 -29 11.5 -61.5t41.5 -59.5t82.5 -44.5t135.5 -17.5q82 0 135 17t83 43.5t41.5 58.5t11.5 62v14zM715 795q-17 0 -31 1.5t-29 5t-33 9t-42 13.5
q-23 8 -36 11.5t-24 3.5t-14.5 -6.5t-3.5 -14.5v-29h-161v85q0 15 4.5 32.5t16.5 32t34 24t58 9.5h4q17 0 31.5 -1.5t30 -5.5t33.5 -9.5t42 -12.5q20 -7 34 -11t25 -4q8 0 12.5 6t4.5 14v29h161v-79q0 -16 -3.5 -34t-15.5 -33.5t-34 -25.5t-59 -10h-5v0z" />
    <glyph glyph-name="Odieresis" unicode="&#xd6;" horiz-adv-x="1176" 
d="M611 758q120 0 207 -17.5t147 -47t97 -67.5t57 -79t27 -82t7 -76v-30q0 -35 -6.5 -76t-27 -82.5t-57 -80t-97 -68.5t-147.5 -48t-207 -18h-45q-120 0 -207.5 18t-147.5 48t-97 68.5t-57 80t-27 82.5t-7 76v30q0 35 6.5 76t27 82t57.5 79t97 67.5t147 47t208 17.5h45z
M859 382q0 30 -11.5 61t-41.5 56.5t-82.5 42t-135.5 16.5q-84 0 -137 -16.5t-82.5 -42t-40.5 -56.5t-11 -61v-12q0 -29 11.5 -61.5t41.5 -59.5t82.5 -44.5t135.5 -17.5q82 0 135 17t83 43.5t41.5 58.5t11.5 62v14zM857 789h-245v155h245v-155zM564 789h-246v155h246v-155z
" />
    <glyph glyph-name="multiply" unicode="&#xd7;" horiz-adv-x="551" 
d="M275 200l-154 -139l-109 118l143 129l-142 126l106 120l155 -139l154 139l110 -118l-144 -129l144 -129l-107 -117z" />
    <glyph glyph-name="Oslash" unicode="&#xd8;" horiz-adv-x="1181" 
d="M568 -13q-94 0 -168.5 12t-131.5 35l-44 -34h-230q20 16 44 34q20 15 45 34.5t51 39.5q-62 53 -87 117.5t-25 132.5v30q0 35 7 76.5t27 82.5t57 79t98 67t148.5 46.5t208.5 17.5h46q93 0 165 -12t129 -34l43 33h231l-138 -107q61 -51 88 -114.5t27 -134.5v-30
q0 -35 -7 -76t-27.5 -82t-57.5 -79.5t-97.5 -68t-148 -47.5t-207.5 -18h-46zM313 370q0 -26 7 -51.5t24 -48.5l364 285q-48 6 -118 6q-85 0 -139 -16t-84.5 -41.5t-42 -57t-11.5 -63.5v-13zM590 185q84 0 137.5 16.5t85 43t43.5 59.5t12 65v14q0 25 -6.5 50t-22.5 47
l-369 -288q25 -3 55 -5t65 -2z" />
    <glyph glyph-name="Ugrave" unicode="&#xd9;" horiz-adv-x="1104" 
d="M40 744h285v-333q0 -34 9 -69.5t34.5 -64.5t69.5 -47.5t115 -18.5q69 0 113.5 18.5t69.5 47.5t34.5 64.5t9.5 69.5v333h284v-355q0 -36 -7 -79.5t-26.5 -88.5t-53.5 -86.5t-88.5 -74.5t-132 -52.5t-182.5 -19.5h-40q-108 0 -187 19.5t-133.5 52.5t-88.5 74.5t-53 86.5
t-25.5 88.5t-6.5 79.5v355zM692 788h-257l-101 155h279z" />
    <glyph glyph-name="Uacute" unicode="&#xda;" horiz-adv-x="1104" 
d="M40 744h285v-333q0 -34 9 -69.5t34.5 -64.5t69.5 -47.5t115 -18.5q69 0 113.5 18.5t69.5 47.5t34.5 64.5t9.5 69.5v333h284v-355q0 -36 -7 -79.5t-26.5 -88.5t-53.5 -86.5t-88.5 -74.5t-132 -52.5t-182.5 -19.5h-40q-108 0 -187 19.5t-133.5 52.5t-88.5 74.5t-53 86.5
t-25.5 88.5t-6.5 79.5v355zM491 944h279l-101 -155h-257z" />
    <glyph glyph-name="Ucircumflex" unicode="&#xdb;" horiz-adv-x="1104" 
d="M40 744h285v-333q0 -34 9 -69.5t34.5 -64.5t69.5 -47.5t115 -18.5q69 0 113.5 18.5t69.5 47.5t34.5 64.5t9.5 69.5v333h284v-355q0 -36 -7 -79.5t-26.5 -88.5t-53.5 -86.5t-88.5 -74.5t-132 -52.5t-182.5 -19.5h-40q-108 0 -187 19.5t-133.5 52.5t-88.5 74.5t-53 86.5
t-25.5 88.5t-6.5 79.5v355zM855 789h-244l-62 58l-61 -58h-241l162 155h282z" />
    <glyph glyph-name="Udieresis" unicode="&#xdc;" horiz-adv-x="1104" 
d="M40 744h285v-333q0 -34 9 -69.5t34.5 -64.5t69.5 -47.5t115 -18.5q69 0 113.5 18.5t69.5 47.5t34.5 64.5t9.5 69.5v333h284v-355q0 -36 -7 -79.5t-26.5 -88.5t-53.5 -86.5t-88.5 -74.5t-132 -52.5t-182.5 -19.5h-40q-108 0 -187 19.5t-133.5 52.5t-88.5 74.5t-53 86.5
t-25.5 88.5t-6.5 79.5v355zM821 789h-245v155h245v-155zM528 789h-246v155h246v-155z" />
    <glyph glyph-name="Yacute" unicode="&#xdd;" horiz-adv-x="1049" 
d="M387 280l-407 464h340l217 -257l221 257h311l-398 -466v-278h-284v280zM482 944h279l-101 -155h-257z" />
    <glyph glyph-name="Thorn" unicode="&#xde;" horiz-adv-x="1035" 
d="M332 120v-120h-284v744h284v-112h329q104 0 173 -18.5t110 -51.5t58 -78.5t17 -98.5v-15q0 -51 -17 -96.5t-58 -79.5t-110 -54t-173 -20h-329zM332 307h299q47 0 70 18.5t23 50.5v3q0 32 -22.5 50t-70.5 18h-299v-140z" />
    <glyph glyph-name="germandbls" unicode="&#xdf;" horiz-adv-x="916" 
d="M711 435q39 -7 73.5 -21.5t60 -38.5t40.5 -57.5t15 -77.5v-12q0 -42 -13.5 -82.5t-48.5 -73t-96.5 -52.5t-158.5 -20h-216v169h130q36 0 59 5.5t36 15t17.5 22t4.5 26.5v2q0 14 -4.5 26.5t-17.5 21.5t-35.5 14.5t-58.5 5.5h-131v170h120q30 0 48.5 5t28.5 12.5t13.5 17.5
t3.5 19v1q0 10 -3 20t-15.5 18.5t-38 14t-69.5 5.5h-21q-37 0 -60.5 -5t-37 -15.5t-19 -25.5t-5.5 -34v-511h-272v527q0 24 4.5 50t17.5 50t37.5 45.5t64 37t97 25t136.5 9.5h78q128 0 201.5 -16.5t110.5 -42t46.5 -55.5t9.5 -58v-7q0 -27 -11 -49t-29 -38.5t-42 -27.5
t-50 -15z" />
    <glyph glyph-name="agrave" unicode="&#xe0;" horiz-adv-x="846" 
d="M521 254l-180 -32q-35 -6 -50.5 -16t-15.5 -30v-1q0 -9 4 -19t13.5 -18t26 -13t41.5 -5q37 0 67 9.5t51 25t32 35.5t11 41v23zM526 72q-10 -10 -28.5 -24t-48.5 -27t-73.5 -22t-101.5 -9h-11q-68 0 -115 14.5t-77 39t-43.5 55.5t-13.5 64v12q0 34 11.5 60.5t37.5 46
t67.5 32t101.5 17.5l259 23q17 2 23.5 8.5t6.5 17.5q0 7 -3.5 14.5t-15.5 13.5t-35 9.5t-63 3.5h-4q-43 0 -67 -6t-35.5 -15t-14.5 -18.5t-4 -15.5h-252v6q0 27 8.5 58.5t43 58.5t103.5 45t190 18h56q84 0 143.5 -7.5t99 -21t63 -30.5t35 -36.5t15 -39.5t3.5 -38v-199
q0 -11 4.5 -17t18.5 -6h29v-157h-226q-35 0 -58 18.5t-29 53.5zM283 583l-111 161h270l88 -161h-247z" />
    <glyph glyph-name="aacute" unicode="&#xe1;" horiz-adv-x="846" 
d="M521 254l-180 -32q-35 -6 -50.5 -16t-15.5 -30v-1q0 -9 4 -19t13.5 -18t26 -13t41.5 -5q37 0 67 9.5t51 25t32 35.5t11 41v23zM526 72q-10 -10 -28.5 -24t-48.5 -27t-73.5 -22t-101.5 -9h-11q-68 0 -115 14.5t-77 39t-43.5 55.5t-13.5 64v12q0 34 11.5 60.5t37.5 46
t67.5 32t101.5 17.5l259 23q17 2 23.5 8.5t6.5 17.5q0 7 -3.5 14.5t-15.5 13.5t-35 9.5t-63 3.5h-4q-43 0 -67 -6t-35.5 -15t-14.5 -18.5t-4 -15.5h-252v6q0 27 8.5 58.5t43 58.5t103.5 45t190 18h56q84 0 143.5 -7.5t99 -21t63 -30.5t35 -36.5t15 -39.5t3.5 -38v-199
q0 -11 4.5 -17t18.5 -6h29v-157h-226q-35 0 -58 18.5t-29 53.5zM369 744h268l-111 -161h-246z" />
    <glyph glyph-name="acircumflex" unicode="&#xe2;" horiz-adv-x="846" 
d="M521 254l-180 -32q-35 -6 -50.5 -16t-15.5 -30v-1q0 -9 4 -19t13.5 -18t26 -13t41.5 -5q37 0 67 9.5t51 25t32 35.5t11 41v23zM526 72q-10 -10 -28.5 -24t-48.5 -27t-73.5 -22t-101.5 -9h-11q-68 0 -115 14.5t-77 39t-43.5 55.5t-13.5 64v12q0 34 11.5 60.5t37.5 46
t67.5 32t101.5 17.5l259 23q17 2 23.5 8.5t6.5 17.5q0 7 -3.5 14.5t-15.5 13.5t-35 9.5t-63 3.5h-4q-43 0 -67 -6t-35.5 -15t-14.5 -18.5t-4 -15.5h-252v6q0 27 8.5 58.5t43 58.5t103.5 45t190 18h56q84 0 143.5 -7.5t99 -21t63 -30.5t35 -36.5t15 -39.5t3.5 -38v-199
q0 -11 4.5 -17t18.5 -6h29v-157h-226q-35 0 -58 18.5t-29 53.5zM695 582h-237l-58 66l-58 -66h-233l152 162h281z" />
    <glyph glyph-name="atilde" unicode="&#xe3;" horiz-adv-x="846" 
d="M521 254l-180 -32q-35 -6 -50.5 -16t-15.5 -30v-1q0 -9 4 -19t13.5 -18t26 -13t41.5 -5q37 0 67 9.5t51 25t32 35.5t11 41v23zM526 72q-10 -10 -28.5 -24t-48.5 -27t-73.5 -22t-101.5 -9h-11q-68 0 -115 14.5t-77 39t-43.5 55.5t-13.5 64v12q0 34 11.5 60.5t37.5 46
t67.5 32t101.5 17.5l259 23q17 2 23.5 8.5t6.5 17.5q0 7 -3.5 14.5t-15.5 13.5t-35 9.5t-63 3.5h-4q-43 0 -67 -6t-35.5 -15t-14.5 -18.5t-4 -15.5h-252v6q0 27 8.5 58.5t43 58.5t103.5 45t190 18h56q84 0 143.5 -7.5t99 -21t63 -30.5t35 -36.5t15 -39.5t3.5 -38v-199
q0 -11 4.5 -17t18.5 -6h29v-157h-226q-35 0 -58 18.5t-29 53.5zM525 587q-15 0 -28.5 1.5t-28.5 5t-33 9t-42 13.5q-22 7 -34 10.5t-22 3.5t-13 -6t-3 -15v-27h-159v81q0 15 4 32.5t16 31.5t33.5 23.5t56.5 9.5h4q16 0 30 -1.5t28.5 -4.5t32 -8.5t42.5 -13.5q20 -7 32 -11
t23 -4q8 0 11.5 6t3.5 14v29h160v-76q0 -16 -3.5 -34t-15 -33.5t-33.5 -25.5t-58 -10h-4v0z" />
    <glyph glyph-name="adieresis" unicode="&#xe4;" horiz-adv-x="846" 
d="M521 254l-180 -32q-35 -6 -50.5 -16t-15.5 -30v-1q0 -9 4 -19t13.5 -18t26 -13t41.5 -5q37 0 67 9.5t51 25t32 35.5t11 41v23zM526 72q-10 -10 -28.5 -24t-48.5 -27t-73.5 -22t-101.5 -9h-11q-68 0 -115 14.5t-77 39t-43.5 55.5t-13.5 64v12q0 34 11.5 60.5t37.5 46
t67.5 32t101.5 17.5l259 23q17 2 23.5 8.5t6.5 17.5q0 7 -3.5 14.5t-15.5 13.5t-35 9.5t-63 3.5h-4q-43 0 -67 -6t-35.5 -15t-14.5 -18.5t-4 -15.5h-252v6q0 27 8.5 58.5t43 58.5t103.5 45t190 18h56q84 0 143.5 -7.5t99 -21t63 -30.5t35 -36.5t15 -39.5t3.5 -38v-199
q0 -11 4.5 -17t18.5 -6h29v-157h-226q-35 0 -58 18.5t-29 53.5zM662 583h-238v161h238v-161zM378 583h-237v161h237v-161z" />
    <glyph glyph-name="aring" unicode="&#xe5;" horiz-adv-x="846" 
d="M521 254l-180 -32q-35 -6 -50.5 -16t-15.5 -30v-1q0 -9 4 -19t13.5 -18t26 -13t41.5 -5q37 0 67 9.5t51 25t32 35.5t11 41v23zM526 72q-10 -10 -28.5 -24t-48.5 -27t-73.5 -22t-101.5 -9h-11q-68 0 -115 14.5t-77 39t-43.5 55.5t-13.5 64v12q0 34 11.5 60.5t37.5 46
t67.5 32t101.5 17.5l259 23q17 2 23.5 8.5t6.5 17.5q0 7 -3.5 14.5t-15.5 13.5t-35 9.5t-63 3.5h-4q-43 0 -67 -6t-35.5 -15t-14.5 -18.5t-4 -15.5h-252v6q0 27 8.5 58.5t43 58.5t103.5 45t190 18h56q84 0 143.5 -7.5t99 -21t63 -30.5t35 -36.5t15 -39.5t3.5 -38v-199
q0 -11 4.5 -17t18.5 -6h29v-157h-226q-35 0 -58 18.5t-29 53.5zM203 696q0 24 9.5 45.5t32.5 37.5t61 25.5t95 9.5t94.5 -9.5t60 -25.5t31.5 -37.5t9 -45.5q0 -25 -9 -46.5t-31.5 -37.5t-60 -25.5t-94.5 -9.5q-58 0 -96.5 9.5t-61 25.5t-31.5 38t-9 46zM326 696
q0 -20 18 -32.5t57 -12.5q38 0 55.5 12.5t17.5 32.5t-17.5 32t-55.5 12q-39 0 -57 -12t-18 -32z" />
    <glyph glyph-name="ae" unicode="&#xe6;" horiz-adv-x="1381" 
d="M939 421q-77 0 -111 -22.5t-43 -58.5h310q-8 38 -43 59.5t-111 21.5h-2zM359 119q37 0 66 9.5t49.5 25t31.5 36t11 41.5v23l-178 -31q-33 -6 -49 -16t-16 -30v-1q0 -10 4 -20t14 -18.5t26.5 -13.5t40.5 -5zM1362 194q0 -19 -5 -41.5t-19.5 -45.5t-41 -45t-70.5 -39
t-107 -27t-150 -10h-55q-71 0 -125.5 9t-95.5 24t-70.5 35.5t-50.5 44.5q-11 -12 -32 -31t-54.5 -36t-81.5 -29.5t-114 -12.5h-11q-75 0 -125.5 14.5t-81.5 39t-44.5 55.5t-13.5 64v12q0 68 49.5 107.5t167.5 49.5l263 23q14 2 18.5 8.5t4.5 17.5v1q0 7 -3.5 13.5t-15.5 12
t-35 9t-62 3.5h-5q-42 0 -65.5 -6t-35 -14.5t-14 -18t-2.5 -15.5h-251v6q0 17 2.5 37t13.5 40t32.5 38.5t59.5 33t94.5 23t138.5 8.5h55q55 0 96 -4.5t71 -11.5t50 -16t33 -18q14 9 34.5 17.5t49.5 16t67 12t86 4.5h57q88 0 152 -13t108 -34.5t70.5 -50.5t41 -61.5
t19.5 -66.5t5 -66v-30h-582q3 -21 13.5 -39t29.5 -31.5t48.5 -21t70.5 -7.5h1q49 0 79 8.5t45.5 20t21 22t5.5 14.5h266v-2z" />
    <glyph glyph-name="ccedilla" unicode="&#xe7;" horiz-adv-x="887" 
d="M415 -15q-86 0 -149 13t-107 34.5t-71.5 49.5t-42.5 59t-20.5 62.5t-5.5 59.5v18q0 28 5.5 59t20.5 61t42 57.5t71 48.5t107 33.5t149 12.5h62q90 0 154 -12.5t108 -33t70.5 -46.5t40.5 -53t18.5 -52t4.5 -43v-3h-278q-1 7 -6.5 22.5t-21 31.5t-44.5 27.5t-77 11.5h-4
q-43 0 -71.5 -11t-45 -28.5t-23 -40t-6.5 -45.5v-5q0 -24 7 -48.5t23.5 -44t44.5 -31.5t71 -12h4q48 0 76.5 12t44.5 28.5t21.5 32.5t6.5 24h278v-2q0 -18 -4 -43.5t-17.5 -53t-39 -54.5t-70 -48.5t-109.5 -34.5t-157 -13h-60zM260 -167h109q21 0 28.5 6t7.5 16
q0 9 -7.5 15.5t-28.5 6.5h-71v123h138v-49q60 0 97.5 -7t58.5 -20.5t28.5 -32.5t7.5 -42v-3q0 -21 -8 -40.5t-29 -33.5t-58.5 -22.5t-97.5 -8.5h-175v92z" />
    <glyph glyph-name="egrave" unicode="&#xe8;" horiz-adv-x="888" 
d="M444 421q-39 0 -66 -6t-45 -16.5t-28.5 -25.5t-15.5 -33h310q-8 38 -43 59.5t-112 21.5zM869 194q0 -19 -5 -41.5t-20 -46t-42 -45.5t-71 -38.5t-107.5 -27t-151.5 -10.5h-53q-124 0 -202 25.5t-122 65.5t-60 89.5t-16 96.5v20q0 47 15 95t58.5 87t121 64t202.5 25h55
q88 0 151.5 -12.5t108 -34.5t72 -51t42.5 -61.5t20.5 -67t5.5 -66.5v-30h-585q3 -21 13.5 -39t30 -31.5t49 -21t70.5 -7.5h1q48 0 77.5 8.5t45.5 19.5t21.5 21.5t6.5 15.5h268v-2zM319 583l-111 161h270l88 -161h-247z" />
    <glyph glyph-name="eacute" unicode="&#xe9;" horiz-adv-x="888" 
d="M444 421q-39 0 -66 -6t-45 -16.5t-28.5 -25.5t-15.5 -33h310q-8 38 -43 59.5t-112 21.5zM869 194q0 -19 -5 -41.5t-20 -46t-42 -45.5t-71 -38.5t-107.5 -27t-151.5 -10.5h-53q-124 0 -202 25.5t-122 65.5t-60 89.5t-16 96.5v20q0 47 15 95t58.5 87t121 64t202.5 25h55
q88 0 151.5 -12.5t108 -34.5t72 -51t42.5 -61.5t20.5 -67t5.5 -66.5v-30h-585q3 -21 13.5 -39t30 -31.5t49 -21t70.5 -7.5h1q48 0 77.5 8.5t45.5 19.5t21.5 21.5t6.5 15.5h268v-2zM413 744h268l-111 -161h-246z" />
    <glyph glyph-name="ecircumflex" unicode="&#xea;" horiz-adv-x="888" 
d="M444 421q-39 0 -66 -6t-45 -16.5t-28.5 -25.5t-15.5 -33h310q-8 38 -43 59.5t-112 21.5zM869 194q0 -19 -5 -41.5t-20 -46t-42 -45.5t-71 -38.5t-107.5 -27t-151.5 -10.5h-53q-124 0 -202 25.5t-122 65.5t-60 89.5t-16 96.5v20q0 47 15 95t58.5 87t121 64t202.5 25h55
q88 0 151.5 -12.5t108 -34.5t72 -51t42.5 -61.5t20.5 -67t5.5 -66.5v-30h-585q3 -21 13.5 -39t30 -31.5t49 -21t70.5 -7.5h1q48 0 77.5 8.5t45.5 19.5t21.5 21.5t6.5 15.5h268v-2zM739 582h-237l-58 66l-58 -66h-233l152 162h281z" />
    <glyph glyph-name="edieresis" unicode="&#xeb;" horiz-adv-x="888" 
d="M444 421q-39 0 -66 -6t-45 -16.5t-28.5 -25.5t-15.5 -33h310q-8 38 -43 59.5t-112 21.5zM869 194q0 -19 -5 -41.5t-20 -46t-42 -45.5t-71 -38.5t-107.5 -27t-151.5 -10.5h-53q-124 0 -202 25.5t-122 65.5t-60 89.5t-16 96.5v20q0 47 15 95t58.5 87t121 64t202.5 25h55
q88 0 151.5 -12.5t108 -34.5t72 -51t42.5 -61.5t20.5 -67t5.5 -66.5v-30h-585q3 -21 13.5 -39t30 -31.5t49 -21t70.5 -7.5h1q48 0 77.5 8.5t45.5 19.5t21.5 21.5t6.5 15.5h268v-2zM706 583h-238v161h238v-161zM422 583h-237v161h237v-161z" />
    <glyph glyph-name="igrave" unicode="&#xec;" horiz-adv-x="352" 
d="M312 0h-272v538h272v-538zM53 583l-111 161h270l88 -161h-247z" />
    <glyph glyph-name="iacute" unicode="&#xed;" horiz-adv-x="352" 
d="M312 0h-272v538h272v-538zM143 744h268l-111 -161h-246z" />
    <glyph glyph-name="icircumflex" unicode="&#xee;" horiz-adv-x="352" 
d="M410 583h-192l-44 66l-43 -66h-190l109 161h251zM312 0h-272v538h272v-538z" />
    <glyph glyph-name="idieresis" unicode="&#xef;" horiz-adv-x="352" 
d="M383 583h-189v161h189v-161zM157 583h-188v161h188v-161zM312 0h-272v538h272v-538z" />
    <glyph glyph-name="eth" unicode="&#xf0;" horiz-adv-x="927" 
d="M432 -15q-123 0 -203 24.5t-126.5 63.5t-65 87t-18.5 95v23q0 49 15 95.5t51 83t96.5 58.5t150.5 22h14q78 0 130.5 -14.5t90.5 -33.5l-132 95l-276 -30v91l166 18l-111 81h327l70 -50l213 23v-91l-102 -11q51 -37 86.5 -73.5t57.5 -74.5t32 -79t10 -86v-20
q0 -30 -4 -63.5t-18.5 -66.5t-42.5 -63t-74.5 -53.5t-115.5 -37t-166 -13.5h-55zM632 273q0 22 -7.5 44.5t-27 40.5t-52 29.5t-81.5 11.5h-2q-50 0 -82.5 -11.5t-51.5 -29.5t-26.5 -40.5t-7.5 -44.5v-4q0 -23 7.5 -46t26.5 -42t51.5 -31t82.5 -12h1q50 0 83 12t52 31
t26.5 42.5t7.5 45.5v4z" />
    <glyph glyph-name="ntilde" unicode="&#xf1;" horiz-adv-x="897" 
d="M40 538h270v-95q10 9 31 27t55 36t81.5 31t110.5 13h6q75 0 126 -20t81.5 -50t43.5 -66t13 -68v-346h-273v257q0 54 -30 89t-100 35q-69 0 -106 -37t-37 -94v-250h-272v538zM573 585q-15 0 -28.5 1.5t-28.5 5t-33 9t-42 13.5q-22 7 -34 10.5t-22 3.5t-13 -6t-3 -15v-27
h-159v81q0 15 4 32.5t16 31.5t33.5 23.5t56.5 9.5h4q16 0 30 -1.5t28.5 -4.5t32 -8.5t42.5 -13.5q20 -7 32 -11t23 -4q8 0 11.5 6t3.5 14v29h160v-76q0 -16 -3.5 -34t-15 -33.5t-33.5 -25.5t-58 -10h-4v0z" />
    <glyph glyph-name="ograve" unicode="&#xf2;" horiz-adv-x="927" 
d="M427 -15q-86 0 -150 12.5t-109 34t-74 49.5t-45.5 59t-23 63t-6.5 61v16q0 28 6 59.5t22.5 62t45.5 58t74 48t109 33t150 12.5h76q89 0 154 -12.5t110 -33.5t73 -48t43.5 -57.5t20.5 -61.5t5 -59v-18q0 -29 -5 -60.5t-20 -62.5t-42.5 -59t-73 -49.5t-111 -34
t-155.5 -12.5h-74zM464 401q-50 0 -83 -11.5t-52 -29.5t-26.5 -40.5t-7.5 -44.5v-4q0 -22 7.5 -45.5t26.5 -43t51.5 -32t83.5 -12.5h1q50 0 82.5 13t51.5 32.5t26.5 43t7.5 44.5v4q0 22 -7.5 44.5t-26.5 40.5t-51.5 29.5t-82.5 11.5h-1zM340 583l-111 161h270l88 -161h-247z
" />
    <glyph glyph-name="oacute" unicode="&#xf3;" horiz-adv-x="927" 
d="M427 -15q-86 0 -150 12.5t-109 34t-74 49.5t-45.5 59t-23 63t-6.5 61v16q0 28 6 59.5t22.5 62t45.5 58t74 48t109 33t150 12.5h76q89 0 154 -12.5t110 -33.5t73 -48t43.5 -57.5t20.5 -61.5t5 -59v-18q0 -29 -5 -60.5t-20 -62.5t-42.5 -59t-73 -49.5t-111 -34
t-155.5 -12.5h-74zM464 401q-50 0 -83 -11.5t-52 -29.5t-26.5 -40.5t-7.5 -44.5v-4q0 -22 7.5 -45.5t26.5 -43t51.5 -32t83.5 -12.5h1q50 0 82.5 13t51.5 32.5t26.5 43t7.5 44.5v4q0 22 -7.5 44.5t-26.5 40.5t-51.5 29.5t-82.5 11.5h-1zM429 744h268l-111 -161h-246z" />
    <glyph glyph-name="ocircumflex" unicode="&#xf4;" horiz-adv-x="927" 
d="M427 -15q-86 0 -150 12.5t-109 34t-74 49.5t-45.5 59t-23 63t-6.5 61v16q0 28 6 59.5t22.5 62t45.5 58t74 48t109 33t150 12.5h76q89 0 154 -12.5t110 -33.5t73 -48t43.5 -57.5t20.5 -61.5t5 -59v-18q0 -29 -5 -60.5t-20 -62.5t-42.5 -59t-73 -49.5t-111 -34
t-155.5 -12.5h-74zM464 401q-50 0 -83 -11.5t-52 -29.5t-26.5 -40.5t-7.5 -44.5v-4q0 -22 7.5 -45.5t26.5 -43t51.5 -32t83.5 -12.5h1q50 0 82.5 13t51.5 32.5t26.5 43t7.5 44.5v4q0 22 -7.5 44.5t-26.5 40.5t-51.5 29.5t-82.5 11.5h-1zM757 582h-237l-58 66l-58 -66h-233
l152 162h281z" />
    <glyph glyph-name="otilde" unicode="&#xf5;" horiz-adv-x="927" 
d="M427 -15q-86 0 -150 12.5t-109 34t-74 49.5t-45.5 59t-23 63t-6.5 61v16q0 28 6 59.5t22.5 62t45.5 58t74 48t109 33t150 12.5h76q89 0 154 -12.5t110 -33.5t73 -48t43.5 -57.5t20.5 -61.5t5 -59v-18q0 -29 -5 -60.5t-20 -62.5t-42.5 -59t-73 -49.5t-111 -34
t-155.5 -12.5h-74zM464 401q-50 0 -83 -11.5t-52 -29.5t-26.5 -40.5t-7.5 -44.5v-4q0 -22 7.5 -45.5t26.5 -43t51.5 -32t83.5 -12.5h1q50 0 82.5 13t51.5 32.5t26.5 43t7.5 44.5v4q0 22 -7.5 44.5t-26.5 40.5t-51.5 29.5t-82.5 11.5h-1zM586 587q-15 0 -28.5 1.5t-28.5 5
t-33 9t-42 13.5q-22 7 -34 10.5t-22 3.5t-13 -6t-3 -15v-27h-159v81q0 15 4 32.5t16 31.5t33.5 23.5t56.5 9.5h4q16 0 30 -1.5t28.5 -4.5t32 -8.5t42.5 -13.5q20 -7 32 -11t23 -4q8 0 11.5 6t3.5 14v29h160v-76q0 -16 -3.5 -34t-15 -33.5t-33.5 -25.5t-58 -10h-4v0z" />
    <glyph glyph-name="odieresis" unicode="&#xf6;" horiz-adv-x="927" 
d="M427 -15q-86 0 -150 12.5t-109 34t-74 49.5t-45.5 59t-23 63t-6.5 61v16q0 28 6 59.5t22.5 62t45.5 58t74 48t109 33t150 12.5h76q89 0 154 -12.5t110 -33.5t73 -48t43.5 -57.5t20.5 -61.5t5 -59v-18q0 -29 -5 -60.5t-20 -62.5t-42.5 -59t-73 -49.5t-111 -34
t-155.5 -12.5h-74zM464 401q-50 0 -83 -11.5t-52 -29.5t-26.5 -40.5t-7.5 -44.5v-4q0 -22 7.5 -45.5t26.5 -43t51.5 -32t83.5 -12.5h1q50 0 82.5 13t51.5 32.5t26.5 43t7.5 44.5v4q0 22 -7.5 44.5t-26.5 40.5t-51.5 29.5t-82.5 11.5h-1zM724 583h-238v161h238v-161zM440 583
h-237v161h237v-161z" />
    <glyph glyph-name="divide" unicode="&#xf7;" horiz-adv-x="614" 
d="M407 432h-200v160h200v-160zM584 384v-151h-554v151h554zM407 23h-200v160h200v-160z" />
    <glyph glyph-name="oslash" unicode="&#xf8;" horiz-adv-x="927" 
d="M425 -15q-69 0 -126.5 11t-98.5 28l-37 -24h-177l118 82q-42 32 -63.5 78.5t-21.5 103.5v16q0 28 6.5 59.5t23 62t45.5 58t74.5 48t109 33t150.5 12.5h75q75 0 131 -12t92 -26l34 23h180l-115 -79q83 -69 83 -178v-18q0 -29 -5 -60.5t-20.5 -62.5t-43.5 -59t-73.5 -49.5
t-111 -34t-155.5 -12.5h-74zM289 271q0 -29 10 -55l254 176q-17 5 -39 8.5t-49 3.5h-2q-52 0 -86 -11.5t-53.5 -30.5t-27 -42t-7.5 -45v-4zM465 136q52 0 86 13t53.5 33t27 43.5t7.5 45.5v4q0 12 -1.5 24.5t-6.5 24.5l-253 -176q34 -12 86 -12h1z" />
    <glyph glyph-name="ugrave" unicode="&#xf9;" horiz-adv-x="887" 
d="M847 0h-270v96q-10 -10 -30.5 -28t-54 -36t-80 -31t-108.5 -13h-7q-75 0 -124.5 20.5t-79.5 52t-42 68t-12 69.5v340h273v-257q0 -26 6.5 -48.5t21.5 -39.5t38.5 -26.5t57.5 -9.5q68 0 104 38t36 93v250h271v-538zM323 583l-111 161h270l88 -161h-247z" />
    <glyph glyph-name="uacute" unicode="&#xfa;" horiz-adv-x="887" 
d="M847 0h-270v96q-10 -10 -30.5 -28t-54 -36t-80 -31t-108.5 -13h-7q-75 0 -124.5 20.5t-79.5 52t-42 68t-12 69.5v340h273v-257q0 -26 6.5 -48.5t21.5 -39.5t38.5 -26.5t57.5 -9.5q68 0 104 38t36 93v250h271v-538zM404 744h268l-111 -161h-246z" />
    <glyph glyph-name="ucircumflex" unicode="&#xfb;" horiz-adv-x="887" 
d="M847 0h-270v96q-10 -10 -30.5 -28t-54 -36t-80 -31t-108.5 -13h-7q-75 0 -124.5 20.5t-79.5 52t-42 68t-12 69.5v340h273v-257q0 -26 6.5 -48.5t21.5 -39.5t38.5 -26.5t57.5 -9.5q68 0 104 38t36 93v250h271v-538zM736 582h-237l-58 66l-58 -66h-233l152 162h281z" />
    <glyph glyph-name="udieresis" unicode="&#xfc;" horiz-adv-x="887" 
d="M847 0h-270v96q-10 -10 -30.5 -28t-54 -36t-80 -31t-108.5 -13h-7q-75 0 -124.5 20.5t-79.5 52t-42 68t-12 69.5v340h273v-257q0 -26 6.5 -48.5t21.5 -39.5t38.5 -26.5t57.5 -9.5q68 0 104 38t36 93v250h271v-538zM703 583h-238v161h238v-161zM419 583h-237v161h237v-161
z" />
    <glyph glyph-name="yacute" unicode="&#xfd;" horiz-adv-x="827" 
d="M119 -22h122q15 0 20 5t5 12v1q0 8 -6 20.5t-17 33.5l-254 488h290l150 -346l139 346h270l-259 -561q-39 -85 -86.5 -125t-120.5 -40h-253v166zM381 744h268l-111 -161h-246z" />
    <glyph glyph-name="thorn" unicode="&#xfe;" horiz-adv-x="933" 
d="M312 268q0 -22 9.5 -45t30 -41.5t52 -30t75.5 -11.5h5q45 0 75 12t47.5 30.5t24.5 41t7 44.5v4q0 23 -7 46t-24.5 41t-47.5 29t-75 11h-5q-45 0 -76.5 -11t-51.5 -29t-29.5 -40.5t-9.5 -46.5v-4zM312 744v-281q8 7 27.5 21t52 28.5t78 25t104.5 10.5h21q93 0 154 -22.5
t98 -59t52 -84t15 -97.5v-21q0 -51 -16 -100t-53.5 -87.5t-100 -62.5t-155.5 -24h-19q-58 0 -102.5 9.5t-76.5 22t-52 25t-27 19.5v-254h-272v932h272z" />
    <glyph glyph-name="ydieresis" unicode="&#xff;" horiz-adv-x="827" 
d="M119 -22h122q15 0 20 5t5 12v1q0 8 -6 20.5t-17 33.5l-254 488h290l150 -346l139 346h270l-259 -561q-39 -85 -86.5 -125t-120.5 -40h-253v166zM685 583h-238v161h238v-161zM401 583h-237v161h237v-161z" />
    <glyph glyph-name="Amacron" unicode="&#x100;" horiz-adv-x="1107" 
d="M538 562l-122 -256h247zM754 120h-425l-57 -120h-288l368 744h382l389 -744h-311zM308 929h469v-132h-469v132z" />
    <glyph glyph-name="amacron" unicode="&#x101;" horiz-adv-x="846" 
d="M521 254l-180 -32q-35 -6 -50.5 -16t-15.5 -30v-1q0 -9 4 -19t13.5 -18t26 -13t41.5 -5q37 0 67 9.5t51 25t32 35.5t11 41v23zM526 72q-10 -10 -28.5 -24t-48.5 -27t-73.5 -22t-101.5 -9h-11q-68 0 -115 14.5t-77 39t-43.5 55.5t-13.5 64v12q0 34 11.5 60.5t37.5 46
t67.5 32t101.5 17.5l259 23q17 2 23.5 8.5t6.5 17.5q0 7 -3.5 14.5t-15.5 13.5t-35 9.5t-63 3.5h-4q-43 0 -67 -6t-35.5 -15t-14.5 -18.5t-4 -15.5h-252v6q0 27 8.5 58.5t43 58.5t103.5 45t190 18h56q84 0 143.5 -7.5t99 -21t63 -30.5t35 -36.5t15 -39.5t3.5 -38v-199
q0 -11 4.5 -17t18.5 -6h29v-157h-226q-35 0 -58 18.5t-29 53.5zM176 723h452v-129h-452v129z" />
    <glyph glyph-name="Abreve" unicode="&#x102;" horiz-adv-x="1107" 
d="M538 562l-122 -256h247zM754 120h-425l-57 -120h-288l368 744h382l389 -744h-311zM524 782q-73 0 -117.5 19t-68.5 46t-32 56t-8 49v2h183q0 -5 2.5 -13t9 -16t19 -14t33.5 -6q20 0 32.5 6t19 14t8.5 16t2 13h180v-2q0 -20 -10 -49t-35 -56t-68 -46t-110 -19h-40v0z" />
    <glyph glyph-name="abreve" unicode="&#x103;" horiz-adv-x="846" 
d="M384 578q-71 0 -115 18.5t-68 44t-32 53.5t-8 48v2h181q0 -5 2.5 -13t9 -15.5t19 -13t32.5 -5.5q19 0 31 5.5t19 13t9.5 15.5t2.5 13h178v-2q0 -20 -10 -48t-35.5 -53.5t-68 -44t-107.5 -18.5h-40v0zM521 254l-180 -32q-35 -6 -50.5 -16t-15.5 -30v-1q0 -9 4 -19
t13.5 -18t26 -13t41.5 -5q37 0 67 9.5t51 25t32 35.5t11 41v23zM526 72q-10 -10 -28.5 -24t-48.5 -27t-73.5 -22t-101.5 -9h-11q-68 0 -115 14.5t-77 39t-43.5 55.5t-13.5 64v12q0 34 11.5 60.5t37.5 46t67.5 32t101.5 17.5l259 23q17 2 23.5 8.5t6.5 17.5q0 7 -3.5 14.5
t-15.5 13.5t-35 9.5t-63 3.5h-4q-43 0 -67 -6t-35.5 -15t-14.5 -18.5t-4 -15.5h-252v6q0 27 8.5 58.5t43 58.5t103.5 45t190 18h56q84 0 143.5 -7.5t99 -21t63 -30.5t35 -36.5t15 -39.5t3.5 -38v-199q0 -11 4.5 -17t18.5 -6h29v-157h-226q-35 0 -58 18.5t-29 53.5z" />
    <glyph glyph-name="Aogonek" unicode="&#x104;" horiz-adv-x="1107" 
d="M538 562l-122 -256h247zM754 120h-425l-57 -120h-288l368 744h382l389 -744h-311zM815 -113q0 41 50 66t143 47h114q-26 -17 -43 -31.5t-17 -29.5q0 -21 33 -21h27v-106h-160q-78 0 -112.5 18.5t-34.5 53.5v3z" />
    <glyph glyph-name="aogonek" unicode="&#x105;" horiz-adv-x="846" 
d="M521 254l-180 -32q-35 -6 -50.5 -16t-15.5 -30v-1q0 -9 4 -19t13.5 -18t26 -13t41.5 -5q37 0 67 9.5t51 25t32 35.5t11 41v23zM526 72q-10 -10 -28.5 -24t-48.5 -27t-73.5 -22t-101.5 -9h-11q-68 0 -115 14.5t-77 39t-43.5 55.5t-13.5 64v12q0 34 11.5 60.5t37.5 46
t67.5 32t101.5 17.5l259 23q17 2 23.5 8.5t6.5 17.5q0 7 -3.5 14.5t-15.5 13.5t-35 9.5t-63 3.5h-4q-43 0 -67 -6t-35.5 -15t-14.5 -18.5t-4 -15.5h-252v6q0 27 8.5 58.5t43 58.5t103.5 45t190 18h56q84 0 143.5 -7.5t99 -21t63 -30.5t35 -36.5t15 -39.5t3.5 -38v-199
q0 -11 4.5 -17t18.5 -6h29v-157h-226q-35 0 -58 18.5t-29 53.5zM532 -113q0 41 50 66t143 47h114q-26 -17 -43 -31.5t-17 -29.5q0 -21 33 -21h27v-106h-160q-78 0 -112.5 18.5t-34.5 53.5v3z" />
    <glyph glyph-name="Cacute" unicode="&#x106;" horiz-adv-x="1126" 
d="M518 944h279l-101 -152h-257zM549 -14q-114 0 -197.5 18t-142 47.5t-95 68.5t-57 80.5t-27.5 83t-7 76.5v29q0 35 6.5 76.5t26.5 82.5t56 79t94.5 67t142.5 46.5t200 17.5h39q113 0 195.5 -15.5t140 -41t93 -58t55.5 -66t27 -65t7 -55.5v-13h-295q-2 7 -10 26t-33.5 38.5
t-73 34.5t-128.5 15q-77 0 -125.5 -15.5t-76 -40.5t-37.5 -56t-10 -62v-12q0 -30 11 -62.5t39 -60t76.5 -45t123.5 -17.5q55 0 94 8t66 20t43 26.5t25 28t12.5 24.5t4.5 15h294v-16q0 -24 -7 -56.5t-27.5 -66.5t-56.5 -67t-93.5 -59t-139.5 -42t-194 -16h-39z" />
    <glyph glyph-name="cacute" unicode="&#x107;" horiz-adv-x="887" 
d="M410 744h268l-110 -159h-246zM415 -15q-86 0 -149 13t-107 34.5t-71.5 49.5t-42.5 59t-20.5 62.5t-5.5 59.5v18q0 28 5.5 59t20.5 61t42 57.5t71 48.5t107 33.5t149 12.5h62q90 0 154 -12.5t108 -33t70.5 -46.5t40.5 -53t18.5 -52t4.5 -43v-3h-278q-1 7 -6.5 22.5
t-21 31.5t-44.5 27.5t-77 11.5h-4q-43 0 -71.5 -11t-45 -28.5t-23 -40t-6.5 -45.5v-5q0 -24 7 -48.5t23.5 -44t44.5 -31.5t71 -12h4q48 0 76.5 12t44.5 28.5t21.5 32.5t6.5 24h278v-2q0 -18 -4 -43.5t-17.5 -53t-39 -54.5t-70 -48.5t-109.5 -34.5t-157 -13h-60z" />
    <glyph glyph-name="Ccircumflex" unicode="&#x108;" horiz-adv-x="1126" 
d="M870 791h-243l-62 58l-62 -58h-241l159 153h288zM549 -14q-114 0 -197.5 18t-142 47.5t-95 68.5t-57 80.5t-27.5 83t-7 76.5v29q0 35 6.5 76.5t26.5 82.5t56 79t94.5 67t142.5 46.5t200 17.5h39q113 0 195.5 -15.5t140 -41t93 -58t55.5 -66t27 -65t7 -55.5v-13h-295
q-2 7 -10 26t-33.5 38.5t-73 34.5t-128.5 15q-77 0 -125.5 -15.5t-76 -40.5t-37.5 -56t-10 -62v-12q0 -30 11 -62.5t39 -60t76.5 -45t123.5 -17.5q55 0 94 8t66 20t43 26.5t25 28t12.5 24.5t4.5 15h294v-16q0 -24 -7 -56.5t-27.5 -66.5t-56.5 -67t-93.5 -59t-139.5 -42
t-194 -16h-39z" />
    <glyph glyph-name="ccircumflex" unicode="&#x109;" horiz-adv-x="887" 
d="M738 584h-237l-57 64l-58 -64h-234l152 160h281zM415 -15q-86 0 -149 13t-107 34.5t-71.5 49.5t-42.5 59t-20.5 62.5t-5.5 59.5v18q0 28 5.5 59t20.5 61t42 57.5t71 48.5t107 33.5t149 12.5h62q90 0 154 -12.5t108 -33t70.5 -46.5t40.5 -53t18.5 -52t4.5 -43v-3h-278
q-1 7 -6.5 22.5t-21 31.5t-44.5 27.5t-77 11.5h-4q-43 0 -71.5 -11t-45 -28.5t-23 -40t-6.5 -45.5v-5q0 -24 7 -48.5t23.5 -44t44.5 -31.5t71 -12h4q48 0 76.5 12t44.5 28.5t21.5 32.5t6.5 24h278v-2q0 -18 -4 -43.5t-17.5 -53t-39 -54.5t-70 -48.5t-109.5 -34.5t-157 -13
h-60z" />
    <glyph glyph-name="Cdotaccent" unicode="&#x10a;" horiz-adv-x="1126" 
d="M705 792h-273v155h273v-155zM549 -14q-114 0 -197.5 18t-142 47.5t-95 68.5t-57 80.5t-27.5 83t-7 76.5v29q0 35 6.5 76.5t26.5 82.5t56 79t94.5 67t142.5 46.5t200 17.5h39q113 0 195.5 -15.5t140 -41t93 -58t55.5 -66t27 -65t7 -55.5v-13h-295q-2 7 -10 26t-33.5 38.5
t-73 34.5t-128.5 15q-77 0 -125.5 -15.5t-76 -40.5t-37.5 -56t-10 -62v-12q0 -30 11 -62.5t39 -60t76.5 -45t123.5 -17.5q55 0 94 8t66 20t43 26.5t25 28t12.5 24.5t4.5 15h294v-16q0 -24 -7 -56.5t-27.5 -66.5t-56.5 -67t-93.5 -59t-139.5 -42t-194 -16h-39z" />
    <glyph glyph-name="cdotaccent" unicode="&#x10b;" horiz-adv-x="887" 
d="M581 585h-272v159h272v-159zM415 -15q-86 0 -149 13t-107 34.5t-71.5 49.5t-42.5 59t-20.5 62.5t-5.5 59.5v18q0 28 5.5 59t20.5 61t42 57.5t71 48.5t107 33.5t149 12.5h62q90 0 154 -12.5t108 -33t70.5 -46.5t40.5 -53t18.5 -52t4.5 -43v-3h-278q-1 7 -6.5 22.5
t-21 31.5t-44.5 27.5t-77 11.5h-4q-43 0 -71.5 -11t-45 -28.5t-23 -40t-6.5 -45.5v-5q0 -24 7 -48.5t23.5 -44t44.5 -31.5t71 -12h4q48 0 76.5 12t44.5 28.5t21.5 32.5t6.5 24h278v-2q0 -18 -4 -43.5t-17.5 -53t-39 -54.5t-70 -48.5t-109.5 -34.5t-157 -13h-60z" />
    <glyph glyph-name="Ccaron" unicode="&#x10c;" horiz-adv-x="1126" 
d="M261 944h245l62 -58l61 58h242l-159 -152h-289zM549 -14q-114 0 -197.5 18t-142 47.5t-95 68.5t-57 80.5t-27.5 83t-7 76.5v29q0 35 6.5 76.5t26.5 82.5t56 79t94.5 67t142.5 46.5t200 17.5h39q113 0 195.5 -15.5t140 -41t93 -58t55.5 -66t27 -65t7 -55.5v-13h-295
q-2 7 -10 26t-33.5 38.5t-73 34.5t-128.5 15q-77 0 -125.5 -15.5t-76 -40.5t-37.5 -56t-10 -62v-12q0 -30 11 -62.5t39 -60t76.5 -45t123.5 -17.5q55 0 94 8t66 20t43 26.5t25 28t12.5 24.5t4.5 15h294v-16q0 -24 -7 -56.5t-27.5 -66.5t-56.5 -67t-93.5 -59t-139.5 -42
t-194 -16h-39z" />
    <glyph glyph-name="ccaron" unicode="&#x10d;" horiz-adv-x="887" 
d="M151 744h238l58 -65l58 65h235l-150 -159h-288zM415 -15q-86 0 -149 13t-107 34.5t-71.5 49.5t-42.5 59t-20.5 62.5t-5.5 59.5v18q0 28 5.5 59t20.5 61t42 57.5t71 48.5t107 33.5t149 12.5h62q90 0 154 -12.5t108 -33t70.5 -46.5t40.5 -53t18.5 -52t4.5 -43v-3h-278
q-1 7 -6.5 22.5t-21 31.5t-44.5 27.5t-77 11.5h-4q-43 0 -71.5 -11t-45 -28.5t-23 -40t-6.5 -45.5v-5q0 -24 7 -48.5t23.5 -44t44.5 -31.5t71 -12h4q48 0 76.5 12t44.5 28.5t21.5 32.5t6.5 24h278v-2q0 -18 -4 -43.5t-17.5 -53t-39 -54.5t-70 -48.5t-109.5 -34.5t-157 -13
h-60z" />
    <glyph glyph-name="Dcaron" unicode="&#x10e;" horiz-adv-x="1133" 
d="M48 744h528q161 0 265 -30.5t164.5 -80t84 -112.5t23.5 -129v-30q0 -42 -9 -85.5t-31.5 -83.5t-61.5 -75.5t-98.5 -61.5t-142 -41t-193.5 -15h-529v744zM332 197h211q93 0 147.5 18t83 44.5t36.5 57t8 54.5v6q0 24 -8 54t-36.5 56.5t-83 44t-147.5 17.5h-211v-352z
M179 944h244l62 -58l61 58h241l-161 -155h-282z" />
    <glyph glyph-name="dcaron" unicode="&#x10f;" horiz-adv-x="932" 
d="M620 274q0 22 -10.5 44.5t-31.5 40t-52.5 28.5t-74.5 11h-5q-44 0 -73.5 -11t-46.5 -28.5t-24 -40t-7 -44.5v-5q0 -22 8 -44.5t26 -41t47 -30t71 -11.5h4q43 0 75 11.5t53 29.5t31 40.5t10 45.5v5zM892 744v-744h-271v78q-7 -8 -24.5 -22.5t-48.5 -29t-77 -25.5t-109 -11
h-17q-88 0 -150 22.5t-101 60t-57 86.5t-18 103v21q0 51 17 99t54.5 85t98 59t148.5 22h19q62 0 107.5 -9.5t77.5 -22t51 -26t28 -20.5v274h272zM933 744h205l-28 -169h-191z" />
    <glyph glyph-name="Dcroat" unicode="&#x110;" horiz-adv-x="1148" 
d="M63 296h-61v157h61v291h528q161 0 265 -30.5t164.5 -80t84 -112.5t23.5 -129v-30q0 -42 -9 -85.5t-31.5 -83.5t-61.5 -75.5t-98.5 -61.5t-142 -41t-193.5 -15h-529v296zM347 453h301v-157h-301v-99h211q93 0 147.5 18t83 44.5t36.5 57t8 54.5v6q0 24 -8 54t-36.5 56.5
t-83 44t-147.5 17.5h-211v-96z" />
    <glyph glyph-name="dcroat" unicode="&#x111;" horiz-adv-x="932" 
d="M350 695h611v-110h-611v110zM620 274q0 22 -10.5 44.5t-31.5 40t-52.5 28.5t-74.5 11h-5q-44 0 -73.5 -11t-46.5 -28.5t-24 -40t-7 -44.5v-5q0 -22 8 -44.5t26 -41t47 -30t71 -11.5h4q43 0 75 11.5t53 29.5t31 40.5t10 45.5v5zM892 744v-744h-271v78q-7 -8 -24.5 -22.5
t-48.5 -29t-77 -25.5t-109 -11h-17q-88 0 -150 22.5t-101 60t-57 86.5t-18 103v21q0 51 17 99t54.5 85t98 59t148.5 22h19q62 0 107.5 -9.5t77.5 -22t51 -26t28 -20.5v274h272z" />
    <glyph glyph-name="Emacron" unicode="&#x112;" horiz-adv-x="913" 
d="M871 744v-182h-543v-93h532v-181h-532v-102h551v-186h-831v744h823zM234 929h469v-132h-469v132z" />
    <glyph glyph-name="emacron" unicode="&#x113;" horiz-adv-x="888" 
d="M444 421q-39 0 -66 -6t-45 -16.5t-28.5 -25.5t-15.5 -33h310q-8 38 -43 59.5t-112 21.5zM869 194q0 -19 -5 -41.5t-20 -46t-42 -45.5t-71 -38.5t-107.5 -27t-151.5 -10.5h-53q-124 0 -202 25.5t-122 65.5t-60 89.5t-16 96.5v20q0 47 15 95t58.5 87t121 64t202.5 25h55
q88 0 151.5 -12.5t108 -34.5t72 -51t42.5 -61.5t20.5 -67t5.5 -66.5v-30h-585q3 -21 13.5 -39t30 -31.5t49 -21t70.5 -7.5h1q48 0 77.5 8.5t45.5 19.5t21.5 21.5t6.5 15.5h268v-2zM220 724h452v-129h-452v129z" />
    <glyph glyph-name="Ebreve" unicode="&#x114;" horiz-adv-x="913" 
d="M871 744v-182h-543v-93h532v-181h-532v-102h551v-186h-831v744h823zM452 782q-73 0 -117.5 19t-68.5 46t-32 56t-8 49v2h183q0 -5 2.5 -13t9 -16t19 -14t33.5 -6q20 0 32.5 6t19 14t8.5 16t2 13h180v-2q0 -20 -10 -49t-35 -56t-68 -46t-110 -19h-40v0z" />
    <glyph glyph-name="ebreve" unicode="&#x115;" horiz-adv-x="888" 
d="M427 579q-71 0 -115 18t-68 44t-32 53.5t-8 47.5v2h181q0 -5 2.5 -12.5t9 -15t19 -13t32.5 -5.5q19 0 31 5.5t18.5 13t9 15t3.5 12.5h178v-2q0 -20 -10 -47.5t-35.5 -53.5t-68 -44t-107.5 -18h-40v0zM444 421q-39 0 -66 -6t-45 -16.5t-28.5 -25.5t-15.5 -33h310
q-8 38 -43 59.5t-112 21.5zM869 194q0 -19 -5 -41.5t-20 -46t-42 -45.5t-71 -38.5t-107.5 -27t-151.5 -10.5h-53q-124 0 -202 25.5t-122 65.5t-60 89.5t-16 96.5v20q0 47 15 95t58.5 87t121 64t202.5 25h55q88 0 151.5 -12.5t108 -34.5t72 -51t42.5 -61.5t20.5 -67
t5.5 -66.5v-30h-585q3 -21 13.5 -39t30 -31.5t49 -21t70.5 -7.5h1q48 0 77.5 8.5t45.5 19.5t21.5 21.5t6.5 15.5h268v-2z" />
    <glyph glyph-name="Edotaccent" unicode="&#x116;" horiz-adv-x="913" 
d="M871 744v-182h-543v-93h532v-181h-532v-102h551v-186h-831v744h823zM605 789h-271v161h271v-161z" />
    <glyph glyph-name="edotaccent" unicode="&#x117;" horiz-adv-x="888" 
d="M582 585h-272v159h272v-159zM444 421q-39 0 -66 -6t-45 -16.5t-28.5 -25.5t-15.5 -33h310q-8 38 -43 59.5t-112 21.5zM869 194q0 -19 -5 -41.5t-20 -46t-42 -45.5t-71 -38.5t-107.5 -27t-151.5 -10.5h-53q-124 0 -202 25.5t-122 65.5t-60 89.5t-16 96.5v20q0 47 15 95
t58.5 87t121 64t202.5 25h55q88 0 151.5 -12.5t108 -34.5t72 -51t42.5 -61.5t20.5 -67t5.5 -66.5v-30h-585q3 -21 13.5 -39t30 -31.5t49 -21t70.5 -7.5h1q48 0 77.5 8.5t45.5 19.5t21.5 21.5t6.5 15.5h268v-2z" />
    <glyph glyph-name="Eogonek" unicode="&#x118;" horiz-adv-x="913" 
d="M463 -113q0 41 49.5 66t143.5 47h114q-26 -17 -43.5 -31.5t-17.5 -29.5q0 -21 34 -21h30v-106h-163q-78 0 -112.5 18.5t-34.5 53.5v3zM871 744v-182h-543v-93h532v-181h-532v-102h551v-186h-831v744h823z" />
    <glyph glyph-name="eogonek" unicode="&#x119;" horiz-adv-x="888" 
d="M735 -188h-164q-78 0 -112 18.5t-34 53.5v3q0 38 44.5 61t137.5 45q-26 -3 -61.5 -5.5t-73.5 -2.5h-53q-124 0 -202 25.5t-122 65.5t-60 89.5t-16 96.5v20q0 47 15 95t58.5 87t121 64t202.5 25h55q88 0 151.5 -12.5t108 -34.5t72 -51t42.5 -61.5t20.5 -67t5.5 -66.5v-30
h-585q3 -21 13.5 -39t30 -31.5t49 -21t70.5 -7.5h1q48 0 77.5 8.5t45.5 19.5t21.5 21.5t6.5 15.5h268v-2q0 -58 -34.5 -102t-103.5 -90q-25 -18 -42.5 -32.5t-17.5 -30.5q0 -21 33 -21h31v-106zM444 421q-39 0 -66 -6t-45 -16.5t-28.5 -25.5t-15.5 -33h310q-8 38 -43 59.5
t-112 21.5z" />
    <glyph glyph-name="Ecaron" unicode="&#x11a;" horiz-adv-x="913" 
d="M871 744v-182h-543v-93h532v-181h-532v-102h551v-186h-831v744h823zM166 944h244l62 -58l61 58h241l-161 -155h-282z" />
    <glyph glyph-name="ecaron" unicode="&#x11b;" horiz-adv-x="888" 
d="M151 744h239l57 -65l58 65h236l-150 -159h-289zM444 421q-39 0 -66 -6t-45 -16.5t-28.5 -25.5t-15.5 -33h310q-8 38 -43 59.5t-112 21.5zM869 194q0 -19 -5 -41.5t-20 -46t-42 -45.5t-71 -38.5t-107.5 -27t-151.5 -10.5h-53q-124 0 -202 25.5t-122 65.5t-60 89.5
t-16 96.5v20q0 47 15 95t58.5 87t121 64t202.5 25h55q88 0 151.5 -12.5t108 -34.5t72 -51t42.5 -61.5t20.5 -67t5.5 -66.5v-30h-585q3 -21 13.5 -39t30 -31.5t49 -21t70.5 -7.5h1q48 0 77.5 8.5t45.5 19.5t21.5 21.5t6.5 15.5h268v-2z" />
    <glyph glyph-name="Gcircumflex" unicode="&#x11c;" horiz-adv-x="1159" 
d="M879 791h-243l-62 58l-62 -58h-241l159 153h288zM525 -14q-102 0 -178.5 17t-132.5 45.5t-92.5 66t-58.5 79.5t-31 85t-9 82v28q0 40 8.5 83t30.5 84t60 77.5t96.5 64.5t140 44t191.5 16h39q114 0 196.5 -14t140.5 -37.5t93.5 -53t56 -61.5t27.5 -63.5t8 -57.5v-1h-296
q-2 7 -10.5 22.5t-33.5 31.5t-71.5 28t-125.5 12q-75 0 -124.5 -15t-79 -40.5t-41.5 -58.5t-12 -70v-11q0 -36 14 -69.5t44.5 -60t79 -42.5t117.5 -16q72 0 120.5 11t78.5 26.5t42.5 31t12.5 24.5h-261v145h551v-419h-179q-2 9 -5.5 22.5t-8.5 28t-10.5 28.5t-10.5 24
q-11 -12 -35 -32t-66 -38.5t-104 -32.5t-149 -14h-23z" />
    <glyph glyph-name="gcircumflex" unicode="&#x11d;" horiz-adv-x="942" 
d="M450 396q-45 0 -75 -9.5t-48 -24.5t-25.5 -34.5t-7.5 -39.5v-5q0 -21 8 -41.5t26 -36.5t48 -26t74 -10h6q45 0 77.5 10t53.5 26t31 36.5t10 41.5v3q0 21 -10 41t-31 35.5t-53.5 24.5t-77.5 9h-6zM429 -195q-84 0 -144.5 10.5t-102.5 27t-67.5 37.5t-39.5 42.5t-18.5 41
t-4.5 33.5v3h273q1 -5 5.5 -12.5t19 -15t42 -12.5t73.5 -5h3q49 0 81 12t50 31t25 43.5t7 50.5v11q-9 -9 -27 -22.5t-49 -26.5t-76.5 -22t-109.5 -9h-16q-93 0 -156.5 21.5t-103 57.5t-57 82t-17.5 95v18q0 47 16 92t53 80.5t97.5 57t149.5 21.5h22q66 0 112.5 -9t79 -21.5
t51.5 -26t30 -22.5v69h272v-448q0 -41 -14.5 -90.5t-57 -93t-120.5 -72.5t-204 -29h-77zM739 582h-237l-58 66l-58 -66h-233l152 162h281z" />
    <glyph glyph-name="Gbreve" unicode="&#x11e;" horiz-adv-x="1159" 
d="M525 -14q-102 0 -178.5 17t-132.5 45.5t-92.5 66t-58.5 79.5t-31 85t-9 82v28q0 40 8.5 83t30.5 84t60 77.5t96.5 64.5t140 44t191.5 16h39q114 0 196.5 -14t140.5 -37.5t93.5 -53t56 -61.5t27.5 -63.5t8 -57.5v-1h-296q-2 7 -10.5 22.5t-33.5 31.5t-71.5 28t-125.5 12
q-75 0 -124.5 -15t-79 -40.5t-41.5 -58.5t-12 -70v-11q0 -36 14 -69.5t44.5 -60t79 -42.5t117.5 -16q72 0 120.5 11t78.5 26.5t42.5 31t12.5 24.5h-261v145h551v-419h-179q-2 9 -5.5 22.5t-8.5 28t-10.5 28.5t-10.5 24q-11 -12 -35 -32t-66 -38.5t-104 -32.5t-149 -14h-23z
M557 784q-73 0 -117.5 19t-68.5 46t-32 56t-8 49v2h183q0 -5 2.5 -13t9 -16t19 -14t33.5 -6q20 0 32.5 6t19 14t8.5 16t2 13h180v-2q0 -20 -10 -49t-35 -56t-68 -46t-110 -19h-40v0z" />
    <glyph glyph-name="gbreve" unicode="&#x11f;" horiz-adv-x="942" 
d="M450 396q-45 0 -75 -9.5t-48 -24.5t-25.5 -34.5t-7.5 -39.5v-5q0 -21 8 -41.5t26 -36.5t48 -26t74 -10h6q45 0 77.5 10t53.5 26t31 36.5t10 41.5v3q0 21 -10 41t-31 35.5t-53.5 24.5t-77.5 9h-6zM429 -195q-84 0 -144.5 10.5t-102.5 27t-67.5 37.5t-39.5 42.5t-18.5 41
t-4.5 33.5v3h273q1 -5 5.5 -12.5t19 -15t42 -12.5t73.5 -5h3q49 0 81 12t50 31t25 43.5t7 50.5v11q-9 -9 -27 -22.5t-49 -26.5t-76.5 -22t-109.5 -9h-16q-93 0 -156.5 21.5t-103 57.5t-57 82t-17.5 95v18q0 47 16 92t53 80.5t97.5 57t149.5 21.5h22q66 0 112.5 -9t79 -21.5
t51.5 -26t30 -22.5v69h272v-448q0 -41 -14.5 -90.5t-57 -93t-120.5 -72.5t-204 -29h-77zM686 742q0 -20 -10 -48.5t-35 -54.5t-68 -44t-108 -18h-40q-72 0 -115.5 18t-67.5 44t-32 54.5t-8 48.5v2h181q0 -5 2 -13t9 -16t19 -13.5t33 -5.5q20 0 32 5.5t18.5 13.5t9 16t2.5 13
h178v-2v0z" />
    <glyph glyph-name="Gdotaccent" unicode="&#x120;" horiz-adv-x="1159" 
d="M712 792h-273v155h273v-155zM525 -14q-102 0 -178.5 17t-132.5 45.5t-92.5 66t-58.5 79.5t-31 85t-9 82v28q0 40 8.5 83t30.5 84t60 77.5t96.5 64.5t140 44t191.5 16h39q114 0 196.5 -14t140.5 -37.5t93.5 -53t56 -61.5t27.5 -63.5t8 -57.5v-1h-296q-2 7 -10.5 22.5
t-33.5 31.5t-71.5 28t-125.5 12q-75 0 -124.5 -15t-79 -40.5t-41.5 -58.5t-12 -70v-11q0 -36 14 -69.5t44.5 -60t79 -42.5t117.5 -16q72 0 120.5 11t78.5 26.5t42.5 31t12.5 24.5h-261v145h551v-419h-179q-2 9 -5.5 22.5t-8.5 28t-10.5 28.5t-10.5 24q-11 -12 -35 -32
t-66 -38.5t-104 -32.5t-149 -14h-23z" />
    <glyph glyph-name="gdotaccent" unicode="&#x121;" horiz-adv-x="942" 
d="M450 396q-45 0 -75 -9.5t-48 -24.5t-25.5 -34.5t-7.5 -39.5v-5q0 -21 8 -41.5t26 -36.5t48 -26t74 -10h6q45 0 77.5 10t53.5 26t31 36.5t10 41.5v3q0 21 -10 41t-31 35.5t-53.5 24.5t-77.5 9h-6zM429 -195q-84 0 -144.5 10.5t-102.5 27t-67.5 37.5t-39.5 42.5t-18.5 41
t-4.5 33.5v3h273q1 -5 5.5 -12.5t19 -15t42 -12.5t73.5 -5h3q49 0 81 12t50 31t25 43.5t7 50.5v11q-9 -9 -27 -22.5t-49 -26.5t-76.5 -22t-109.5 -9h-16q-93 0 -156.5 21.5t-103 57.5t-57 82t-17.5 95v18q0 47 16 92t53 80.5t97.5 57t149.5 21.5h22q66 0 112.5 -9t79 -21.5
t51.5 -26t30 -22.5v69h272v-448q0 -41 -14.5 -90.5t-57 -93t-120.5 -72.5t-204 -29h-77zM579 583h-271v161h271v-161z" />
    <glyph glyph-name="uni0122" unicode="&#x122;" horiz-adv-x="1159" 
d="M485 -299q11 21 21 46.5t14 45.5h-113v159h258v-125q0 -15 -5 -32.5t-12.5 -34.5t-16.5 -32.5t-16 -26.5h-130zM525 -14q-102 0 -178.5 17t-132.5 45.5t-92.5 66t-58.5 79.5t-31 85t-9 82v28q0 40 8.5 83t30.5 84t60 77.5t96.5 64.5t140 44t191.5 16h39q114 0 196.5 -14
t140.5 -37.5t93.5 -53t56 -61.5t27.5 -63.5t8 -57.5v-1h-296q-2 7 -10.5 22.5t-33.5 31.5t-71.5 28t-125.5 12q-75 0 -124.5 -15t-79 -40.5t-41.5 -58.5t-12 -70v-11q0 -36 14 -69.5t44.5 -60t79 -42.5t117.5 -16q72 0 120.5 11t78.5 26.5t42.5 31t12.5 24.5h-261v145h551
v-419h-179q-2 9 -5.5 22.5t-8.5 28t-10.5 28.5t-10.5 24q-11 -12 -35 -32t-66 -38.5t-104 -32.5t-149 -14h-23z" />
    <glyph glyph-name="uni0123" unicode="&#x123;" horiz-adv-x="942" 
d="M450 396q-45 0 -75 -9.5t-48 -24.5t-25.5 -34.5t-7.5 -39.5v-5q0 -21 8 -41.5t26 -36.5t48 -26t74 -10h6q45 0 77.5 10t53.5 26t31 36.5t10 41.5v3q0 21 -10 41t-31 35.5t-53.5 24.5t-77.5 9h-6zM429 -195q-84 0 -144.5 10.5t-102.5 27t-67.5 37.5t-39.5 42.5t-18.5 41
t-4.5 33.5v3h273q1 -5 5.5 -12.5t19 -15t42 -12.5t73.5 -5h3q49 0 81 12t50 31t25 43.5t7 50.5v11q-9 -9 -27 -22.5t-49 -26.5t-76.5 -22t-109.5 -9h-16q-93 0 -156.5 21.5t-103 57.5t-57 82t-17.5 95v18q0 47 16 92t53 80.5t97.5 57t149.5 21.5h22q66 0 112.5 -9t79 -21.5
t51.5 -26t30 -22.5v69h272v-448q0 -41 -14.5 -90.5t-57 -93t-120.5 -72.5t-204 -29h-77zM493 834q-11 -21 -21 -46.5t-14 -45.5h113v-159h-258v125q0 15 5 32.5t12.5 34.5t16 32.5t16.5 26.5h130z" />
    <glyph glyph-name="Hcircumflex" unicode="&#x124;" horiz-adv-x="1128" 
d="M48 744h284v-263h465v263h283v-744h-283v283h-465v-283h-284v744zM868 789h-244l-62 58l-61 -58h-241l162 155h282z" />
    <glyph glyph-name="hcircumflex" unicode="&#x125;" horiz-adv-x="897" 
d="M40 744h272v-300q9 9 29.5 26.5t54.5 35t81.5 31t110.5 13.5h6q75 0 126 -20t81.5 -50t43.5 -66t13 -68v-346h-273v257q0 54 -30 89t-100 35q-69 0 -106 -37t-37 -94v-250h-272v744zM721 789h-244l-62 58l-61 -58h-241l162 155h282z" />
    <glyph glyph-name="Hbar" unicode="&#x126;" horiz-adv-x="1159" 
d="M-3 679h1165v-125h-1165v125zM63 744h284v-263h465v263h283v-744h-283v283h-465v-283h-284v744z" />
    <glyph glyph-name="hbar" unicode="&#x127;" horiz-adv-x="897" 
d="M562 695v-110h-591v110h591zM40 744h272v-300q9 9 29.5 26.5t54.5 35t81.5 31t110.5 13.5h6q75 0 126 -20t81.5 -50t43.5 -66t13 -68v-346h-273v257q0 54 -30 89t-100 35q-69 0 -106 -37t-37 -94v-250h-272v744z" />
    <glyph glyph-name="Itilde" unicode="&#x128;" horiz-adv-x="379" 
d="M331 0h-283v744h283v-744zM317 793q-17 0 -31 1.5t-29 5t-33 9t-42 13.5q-23 8 -36 11.5t-24 3.5t-14.5 -6.5t-3.5 -14.5v-29h-161v85q0 15 4.5 32.5t16.5 32t34 24t58 9.5h4q17 0 31.5 -1.5t30 -5.5t33.5 -9.5t42 -12.5q20 -7 34 -11t25 -4q8 0 12.5 6t4.5 14v29h161
v-79q0 -16 -3.5 -34t-15.5 -33.5t-34 -25.5t-59 -10h-5v0z" />
    <glyph glyph-name="itilde" unicode="&#x129;" horiz-adv-x="352" 
d="M277 585q-11 0 -21.5 1.5t-22.5 5t-27 9t-36 13.5q-32 14 -45 14q-8 0 -10.5 -6t-2.5 -15v-27h-132v78q0 15 3.5 32.5t13.5 32t27.5 24t46.5 9.5h3q12 0 23 -1.5t23 -5t27 -9t36 -14.5q16 -6 25.5 -9.5t17.5 -3.5q7 0 9.5 6t2.5 14v28h133v-73q0 -16 -3 -34t-12.5 -33.5
t-27.5 -25.5t-47 -10h-4v0zM312 0h-272v538h272v-538z" />
    <glyph glyph-name="Imacron" unicode="&#x12a;" horiz-adv-x="379" 
d="M-25 929h429v-132h-429v132zM331 0h-283v744h283v-744z" />
    <glyph glyph-name="imacron" unicode="&#x12b;" horiz-adv-x="352" 
d="M-14 722h380v-129h-380v129zM312 0h-272v538h272v-538z" />
    <glyph glyph-name="Ibreve" unicode="&#x12c;" horiz-adv-x="379" 
d="M331 0h-283v744h283v-744zM172 782q-73 0 -117.5 19t-68.5 46t-32 56t-8 49v2h183q0 -5 2.5 -13t9 -16t19 -14t33.5 -6q20 0 32.5 6t19 14t8.5 16t2 13h180v-2q0 -20 -10 -49t-35 -56t-68 -46t-110 -19h-40v0z" />
    <glyph glyph-name="ibreve" unicode="&#x12d;" horiz-adv-x="352" 
d="M378 742q0 -22 -7.5 -50.5t-28.5 -54t-59 -43.5t-99 -18h-14q-64 0 -102.5 18t-59.5 43.5t-28 54t-7 50.5v2h157q0 -6 2 -13.5t7 -14.5t14 -11.5t24 -4.5q14 0 22.5 4.5t13.5 11.5t7 14.5t2 13.5h156v-2v0zM312 0h-272v538h272v-538z" />
    <glyph glyph-name="Iogonek" unicode="&#x12e;" horiz-adv-x="379" 
d="M331 0h-283v744h283v-744zM25 -113q0 41 50 66t143 47h114q-26 -17 -43 -31.5t-17 -29.5q0 -21 33 -21h27v-106h-160q-78 0 -112.5 18.5t-34.5 53.5v3z" />
    <glyph glyph-name="iogonek" unicode="&#x12f;" horiz-adv-x="352" 
d="M312 583h-272v161h272v-161zM312 0h-272v538h272v-538zM5 -113q0 41 50 66t143 47h114q-26 -17 -43 -31.5t-17 -29.5q0 -21 33 -21h27v-106h-160q-78 0 -112.5 18.5t-34.5 53.5v3z" />
    <glyph glyph-name="Idotaccent" unicode="&#x130;" horiz-adv-x="379" 
d="M331 0h-283v744h283v-744zM325 789h-271v161h271v-161z" />
    <glyph glyph-name="dotlessi" unicode="&#x131;" horiz-adv-x="352" 
d="M312 0h-272v538h272v-538z" />
    <glyph glyph-name="IJ" unicode="&#x132;" horiz-adv-x="1321" 
d="M331 0h-283v744h283v-744zM794 -11q-88 0 -153 16t-111 42.5t-75.5 61t-46 71.5t-22.5 74.5t-6 69.5v6h279q1 -11 6 -32.5t21.5 -42.5t48.5 -37t88 -16h8q45 0 76.5 12.5t51 35t28.5 53t9 66.5v375h284v-381q0 -39 -6 -81.5t-22.5 -84t-46 -79.5t-77 -66.5t-114.5 -45.5
t-159 -17h-61v0z" />
    <glyph glyph-name="ij" unicode="&#x133;" horiz-adv-x="697" 
d="M312 583h-272v161h272v-161zM312 0h-272v538h272v-538zM657 583h-272v161h272v-161zM353 -27q18 0 25 7t7 30v528h272v-578q0 -41 -9 -69.5t-24.5 -46t-36 -25t-42.5 -7.5h-228v161h36z" />
    <glyph glyph-name="Jcircumflex" unicode="&#x134;" horiz-adv-x="948" 
d="M421 -11q-88 0 -153 16t-111 42.5t-75.5 61t-46 71.5t-22.5 74.5t-6 69.5v6h279q1 -11 6 -32.5t21.5 -42.5t48.5 -37t88 -16h8q45 0 76.5 12.5t51 35t28.5 53t9 66.5v375h284v-381q0 -39 -6 -81.5t-22.5 -84t-46 -79.5t-77 -66.5t-114.5 -45.5t-159 -17h-61v0zM1066 789
h-244l-62 58l-61 -58h-241l162 155h282z" />
    <glyph glyph-name="jcircumflex" unicode="&#x135;" horiz-adv-x="352" 
d="M410 583h-193l-43 66l-43 -66h-190l109 161h250zM8 -27q18 0 25 7t7 30v528h272v-578q0 -41 -9 -69.5t-24.5 -46t-36 -25t-42.5 -7.5h-228v161h36z" />
    <glyph glyph-name="uni0136" unicode="&#x136;" horiz-adv-x="1046" 
d="M451 -296q11 21 21 46.5t14 45.5h-113v159h258v-125q0 -15 -5 -32.5t-12.5 -34.5t-16.5 -32.5t-16 -26.5h-130zM48 0v744h284v-294l366 294h353l-433 -338l447 -406h-370l-363 333v-333h-284z" />
    <glyph glyph-name="uni0137" unicode="&#x137;" horiz-adv-x="807" 
d="M358 -296q11 21 21 46.5t14 45.5h-113v159h258v-125q0 -15 -5 -32.5t-12.5 -34.5t-16.5 -32.5t-16 -26.5h-130zM40 0v744h272v-416l184 210h293l-219 -238l251 -300h-309l-200 242v-242h-272z" />
    <glyph glyph-name="Lacute" unicode="&#x139;" horiz-adv-x="875" 
d="M332 744v-531h516v-213h-800v744h284zM145 944h279l-101 -155h-257z" />
    <glyph glyph-name="lacute" unicode="&#x13a;" horiz-adv-x="352" 
d="M139 941h269l-106 -152h-246zM312 0h-272v744h272v-744z" />
    <glyph glyph-name="uni013B" unicode="&#x13b;" horiz-adv-x="875" 
d="M399 -296q11 21 21 46.5t14 45.5h-113v159h258v-125q0 -15 -5 -32.5t-12.5 -34.5t-16.5 -32.5t-16 -26.5h-130zM332 744v-531h516v-213h-800v744h284z" />
    <glyph glyph-name="uni013C" unicode="&#x13c;" horiz-adv-x="352" 
d="M125 -296q11 21 21 46.5t14 45.5h-113v159h258v-125q0 -15 -5 -32.5t-12.5 -34.5t-16.5 -32.5t-16 -26.5h-130zM312 0h-272v744h272v-744z" />
    <glyph glyph-name="Lcaron" unicode="&#x13d;" horiz-adv-x="875" 
d="M332 744v-531h516v-213h-800v744h284zM372 744h205l-28 -169h-191z" />
    <glyph glyph-name="lcaron" unicode="&#x13e;" horiz-adv-x="352" 
d="M312 0h-272v744h272v-744zM352 744h205l-28 -169h-191z" />
    <glyph glyph-name="Ldot" unicode="&#x13f;" horiz-adv-x="871" 
d="M332 744v-531h516v-213h-800v744h284zM779 329h-281v195h281v-195z" />
    <glyph glyph-name="ldot" unicode="&#x140;" horiz-adv-x="632" 
d="M625 287h-272v195h272v-195zM312 0h-272v744h272v-744z" />
    <glyph glyph-name="Lslash" unicode="&#x141;" horiz-adv-x="895" 
d="M352 744v-290l303 108v-156l-303 -105v-88h516v-213h-800v203l-69 -24v149l69 24v392h284z" />
    <glyph glyph-name="lslash" unicode="&#x142;" horiz-adv-x="384" 
d="M327 0h-272v250l-53 -22v150l53 23v343h272v-225l54 24v-153l-54 -23v-367z" />
    <glyph glyph-name="Nacute" unicode="&#x143;" horiz-adv-x="1128" 
d="M366 744l432 -423v423h282v-744h-284l-466 451v-451h-282v744h318zM516 944h279l-101 -155h-257z" />
    <glyph glyph-name="nacute" unicode="&#x144;" horiz-adv-x="897" 
d="M40 538h270v-95q10 9 31 27t55 36t81.5 31t110.5 13h6q75 0 126 -20t81.5 -50t43.5 -66t13 -68v-346h-273v257q0 54 -30 89t-100 35q-69 0 -106 -37t-37 -94v-250h-272v538zM416 744h268l-111 -161h-246z" />
    <glyph glyph-name="uni0145" unicode="&#x145;" horiz-adv-x="1128" 
d="M511 -296q11 21 21 46.5t14 45.5h-113v159h258v-125q0 -15 -5 -32.5t-12.5 -34.5t-16.5 -32.5t-16 -26.5h-130zM366 744l432 -423v423h282v-744h-284l-466 451v-451h-282v744h318z" />
    <glyph glyph-name="uni0146" unicode="&#x146;" horiz-adv-x="897" 
d="M398 -296q11 21 21 46.5t14 45.5h-113v159h258v-125q0 -15 -5 -32.5t-12.5 -34.5t-16.5 -32.5t-16 -26.5h-130zM40 538h270v-95q10 9 31 27t55 36t81.5 31t110.5 13h6q75 0 126 -20t81.5 -50t43.5 -66t13 -68v-346h-273v257q0 54 -30 89t-100 35q-69 0 -106 -37t-37 -94
v-250h-272v538z" />
    <glyph glyph-name="Ncaron" unicode="&#x147;" horiz-adv-x="1128" 
d="M366 744l432 -423v423h282v-744h-284l-466 451v-451h-282v744h318zM259 944h244l62 -58l61 58h241l-161 -155h-282z" />
    <glyph glyph-name="ncaron" unicode="&#x148;" horiz-adv-x="897" 
d="M40 538h270v-95q10 9 31 27t55 36t81.5 31t110.5 13h6q75 0 126 -20t81.5 -50t43.5 -66t13 -68v-346h-273v257q0 54 -30 89t-100 35q-69 0 -106 -37t-37 -94v-250h-272v538zM158 744h236l58 -65l58 65h234l-152 -161h-281z" />
    <glyph glyph-name="napostrophe" unicode="&#x149;" horiz-adv-x="1148" 
d="M291 538h270v-95q10 9 31 27t55 36t81.5 31t110.5 13h6q75 0 126 -20t81.5 -50t43.5 -66t13 -68v-346h-273v257q0 54 -30 89t-100 35q-69 0 -106 -37t-37 -94v-250h-272v538zM75 475q13 23 25 52.5t15 51.5h-111v165h267v-134q0 -17 -5.5 -35.5t-13.5 -37t-18 -34.5
t-19 -28h-140z" />
    <glyph glyph-name="Eng" unicode="&#x14a;" horiz-adv-x="1128" 
d="M1080 23q0 -55 -13 -94.5t-36.5 -65.5t-54.5 -38.5t-67 -12.5h-215v171h79q20 0 20 14q0 7 -6.5 14t-23.5 24l-433 416v-451h-282v744h318l432 -423v423h282v-721v0z" />
    <glyph glyph-name="eng" unicode="&#x14b;" horiz-adv-x="897" 
d="M858 -42q0 -41 -9 -69t-24.5 -45.5t-35.5 -25.5t-41 -8h-256v171h59q19 0 26.5 8t7.5 31v237q0 54 -30 89t-100 35q-69 0 -106 -37t-37 -94v-250h-272v538h270v-95q10 9 31 27t55 36t81.5 31t110.5 13h6q75 0 126 -20t81.5 -50t43.5 -66t13 -68v-388z" />
    <glyph glyph-name="Omacron" unicode="&#x14c;" horiz-adv-x="1176" 
d="M611 758q120 0 207 -17.5t147 -47t97 -67.5t57 -79t27 -82t7 -76v-30q0 -35 -6.5 -76t-27 -82.5t-57 -80t-97 -68.5t-147.5 -48t-207 -18h-45q-120 0 -207.5 18t-147.5 48t-97 68.5t-57 80t-27 82.5t-7 76v30q0 35 6.5 76t27 82t57.5 79t97 67.5t147 47t208 17.5h45z
M859 382q0 30 -11.5 61t-41.5 56.5t-82.5 42t-135.5 16.5q-84 0 -137 -16.5t-82.5 -42t-40.5 -56.5t-11 -61v-12q0 -29 11.5 -61.5t41.5 -59.5t82.5 -44.5t135.5 -17.5q82 0 135 17t83 43.5t41.5 58.5t11.5 62v14zM353 931h469v-132h-469v132z" />
    <glyph glyph-name="omacron" unicode="&#x14d;" horiz-adv-x="927" 
d="M427 -15q-86 0 -150 12.5t-109 34t-74 49.5t-45.5 59t-23 63t-6.5 61v16q0 28 6 59.5t22.5 62t45.5 58t74 48t109 33t150 12.5h76q89 0 154 -12.5t110 -33.5t73 -48t43.5 -57.5t20.5 -61.5t5 -59v-18q0 -29 -5 -60.5t-20 -62.5t-42.5 -59t-73 -49.5t-111 -34
t-155.5 -12.5h-74zM464 401q-50 0 -83 -11.5t-52 -29.5t-26.5 -40.5t-7.5 -44.5v-4q0 -22 7.5 -45.5t26.5 -43t51.5 -32t83.5 -12.5h1q50 0 82.5 13t51.5 32.5t26.5 43t7.5 44.5v4q0 22 -7.5 44.5t-26.5 40.5t-51.5 29.5t-82.5 11.5h-1zM237 724h452v-129h-452v129z" />
    <glyph glyph-name="Obreve" unicode="&#x14e;" horiz-adv-x="1176" 
d="M611 758q120 0 207 -17.5t147 -47t97 -67.5t57 -79t27 -82t7 -76v-30q0 -35 -6.5 -76t-27 -82.5t-57 -80t-97 -68.5t-147.5 -48t-207 -18h-45q-120 0 -207.5 18t-147.5 48t-97 68.5t-57 80t-27 82.5t-7 76v30q0 35 6.5 76t27 82t57.5 79t97 67.5t147 47t208 17.5h45z
M859 382q0 30 -11.5 61t-41.5 56.5t-82.5 42t-135.5 16.5q-84 0 -137 -16.5t-82.5 -42t-40.5 -56.5t-11 -61v-12q0 -29 11.5 -61.5t41.5 -59.5t82.5 -44.5t135.5 -17.5q82 0 135 17t83 43.5t41.5 58.5t11.5 62v14zM570 784q-73 0 -117.5 19t-68.5 46t-32 56t-8 49v2h183
q0 -5 2.5 -13t9 -16t19 -14t33.5 -6q20 0 32.5 6t19 14t8.5 16t2 13h180v-2q0 -20 -10 -49t-35 -56t-68 -46t-110 -19h-40v0z" />
    <glyph glyph-name="obreve" unicode="&#x14f;" horiz-adv-x="927" 
d="M445 579q-71 0 -115 18t-68 44t-32 53.5t-8 47.5v2h181q0 -5 2.5 -12.5t9 -15t19 -13t32.5 -5.5q19 0 31 5.5t18.5 13t9 15t3.5 12.5h178v-2q0 -20 -10 -47.5t-35.5 -53.5t-68 -44t-107.5 -18h-40v0zM427 -15q-86 0 -150 12.5t-109 34t-74 49.5t-45.5 59t-23 63t-6.5 61
v16q0 28 6 59.5t22.5 62t45.5 58t74 48t109 33t150 12.5h76q89 0 154 -12.5t110 -33.5t73 -48t43.5 -57.5t20.5 -61.5t5 -59v-18q0 -29 -5 -60.5t-20 -62.5t-42.5 -59t-73 -49.5t-111 -34t-155.5 -12.5h-74zM464 401q-50 0 -83 -11.5t-52 -29.5t-26.5 -40.5t-7.5 -44.5v-4
q0 -22 7.5 -45.5t26.5 -43t51.5 -32t83.5 -12.5h1q50 0 82.5 13t51.5 32.5t26.5 43t7.5 44.5v4q0 22 -7.5 44.5t-26.5 40.5t-51.5 29.5t-82.5 11.5h-1z" />
    <glyph glyph-name="Ohungarumlaut" unicode="&#x150;" horiz-adv-x="1176" 
d="M676 944h245l-65 -152h-239zM387 944h245l-58 -152h-239zM611 758q120 0 207 -17.5t147 -47t97 -67.5t57 -79t27 -82t7 -76v-30q0 -35 -6.5 -76t-27 -82.5t-57 -80t-97 -68.5t-147.5 -48t-207 -18h-45q-120 0 -207.5 18t-147.5 48t-97 68.5t-57 80t-27 82.5t-7 76v30
q0 35 6.5 76t27 82t57.5 79t97 67.5t147 47t208 17.5h45zM859 382q0 30 -11.5 61t-41.5 56.5t-82.5 42t-135.5 16.5q-84 0 -137 -16.5t-82.5 -42t-40.5 -56.5t-11 -61v-12q0 -29 11.5 -61.5t41.5 -59.5t82.5 -44.5t135.5 -17.5q82 0 135 17t83 43.5t41.5 58.5t11.5 62v14z
" />
    <glyph glyph-name="ohungarumlaut" unicode="&#x151;" horiz-adv-x="927" 
d="M556 744h237l-68 -159h-231zM276 744h236l-61 -159h-230zM427 -15q-86 0 -150 12.5t-109 34t-74 49.5t-45.5 59t-23 63t-6.5 61v16q0 28 6 59.5t22.5 62t45.5 58t74 48t109 33t150 12.5h76q89 0 154 -12.5t110 -33.5t73 -48t43.5 -57.5t20.5 -61.5t5 -59v-18
q0 -29 -5 -60.5t-20 -62.5t-42.5 -59t-73 -49.5t-111 -34t-155.5 -12.5h-74zM464 401q-50 0 -83 -11.5t-52 -29.5t-26.5 -40.5t-7.5 -44.5v-4q0 -22 7.5 -45.5t26.5 -43t51.5 -32t83.5 -12.5h1q50 0 82.5 13t51.5 32.5t26.5 43t7.5 44.5v4q0 22 -7.5 44.5t-26.5 40.5
t-51.5 29.5t-82.5 11.5h-1z" />
    <glyph glyph-name="OE" unicode="&#x152;" horiz-adv-x="1696" 
d="M583 557q-83 0 -134.5 -16t-81 -41t-40 -56.5t-10.5 -61.5v-12q0 -30 11 -62t41 -58.5t81.5 -44t132.5 -17.5t132.5 17t81 43t40.5 58t11 62v14q0 30 -11 61.5t-40.5 56.5t-81 41t-132.5 16zM885 70q-17 -14 -45 -28.5t-68 -26.5t-92.5 -20t-118.5 -8h-37
q-109 0 -188.5 18t-135 47.5t-90.5 68t-54 79.5t-26 82t-7 76v30q0 35 6.5 76t26 82t54 79t90 67t135 46.5t189.5 17.5h37q67 0 119.5 -7t92 -18t67 -24t45.5 -25v62h769v-182h-526v-93h516v-181h-516v-102h534v-186h-777v70z" />
    <glyph glyph-name="oe" unicode="&#x153;" horiz-adv-x="1501" 
d="M1061 421q-38 0 -65 -6t-45 -16.5t-28.5 -25.5t-15.5 -33h308q-8 38 -43 59.5t-111 21.5zM295 271q0 -22 7.5 -45.5t26 -43t51 -32t82.5 -12.5h1q50 0 82.5 13t51 32.5t26 43t7.5 44.5v4q0 22 -7.5 44.5t-26 40.5t-51 29.5t-81.5 11.5h-2q-50 0 -82.5 -11.5t-51 -29.5
t-26 -40.5t-7.5 -44.5v-4zM773 66q-38 -35 -109 -58t-187 -23h-56q-85 0 -148 12.5t-107.5 34t-73 49.5t-45 59t-22.5 63t-6 61v16q0 28 6 59.5t22.5 62t44.5 58t72.5 48t107.5 33t148 12.5h58q57 0 102.5 -6t81.5 -16.5t63 -25t47 -31.5q39 34 106.5 56t175.5 22h39
q87 0 149.5 -13t106 -34.5t70 -50.5t41 -61.5t19.5 -66.5t5 -66v-30h-580q3 -21 13.5 -39t30 -31.5t48 -21t69.5 -7.5h1q48 0 77.5 8.5t45.5 19.5t21.5 21.5t6.5 15.5h266v-2q0 -18 -4.5 -40.5t-19 -45.5t-40.5 -45t-69.5 -39t-106 -27.5t-149.5 -10.5h-36q-108 0 -176 22.5
t-109 57.5z" />
    <glyph glyph-name="Racute" unicode="&#x154;" horiz-adv-x="1070" 
d="M332 435h326q47 0 66.5 18.5t19.5 45.5v1q0 26 -19 44.5t-67 18.5h-326v-128zM332 0h-284v744h676q163 0 238 -50t75 -141v-11q0 -41 -15.5 -70t-38.5 -48.5t-49 -31t-47 -16.5q69 -16 111 -60.5t42 -116.5v-110q0 -39 4.5 -56.5t9.5 -27.5v-5h-290q-5 6 -7 14.5t-2 24.5
v87q0 64 -33.5 96.5t-117.5 32.5h-272v-255zM469 944h279l-101 -155h-257z" />
    <glyph glyph-name="racute" unicode="&#x155;" horiz-adv-x="790" 
d="M310 439q8 12 25.5 30.5t45 36.5t65.5 31t89 13h12q67 0 110.5 -21t69 -55t36 -76.5t10.5 -85.5v-54h-264v19q0 45 -22 77.5t-75 32.5q-48 0 -74 -32.5t-26 -83.5v-271h-272v538h270v-99zM356 744h268l-111 -161h-246z" />
    <glyph glyph-name="uni0156" unicode="&#x156;" horiz-adv-x="1070" 
d="M492 -296q11 21 21 46.5t14 45.5h-113v159h258v-125q0 -15 -5 -32.5t-12.5 -34.5t-16.5 -32.5t-16 -26.5h-130zM332 435h326q47 0 66.5 18.5t19.5 45.5v1q0 26 -19 44.5t-67 18.5h-326v-128zM332 0h-284v744h676q163 0 238 -50t75 -141v-11q0 -41 -15.5 -70t-38.5 -48.5
t-49 -31t-47 -16.5q69 -16 111 -60.5t42 -116.5v-110q0 -39 4.5 -56.5t9.5 -27.5v-5h-290q-5 6 -7 14.5t-2 24.5v87q0 64 -33.5 96.5t-117.5 32.5h-272v-255z" />
    <glyph glyph-name="uni0157" unicode="&#x157;" horiz-adv-x="790" 
d="M124 -296q11 21 21 46.5t14 45.5h-113v159h258v-125q0 -15 -5 -32.5t-12.5 -34.5t-16.5 -32.5t-16 -26.5h-130zM310 439q8 12 25.5 30.5t45 36.5t65.5 31t89 13h12q67 0 110.5 -21t69 -55t36 -76.5t10.5 -85.5v-54h-264v19q0 45 -22 77.5t-75 32.5q-48 0 -74 -32.5
t-26 -83.5v-271h-272v538h270v-99z" />
    <glyph glyph-name="Rcaron" unicode="&#x158;" horiz-adv-x="1070" 
d="M332 435h326q47 0 66.5 18.5t19.5 45.5v1q0 26 -19 44.5t-67 18.5h-326v-128zM332 0h-284v744h676q163 0 238 -50t75 -141v-11q0 -41 -15.5 -70t-38.5 -48.5t-49 -31t-47 -16.5q69 -16 111 -60.5t42 -116.5v-110q0 -39 4.5 -56.5t9.5 -27.5v-5h-290q-5 6 -7 14.5t-2 24.5
v87q0 64 -33.5 96.5t-117.5 32.5h-272v-255zM212 944h244l62 -58l61 58h241l-161 -155h-282z" />
    <glyph glyph-name="rcaron" unicode="&#x159;" horiz-adv-x="790" 
d="M310 439q8 12 25.5 30.5t45 36.5t65.5 31t89 13h12q67 0 110.5 -21t69 -55t36 -76.5t10.5 -85.5v-54h-264v19q0 45 -22 77.5t-75 32.5q-48 0 -74 -32.5t-26 -83.5v-271h-272v538h270v-99zM94 744h236l58 -65l58 65h234l-152 -161h-281z" />
    <glyph glyph-name="Sacute" unicode="&#x15a;" horiz-adv-x="1036" 
d="M462 944h279l-101 -152h-257zM468 -14q-103 0 -176.5 13t-124 34t-80.5 48.5t-46.5 57t-21.5 58.5t-5 53v10h312q1 -15 7.5 -33.5t26 -34t55.5 -26.5t97 -11h9q60 0 95.5 6t55 15.5t25.5 22t6 26.5v1q0 14 -5.5 25.5t-23.5 20.5t-52.5 14t-93.5 7l-138 4
q-108 3 -178.5 22.5t-112 49.5t-58 69t-16.5 83v9q0 45 18 86.5t66 72.5t131 49.5t213 18.5h89q138 0 226 -20t138 -53t69 -75.5t19 -86.5v-8h-309q-1 10 -6.5 23.5t-24 26t-54 21t-95.5 8.5h-10q-56 0 -88.5 -4.5t-49.5 -12t-21.5 -17.5t-4.5 -21v-1q0 -11 5.5 -21t23 -18
t49 -12.5t84.5 -5.5l134 -3q106 -3 180.5 -17t122 -41.5t69 -68.5t21.5 -97v-14q0 -47 -17 -92.5t-67 -81t-140 -57.5t-237 -22h-91v0z" />
    <glyph glyph-name="sacute" unicode="&#x15b;" horiz-adv-x="814" 
d="M364 744h269l-110 -159h-246zM372 -15q-81 0 -139 9.5t-98 24.5t-64 35t-37 41.5t-17 42t-4 38.5v7h277q0 -8 3 -19t14.5 -21.5t33.5 -18t60 -7.5h2q36 0 58 4t33.5 10t15.5 14t4 17v2q0 10 -3.5 17.5t-14.5 13.5t-31.5 9t-53.5 4l-114 3q-85 3 -139 18.5t-85 39
t-42.5 52.5t-11.5 59v6q0 33 13.5 63t51.5 53.5t107.5 37t180.5 13.5h53q108 0 177 -14t108 -37.5t53.5 -53.5t14.5 -62v-7h-272q-1 7 -4 15.5t-14 16t-32.5 13t-57.5 5.5h-1q-33 0 -53.5 -2.5t-32 -7t-15.5 -11.5t-4 -16v-1q0 -8 4 -15t15 -12t30.5 -8.5t50.5 -4.5l113 -3
q91 -3 148 -15t89.5 -33.5t44 -52t11.5 -70.5v-7q0 -37 -13.5 -70.5t-53.5 -59t-113 -40.5t-191 -15h-55v0z" />
    <glyph glyph-name="Scircumflex" unicode="&#x15c;" horiz-adv-x="1036" 
d="M818 791h-243l-62 58l-62 -58h-240l158 153h288zM468 -14q-103 0 -176.5 13t-124 34t-80.5 48.5t-46.5 57t-21.5 58.5t-5 53v10h312q1 -15 7.5 -33.5t26 -34t55.5 -26.5t97 -11h9q60 0 95.5 6t55 15.5t25.5 22t6 26.5v1q0 14 -5.5 25.5t-23.5 20.5t-52.5 14t-93.5 7
l-138 4q-108 3 -178.5 22.5t-112 49.5t-58 69t-16.5 83v9q0 45 18 86.5t66 72.5t131 49.5t213 18.5h89q138 0 226 -20t138 -53t69 -75.5t19 -86.5v-8h-309q-1 10 -6.5 23.5t-24 26t-54 21t-95.5 8.5h-10q-56 0 -88.5 -4.5t-49.5 -12t-21.5 -17.5t-4.5 -21v-1q0 -11 5.5 -21
t23 -18t49 -12.5t84.5 -5.5l134 -3q106 -3 180.5 -17t122 -41.5t69 -68.5t21.5 -97v-14q0 -47 -17 -92.5t-67 -81t-140 -57.5t-237 -22h-91v0z" />
    <glyph glyph-name="scircumflex" unicode="&#x15d;" horiz-adv-x="814" 
d="M694 585h-236l-58 63l-58 -63h-233l152 159h280zM372 -15q-81 0 -139 9.5t-98 24.5t-64 35t-37 41.5t-17 42t-4 38.5v7h277q0 -8 3 -19t14.5 -21.5t33.5 -18t60 -7.5h2q36 0 58 4t33.5 10t15.5 14t4 17v2q0 10 -3.5 17.5t-14.5 13.5t-31.5 9t-53.5 4l-114 3
q-85 3 -139 18.5t-85 39t-42.5 52.5t-11.5 59v6q0 33 13.5 63t51.5 53.5t107.5 37t180.5 13.5h53q108 0 177 -14t108 -37.5t53.5 -53.5t14.5 -62v-7h-272q-1 7 -4 15.5t-14 16t-32.5 13t-57.5 5.5h-1q-33 0 -53.5 -2.5t-32 -7t-15.5 -11.5t-4 -16v-1q0 -8 4 -15t15 -12
t30.5 -8.5t50.5 -4.5l113 -3q91 -3 148 -15t89.5 -33.5t44 -52t11.5 -70.5v-7q0 -37 -13.5 -70.5t-53.5 -59t-113 -40.5t-191 -15h-55v0z" />
    <glyph glyph-name="uni015E" unicode="&#x15e;" horiz-adv-x="1036" 
d="M468 -14q-103 0 -176.5 13t-124 34t-80.5 48.5t-46.5 57t-21.5 58.5t-5 53v10h312q1 -15 7.5 -33.5t26 -34t55.5 -26.5t97 -11h9q60 0 95.5 6t55 15.5t25.5 22t6 26.5v1q0 14 -5.5 25.5t-23.5 20.5t-52.5 14t-93.5 7l-138 4q-108 3 -178.5 22.5t-112 49.5t-58 69
t-16.5 83v9q0 45 18 86.5t66 72.5t131 49.5t213 18.5h89q138 0 226 -20t138 -53t69 -75.5t19 -86.5v-8h-309q-1 10 -6.5 23.5t-24 26t-54 21t-95.5 8.5h-10q-56 0 -88.5 -4.5t-49.5 -12t-21.5 -17.5t-4.5 -21v-1q0 -11 5.5 -21t23 -18t49 -12.5t84.5 -5.5l134 -3
q106 -3 180.5 -17t122 -41.5t69 -68.5t21.5 -97v-14q0 -47 -17 -92.5t-67 -81t-140 -57.5t-237 -22h-91v0zM351 -167h109q21 0 28.5 6t7.5 16q0 9 -7.5 15.5t-28.5 6.5h-71v123h138v-49q60 0 97.5 -7t58.5 -20.5t28.5 -32.5t7.5 -42v-3q0 -21 -8 -40.5t-29 -33.5
t-58.5 -22.5t-97.5 -8.5h-175v92z" />
    <glyph glyph-name="uni015F" unicode="&#x15f;" horiz-adv-x="814" 
d="M372 -15q-81 0 -139 9.5t-98 24.5t-64 35t-37 41.5t-17 42t-4 38.5v7h277q0 -8 3 -19t14.5 -21.5t33.5 -18t60 -7.5h2q36 0 58 4t33.5 10t15.5 14t4 17v2q0 10 -3.5 17.5t-14.5 13.5t-31.5 9t-53.5 4l-114 3q-85 3 -139 18.5t-85 39t-42.5 52.5t-11.5 59v6q0 33 13.5 63
t51.5 53.5t107.5 37t180.5 13.5h53q108 0 177 -14t108 -37.5t53.5 -53.5t14.5 -62v-7h-272q-1 7 -4 15.5t-14 16t-32.5 13t-57.5 5.5h-1q-33 0 -53.5 -2.5t-32 -7t-15.5 -11.5t-4 -16v-1q0 -8 4 -15t15 -12t30.5 -8.5t50.5 -4.5l113 -3q91 -3 148 -15t89.5 -33.5t44 -52
t11.5 -70.5v-7q0 -37 -13.5 -70.5t-53.5 -59t-113 -40.5t-191 -15h-55v0zM221 -167h109q21 0 28.5 6t7.5 16q0 9 -7.5 15.5t-28.5 6.5h-71v123h138v-49q60 0 97.5 -7t58.5 -20.5t28.5 -32.5t7.5 -42v-3q0 -21 -8 -40.5t-29 -33.5t-58.5 -22.5t-97.5 -8.5h-175v92z" />
    <glyph glyph-name="Scaron" unicode="&#x160;" horiz-adv-x="1036" 
d="M468 -14q-103 0 -176.5 13t-124 34t-80.5 48.5t-46.5 57t-21.5 58.5t-5 53v10h312q1 -15 7.5 -33.5t26 -34t55.5 -26.5t97 -11h9q60 0 95.5 6t55 15.5t25.5 22t6 26.5v1q0 14 -5.5 25.5t-23.5 20.5t-52.5 14t-93.5 7l-138 4q-108 3 -178.5 22.5t-112 49.5t-58 69
t-16.5 83v9q0 45 18 86.5t66 72.5t131 49.5t213 18.5h89q138 0 226 -20t138 -53t69 -75.5t19 -86.5v-8h-309q-1 10 -6.5 23.5t-24 26t-54 21t-95.5 8.5h-10q-56 0 -88.5 -4.5t-49.5 -12t-21.5 -17.5t-4.5 -21v-1q0 -11 5.5 -21t23 -18t49 -12.5t84.5 -5.5l134 -3
q106 -3 180.5 -17t122 -41.5t69 -68.5t21.5 -97v-14q0 -47 -17 -92.5t-67 -81t-140 -57.5t-237 -22h-91v0zM203 944h244l62 -58l61 58h241l-161 -155h-282z" />
    <glyph glyph-name="scaron" unicode="&#x161;" horiz-adv-x="814" 
d="M372 -15q-81 0 -139 9.5t-98 24.5t-64 35t-37 41.5t-17 42t-4 38.5v7h277q0 -8 3 -19t14.5 -21.5t33.5 -18t60 -7.5h2q36 0 58 4t33.5 10t15.5 14t4 17v2q0 10 -3.5 17.5t-14.5 13.5t-31.5 9t-53.5 4l-114 3q-85 3 -139 18.5t-85 39t-42.5 52.5t-11.5 59v6q0 33 13.5 63
t51.5 53.5t107.5 37t180.5 13.5h53q108 0 177 -14t108 -37.5t53.5 -53.5t14.5 -62v-7h-272q-1 7 -4 15.5t-14 16t-32.5 13t-57.5 5.5h-1q-33 0 -53.5 -2.5t-32 -7t-15.5 -11.5t-4 -16v-1q0 -8 4 -15t15 -12t30.5 -8.5t50.5 -4.5l113 -3q91 -3 148 -15t89.5 -33.5t44 -52
t11.5 -70.5v-7q0 -37 -13.5 -70.5t-53.5 -59t-113 -40.5t-191 -15h-55v0zM107 744h236l58 -65l58 65h234l-152 -161h-281z" />
    <glyph glyph-name="Tcommaaccent" unicode="&#x162;" horiz-adv-x="977" 
d="M437 -296q11 21 21 46.5t14 45.5h-113v159h258v-125q0 -15 -5 -32.5t-12.5 -34.5t-16.5 -32.5t-16 -26.5h-130zM346 541h-321v203h926v-203h-321v-541h-284v541z" />
    <glyph glyph-name="tcommaaccent" unicode="&#x163;" horiz-adv-x="514" 
d="M274 -296q11 21 21 46.5t14 45.5h-113v159h258v-125q0 -15 -5 -32.5t-12.5 -34.5t-16.5 -32.5t-16 -26.5h-130zM259 0q-70 0 -106.5 38t-36.5 115v220h-103v165h103v157h270v-157h103v-165h-103v-159q0 -25 8 -36t37 -11h58v-167h-230z" />
    <glyph glyph-name="Tcaron" unicode="&#x164;" horiz-adv-x="977" 
d="M346 541h-321v203h926v-203h-321v-541h-284v541zM184 944h244l62 -58l61 58h241l-161 -155h-282z" />
    <glyph glyph-name="tcaron" unicode="&#x165;" horiz-adv-x="514" 
d="M259 0q-70 0 -106.5 38t-36.5 115v220h-103v165h103v157h270v-157h103v-165h-103v-159q0 -25 8 -36t37 -11h58v-167h-230zM427 744h205l-28 -169h-191z" />
    <glyph glyph-name="Tbar" unicode="&#x166;" horiz-adv-x="977" 
d="M112 284v142h753v-142h-753zM346 541h-321v203h926v-203h-321v-541h-284v541z" />
    <glyph glyph-name="tbar" unicode="&#x167;" horiz-adv-x="514" 
d="M489 0h-230q-70 0 -106.5 38t-36.5 115v70h-103v117h103v46h-103v152h103v157h270v-157h103v-152h-103v-46h103v-117h-103v-14q0 -25 8 -36.5t37 -11.5h58v-161z" />
    <glyph glyph-name="Utilde" unicode="&#x168;" horiz-adv-x="1104" 
d="M40 744h285v-333q0 -34 9 -69.5t34.5 -64.5t69.5 -47.5t115 -18.5q69 0 113.5 18.5t69.5 47.5t34.5 64.5t9.5 69.5v333h284v-355q0 -36 -7 -79.5t-26.5 -88.5t-53.5 -86.5t-88.5 -74.5t-132 -52.5t-182.5 -19.5h-40q-108 0 -187 19.5t-133.5 52.5t-88.5 74.5t-53 86.5
t-25.5 88.5t-6.5 79.5v355zM679 793q-17 0 -31 1.5t-29 5t-33 9t-42 13.5q-23 8 -36 11.5t-24 3.5t-14.5 -6.5t-3.5 -14.5v-29h-161v85q0 15 4.5 32.5t16.5 32t34 24t58 9.5h4q17 0 31.5 -1.5t30 -5.5t33.5 -9.5t42 -12.5q20 -7 34 -11t25 -4q8 0 12.5 6t4.5 14v29h161v-79
q0 -16 -3.5 -34t-15.5 -33.5t-34 -25.5t-59 -10h-5v0z" />
    <glyph glyph-name="utilde" unicode="&#x169;" horiz-adv-x="887" 
d="M847 0h-270v96q-10 -10 -30.5 -28t-54 -36t-80 -31t-108.5 -13h-7q-75 0 -124.5 20.5t-79.5 52t-42 68t-12 69.5v340h273v-257q0 -26 6.5 -48.5t21.5 -39.5t38.5 -26.5t57.5 -9.5q68 0 104 38t36 93v250h271v-538zM567 585q-15 0 -28.5 1.5t-28.5 5t-33 9t-42 13.5
q-22 7 -34 10.5t-22 3.5t-13 -6t-3 -15v-27h-159v81q0 15 4 32.5t16 31.5t33.5 23.5t56.5 9.5h4q16 0 30 -1.5t28.5 -4.5t32 -8.5t42.5 -13.5q20 -7 32 -11t23 -4q8 0 11.5 6t3.5 14v29h160v-76q0 -16 -3.5 -34t-15 -33.5t-33.5 -25.5t-58 -10h-4v0z" />
    <glyph glyph-name="Umacron" unicode="&#x16a;" horiz-adv-x="1104" 
d="M40 744h285v-333q0 -34 9 -69.5t34.5 -64.5t69.5 -47.5t115 -18.5q69 0 113.5 18.5t69.5 47.5t34.5 64.5t9.5 69.5v333h284v-355q0 -36 -7 -79.5t-26.5 -88.5t-53.5 -86.5t-88.5 -74.5t-132 -52.5t-182.5 -19.5h-40q-108 0 -187 19.5t-133.5 52.5t-88.5 74.5t-53 86.5
t-25.5 88.5t-6.5 79.5v355zM317 929h469v-132h-469v132z" />
    <glyph glyph-name="umacron" unicode="&#x16b;" horiz-adv-x="887" 
d="M847 0h-270v96q-10 -10 -30.5 -28t-54 -36t-80 -31t-108.5 -13h-7q-75 0 -124.5 20.5t-79.5 52t-42 68t-12 69.5v340h273v-257q0 -26 6.5 -48.5t21.5 -39.5t38.5 -26.5t57.5 -9.5q68 0 104 38t36 93v250h271v-538zM217 722h452v-129h-452v129z" />
    <glyph glyph-name="Ubreve" unicode="&#x16c;" horiz-adv-x="1104" 
d="M40 744h285v-333q0 -34 9 -69.5t34.5 -64.5t69.5 -47.5t115 -18.5q69 0 113.5 18.5t69.5 47.5t34.5 64.5t9.5 69.5v333h284v-355q0 -36 -7 -79.5t-26.5 -88.5t-53.5 -86.5t-88.5 -74.5t-132 -52.5t-182.5 -19.5h-40q-108 0 -187 19.5t-133.5 52.5t-88.5 74.5t-53 86.5
t-25.5 88.5t-6.5 79.5v355zM533 782q-73 0 -117.5 19t-68.5 46t-32 56t-8 49v2h183q0 -5 2.5 -13t9 -16t19 -14t33.5 -6q20 0 32.5 6t19 14t8.5 16t2 13h180v-2q0 -20 -10 -49t-35 -56t-68 -46t-110 -19h-40v0z" />
    <glyph glyph-name="ubreve" unicode="&#x16d;" horiz-adv-x="887" 
d="M847 0h-270v96q-10 -10 -30.5 -28t-54 -36t-80 -31t-108.5 -13h-7q-75 0 -124.5 20.5t-79.5 52t-42 68t-12 69.5v340h273v-257q0 -26 6.5 -48.5t21.5 -39.5t38.5 -26.5t57.5 -9.5q68 0 104 38t36 93v250h271v-538zM685 742q0 -20 -10 -48.5t-35 -54.5t-68 -44t-108 -18
h-40q-72 0 -115.5 18t-67.5 44t-32 54.5t-8 48.5v2h181q0 -5 2 -13t9 -16t19 -13.5t33 -5.5q20 0 32 5.5t18.5 13.5t9 16t2.5 13h178v-2v0z" />
    <glyph glyph-name="Uring" unicode="&#x16e;" horiz-adv-x="1104" 
d="M40 744h285v-333q0 -34 9 -69.5t34.5 -64.5t69.5 -47.5t115 -18.5q69 0 113.5 18.5t69.5 47.5t34.5 64.5t9.5 69.5v333h284v-355q0 -36 -7 -79.5t-26.5 -88.5t-53.5 -86.5t-88.5 -74.5t-132 -52.5t-182.5 -19.5h-40q-108 0 -187 19.5t-133.5 52.5t-88.5 74.5t-53 86.5
t-25.5 88.5t-6.5 79.5v355zM353 889q0 24 9.5 46t32.5 38t61.5 25.5t96.5 9.5t96 -9.5t60.5 -25.5t31.5 -38t9 -46q0 -25 -9 -46.5t-31.5 -37.5t-60.5 -25.5t-96 -9.5q-59 0 -97.5 9.5t-61.5 25.5t-32 38t-9 46zM476 890q0 -21 18 -33.5t59 -12.5q40 0 57.5 12.5t17.5 33.5
q0 20 -17.5 32t-57.5 12q-41 0 -59 -12t-18 -32z" />
    <glyph glyph-name="uring" unicode="&#x16f;" horiz-adv-x="887" 
d="M847 0h-270v96q-10 -10 -30.5 -28t-54 -36t-80 -31t-108.5 -13h-7q-75 0 -124.5 20.5t-79.5 52t-42 68t-12 69.5v340h273v-257q0 -26 6.5 -48.5t21.5 -39.5t38.5 -26.5t57.5 -9.5q68 0 104 38t36 93v250h271v-538zM246 695q0 24 9.5 45.5t32.5 37.5t61 25.5t95 9.5
t94.5 -9.5t60 -25.5t31.5 -37.5t9 -45.5q0 -25 -9 -46.5t-31.5 -37.5t-60 -25.5t-94.5 -9.5q-58 0 -96.5 9.5t-61 25.5t-31.5 38t-9 46zM369 695q0 -20 18 -32.5t57 -12.5q38 0 55.5 12.5t17.5 32.5t-17.5 32t-55.5 12q-39 0 -57 -12t-18 -32z" />
    <glyph glyph-name="Uhungarumlaut" unicode="&#x170;" horiz-adv-x="1104" 
d="M40 744h285v-333q0 -34 9 -69.5t34.5 -64.5t69.5 -47.5t115 -18.5q69 0 113.5 18.5t69.5 47.5t34.5 64.5t9.5 69.5v333h284v-355q0 -36 -7 -79.5t-26.5 -88.5t-53.5 -86.5t-88.5 -74.5t-132 -52.5t-182.5 -19.5h-40q-108 0 -187 19.5t-133.5 52.5t-88.5 74.5t-53 86.5
t-25.5 88.5t-6.5 79.5v355zM633 944h245l-65 -155h-239zM345 944h245l-59 -155h-239z" />
    <glyph glyph-name="uhungarumlaut" unicode="&#x171;" horiz-adv-x="887" 
d="M847 0h-270v96q-10 -10 -30.5 -28t-54 -36t-80 -31t-108.5 -13h-7q-75 0 -124.5 20.5t-79.5 52t-42 68t-12 69.5v340h273v-257q0 -26 6.5 -48.5t21.5 -39.5t38.5 -26.5t57.5 -9.5q68 0 104 38t36 93v250h271v-538zM527 744h237l-69 -161h-231zM247 744h236l-62 -161h-230
z" />
    <glyph glyph-name="Uogonek" unicode="&#x172;" horiz-adv-x="1104" 
d="M642 -188q-78 0 -112.5 18.5t-34.5 53.5v3q0 40 48.5 63.5t136.5 44.5q-26 -4 -52.5 -5.5t-53.5 -1.5h-40q-108 0 -187 19.5t-133.5 52.5t-88.5 74.5t-53 86.5t-25.5 88.5t-6.5 79.5v355h285v-333q0 -34 9 -69.5t34.5 -64.5t69.5 -47.5t115 -18.5q69 0 113.5 18.5
t69.5 47.5t34.5 64.5t9.5 69.5v333h284v-355q0 -115 -56 -211.5t-186 -169.5q-37 -20 -59 -35.5t-22 -33.5q0 -21 34 -21h32v-106h-165z" />
    <glyph glyph-name="uogonek" unicode="&#x173;" horiz-adv-x="887" 
d="M540 -113q0 41 50 66t143 47h114q-26 -17 -43 -31.5t-17 -29.5q0 -21 33 -21h27v-106h-160q-78 0 -112.5 18.5t-34.5 53.5v3zM847 0h-270v96q-10 -10 -30.5 -28t-54 -36t-80 -31t-108.5 -13h-7q-75 0 -124.5 20.5t-79.5 52t-42 68t-12 69.5v340h273v-257q0 -26 6.5 -48.5
t21.5 -39.5t38.5 -26.5t57.5 -9.5q68 0 104 38t36 93v250h271v-538z" />
    <glyph glyph-name="Wcircumflex" unicode="&#x174;" horiz-adv-x="1535" 
d="M278 0l-290 744h316l169 -491l149 491h320l151 -483l164 483h291l-290 -744h-329l-155 470l-150 -470h-346zM1081 789h-244l-62 58l-61 -58h-241l162 155h282z" />
    <glyph glyph-name="wcircumflex" unicode="&#x175;" horiz-adv-x="1219" 
d="M202 0l-212 538h283l105 -339l103 339h280l105 -338l103 338h260l-200 -538h-304l-108 326l-108 -326h-307zM914 582h-237l-58 66l-58 -66h-233l152 162h281z" />
    <glyph glyph-name="Ycircumflex" unicode="&#x176;" horiz-adv-x="1049" 
d="M387 280l-407 464h340l217 -257l221 257h311l-398 -466v-278h-284v280zM839 789h-244l-62 58l-61 -58h-241l162 155h282z" />
    <glyph glyph-name="ycircumflex" unicode="&#x177;" horiz-adv-x="827" 
d="M119 -22h122q15 0 20 5t5 12v1q0 8 -6 20.5t-17 33.5l-254 488h290l150 -346l139 346h270l-259 -561q-39 -85 -86.5 -125t-120.5 -40h-253v166zM718 582h-237l-58 66l-58 -66h-233l152 162h281z" />
    <glyph glyph-name="Ydieresis" unicode="&#x178;" horiz-adv-x="1049" 
d="M387 280l-407 464h340l217 -257l221 257h311l-398 -466v-278h-284v280zM804 789h-245v155h245v-155zM511 789h-246v155h246v-155z" />
    <glyph glyph-name="Zacute" unicode="&#x179;" horiz-adv-x="954" 
d="M920 744v-151l-488 -390h493v-203h-896v152l474 396h-468v196h885zM409 944h279l-101 -155h-257z" />
    <glyph glyph-name="zacute" unicode="&#x17a;" horiz-adv-x="752" 
d="M22 0v146l358 233h-358v159h707v-143l-369 -230h370v-165h-708zM333 744h268l-111 -161h-246z" />
    <glyph glyph-name="Zdotaccent" unicode="&#x17b;" horiz-adv-x="954" 
d="M920 744v-151l-488 -390h493v-203h-896v152l474 396h-468v196h885zM612 789h-271v161h271v-161z" />
    <glyph glyph-name="zdotaccent" unicode="&#x17c;" horiz-adv-x="752" 
d="M22 0v146l358 233h-358v159h707v-143l-369 -230h370v-165h-708zM511 583h-271v161h271v-161z" />
    <glyph glyph-name="Zcaron" unicode="&#x17d;" horiz-adv-x="954" 
d="M920 744v-151l-488 -390h493v-203h-896v152l474 396h-468v196h885zM172 944h244l62 -58l61 58h241l-161 -155h-282z" />
    <glyph glyph-name="zcaron" unicode="&#x17e;" horiz-adv-x="752" 
d="M22 0v146l358 233h-358v159h707v-143l-369 -230h370v-165h-708zM85 744h236l58 -65l58 65h234l-152 -161h-281z" />
    <glyph glyph-name="uni0192" unicode="&#x192;" horiz-adv-x="544" 
d="M390 320l-26 -510h-270l25 510h-98v166h106l5 105q2 31 11.5 59t32.5 49t61.5 33t98.5 12h178v-154h-75q-23 0 -29.5 -9.5t-8.5 -29.5l-3 -65h116v-166h-124z" />
    <glyph glyph-name="Aringacute" unicode="&#x1fa;" horiz-adv-x="1107" 
d="M538 562l-122 -256h247zM754 120h-425l-57 -120h-288l368 744h382l389 -744h-311zM516 1201h268l-111 -161h-246zM346 898q0 24 9.5 46t32.5 38t61.5 25.5t96.5 9.5t96 -9.5t60.5 -25.5t31.5 -38t9 -46q0 -25 -9 -46.5t-31.5 -37.5t-60.5 -25.5t-96 -9.5q-59 0 -97.5 9.5
t-61.5 25.5t-32 38t-9 46zM469 899q0 -21 18 -33.5t59 -12.5q40 0 57.5 12.5t17.5 33.5q0 20 -17.5 32t-57.5 12q-41 0 -59 -12t-18 -32z" />
    <glyph glyph-name="aringacute" unicode="&#x1fb;" horiz-adv-x="846" 
d="M521 254l-180 -32q-35 -6 -50.5 -16t-15.5 -30v-1q0 -9 4 -19t13.5 -18t26 -13t41.5 -5q37 0 67 9.5t51 25t32 35.5t11 41v23zM526 72q-10 -10 -28.5 -24t-48.5 -27t-73.5 -22t-101.5 -9h-11q-68 0 -115 14.5t-77 39t-43.5 55.5t-13.5 64v12q0 34 11.5 60.5t37.5 46
t67.5 32t101.5 17.5l259 23q17 2 23.5 8.5t6.5 17.5q0 7 -3.5 14.5t-15.5 13.5t-35 9.5t-63 3.5h-4q-43 0 -67 -6t-35.5 -15t-14.5 -18.5t-4 -15.5h-252v6q0 27 8.5 58.5t43 58.5t103.5 45t190 18h56q84 0 143.5 -7.5t99 -21t63 -30.5t35 -36.5t15 -39.5t3.5 -38v-199
q0 -11 4.5 -17t18.5 -6h29v-157h-226q-35 0 -58 18.5t-29 53.5zM373 1000h268l-111 -161h-246zM205 696q0 24 9.5 45.5t32.5 37.5t61 25.5t95 9.5t94.5 -9.5t60 -25.5t31.5 -37.5t9 -45.5q0 -25 -9 -46.5t-31.5 -37.5t-60 -25.5t-94.5 -9.5q-58 0 -96.5 9.5t-61 25.5
t-31.5 38t-9 46zM328 696q0 -20 18 -32.5t57 -12.5q38 0 55.5 12.5t17.5 32.5t-17.5 32t-55.5 12q-39 0 -57 -12t-18 -32z" />
    <glyph glyph-name="AEacute" unicode="&#x1fc;" horiz-adv-x="1516" 
d="M941 944h279l-101 -155h-257zM668 568l-191 -266h191v266zM668 116h-325l-83 -116h-286l540 744h960v-182h-526v-93h516v-181h-516v-102h534v-186h-814v116z" />
    <glyph glyph-name="aeacute" unicode="&#x1fd;" horiz-adv-x="1381" 
d="M642 744h268l-111 -161h-246zM939 421q-77 0 -111 -22.5t-43 -58.5h310q-8 38 -43 59.5t-111 21.5h-2zM359 119q37 0 66 9.5t49.5 25t31.5 36t11 41.5v23l-178 -31q-33 -6 -49 -16t-16 -30v-1q0 -10 4 -20t14 -18.5t26.5 -13.5t40.5 -5zM1362 194q0 -19 -5 -41.5
t-19.5 -45.5t-41 -45t-70.5 -39t-107 -27t-150 -10h-55q-71 0 -125.5 9t-95.5 24t-70.5 35.5t-50.5 44.5q-11 -12 -32 -31t-54.5 -36t-81.5 -29.5t-114 -12.5h-11q-75 0 -125.5 14.5t-81.5 39t-44.5 55.5t-13.5 64v12q0 68 49.5 107.5t167.5 49.5l263 23q14 2 18.5 8.5
t4.5 17.5v1q0 7 -3.5 13.5t-15.5 12t-35 9t-62 3.5h-5q-42 0 -65.5 -6t-35 -14.5t-14 -18t-2.5 -15.5h-251v6q0 17 2.5 37t13.5 40t32.5 38.5t59.5 33t94.5 23t138.5 8.5h55q55 0 96 -4.5t71 -11.5t50 -16t33 -18q14 9 34.5 17.5t49.5 16t67 12t86 4.5h57q88 0 152 -13
t108 -34.5t70.5 -50.5t41 -61.5t19.5 -66.5t5 -66v-30h-582q3 -21 13.5 -39t29.5 -31.5t48.5 -21t70.5 -7.5h1q49 0 79 8.5t45.5 20t21 22t5.5 14.5h266v-2z" />
    <glyph glyph-name="Oslashacute" unicode="&#x1fe;" horiz-adv-x="1181" 
d="M541 944h279l-101 -152h-257zM568 -13q-94 0 -168.5 12t-131.5 35l-44 -34h-230q20 16 44 34q20 15 45 34.5t51 39.5q-62 53 -87 117.5t-25 132.5v30q0 35 7 76.5t27 82.5t57 79t98 67t148.5 46.5t208.5 17.5h46q93 0 165 -12t129 -34l43 33h231l-138 -107
q61 -51 88 -114.5t27 -134.5v-30q0 -35 -7 -76t-27.5 -82t-57.5 -79.5t-97.5 -68t-148 -47.5t-207.5 -18h-46zM313 370q0 -26 7 -51.5t24 -48.5l364 285q-48 6 -118 6q-85 0 -139 -16t-84.5 -41.5t-42 -57t-11.5 -63.5v-13zM590 185q84 0 137.5 16.5t85 43t43.5 59.5t12 65
v14q0 25 -6.5 50t-22.5 47l-369 -288q25 -3 55 -5t65 -2z" />
    <glyph glyph-name="oslashacute" unicode="&#x1ff;" horiz-adv-x="927" 
d="M426 744h268l-109 -159h-246zM425 -15q-69 0 -126.5 11t-98.5 28l-37 -24h-177l118 82q-42 32 -63.5 78.5t-21.5 103.5v16q0 28 6.5 59.5t23 62t45.5 58t74.5 48t109 33t150.5 12.5h75q75 0 131 -12t92 -26l34 23h180l-115 -79q83 -69 83 -178v-18q0 -29 -5 -60.5
t-20.5 -62.5t-43.5 -59t-73.5 -49.5t-111 -34t-155.5 -12.5h-74zM289 271q0 -29 10 -55l254 176q-17 5 -39 8.5t-49 3.5h-2q-52 0 -86 -11.5t-53.5 -30.5t-27 -42t-7.5 -45v-4zM465 136q52 0 86 13t53.5 33t27 43.5t7.5 45.5v4q0 12 -1.5 24.5t-6.5 24.5l-253 -176
q34 -12 86 -12h1z" />
    <glyph glyph-name="uni0218" unicode="&#x218;" horiz-adv-x="1036" 
d="M463 -299q11 21 21 46.5t14 45.5h-113v159h258v-125q0 -15 -5 -32.5t-12.5 -34.5t-16.5 -32.5t-16 -26.5h-130zM468 -14q-103 0 -176.5 13t-124 34t-80.5 48.5t-46.5 57t-21.5 58.5t-5 53v10h312q1 -15 7.5 -33.5t26 -34t55.5 -26.5t97 -11h9q60 0 95.5 6t55 15.5
t25.5 22t6 26.5v1q0 14 -5.5 25.5t-23.5 20.5t-52.5 14t-93.5 7l-138 4q-108 3 -178.5 22.5t-112 49.5t-58 69t-16.5 83v9q0 45 18 86.5t66 72.5t131 49.5t213 18.5h89q138 0 226 -20t138 -53t69 -75.5t19 -86.5v-8h-309q-1 10 -6.5 23.5t-24 26t-54 21t-95.5 8.5h-10
q-56 0 -88.5 -4.5t-49.5 -12t-21.5 -17.5t-4.5 -21v-1q0 -11 5.5 -21t23 -18t49 -12.5t84.5 -5.5l134 -3q106 -3 180.5 -17t122 -41.5t69 -68.5t21.5 -97v-14q0 -47 -17 -92.5t-67 -81t-140 -57.5t-237 -22h-91v0z" />
    <glyph glyph-name="uni0219" unicode="&#x219;" horiz-adv-x="814" 
d="M354 -298q11 21 21 46.5t14 45.5h-113v159h258v-125q0 -15 -5 -32.5t-12.5 -34.5t-16.5 -32.5t-16 -26.5h-130zM372 -15q-81 0 -139 9.5t-98 24.5t-64 35t-37 41.5t-17 42t-4 38.5v7h277q0 -8 3 -19t14.5 -21.5t33.5 -18t60 -7.5h2q36 0 58 4t33.5 10t15.5 14t4 17v2
q0 10 -3.5 17.5t-14.5 13.5t-31.5 9t-53.5 4l-114 3q-85 3 -139 18.5t-85 39t-42.5 52.5t-11.5 59v6q0 33 13.5 63t51.5 53.5t107.5 37t180.5 13.5h53q108 0 177 -14t108 -37.5t53.5 -53.5t14.5 -62v-7h-272q-1 7 -4 15.5t-14 16t-32.5 13t-57.5 5.5h-1q-33 0 -53.5 -2.5
t-32 -7t-15.5 -11.5t-4 -16v-1q0 -8 4 -15t15 -12t30.5 -8.5t50.5 -4.5l113 -3q91 -3 148 -15t89.5 -33.5t44 -52t11.5 -70.5v-7q0 -37 -13.5 -70.5t-53.5 -59t-113 -40.5t-191 -15h-55v0z" />
    <glyph glyph-name="uni021A" unicode="&#x21a;" horiz-adv-x="977" 
d="M437 -296q11 21 21 46.5t14 45.5h-113v159h258v-125q0 -15 -5 -32.5t-12.5 -34.5t-16.5 -32.5t-16 -26.5h-130zM346 541h-321v203h926v-203h-321v-541h-284v541z" />
    <glyph glyph-name="uni021B" unicode="&#x21b;" horiz-adv-x="514" 
d="M274 -296q11 21 21 46.5t14 45.5h-113v159h258v-125q0 -15 -5 -32.5t-12.5 -34.5t-16.5 -32.5t-16 -26.5h-130zM259 0q-70 0 -106.5 38t-36.5 115v220h-103v165h103v157h270v-157h103v-165h-103v-159q0 -25 8 -36t37 -11h58v-167h-230z" />
    <glyph glyph-name="uni0237" unicode="&#x237;" horiz-adv-x="352" 
d="M8 -27q18 0 25 7t7 30v528h272v-578q0 -41 -9 -69.5t-24.5 -46t-36 -25t-42.5 -7.5h-228v161h36z" />
    <glyph glyph-name="uni02BC" unicode="&#x2bc;" horiz-adv-x="322" 
d="M102 475q13 23 25 52.5t15 51.5h-111v165h267v-134q0 -17 -5.5 -35.5t-13.5 -37t-18 -34.5t-19 -28h-140z" />
    <glyph glyph-name="circumflex" unicode="&#x2c6;" 
d="M646 582h-237l-58 66l-58 -66h-233l152 162h281z" />
    <glyph glyph-name="caron" unicode="&#x2c7;" 
d="M60 744h236l58 -65l58 65h234l-152 -161h-281z" />
    <glyph glyph-name="breve" unicode="&#x2d8;" 
d="M595 742q0 -20 -10 -48.5t-35 -54.5t-68 -44t-108 -18h-40q-72 0 -115.5 18t-67.5 44t-32 54.5t-8 48.5v2h181q0 -5 2 -13t9 -16t19 -13.5t33 -5.5q20 0 32 5.5t18.5 13.5t9 16t2.5 13h178v-2v0z" />
    <glyph glyph-name="dotaccent" unicode="&#x2d9;" 
d="M488 583h-271v161h271v-161z" />
    <glyph glyph-name="ring" unicode="&#x2da;" 
d="M157 695q0 24 9.5 45.5t32.5 37.5t61 25.5t95 9.5t94.5 -9.5t60 -25.5t31.5 -37.5t9 -45.5q0 -25 -9 -46.5t-31.5 -37.5t-60 -25.5t-94.5 -9.5q-58 0 -96.5 9.5t-61 25.5t-31.5 38t-9 46zM280 695q0 -20 18 -32.5t57 -12.5q38 0 55.5 12.5t17.5 32.5t-17.5 32t-55.5 12
q-39 0 -57 -12t-18 -32z" />
    <glyph glyph-name="ogonek" unicode="&#x2db;" 
d="M196 -113q0 41 50 66t143 47h114q-26 -17 -43 -31.5t-17 -29.5q0 -21 33 -21h27v-106h-160q-78 0 -112.5 18.5t-34.5 53.5v3z" />
    <glyph glyph-name="tilde" unicode="&#x2dc;" 
d="M477 585q-15 0 -28.5 1.5t-28.5 5t-33 9t-42 13.5q-22 7 -34 10.5t-22 3.5t-13 -6t-3 -15v-27h-159v81q0 15 4 32.5t16 31.5t33.5 23.5t56.5 9.5h4q16 0 30 -1.5t28.5 -4.5t32 -8.5t42.5 -13.5q20 -7 32 -11t23 -4q8 0 11.5 6t3.5 14v29h160v-76q0 -16 -3.5 -34
t-15 -33.5t-33.5 -25.5t-58 -10h-4v0z" />
    <glyph glyph-name="hungarumlaut" unicode="&#x2dd;" 
d="M403 744h237l-69 -161h-231zM123 744h236l-62 -161h-230z" />
    <glyph glyph-name="uni0401" unicode="&#x401;" horiz-adv-x="913" 
d="M871 744v-182h-543v-93h532v-181h-532v-102h551v-186h-831v744h823zM738 789h-245v155h245v-155zM445 789h-246v155h246v-155z" />
    <glyph glyph-name="uni0402" unicode="&#x402;" horiz-adv-x="1144" 
d="M22 744h926v-203h-421v-102q30 5 76.5 9.5t105.5 4.5h25q394 0 394 -272v-13q0 -151 -111.5 -221.5t-331.5 -70.5h-56v183h24q60 0 96.5 9t56.5 23.5t26.5 33.5t6.5 40v3q0 42 -34.5 68.5t-116.5 26.5h-18q-51 0 -84.5 -3t-58.5 -6v-254h-284v541h-221v203z" />
    <glyph glyph-name="uni0403" unicode="&#x403;" horiz-adv-x="854" 
d="M390 944h279l-101 -155h-257zM45 744h786v-198h-502v-546h-284v744z" />
    <glyph glyph-name="uni0404" unicode="&#x404;" horiz-adv-x="1120" 
d="M1103 293q0 -24 -7 -56.5t-27.5 -66.5t-56.5 -67t-93.5 -59t-139.5 -42t-194 -16h-39q-114 0 -197.5 18t-142 47.5t-95 68.5t-57 80.5t-27.5 83t-7 76.5v29q0 35 6.5 76.5t26.5 82.5t56 79t94.5 67t142.5 46.5t200 17.5h39q113 0 195.5 -15.5t140 -41t93.5 -58t55.5 -66
t26.5 -65t7 -55.5v-11h-295q-2 7 -10 26.5t-33.5 40t-73 36.5t-128.5 16q-54 0 -94.5 -7.5t-69 -20.5t-46.5 -31.5t-28 -39.5h390v-175h-390q10 -23 28.5 -43t47.5 -35t69 -24t94 -9q55 0 94 8t66 21t43 28t25 29.5t12.5 25.5t4.5 15h294v-14z" />
    <glyph glyph-name="uni0405" unicode="&#x405;" horiz-adv-x="1030" 
d="M468 -14q-103 0 -176.5 13t-124 34t-80.5 48.5t-46.5 57t-21.5 58.5t-5 53v10h312q1 -15 7.5 -33.5t26 -34t55.5 -26.5t97 -11h9q60 0 95.5 6t55 15.5t25.5 22t6 26.5v1q0 14 -5.5 25.5t-23.5 20.5t-52.5 14t-93.5 7l-138 4q-108 3 -178.5 22.5t-112 49.5t-58 69
t-16.5 83v9q0 45 18 86.5t66 72.5t131 49.5t213 18.5h89q138 0 226 -20t138 -53t69 -75.5t19 -86.5v-8h-309q-1 10 -6.5 23.5t-24 26t-54 21t-95.5 8.5h-10q-56 0 -88.5 -4.5t-49.5 -12t-21.5 -17.5t-4.5 -21v-1q0 -11 5.5 -21t23 -18t49 -12.5t84.5 -5.5l134 -3
q106 -3 180.5 -17t122 -41.5t69 -68.5t21.5 -97v-14q0 -47 -17 -92.5t-67 -81t-140 -57.5t-237 -22h-91v0z" />
    <glyph glyph-name="uni0406" unicode="&#x406;" horiz-adv-x="373" 
d="M331 0h-283v744h283v-744z" />
    <glyph glyph-name="uni0407" unicode="&#x407;" horiz-adv-x="379" 
d="M331 0h-283v744h283v-744zM459 789h-245v155h245v-155zM166 789h-246v155h246v-155z" />
    <glyph glyph-name="uni0408" unicode="&#x408;" horiz-adv-x="942" 
d="M421 -11q-88 0 -153 16t-111 42.5t-75.5 61t-46 71.5t-22.5 74.5t-6 69.5v6h279q1 -11 6 -32.5t21.5 -42.5t48.5 -37t88 -16h8q45 0 76.5 12.5t51 35t28.5 53t9 66.5v375h284v-381q0 -39 -6 -81.5t-22.5 -84t-46 -79.5t-77 -66.5t-114.5 -45.5t-159 -17h-61v0z" />
    <glyph glyph-name="uni0409" unicode="&#x409;" horiz-adv-x="1551" 
d="M20 0v212h15q30 0 48.5 5.5t31.5 21.5q10 13 17.5 39.5t12 81.5t6.5 147t2 237h766v-219h244q112 0 185 -20t115.5 -54.5t59 -80.5t16.5 -98v-16q0 -52 -16.5 -98.5t-59 -81.5t-115.5 -55.5t-186 -20.5h-526v553h-225q0 -111 -4.5 -187t-12 -127t-18.5 -83t-25 -57
q-14 -23 -32.5 -41.5t-45.5 -31.5t-64 -19.5t-88 -6.5h-101zM1127 185q34 0 57 6.5t36.5 17t19 24.5t5.5 29v3q0 16 -5.5 29.5t-19 23.5t-36.5 16t-57 6h-208v-155h208z" />
    <glyph glyph-name="uni040A" unicode="&#x40a;" horiz-adv-x="1584" 
d="M671 297h-342v-297h-284v744h284v-249h342v249h283v-249h241q112 0 185 -18.5t115.5 -51t59 -76t16.5 -94.5v-8q0 -51 -16.5 -96t-59 -78.5t-115.5 -53t-186 -19.5h-523v297zM1161 181q68 0 92 19t24 48v3q0 15 -5.5 27t-18.5 20.5t-35.5 13.5t-56.5 5h-207v-136h207z
" />
    <glyph glyph-name="uni040B" unicode="&#x40b;" horiz-adv-x="1163" 
d="M527 541v-108q23 5 73 12.5t110 7.5h21q207 0 303 -71.5t96 -230.5v-151h-284v123q0 78 -37 109t-122 31h-17q-49 0 -84.5 -4.5t-58.5 -9.5v-249h-284v541h-221v203h926v-203h-421z" />
    <glyph glyph-name="uni040C" unicode="&#x40c;" horiz-adv-x="1040" 
d="M48 0v744h284v-294l366 294h353l-433 -338l447 -406h-370l-363 333v-333h-284zM457 944h279l-101 -155h-257z" />
    <glyph glyph-name="uni040E" unicode="&#x40e;" horiz-adv-x="993" 
d="M634 169q-32 -48 -57 -80.5t-55 -52t-70 -28t-102 -8.5h-149v199h131q15 0 20.5 4.5t5.5 12.5v1q0 14 -13 31l-366 496h329l219 -323l198 323h289zM515 782q-73 0 -117.5 19t-68.5 46t-32 56t-8 49v2h183q0 -5 2.5 -13t9 -16t19 -14t33.5 -6q20 0 32.5 6t19 14t8.5 16
t2 13h180v-2q0 -20 -10 -49t-35 -56t-68 -46t-110 -19h-40v0z" />
    <glyph glyph-name="uni040F" unicode="&#x40f;" horiz-adv-x="1088" 
d="M45 744h284v-546h431v546h283v-744h-365v-130h-267v130h-366v744z" />
    <glyph glyph-name="uni0410" unicode="&#x410;" horiz-adv-x="1101" 
d="M538 562l-122 -256h247zM754 120h-425l-57 -120h-288l368 744h382l389 -744h-311z" />
    <glyph glyph-name="uni0411" unicode="&#x411;" horiz-adv-x="1043" 
d="M45 744h915v-175h-631v-89h326q113 0 186 -17.5t115 -48.5t58.5 -73t16.5 -91v-9q0 -50 -16.5 -94t-58.5 -76.5t-115 -51.5t-186 -19h-610v744zM624 180q33 0 55 5.5t35 14.5t18 21t5 25v3q0 13 -5 25t-18 20t-35 13t-55 5h-295v-132h295z" />
    <glyph glyph-name="uni0412" unicode="&#x412;" horiz-adv-x="1072" 
d="M48 744h700q81 0 134.5 -14.5t84.5 -38t43.5 -54t12.5 -62.5v-11q0 -35 -13 -60.5t-32.5 -43t-42 -28t-40.5 -14.5q25 -6 54.5 -18t55.5 -34t43.5 -56t17.5 -83v-12q0 -44 -15 -83t-51 -68.5t-96.5 -46.5t-151.5 -17h-704v744zM332 575v-105h330q44 0 60 15.5t16 36.5v2
q0 22 -16 36.5t-60 14.5h-330zM332 303v-128h348q28 0 45 6t26.5 15t13 20.5t3.5 22.5v3q0 12 -3.5 23t-13 19.5t-27 13.5t-44.5 5h-348z" />
    <glyph glyph-name="uni0413" unicode="&#x413;" horiz-adv-x="854" 
d="M45 744h786v-198h-502v-546h-284v744z" />
    <glyph glyph-name="uni0414" unicode="&#x414;" horiz-adv-x="1145" 
d="M103 198q16 31 26 74t16 107t8 153t2 212h865v-546h120v-328h-267v130h-601v-130h-267v328h98zM736 198v348h-325q0 -57 -3 -109t-8.5 -97t-13.5 -81.5t-20 -60.5h370z" />
    <glyph glyph-name="uni0415" unicode="&#x415;" horiz-adv-x="907" 
d="M871 744v-182h-543v-93h532v-181h-532v-102h551v-186h-831v744h823z" />
    <glyph glyph-name="uni0416" unicode="&#x416;" horiz-adv-x="1611" 
d="M664 317l-310 -317h-368l411 404l-401 340h355l313 -277v277h284v-277l313 277h353l-399 -339l413 -405h-370l-310 317v-317h-284v317z" />
    <glyph glyph-name="uni0417" unicode="&#x417;" horiz-adv-x="1071" 
d="M1053 227q0 -48 -22 -91t-77.5 -75.5t-149 -52t-237.5 -19.5h-47q-243 0 -369.5 71.5t-126.5 208.5v15h294q2 -54 57.5 -82.5t175.5 -28.5q112 0 158.5 17.5t46.5 48.5v3q0 31 -40 44.5t-121 13.5h-219v170h219q75 0 110.5 11t35.5 37v3q0 27 -46 41t-149 14
q-49 0 -90 -5t-71 -17t-47 -31t-18 -47h-294v16q0 53 28.5 100.5t88.5 83.5t152.5 57t219.5 21h45q138 0 228.5 -15.5t144 -42t75 -61t21.5 -72.5v-9q0 -56 -46.5 -98t-136.5 -51q100 -10 153.5 -56t53.5 -112v-10z" />
    <glyph glyph-name="uni0418" unicode="&#x418;" horiz-adv-x="1125" 
d="M796 467l-467 -467h-284v744h284v-468l467 468h284v-744h-284v467z" />
    <glyph glyph-name="uni0419" unicode="&#x419;" horiz-adv-x="1125" 
d="M796 467l-467 -467h-284v744h284v-468l467 468h284v-744h-284v467zM549 782q-73 0 -117.5 19t-68.5 46t-32 56t-8 49v2h183q0 -5 2.5 -13t9 -16t19 -14t33.5 -6q20 0 32.5 6t19 14t8.5 16t2 13h180v-2q0 -20 -10 -49t-35 -56t-68 -46t-110 -19h-40v0z" />
    <glyph glyph-name="uni041A" unicode="&#x41a;" horiz-adv-x="1040" 
d="M329 333v-333h-284v744h284v-294l366 294h353l-433 -338l447 -406h-370z" />
    <glyph glyph-name="uni041B" unicode="&#x41b;" horiz-adv-x="1048" 
d="M719 553h-308q0 -111 -4 -187t-11.5 -127t-18.5 -83.5t-26 -56.5q-15 -25 -35 -43.5t-48.5 -31t-66.5 -18.5t-89 -6h-92v212h15q30 0 48.5 5t31.5 22q10 13 17.5 39.5t12 81.5t6.5 147t2 237h850v-744h-284v553z" />
    <glyph glyph-name="uni041C" unicode="&#x41c;" horiz-adv-x="1314" 
d="M48 744h390l228 -418l232 418h374v-744h-281v464l-261 -464h-145l-260 464v-464h-277v744z" />
    <glyph glyph-name="uni041D" unicode="&#x41d;" horiz-adv-x="1122" 
d="M45 744h284v-263h465v263h283v-744h-283v283h-465v-283h-284v744z" />
    <glyph glyph-name="uni041E" unicode="&#x41e;" horiz-adv-x="1170" 
d="M611 758q120 0 207 -17.5t147 -47t97 -67.5t57 -79t27 -82t7 -76v-30q0 -35 -6.5 -76t-27 -82.5t-57 -80t-97 -68.5t-147.5 -48t-207 -18h-45q-120 0 -207.5 18t-147.5 48t-97 68.5t-57 80t-27 82.5t-7 76v30q0 35 6.5 76t27 82t57.5 79t97 67.5t147 47t208 17.5h45z
M859 382q0 30 -11.5 61t-41.5 56.5t-82.5 42t-135.5 16.5q-84 0 -137 -16.5t-82.5 -42t-40.5 -56.5t-11 -61v-12q0 -29 11.5 -61.5t41.5 -59.5t82.5 -44.5t135.5 -17.5q82 0 135 17t83 43.5t41.5 58.5t11.5 62v14z" />
    <glyph glyph-name="uni041F" unicode="&#x41f;" horiz-adv-x="1088" 
d="M45 744h998v-744h-283v546h-431v-546h-284v744z" />
    <glyph glyph-name="uni0420" unicode="&#x420;" horiz-adv-x="1031" 
d="M332 233v-233h-284v744h620q103 0 171 -19t108.5 -52.5t57 -78.5t16.5 -96v-16q0 -51 -17 -96t-57.5 -79t-108.5 -54t-170 -20h-336zM332 419h302q49 0 71.5 18.5t22.5 49.5v3q0 32 -22 50t-72 18h-302v-139z" />
    <glyph glyph-name="uni0421" unicode="&#x421;" horiz-adv-x="1120" 
d="M549 -14q-114 0 -197.5 18t-142 47.5t-95 68.5t-57 80.5t-27.5 83t-7 76.5v29q0 35 6.5 76.5t26.5 82.5t56 79t94.5 67t142.5 46.5t200 17.5h39q113 0 195.5 -15.5t140 -41t93 -58t55.5 -66t27 -65t7 -55.5v-13h-295q-2 7 -10 26t-33.5 38.5t-73 34.5t-128.5 15
q-77 0 -125.5 -15.5t-76 -40.5t-37.5 -56t-10 -62v-12q0 -30 11 -62.5t39 -60t76.5 -45t123.5 -17.5q55 0 94 8t66 20t43 26.5t25 28t12.5 24.5t4.5 15h294v-16q0 -24 -7 -56.5t-27.5 -66.5t-56.5 -67t-93.5 -59t-139.5 -42t-194 -16h-39z" />
    <glyph glyph-name="uni0422" unicode="&#x422;" horiz-adv-x="971" 
d="M346 541h-321v203h926v-203h-321v-541h-284v541z" />
    <glyph glyph-name="uni0423" unicode="&#x423;" horiz-adv-x="993" 
d="M634 169q-32 -48 -57 -80.5t-55 -52t-70 -28t-102 -8.5h-149v199h131q15 0 20.5 4.5t5.5 12.5v1q0 14 -13 31l-366 496h329l219 -323l198 323h289z" />
    <glyph glyph-name="uni0424" unicode="&#x424;" horiz-adv-x="1448" 
d="M582 754h284v-68h187q88 0 159 -19t120.5 -56t76.5 -91.5t27 -124.5v-16q0 -70 -26.5 -125t-76 -92.5t-120.5 -57t-159 -19.5h-188v-95h-284v95h-188q-89 0 -159.5 19.5t-120 57t-76 92.5t-26.5 125v16q0 70 27 124t76.5 91t120.5 56.5t159 19.5h187v68zM864 273h130
q80 0 117 31.5t37 79.5v6q0 47 -37 77.5t-117 30.5h-130v-225zM454 498q-80 0 -117 -30.5t-37 -77.5v-6q0 -48 37 -79.5t117 -31.5h130v225h-130z" />
    <glyph glyph-name="uni0425" unicode="&#x425;" horiz-adv-x="1077" 
d="M-11 0l341 382l-330 362h363l189 -219l190 219h337l-322 -359l337 -385h-349l-208 233l-206 -233h-342z" />
    <glyph glyph-name="uni0426" unicode="&#x426;" horiz-adv-x="1168" 
d="M45 744h284v-546h431v546h283v-546h120v-328h-266v130h-852v744z" />
    <glyph glyph-name="uni0427" unicode="&#x427;" horiz-adv-x="994" 
d="M666 258q-40 -8 -97 -14t-138 -6q-102 0 -180 14.5t-130.5 48.5t-79 91t-26.5 141v211h284v-175q0 -42 13.5 -68.5t39 -40.5t63 -19t85.5 -5q42 0 86 3.5t80 11.5v293h283v-744h-283v258z" />
    <glyph glyph-name="uni0428" unicode="&#x428;" horiz-adv-x="1536" 
d="M45 744h290v-546h288v546h290v-546h288v546h290v-744h-1446v744z" />
    <glyph glyph-name="uni0429" unicode="&#x429;" horiz-adv-x="1616" 
d="M45 744h290v-546h288v546h290v-546h288v546h290v-546h120v-328h-267v130h-1299v744z" />
    <glyph glyph-name="uni042A" unicode="&#x42a;" horiz-adv-x="1227" 
d="M838 525q112 0 185 -20t115.5 -54.5t59 -80.5t16.5 -98v-16q0 -52 -16.5 -98.5t-58.5 -81.5t-115 -55.5t-186 -20.5h-597v538h-229v206h513v-219h313zM802 185q34 0 57 6.5t36.5 17t19 24.5t5.5 29v3q0 16 -5.5 29.5t-19 23.5t-36.5 16t-57 6h-277v-155h277z" />
    <glyph glyph-name="uni042B" unicode="&#x42b;" horiz-adv-x="1401" 
d="M642 525q112 0 185 -20t115.5 -54.5t59 -80.5t16.5 -98v-16q0 -52 -16.5 -98.5t-58.5 -81.5t-115 -55.5t-186 -20.5h-597v744h284v-219h313zM606 185q34 0 57 6.5t36.5 17t19 24.5t5.5 29v3q0 16 -5.5 29.5t-19 23.5t-36.5 16t-57 6h-277v-155h277zM1358 0h-283v744h283
v-744z" />
    <glyph glyph-name="uni042C" unicode="&#x42c;" horiz-adv-x="1031" 
d="M642 525q112 0 185 -20t115.5 -54.5t59 -80.5t16.5 -98v-16q0 -52 -16.5 -98.5t-58.5 -81.5t-115 -55.5t-186 -20.5h-597v744h284v-219h313zM606 185q34 0 57 6.5t36.5 17t19 24.5t5.5 29v3q0 16 -5.5 29.5t-19 23.5t-36.5 16t-57 6h-277v-155h277z" />
    <glyph glyph-name="uni042D" unicode="&#x42d;" horiz-adv-x="1121" 
d="M1101 360q0 -35 -7 -76.5t-27.5 -83t-57 -80.5t-95 -68.5t-142 -47.5t-197.5 -18h-38q-112 0 -194.5 15.5t-140 40.5t-93.5 57t-56.5 64.5t-27.5 63.5t-7 55v15h293q2 -9 11 -28.5t35 -39t74 -34.5t129 -15q55 0 95.5 9t69 24t46 35t27.5 43h-383v175h383
q-10 21 -27.5 39t-46 31.5t-69.5 21t-97 7.5q-78 0 -125 -13t-73 -31t-35.5 -36.5t-12.5 -28.5h-293v11q0 23 7 53.5t26.5 63t55.5 63.5t93.5 56t140 40t195.5 15h38q116 0 200.5 -17.5t142.5 -46.5t94 -67t56 -79t26.5 -82.5t6.5 -76.5v-29z" />
    <glyph glyph-name="uni042E" unicode="&#x42e;" horiz-adv-x="1508" 
d="M1488 359q0 -35 -7 -76t-27 -82.5t-55.5 -80t-93 -68.5t-139.5 -48t-194 -18h-38q-140 0 -233 27.5t-150.5 70.5t-85.5 95.5t-37 103.5h-99v-283h-284v744h284v-263h102q12 49 41 98.5t87 89t149 64.5t226 25h38q112 0 194 -17.5t139.5 -47t93 -67.5t55.5 -79t27 -82
t7 -76v-30zM1193 382q0 30 -11 61t-38.5 56.5t-74 42t-117.5 16.5q-72 0 -118.5 -16.5t-73.5 -42t-37.5 -56.5t-10.5 -61v-12q0 -29 11 -61.5t38.5 -59.5t73.5 -44.5t117 -17.5t117.5 17t74 43.5t38.5 58.5t11 62v14z" />
    <glyph glyph-name="uni042F" unicode="&#x42f;" horiz-adv-x="1064" 
d="M604 239l-254 -239h-350l283 255q-68 9 -116.5 30t-79.5 51t-45.5 67.5t-14.5 80.5v16q0 47 16.5 91t56 78t104.5 54.5t161 20.5h654v-744h-284v239h-131zM735 558h-324q-49 0 -69.5 -20.5t-20.5 -48.5v-2q0 -29 21 -49.5t70 -20.5h323v141z" />
    <glyph glyph-name="uni0430" unicode="&#x430;" horiz-adv-x="840" 
d="M521 254l-180 -32q-35 -6 -50.5 -16t-15.5 -30v-1q0 -9 4 -19t13.5 -18t26 -13t41.5 -5q37 0 67 9.5t51 25t32 35.5t11 41v23zM526 72q-10 -10 -28.5 -24t-48.5 -27t-73.5 -22t-101.5 -9h-11q-68 0 -115 14.5t-77 39t-43.5 55.5t-13.5 64v12q0 34 11.5 60.5t37.5 46
t67.5 32t101.5 17.5l259 23q17 2 23.5 8.5t6.5 17.5q0 7 -3.5 14.5t-15.5 13.5t-35 9.5t-63 3.5h-4q-43 0 -67 -6t-35.5 -15t-14.5 -18.5t-4 -15.5h-252v6q0 27 8.5 58.5t43 58.5t103.5 45t190 18h56q84 0 143.5 -7.5t99 -21t63 -30.5t35 -36.5t15 -39.5t3.5 -38v-199
q0 -11 4.5 -17t18.5 -6h29v-157h-226q-35 0 -58 18.5t-29 53.5z" />
    <glyph glyph-name="uni0431" unicode="&#x431;" horiz-adv-x="901" 
d="M886 245q0 -126 -107.5 -193t-306.5 -67h-41q-94 0 -170.5 18.5t-131 58t-84 101.5t-29.5 149v47q0 88 23 157.5t74 117.5t133 73.5t199 25.5h106q20 0 31.5 3t17.5 7.5t7.5 8t1.5 5.5h260q0 -51 -13.5 -89t-45 -63t-83.5 -37t-128 -12h-123q-60 0 -102 -8.5t-68.5 -26
t-38.5 -44t-12 -62.5q31 34 103.5 61.5t183.5 27.5h10q70 0 131 -13.5t106 -43t71 -75t26 -108.5v-19zM452 138q42 0 72 9.5t49 25t28 35.5t9 41v7q0 22 -9 41.5t-28 33.5t-49 22.5t-72 8.5q-84 0 -122 -31t-38 -75v-8q0 -21 9 -41t28.5 -35.5t49.5 -24.5t73 -9z" />
    <glyph glyph-name="uni0432" unicode="&#x432;" horiz-adv-x="855" 
d="M37 0v538h487q81 0 135.5 -9t87.5 -25.5t46.5 -39t13.5 -50.5v-8q0 -45 -34.5 -72t-87.5 -38q29 -5 56.5 -15.5t48.5 -27t34 -39t13 -52.5v-8q0 -32 -14.5 -60t-47 -49t-85.5 -33t-129 -12h-524zM456 341q45 0 62 9t17 27v2q0 18 -17.5 25.5t-62.5 7.5h-150v-71h151z
M473 129q46 0 66 12t20 34v4q0 21 -20 31.5t-67 10.5h-167v-92h168z" />
    <glyph glyph-name="uni0433" unicode="&#x433;" horiz-adv-x="614" 
d="M37 538h558v-164h-286v-374h-272v538z" />
    <glyph glyph-name="uni0434" unicode="&#x434;" horiz-adv-x="978" 
d="M5 164h79q11 22 19 51t13.5 72.5t9 104t4.5 146.5h735v-374h106v-291h-249v127h-468v-127h-249v291zM597 164v215h-228q-2 -70 -9.5 -122.5t-21.5 -92.5h259z" />
    <glyph glyph-name="uni0435" unicode="&#x435;" horiz-adv-x="882" 
d="M444 421q-39 0 -66 -6t-45 -16.5t-28.5 -25.5t-15.5 -33h310q-8 38 -43 59.5t-112 21.5zM869 194q0 -19 -5 -41.5t-20 -46t-42 -45.5t-71 -38.5t-107.5 -27t-151.5 -10.5h-53q-124 0 -202 25.5t-122 65.5t-60 89.5t-16 96.5v20q0 47 15 95t58.5 87t121 64t202.5 25h55
q88 0 151.5 -12.5t108 -34.5t72 -51t42.5 -61.5t20.5 -67t5.5 -66.5v-30h-585q3 -21 13.5 -39t30 -31.5t49 -21t70.5 -7.5h1q48 0 77.5 8.5t45.5 19.5t21.5 21.5t6.5 15.5h268v-2z" />
    <glyph glyph-name="uni0436" unicode="&#x436;" horiz-adv-x="1214" 
d="M469 239l-183 -239h-303l231 293l-204 245h292l167 -206v206h272v-207l167 207h289l-201 -241l234 -297h-306l-183 240v-240h-272v239z" />
    <glyph glyph-name="uni0437" unicode="&#x437;" horiz-adv-x="843" 
d="M830 152q0 -34 -20.5 -64t-66.5 -53t-118.5 -36.5t-177.5 -13.5h-30q-105 0 -181.5 18t-126 49t-73 72t-23.5 87v4h270q0 -20 8 -36.5t25 -29t45.5 -19.5t69.5 -7q120 0 120 49v3q0 26 -27 35t-69 9h-139v116h144q68 0 68 40v3q0 22 -28.5 32.5t-80.5 10.5
q-39 0 -64.5 -6t-41 -16t-22.5 -23t-8 -27h-270v6q0 39 21.5 75t69.5 63t124 43.5t186 16.5h33q174 0 264 -34.5t90 -100.5v-8q0 -45 -38.5 -76t-108.5 -39q38 -4 70 -15t55.5 -28t37 -40t13.5 -52v-8z" />
    <glyph glyph-name="uni0438" unicode="&#x438;" horiz-adv-x="913" 
d="M37 538h272v-316l292 316h275v-538h-271v316l-293 -316h-275v538z" />
    <glyph glyph-name="uni0439" unicode="&#x439;" horiz-adv-x="913" 
d="M37 538h272v-316l292 316h275v-538h-271v316l-293 -316h-275v538zM702 742q0 -20 -10 -48.5t-35 -54.5t-68 -44t-108 -18h-40q-72 0 -115.5 18t-67.5 44t-32 54.5t-8 48.5v2h181q0 -5 2 -13t9 -16t19 -13.5t33 -5.5q20 0 32 5.5t18.5 13.5t9 16t2.5 13h178v-2v0z" />
    <glyph glyph-name="uni043A" unicode="&#x43a;" horiz-adv-x="801" 
d="M309 242v-242h-272v538h272v-210l184 210h293l-219 -238l251 -300h-309z" />
    <glyph glyph-name="uni043B" unicode="&#x43b;" horiz-adv-x="841" 
d="M526 374h-186q-1 -59 -3 -102t-5.5 -75t-9.5 -56t-15 -43q-22 -48 -68.5 -73t-128.5 -25h-102v171h12q23 0 38 11t22 37q4 14 7 31.5t5 51.5t3.5 90t1.5 146h700v-538h-271v374z" />
    <glyph glyph-name="uni043C" unicode="&#x43c;" horiz-adv-x="1103" 
d="M294 294v-294h-257v538h342l176 -282l181 282h330v-538h-271v292l-184 -292h-133z" />
    <glyph glyph-name="uni043D" unicode="&#x43d;" horiz-adv-x="883" 
d="M37 0v538h272v-188h265v188h272v-538h-272v185h-265v-185h-272z" />
    <glyph glyph-name="uni043E" unicode="&#x43e;" horiz-adv-x="921" 
d="M427 -15q-86 0 -150 12.5t-109 34t-74 49.5t-45.5 59t-23 63t-6.5 61v16q0 28 6 59.5t22.5 62t45.5 58t74 48t109 33t150 12.5h76q89 0 154 -12.5t110 -33.5t73 -48t43.5 -57.5t20.5 -61.5t5 -59v-18q0 -29 -5 -60.5t-20 -62.5t-42.5 -59t-73 -49.5t-111 -34
t-155.5 -12.5h-74zM464 401q-50 0 -83 -11.5t-52 -29.5t-26.5 -40.5t-7.5 -44.5v-4q0 -22 7.5 -45.5t26.5 -43t51.5 -32t83.5 -12.5h1q50 0 82.5 13t51.5 32.5t26.5 43t7.5 44.5v4q0 22 -7.5 44.5t-26.5 40.5t-51.5 29.5t-82.5 11.5h-1z" />
    <glyph glyph-name="uni043F" unicode="&#x43f;" horiz-adv-x="866" 
d="M37 538h792v-538h-271v374h-249v-374h-272v538z" />
    <glyph glyph-name="uni0440" unicode="&#x440;" horiz-adv-x="927" 
d="M312 268q0 -22 9.5 -45t30 -41.5t52 -30t75.5 -11.5h5q45 0 75 12t47.5 30.5t24.5 41t7 44.5v4q0 23 -7 46t-24.5 41t-47.5 29t-75 11h-5q-45 0 -76.5 -11t-51.5 -29t-29.5 -40.5t-9.5 -46.5v-4zM312 538v-75q8 7 28 21t52 28.5t77.5 25t104.5 10.5h21q93 0 154 -22
t98 -59t52 -84t15 -98v-21q0 -50 -16 -99t-54 -88t-100.5 -63t-156.5 -24h-19q-57 0 -101.5 9.5t-76.5 22t-51.5 25.5t-26.5 19v-254h-272v726h272z" />
    <glyph glyph-name="uni0441" unicode="&#x441;" horiz-adv-x="881" 
d="M415 -15q-86 0 -149 13t-107 34.5t-71.5 49.5t-42.5 59t-20.5 62.5t-5.5 59.5v18q0 28 5.5 59t20.5 61t42 57.5t71 48.5t107 33.5t149 12.5h62q90 0 154 -12.5t108 -33t70.5 -46.5t40.5 -53t18.5 -52t4.5 -43v-3h-278q-1 7 -6.5 22.5t-21 31.5t-44.5 27.5t-77 11.5h-4
q-43 0 -71.5 -11t-45 -28.5t-23 -40t-6.5 -45.5v-5q0 -24 7 -48.5t23.5 -44t44.5 -31.5t71 -12h4q48 0 76.5 12t44.5 28.5t21.5 32.5t6.5 24h278v-2q0 -18 -4 -43.5t-17.5 -53t-39 -54.5t-70 -48.5t-109.5 -34.5t-157 -13h-60z" />
    <glyph glyph-name="uni0442" unicode="&#x442;" horiz-adv-x="751" 
d="M240 374h-220v164h711v-164h-220v-374h-271v374z" />
    <glyph glyph-name="uni0443" unicode="&#x443;" horiz-adv-x="821" 
d="M119 -22h122q15 0 20 5t5 12v1q0 8 -6 20.5t-17 33.5l-254 488h290l150 -346l139 346h270l-259 -561q-39 -85 -86.5 -125t-120.5 -40h-253v166z" />
    <glyph glyph-name="uni0444" unicode="&#x444;" horiz-adv-x="1201" 
d="M736 -15v-173h-271v173h-37q-126 0 -206.5 27.5t-126 69t-62.5 90.5t-17 91v12q0 46 18 95.5t64.5 90t126.5 66.5t203 26h37v191h271v-191h34q123 0 203 -26t127.5 -66.5t66 -89.5t18.5 -95v-14q0 -42 -18.5 -91t-65.5 -90t-127 -68.5t-204 -27.5h-34zM465 138v264h-19
q-40 0 -69 -11t-48 -29t-28 -42t-9 -50v-3q0 -27 9 -50.5t28 -41t48 -27.5t69 -10h19zM736 402v-264h19q45 0 74.5 11t47 28.5t25 40.5t7.5 47v4q0 28 -8 52t-26 42t-47.5 28.5t-72.5 10.5h-19z" />
    <glyph glyph-name="uni0445" unicode="&#x445;" horiz-adv-x="842" 
d="M-10 0l248 277l-243 261h309l123 -141l120 141h299l-237 -257l250 -281h-303l-135 158l-134 -158h-297z" />
    <glyph glyph-name="uni0446" unicode="&#x446;" horiz-adv-x="923" 
d="M916 -127h-250v127h-629v538h272v-374h229v374h271v-374h107v-291z" />
    <glyph glyph-name="uni0447" unicode="&#x447;" horiz-adv-x="829" 
d="M792 538v-538h-272v176q-15 -3 -59.5 -8.5t-105.5 -5.5q-80 0 -143.5 9.5t-107 34.5t-66.5 69t-23 114v149h272v-123q0 -27 7.5 -44t24 -27t42 -13.5t60.5 -3.5q29 0 57 2.5t42 6.5v202h272z" />
    <glyph glyph-name="uni0448" unicode="&#x448;" horiz-adv-x="1214" 
d="M37 538h272v-374h162v374h272v-374h162v374h271v-538h-1139v538z" />
    <glyph glyph-name="uni0449" unicode="&#x449;" horiz-adv-x="1290" 
d="M37 538h272v-374h162v374h272v-374h162v374h271v-374h107v-291h-250v127h-996v538z" />
    <glyph glyph-name="uni044A" unicode="&#x44a;" horiz-adv-x="985" 
d="M13 538h448v-134h229q74 0 126.5 -15t86 -40.5t49 -60.5t15.5 -74v-13q0 -39 -15.5 -75.5t-49 -64.5t-86 -44.5t-126.5 -16.5h-501v379h-176v159zM622 144q38 0 54 18t16 38v4q0 23 -16 39.5t-54 16.5h-161v-116h161z" />
    <glyph glyph-name="uni044B" unicode="&#x44b;" horiz-adv-x="1167" 
d="M37 538h272v-134h229q74 0 126.5 -15t86 -40.5t49 -60.5t15.5 -74v-13q0 -39 -15.5 -75.5t-49 -64.5t-86 -44.5t-126.5 -16.5h-501v538zM470 144q38 0 54 18t16 38v4q0 23 -16 39.5t-54 16.5h-161v-116h161zM1133 0h-272v538h272v-538z" />
    <glyph glyph-name="uni044C" unicode="&#x44c;" horiz-adv-x="833" 
d="M37 538h272v-134h229q74 0 126.5 -15t86 -40.5t49 -60.5t15.5 -74v-13q0 -39 -15.5 -75.5t-49 -64.5t-86 -44.5t-126.5 -16.5h-501v538zM470 144q38 0 54 18t16 38v4q0 23 -16 39.5t-54 16.5h-161v-116h161z" />
    <glyph glyph-name="uni044D" unicode="&#x44d;" horiz-adv-x="881" 
d="M865 263q0 -42 -14 -90.5t-56 -90.5t-120 -69.5t-206 -27.5h-60q-88 0 -151.5 12.5t-107.5 33t-71 46t-41.5 52.5t-19.5 52t-5 44v2h277q1 -13 8 -31t23.5 -34t45 -27.5t74.5 -11.5h4q63 0 95 23.5t44 61.5h-236v126h237q-11 36 -43 59.5t-97 23.5h-4q-47 0 -75.5 -11
t-44.5 -26.5t-22.5 -32.5t-8.5 -30h-277v3q0 18 5 42.5t20 50t42 51t70.5 45t107 32t150.5 12.5h62q84 0 145.5 -12.5t105.5 -33.5t72 -48.5t44 -57.5t22 -61t6 -59v-18z" />
    <glyph glyph-name="uni044E" unicode="&#x44e;" horiz-adv-x="1236" 
d="M1220 263q0 -43 -13 -91.5t-54.5 -90t-120 -69t-209.5 -27.5h-54q-99 0 -167.5 17.5t-114 46t-70.5 64.5t-36 74h-72v-187h-272v538h272v-190h70q10 37 34 74t69.5 66t115 47t170.5 18h56q86 0 149 -12.5t107 -33.5t71 -48t42.5 -57.5t21 -61.5t5.5 -59v-18zM796 401
q-45 0 -74 -11.5t-45.5 -29.5t-22.5 -40.5t-6 -44.5v-4q0 -22 6 -45.5t22.5 -43t45.5 -32t74 -12.5h1q45 0 73.5 12.5t45 32t23 43t6.5 45.5v4q0 22 -6.5 44.5t-23 40.5t-45 29.5t-73.5 11.5h-1z" />
    <glyph glyph-name="uni044F" unicode="&#x44f;" horiz-adv-x="860" 
d="M464 147l-151 -147h-300l177 169q-80 18 -118.5 62.5t-38.5 105.5v10q0 42 16.5 77.5t51 60.5t87 39t125.5 14h510v-538h-271v147h-88zM383 394q-24 0 -39 -5t-23.5 -12.5t-11.5 -16.5t-3 -18v-3q0 -20 15 -35.5t62 -15.5h169v106h-169z" />
    <glyph glyph-name="uni0451" unicode="&#x451;" horiz-adv-x="888" 
d="M444 421q-39 0 -66 -6t-45 -16.5t-28.5 -25.5t-15.5 -33h310q-8 38 -43 59.5t-112 21.5zM869 194q0 -19 -5 -41.5t-20 -46t-42 -45.5t-71 -38.5t-107.5 -27t-151.5 -10.5h-53q-124 0 -202 25.5t-122 65.5t-60 89.5t-16 96.5v20q0 47 15 95t58.5 87t121 64t202.5 25h55
q88 0 151.5 -12.5t108 -34.5t72 -51t42.5 -61.5t20.5 -67t5.5 -66.5v-30h-585q3 -21 13.5 -39t30 -31.5t49 -21t70.5 -7.5h1q48 0 77.5 8.5t45.5 19.5t21.5 21.5t6.5 15.5h268v-2zM706 583h-238v161h238v-161zM422 583h-237v161h237v-161z" />
    <glyph glyph-name="uni0452" unicode="&#x452;" horiz-adv-x="891" 
d="M855 -44q0 -40 -9 -67.5t-24.5 -44.5t-36 -24.5t-42.5 -7.5h-228v161h36q18 0 24.5 6t6.5 34v244q0 54 -30 89t-100 35q-69 0 -106 -37t-37 -94v-250h-272v585h-69v110h69v49h272v-49h250v-110h-250v-141q9 9 29.5 26.5t54.5 35t81.5 31t110.5 13.5h6q75 0 126 -20
t81.5 -50t43.5 -66t13 -68v-390z" />
    <glyph glyph-name="uni0453" unicode="&#x453;" horiz-adv-x="614" 
d="M37 538h558v-164h-286v-374h-272v538zM277 744h268l-111 -161h-246z" />
    <glyph glyph-name="uni0454" unicode="&#x454;" horiz-adv-x="885" 
d="M868 225q0 -19 -4.5 -44t-19 -52t-41 -52.5t-70.5 -46t-108 -33t-153 -12.5h-60q-86 0 -149 13t-107 34.5t-71.5 49.5t-42.5 59t-20.5 62.5t-5.5 59.5v18q0 28 5.5 59t20.5 61t42 57.5t71 48.5t107 33.5t149 12.5h62q88 0 151.5 -12.5t107.5 -32t70.5 -45t41 -51
t19.5 -50t5 -42.5v-3h-277q-2 12 -8 29t-21.5 32.5t-44.5 27t-75 11.5h-4q-65 0 -97.5 -24t-43.5 -59h240v-126h-238q12 -37 44 -61t95 -24h4q46 0 74.5 11.5t44.5 28t22.5 34t7.5 30.5h277v-2z" />
    <glyph glyph-name="uni0455" unicode="&#x455;" horiz-adv-x="808" 
d="M372 -15q-81 0 -139 9.5t-98 24.5t-64 35t-37 41.5t-17 42t-4 38.5v7h277q0 -8 3 -19t14.5 -21.5t33.5 -18t60 -7.5h2q36 0 58 4t33.5 10t15.5 14t4 17v2q0 10 -3.5 17.5t-14.5 13.5t-31.5 9t-53.5 4l-114 3q-85 3 -139 18.5t-85 39t-42.5 52.5t-11.5 59v6q0 33 13.5 63
t51.5 53.5t107.5 37t180.5 13.5h53q108 0 177 -14t108 -37.5t53.5 -53.5t14.5 -62v-7h-272q-1 7 -4 15.5t-14 16t-32.5 13t-57.5 5.5h-1q-33 0 -53.5 -2.5t-32 -7t-15.5 -11.5t-4 -16v-1q0 -8 4 -15t15 -12t30.5 -8.5t50.5 -4.5l113 -3q91 -3 148 -15t89.5 -33.5t44 -52
t11.5 -70.5v-7q0 -37 -13.5 -70.5t-53.5 -59t-113 -40.5t-191 -15h-55v0z" />
    <glyph glyph-name="uni0456" unicode="&#x456;" horiz-adv-x="346" 
d="M312 583h-272v161h272v-161zM312 0h-272v538h272v-538z" />
    <glyph glyph-name="uni0457" unicode="&#x457;" horiz-adv-x="346" 
d="M157 583h-151v161h151v-161zM337 583h-151v161h151v-161zM312 0h-272v538h272v-538z" />
    <glyph glyph-name="uni0458" unicode="&#x458;" horiz-adv-x="346" 
d="M312 583h-272v161h272v-161zM8 -27q18 0 25 7t7 30v528h272v-578q0 -41 -9 -69.5t-24.5 -46t-36 -25t-42.5 -7.5h-228v161h36z" />
    <glyph glyph-name="uni0459" unicode="&#x459;" horiz-adv-x="1299" 
d="M787 538v-134h216q74 0 127 -15t86.5 -40.5t49 -60.5t15.5 -74v-13q0 -39 -15.5 -75.5t-49 -64.5t-86.5 -44.5t-127 -16.5h-487v374h-176q-1 -59 -3 -101.5t-5.5 -74t-8.5 -53t-11 -37.5q-24 -57 -71.5 -82.5t-131.5 -25.5h-101v171h12q23 0 38 11t22 37q4 14 7 32
t5 51.5t3.5 89.5t1.5 146h690zM935 144q38 0 54 17.5t16 38.5v4q0 23 -16 39.5t-54 16.5h-148v-116h148z" />
    <glyph glyph-name="uni045A" unicode="&#x45a;" horiz-adv-x="1304" 
d="M37 0v538h272v-168h225v168h272v-168h203q74 0 126.5 -12.5t86 -35t49 -54t15.5 -70.5v-14q0 -39 -15.5 -72.5t-49 -58t-86 -39t-126.5 -14.5h-475v219h-225v-219h-272zM806 137h136q36 0 52 14t16 33v4q0 20 -16 32.5t-52 12.5h-136v-96z" />
    <glyph glyph-name="uni045B" unicode="&#x45b;" horiz-adv-x="897" 
d="M40 744h272v-49h250v-110h-250v-141q9 9 29.5 26.5t54.5 35t81.5 31t110.5 13.5h6q75 0 126 -20t81.5 -50t43.5 -66t13 -68v-346h-273v257q0 54 -30 89t-100 35q-69 0 -106 -37t-37 -94v-250h-272v585h-69v110h69v49z" />
    <glyph glyph-name="uni045C" unicode="&#x45c;" horiz-adv-x="801" 
d="M361 744h268l-111 -161h-246zM309 242v-242h-272v538h272v-210l184 210h293l-219 -238l251 -300h-309z" />
    <glyph glyph-name="uni045E" unicode="&#x45e;" horiz-adv-x="821" 
d="M119 -22h122q15 0 20 5t5 12v1q0 8 -6 20.5t-17 33.5l-254 488h290l150 -346l139 346h270l-259 -561q-39 -85 -86.5 -125t-120.5 -40h-253v166zM668 742q0 -20 -10 -48.5t-35 -54.5t-68 -44t-108 -18h-40q-72 0 -115.5 18t-67.5 44t-32 54.5t-8 48.5v2h181q0 -5 2 -13
t9 -16t19 -13.5t33 -5.5q20 0 32 5.5t18.5 13.5t9 16t2.5 13h178v-2v0z" />
    <glyph glyph-name="uni045F" unicode="&#x45f;" horiz-adv-x="866" 
d="M558 0v-127h-249v127h-272v538h272v-374h249v374h271v-538h-271z" />
    <glyph glyph-name="uni0490" unicode="&#x490;" horiz-adv-x="856" 
d="M46 744h520v130h266v-328h-502v-546h-284v744z" />
    <glyph glyph-name="uni0491" unicode="&#x491;" horiz-adv-x="614" 
d="M37 538h308v127h250v-291h-286v-374h-272v538z" />
    <glyph glyph-name="uni0492" unicode="&#x492;" horiz-adv-x="867" 
d="M58 744h786v-198h-502v-99h191v-158h-191v-289h-284v289h-59v158h59v297z" />
    <glyph glyph-name="uni0493" unicode="&#x493;" horiz-adv-x="654" 
d="M77 538h558v-164h-286v-71h146v-113h-146v-190h-272v190h-68v113h68v235z" />
    <glyph glyph-name="uni0496" unicode="&#x496;" horiz-adv-x="1643" 
d="M1361 -130v130h-103l-310 317v-317h-284v317l-310 -317h-368l411 404l-401 340h355l313 -277v277h284v-277l313 277h353l-399 -339l211 -207h202v-328h-267z" />
    <glyph glyph-name="uni0497" unicode="&#x497;" horiz-adv-x="1235" 
d="M469 239l-183 -239h-303l231 293l-204 245h292l167 -206v206h272v-207l167 207h289l-201 -241l105 -133h129v-291h-244v127h-62l-183 240v-240h-272v239z" />
    <glyph glyph-name="uni049A" unicode="&#x49a;" horiz-adv-x="1077" 
d="M795 -130v130h-103l-363 333v-333h-284v744h284v-294l366 294h353l-433 -338l229 -208h218v-328h-267z" />
    <glyph glyph-name="uni049B" unicode="&#x49b;" horiz-adv-x="824" 
d="M309 242v-242h-272v538h272v-210l184 210h293l-219 -238l114 -136h138v-291h-245v127h-65z" />
    <glyph glyph-name="uni04A2" unicode="&#x4a2;" horiz-adv-x="1204" 
d="M930 -130v130h-136v283h-465v-283h-284v744h284v-263h465v263h283v-546h120v-328h-267z" />
    <glyph glyph-name="uni04A3" unicode="&#x4a3;" horiz-adv-x="959" 
d="M37 0v538h272v-188h265v188h272v-374h106v-291h-250v127h-128v185h-265v-185h-272z" />
    <glyph glyph-name="uni04AE" unicode="&#x4ae;" horiz-adv-x="1043" 
d="M387 280l-407 464h340l217 -257l221 257h311l-398 -466v-278h-284v280z" />
    <glyph glyph-name="uni04AF" unicode="&#x4af;" horiz-adv-x="831" 
d="M556 -188h-271v188l-299 538h291l147 -302l142 302h279l-289 -538v-188z" />
    <glyph glyph-name="uni04B0" unicode="&#x4b0;" horiz-adv-x="1043" 
d="M387 280l-407 464h340l217 -257l221 257h311l-397 -464h198v-159h-199v-121h-284v121h-206v159h206z" />
    <glyph glyph-name="uni04B1" unicode="&#x4b1;" horiz-adv-x="831" 
d="M556 -188h-271v78h-174v110h174l-299 538h291l147 -302l142 302h279l-289 -538h174v-110h-174v-78z" />
    <glyph glyph-name="uni04B2" unicode="&#x4b2;" horiz-adv-x="1107" 
d="M825 -130v130h-80l-208 233l-206 -233h-342l341 382l-330 362h363l189 -219l190 219h337l-322 -359l163 -187h171v-195l3 -3h-3v-130h-266z" />
    <glyph glyph-name="uni04B3" unicode="&#x4b3;" horiz-adv-x="861" 
d="M-10 0l248 277l-243 261h309l123 -141l120 141h299l-237 -257l104 -117h143v-161l3 -3h-3v-127h-244v127h-56l-135 158l-134 -158h-297z" />
    <glyph glyph-name="uni04BA" unicode="&#x4ba;" horiz-adv-x="994" 
d="M328.041 486.016q39.9971 8 96.9941 13.999q56.9961 6 137.991 6q101.994 0 179.989 -14.499t130.492 -48.4971q52.4961 -33.998 78.9951 -90.9951q26.498 -56.9961 26.498 -140.991v-210.987h-283.982v174.99q0 41.9971 -13.499 68.4951q-13.5 26.499 -38.998 40.498
t-62.9961 18.999q-37.498 4.99902 -85.4951 4.99902q-41.9971 0 -85.9941 -3.5q-43.998 -3.49902 -79.9951 -11.499v-292.982h-282.983v743.955h282.983v-257.984z" />
    <glyph glyph-name="uni04BB" unicode="&#x4bb;" horiz-adv-x="891" 
d="M40 744h272v-300q9 9 29.5 26.5t54.5 35t81.5 31t110.5 13.5h6q75 0 126 -20t81.5 -50t43.5 -66t13 -68v-346h-273v257q0 54 -30 89t-100 35q-69 0 -106 -37t-37 -94v-250h-272v744z" />
    <glyph glyph-name="uni04C0" unicode="&#x4c0;" horiz-adv-x="373" 
d="M331 0h-283v744h283v-744z" />
    <glyph glyph-name="uni04CF" unicode="&#x4cf;" horiz-adv-x="346" 
d="M312 0h-272v744h272v-744z" />
    <glyph glyph-name="uni04D8" unicode="&#x4d8;" horiz-adv-x="1130" 
d="M1110 360q0 -37 -8 -78.5t-29 -83t-57.5 -80t-94.5 -68t-140 -47t-193 -17.5h-39q-111 0 -194 18t-141.5 48.5t-96 71t-59.5 84.5t-30 89.5t-8 86.5v60h789q-8 27 -24 49.5t-44.5 38.5t-71 25t-102.5 9q-78 0 -126 -9t-74 -22t-36 -27t-12 -24h-295v8q0 23 7 52t27 58.5
t56 57.5t94.5 50t142 35t198.5 13h38q111 0 193.5 -16.5t140.5 -45t95 -65.5t57.5 -78t28.5 -83.5t8 -80.5v-29zM333 288q9 -26 26 -46.5t45 -35t67.5 -22t92.5 -7.5q108 0 163.5 28.5t75.5 82.5h-470z" />
    <glyph glyph-name="uni04D9" unicode="&#x4d9;" horiz-adv-x="882" 
d="M439.027 117.025q38.9971 0 65.9961 6q26.998 6 44.9971 16.499t28.498 25.498t15.499 32.998h-309.981q8 -37.9971 42.998 -59.4961t111.993 -21.499zM14.0527 344.012q0 18.999 5 41.498q5 22.498 19.999 45.9971q14.999 23.498 41.9971 45.4971
q26.998 21.998 70.9961 38.4971q43.9971 16.499 107.493 26.999q63.4961 10.499 151.491 10.499h52.9961q123.992 0 201.988 -25.498q77.9951 -25.499 121.992 -65.4961q43.9971 -39.998 59.9961 -89.4951t15.999 -96.4941v-19.998q0 -46.9971 -14.999 -94.9941
t-58.4961 -86.9951q-43.498 -38.998 -120.993 -63.9961t-202.487 -24.998h-54.9971q-87.9941 0 -151.49 12.499t-107.993 34.498q-44.498 21.998 -71.9961 50.9961q-27.498 28.999 -42.4971 61.4971t-20.499 66.9951q-5.5 34.498 -5.5 66.4961v29.998h584.965
q-3 20.999 -13.499 38.998q-10.5 17.999 -29.998 31.498q-19.499 13.499 -48.9971 20.999q-29.498 7.49902 -70.4961 7.49902h-1q-47.9971 0 -77.4951 -8.49902q-29.498 -8.5 -45.4971 -19.499t-21.499 -21.499q-5.49902 -10.499 -6.49902 -15.499h-267.984v2z" />
    <glyph glyph-name="uni04E8" unicode="&#x4e8;" horiz-adv-x="1170" 
d="M608 758q120 0 207 -17.5t147 -47t97 -67.5t57 -79t27 -82t7 -76v-30q0 -35 -6.5 -76t-27 -82.5t-57 -80t-97 -68.5t-147.5 -48t-207 -18h-45q-120 0 -207.5 18t-147.5 48t-97 68.5t-57 80t-27 82.5t-7 76v30q0 35 6.5 76t27 82t57.5 79t97 67.5t147 47t208 17.5h45z
M585 562q-64 0 -109.5 -8.5t-77 -23.5t-50 -34.5t-27.5 -41.5h527q-10 22 -28.5 41.5t-50 34.5t-76.5 23.5t-108 8.5zM585 183q61 0 106 8.5t76.5 23.5t50.5 35t29 43h-523q10 -22 29.5 -42t50.5 -35t75.5 -24t105.5 -9z" />
    <glyph glyph-name="uni04E9" unicode="&#x4e9;" horiz-adv-x="921" 
d="M427 -15q-86 0 -150 12.5t-109 34t-74 49.5t-45.5 59t-23 63t-6.5 61v16q0 28 6 59.5t22.5 62t45.5 58t74 48t109 33t150 12.5h76q89 0 154 -12.5t110 -33.5t73 -48t43.5 -57.5t20.5 -61.5t5 -59v-18q0 -29 -5 -60.5t-20 -62.5t-42.5 -59t-73 -49.5t-111 -34
t-155.5 -12.5h-74zM329 182q19 -19 51.5 -31.5t83.5 -12.5h1q50 0 82.5 13t51.5 32q14 15 22 32h-315q8 -18 23 -33zM464 401q-50 0 -83 -11.5t-52 -29.5q-15 -14 -23 -30h315q-8 16 -22 30q-19 18 -51.5 29.5t-82.5 11.5h-1z" />
    <glyph glyph-name="Wgrave" unicode="&#x1e80;" horiz-adv-x="1535" 
d="M278 0l-290 744h316l169 -491l149 491h320l151 -483l164 483h291l-290 -744h-329l-155 470l-150 -470h-346zM906 789h-257l-101 155h279z" />
    <glyph glyph-name="wgrave" unicode="&#x1e81;" horiz-adv-x="1219" 
d="M202 0l-212 538h283l105 -339l103 339h280l105 -338l103 338h260l-200 -538h-304l-108 326l-108 -326h-307zM492 583l-111 161h270l88 -161h-247z" />
    <glyph glyph-name="Wacute" unicode="&#x1e82;" horiz-adv-x="1535" 
d="M278 0l-290 744h316l169 -491l149 491h320l151 -483l164 483h291l-290 -744h-329l-155 470l-150 -470h-346zM733 944h279l-101 -155h-257z" />
    <glyph glyph-name="wacute" unicode="&#x1e83;" horiz-adv-x="1219" 
d="M202 0l-212 538h283l105 -339l103 339h280l105 -338l103 338h260l-200 -538h-304l-108 326l-108 -326h-307zM591 744h268l-111 -161h-246z" />
    <glyph glyph-name="Wdieresis" unicode="&#x1e84;" horiz-adv-x="1535" 
d="M278 0l-290 744h316l169 -491l149 491h320l151 -483l164 483h291l-290 -744h-329l-155 470l-150 -470h-346zM1047 789h-245v155h245v-155zM754 789h-246v155h246v-155z" />
    <glyph glyph-name="wdieresis" unicode="&#x1e85;" horiz-adv-x="1219" 
d="M202 0l-212 538h283l105 -339l103 339h280l105 -338l103 338h260l-200 -538h-304l-108 326l-108 -326h-307zM880 583h-238v161h238v-161zM596 583h-237v161h237v-161z" />
    <glyph glyph-name="Ygrave" unicode="&#x1ef2;" horiz-adv-x="1049" 
d="M387 280l-407 464h340l217 -257l221 257h311l-398 -466v-278h-284v280zM670 789h-257l-101 155h279z" />
    <glyph glyph-name="ygrave" unicode="&#x1ef3;" horiz-adv-x="827" 
d="M119 -22h122q15 0 20 5t5 12v1q0 8 -6 20.5t-17 33.5l-254 488h290l150 -346l139 346h270l-259 -561q-39 -85 -86.5 -125t-120.5 -40h-253v166zM303 583l-111 161h270l88 -161h-247z" />
    <glyph glyph-name="uni2009" unicode="&#x2009;" horiz-adv-x="21" 
 />
    <glyph glyph-name="endash" unicode="&#x2013;" horiz-adv-x="920" 
d="M887 369v-142h-854v142h854z" />
    <glyph glyph-name="emdash" unicode="&#x2014;" horiz-adv-x="1373" 
d="M1340 369v-142h-1307v142h1307z" />
    <glyph glyph-name="quoteleft" unicode="&#x2018;" horiz-adv-x="328" 
d="M226 744q-13 -23 -24.5 -52.5t-15.5 -51.5h112v-165h-267v134q0 16 5 35t13.5 37.5t18.5 34.5t19 28h139z" />
    <glyph glyph-name="quoteright" unicode="&#x2019;" horiz-adv-x="328" 
d="M102 475q13 23 25 52.5t15 51.5h-111v165h267v-134q0 -17 -5.5 -35.5t-13.5 -37t-18 -34.5t-19 -28h-140z" />
    <glyph glyph-name="quotesinglbase" unicode="&#x201a;" horiz-adv-x="328" 
d="M102 -104q13 23 25 52.5t15 51.5h-111v165h267v-133q0 -17 -5.5 -36t-13.5 -37.5t-18 -34.5t-19 -28h-140z" />
    <glyph glyph-name="quotedblleft" unicode="&#x201c;" horiz-adv-x="631" 
d="M226 744q-13 -23 -24.5 -52.5t-15.5 -51.5h112v-165h-267v134q0 16 5 35t13.5 37.5t18.5 34.5t19 28h139zM529 744q-13 -23 -24.5 -52.5t-15.5 -51.5h112v-165h-267v134q0 16 5 35t13.5 37.5t18.5 34.5t19 28h139z" />
    <glyph glyph-name="quotedblright" unicode="&#x201d;" horiz-adv-x="631" 
d="M102 475q13 23 25 52.5t15 51.5h-111v165h267v-134q0 -17 -5.5 -35.5t-13.5 -37t-18 -34.5t-19 -28h-140zM405 475q13 23 25 52.5t15 51.5h-111v165h267v-134q0 -17 -5.5 -35.5t-13.5 -37t-18 -34.5t-19 -28h-140z" />
    <glyph glyph-name="quotedblbase" unicode="&#x201e;" horiz-adv-x="631" 
d="M405 -104q13 23 25 52.5t15 51.5h-111v165h267v-133q0 -17 -5.5 -36t-13.5 -37.5t-18 -34.5t-19 -28h-140zM102 -104q13 23 25 52.5t15 51.5h-111v165h267v-133q0 -17 -5.5 -36t-13.5 -37.5t-18 -34.5t-19 -28h-140z" />
    <glyph glyph-name="dagger" unicode="&#x2020;" horiz-adv-x="587" 
d="M166 413h-143v182h143v149h254v-149h144v-182h-144v-413h-254v413z" />
    <glyph glyph-name="daggerdbl" unicode="&#x2021;" horiz-adv-x="590" 
d="M26 141v171h145v124h-145v172h145v136h249v-136h144v-172h-144v-124h144v-171h-144v-141h-249v141h-145z" />
    <glyph glyph-name="bullet" unicode="&#x2022;" horiz-adv-x="468" 
d="M444 330q0 -45 -16 -82.5t-44 -64.5t-66.5 -42t-83.5 -15t-83 15t-66.5 42t-44.5 64.5t-16 82.5t16 82t44.5 64t66.5 42t83 15t83.5 -15t66.5 -42t44 -64t16 -82z" />
    <glyph glyph-name="ellipsis" unicode="&#x2026;" horiz-adv-x="1012" 
d="M313 0h-282v195h282v-195zM647 0h-282v195h282v-195zM981 0h-282v195h282v-195z" />
    <glyph glyph-name="perthousand" unicode="&#x2030;" horiz-adv-x="2095" 
d="M320 321q-96 0 -154.5 22t-90 54t-42 68.5t-10.5 65.5v16q0 29 10.5 64.5t42.5 67t90 52.5t154 21h22q96 0 154 -21t89.5 -52.5t42 -67t10.5 -64.5v-16q0 -29 -10.5 -65.5t-42 -68.5t-89.5 -54t-154 -22h-22zM1240 744l-816 -744h-215l816 744h215zM330 453q32 0 54 7
t35.5 19t19.5 26.5t6 29.5v6q0 16 -5.5 30.5t-19 26t-35.5 18t-55 6.5q-32 0 -54 -6.5t-35.5 -18t-19 -26t-5.5 -30.5v-5q0 -15 6 -30t19.5 -27t35 -19t53.5 -7zM1108 -8q-95 0 -153.5 22t-90 54t-42 68.5t-10.5 65.5v16q0 29 10.5 65t42.5 67.5t90 52.5t154 21h22
q96 0 154 -21t90 -52.5t42.5 -67.5t10.5 -65v-16q0 -29 -10.5 -65.5t-42 -68.5t-89.5 -54t-154 -22h-24zM1753 -8q-96 0 -154 22t-90 54t-42.5 68.5t-10.5 65.5v16q0 29 10.5 65t42.5 67.5t90.5 52.5t154.5 21h22q95 0 153.5 -21t90 -52.5t42 -67.5t10.5 -65v-16
q0 -29 -10.5 -65.5t-42 -68.5t-89.5 -54t-154 -22h-23zM1120 124q32 0 54 7t35.5 19t19.5 26.5t6 29.5v7q0 16 -6 30.5t-19.5 25.5t-35.5 17.5t-54 6.5q-33 0 -55 -6.5t-35.5 -17.5t-19 -25.5t-5.5 -30.5v-5q0 -16 6 -31t19.5 -27t35.5 -19t54 -7zM1764 124q32 0 54 7
t35.5 19t19.5 26.5t6 29.5v7q0 16 -6 30.5t-19.5 25.5t-35.5 17.5t-54 6.5q-33 0 -54.5 -6.5t-35 -17.5t-19 -25.5t-5.5 -30.5v-5q0 -16 5.5 -31t19 -27t35.5 -19t54 -7z" />
    <glyph glyph-name="uni2032" unicode="&#x2032;" horiz-adv-x="289" 
d="M225 482h-213l52 262h213z" />
    <glyph glyph-name="uni2033" unicode="&#x2033;" horiz-adv-x="541" 
d="M224 482h-212l52 262h212zM265 482l52 262h212l-52 -262h-212z" />
    <glyph glyph-name="guilsinglleft" unicode="&#x2039;" horiz-adv-x="351" 
d="M138 114l-127 173l128 170h198l-124 -170l121 -173h-196z" />
    <glyph glyph-name="guilsinglright" unicode="&#x203a;" horiz-adv-x="351" 
d="M17 114l121 173l-124 170h198l128 -170l-126 -173h-197z" />
    <glyph glyph-name="fraction" unicode="&#x2044;" horiz-adv-x="1015" 
d="M1012 744l-820 -744h-189l814 744h195z" />
    <glyph glyph-name="zero.sup" unicode="&#x2070;" horiz-adv-x="627" 
d="M326 752q94 0 150 -18.5t86 -46.5t39.5 -60t9.5 -59v-15q0 -26 -9 -58t-39 -60t-86.5 -47t-150.5 -19h-23q-95 0 -151.5 19t-86.5 47t-39 60t-9 58v15q0 27 9 59t39 60t86.5 46.5t151.5 18.5h23zM418 566q0 12 -4.5 25.5t-16 25t-32 18.5t-51.5 7q-32 0 -52 -7
t-31.5 -18.5t-16 -25t-4.5 -25.5v-6q0 -13 4.5 -27t16 -26t31.5 -19.5t52 -7.5q31 0 51.5 7.5t32 19.5t16 26t4.5 27v6z" />
    <glyph glyph-name="four.sup" unicode="&#x2074;" horiz-adv-x="556" 
d="M268 745h201v-190h75v-107h-75v-72h-185v72h-272v95zM284 555v100l-127 -100h127z" />
    <glyph glyph-name="five.sup" unicode="&#x2075;" horiz-adv-x="551" 
d="M261 369q-86 0 -134.5 14t-72 33.5t-29 40t-5.5 33.5v3h182q0 -2 2.5 -6t10.5 -8.5t22.5 -8t40.5 -3.5q23 0 37.5 3t22.5 8t11 11.5t3 13.5v3q0 13 -14.5 24t-59.5 11q-25 0 -40 -3.5t-23 -7.5t-10.5 -8.5t-2.5 -5.5h-175v228h482v-95h-306v-56q3 2 11.5 7.5t25 11
t41.5 9.5t61 4h3q59 0 96.5 -9t58.5 -24.5t29 -37t8 -45.5v-4q0 -24 -8.5 -48.5t-34 -44t-73 -31.5t-125.5 -12h-35z" />
    <glyph glyph-name="six.sup" unicode="&#x2076;" horiz-adv-x="594" 
d="M285 369q-90 0 -143 19t-80.5 47t-36 60.5t-8.5 59.5v12q0 27 8.5 59.5t36.5 60.5t80 46.5t139 18.5h27q82 0 132.5 -12t78.5 -30.5t37.5 -40t9.5 -39.5v-2h-181q-1 2 -3.5 6t-11 8.5t-24.5 8t-43 3.5q-33 0 -53 -8.5t-30.5 -20.5t-13.5 -25t-3 -22v-2q4 3 14 9
t28.5 11.5t47 10t70.5 4.5h7q67 0 109 -8.5t65 -23t31 -34t8 -41.5v-5q0 -21 -8 -44t-35.5 -42t-80 -31.5t-141.5 -12.5h-33zM215 497q0 -5 3 -11t12.5 -11t27.5 -8t47 -3q30 0 47.5 3t26.5 8t11.5 10.5t2.5 11.5v2q0 6 -3 11.5t-12 10.5t-26.5 8t-46.5 3t-47 -3t-27.5 -7.5
t-12.5 -10.5t-3 -12v-2z" />
    <glyph glyph-name="seven.sup" unicode="&#x2077;" horiz-adv-x="550" 
d="M536 744v-94q-10 -11 -34.5 -37.5t-52.5 -61.5q-20 -25 -31 -45t-16.5 -39.5t-7 -40t-1.5 -46.5v-4h-210v45q0 20 5 36.5t16 33t30 34.5t46 41q44 35 64 51.5t20 24.5h-170v-72h-177v174h519z" />
    <glyph glyph-name="eight.sup" unicode="&#x2078;" horiz-adv-x="573" 
d="M553 647q0 -16 -7.5 -28.5t-20.5 -22t-29 -16t-34 -9.5q41 -6 71 -27t30 -56v-8q0 -16 -7.5 -35t-34.5 -36t-79.5 -28.5t-142.5 -11.5h-24q-91 0 -143.5 11.5t-79.5 28.5t-34.5 36t-7.5 35v8q0 35 30 56t71 27q-36 6 -63.5 25t-27.5 51v6q0 16 7 33t33.5 31.5t77 24
t137.5 9.5h24q87 0 137.5 -9.5t76.5 -24t33 -31.5t7 -33v-6zM364 639q0 5 -2.5 9.5t-10.5 8.5t-23.5 6t-41.5 2t-41 -2t-23 -6t-10.5 -8.5t-2.5 -9.5v-2q0 -5 2.5 -10t10.5 -9t23 -6t41 -2t41.5 2t23.5 6t10.5 9t2.5 10v2zM373 497q0 6 -3 11.5t-12.5 9.5t-26.5 6.5t-45 2.5
t-45 -2.5t-26 -6.5t-12 -9.5t-3 -11.5v-1q0 -6 3 -11.5t12.5 -10t26.5 -7t44 -2.5q28 0 45 2.5t26.5 7t12.5 10t3 11.5v1z" />
    <glyph glyph-name="nine.sup" unicode="&#x2079;" horiz-adv-x="595" 
d="M379 623q0 6 -3 11.5t-12.5 10.5t-27 8t-46.5 3q-30 0 -48 -3t-27 -8t-12 -10.5t-3 -11.5v-1q0 -6 3 -11.5t12.5 -10.5t27.5 -8t47 -3t46.5 3t27 7.5t12.5 10t3 11.5v2zM285 369q-83 0 -133.5 12.5t-77.5 31.5t-36 40t-9 38v1h181q0 -2 3 -6t11 -8.5t24.5 -8t43.5 -3.5
q33 0 52.5 8.5t29.5 20.5t13 25t3 22v2q-4 -3 -14 -8.5t-28 -11t-45.5 -10t-67.5 -4.5h-6q-67 0 -109.5 9t-66.5 24.5t-32.5 35.5t-8.5 41v5q0 21 7.5 43t34 41t78 31t140.5 12h33q90 0 143.5 -18.5t82 -46t37.5 -59.5t9 -59v-13q0 -27 -9 -59.5t-36.5 -61t-79.5 -47.5
t-139 -19h-28z" />
    <glyph glyph-name="zero.sub" unicode="&#x2080;" horiz-adv-x="627" 
d="M326 282q94 0 150 -18.5t86 -46.5t39.5 -60t9.5 -59v-15q0 -26 -9 -58t-39 -60t-86.5 -47t-150.5 -19h-23q-95 0 -151.5 19t-86.5 47t-39 60t-9 58v15q0 27 9 59t39 60t86.5 46.5t151.5 18.5h23zM418 96q0 12 -4.5 25.5t-16 25t-32 18.5t-51.5 7q-32 0 -52 -7
t-31.5 -18.5t-16 -25t-4.5 -25.5v-6q0 -13 4.5 -27t16 -26t31.5 -19.5t52 -7.5q31 0 51.5 7.5t32 19.5t16 26t4.5 27v6z" />
    <glyph glyph-name="one.sub" unicode="&#x2081;" horiz-adv-x="334" 
d="M15 110v93q31 1 53 7t37.5 15t25.5 21.5t16 27.5h154v-368h-186v204h-100z" />
    <glyph glyph-name="two.sub" unicode="&#x2082;" horiz-adv-x="554" 
d="M13 -94v47q0 27 7 52.5t32.5 48.5t76.5 42.5t138 34.5q27 4 43 8.5t25 8t12 7.5t3 9v1q0 4 -2.5 8t-10 7t-21 5t-36.5 2q-27 0 -42.5 -4.5t-23.5 -11.5t-10.5 -14t-2.5 -13h-182v4q0 17 6.5 40t31.5 44t74.5 35.5t136.5 14.5h19q79 0 128.5 -9.5t76.5 -25.5t36.5 -37.5
t9.5 -45.5v-5q0 -27 -13 -45.5t-41.5 -31.5t-73 -21.5t-108.5 -15.5q-60 -8 -93 -13t-41 -16h369v-110h-524z" />
    <glyph glyph-name="three.sub" unicode="&#x2083;" horiz-adv-x="569" 
d="M261 -101q-87 0 -137 16t-76 38t-33 46t-7 39v5h184q0 -3 2.5 -10t11 -13.5t25.5 -11.5t47 -5q29 0 46.5 2.5t26.5 6.5t11.5 9t2.5 10v2q0 10 -8.5 15.5t-34.5 5.5h-112v90h107q25 0 33 5t8 12v2q0 4 -2.5 8t-11.5 7t-25.5 5t-44.5 2q-30 0 -46 -4t-24 -9t-10 -10t-2 -8
h-178v5q0 11 5.5 31.5t29 41t72 35.5t134.5 15h34q86 0 137 -8.5t77.5 -22t34 -30.5t7.5 -33v-4q0 -27 -22.5 -43.5t-54.5 -20.5q39 -6 66 -28.5t27 -61.5v-4q0 -23 -9.5 -45.5t-38 -40.5t-81 -29.5t-138.5 -11.5h-33z" />
    <glyph glyph-name="four.sub" unicode="&#x2084;" horiz-adv-x="556" 
d="M268 275h201v-190h75v-107h-75v-72h-185v72h-272v95zM284 85v100l-127 -100h127z" />
    <glyph glyph-name="five.sub" unicode="&#x2085;" horiz-adv-x="551" 
d="M261 -101q-86 0 -134.5 14t-72 33.5t-29 40t-5.5 33.5v3h182q0 -2 2.5 -6t10.5 -8.5t22.5 -8t40.5 -3.5q23 0 37.5 3t22.5 8t11 11.5t3 13.5v3q0 13 -14.5 24t-59.5 11q-25 0 -40 -3.5t-23 -7.5t-10.5 -8.5t-2.5 -5.5h-175v228h482v-95h-306v-56q3 2 11.5 7.5t25 11
t41.5 9.5t61 4h3q59 0 96.5 -9t58.5 -24.5t29 -37t8 -45.5v-4q0 -24 -8.5 -48.5t-34 -44t-73 -31.5t-125.5 -12h-35z" />
    <glyph glyph-name="six.sub" unicode="&#x2086;" horiz-adv-x="594" 
d="M285 -101q-90 0 -143 19t-80.5 47t-36 60.5t-8.5 59.5v12q0 27 8.5 59.5t36.5 60.5t80 46.5t139 18.5h27q82 0 132.5 -12t78.5 -30.5t37.5 -40t9.5 -39.5v-2h-181q-1 2 -3.5 6t-11 8.5t-24.5 8t-43 3.5q-33 0 -53 -8.5t-30.5 -20.5t-13.5 -25t-3 -22v-2q4 3 14 9
t28.5 11.5t47 10t70.5 4.5h7q67 0 109 -8.5t65 -23t31 -34t8 -41.5v-5q0 -21 -8 -44t-35.5 -42t-80 -31.5t-141.5 -12.5h-33zM215 27q0 -5 3 -11t12.5 -11t27.5 -8t47 -3q30 0 47.5 3t26.5 8t11.5 10.5t2.5 11.5v2q0 6 -3 11.5t-12 10.5t-26.5 8t-46.5 3t-47 -3t-27.5 -7.5
t-12.5 -10.5t-3 -12v-2z" />
    <glyph glyph-name="seven.sub" unicode="&#x2087;" horiz-adv-x="550" 
d="M536 274v-94q-10 -11 -34.5 -37.5t-52.5 -61.5q-20 -25 -31 -45t-16.5 -39.5t-7 -40t-1.5 -46.5v-4h-210v45q0 20 5 36.5t16 33t30 34.5t46 41q44 35 64 51.5t20 24.5h-170v-72h-177v174h519z" />
    <glyph glyph-name="eight.sub" unicode="&#x2088;" horiz-adv-x="573" 
d="M553 177q0 -16 -7.5 -28.5t-20.5 -22t-29 -16t-34 -9.5q41 -6 71 -27t30 -56v-8q0 -16 -7.5 -35t-34.5 -36t-79.5 -28.5t-142.5 -11.5h-24q-91 0 -143.5 11.5t-79.5 28.5t-34.5 36t-7.5 35v8q0 35 30 56t71 27q-36 6 -63.5 25t-27.5 51v6q0 16 7 33t33.5 31.5t77 24
t137.5 9.5h24q87 0 137.5 -9.5t76.5 -24t33 -31.5t7 -33v-6zM364 169q0 5 -2.5 9.5t-10.5 8.5t-23.5 6t-41.5 2t-41 -2t-23 -6t-10.5 -8.5t-2.5 -9.5v-2q0 -5 2.5 -10t10.5 -9t23 -6t41 -2t41.5 2t23.5 6t10.5 9t2.5 10v2zM373 27q0 6 -3 11.5t-12.5 9.5t-26.5 6.5t-45 2.5
t-45 -2.5t-26 -6.5t-12 -9.5t-3 -11.5v-1q0 -6 3 -11.5t12.5 -10t26.5 -7t44 -2.5q28 0 45 2.5t26.5 7t12.5 10t3 11.5v1z" />
    <glyph glyph-name="nine.sub" unicode="&#x2089;" horiz-adv-x="595" 
d="M379 153q0 6 -3 11.5t-12.5 10.5t-27 8t-46.5 3q-30 0 -48 -3t-27 -8t-12 -10.5t-3 -11.5v-1q0 -6 3 -11.5t12.5 -10.5t27.5 -8t47 -3t46.5 3t27 7.5t12.5 10t3 11.5v2zM285 -101q-83 0 -133.5 12.5t-77.5 31.5t-36 40t-9 38v1h181q0 -2 3 -6t11 -8.5t24.5 -8t43.5 -3.5
q33 0 52.5 8.5t29.5 20.5t13 25t3 22v2q-4 -3 -14 -8.5t-28 -11t-45.5 -10t-67.5 -4.5h-6q-67 0 -109.5 9t-66.5 24.5t-32.5 35.5t-8.5 41v5q0 21 7.5 43t34 41t78 31t140.5 12h33q90 0 143.5 -18.5t82 -46t37.5 -59.5t9 -59v-13q0 -27 -9 -59.5t-36.5 -61t-79.5 -47.5
t-139 -19h-28z" />
    <glyph glyph-name="Euro" unicode="&#x20ac;" horiz-adv-x="1161" 
d="M605 -14q-125 0 -212 25t-144 65t-88.5 89.5t-44.5 99.5h-105v88h92v48h-92v88h105q13 49 44.5 97t89 86.5t144 62t211.5 23.5h40q104 0 181 -15.5t132 -40.5t90.5 -57t55.5 -65t28 -64.5t8 -55.5v-12h-295q-2 8 -10.5 27t-32.5 39t-67.5 35t-114.5 15q-85 0 -133.5 -20
t-71.5 -55h292v-88h-317q0 -4 -0.5 -8t-0.5 -9v-12q0 -5 0.5 -9.5t0.5 -9.5h317v-88h-290q23 -38 72 -61t132 -23q72 0 115.5 16.5t67 38t31.5 41.5t10 28h295v-12q0 -25 -7.5 -57t-28 -66.5t-55.5 -67.5t-90 -58.5t-132.5 -41.5t-181.5 -16h-40v0z" />
    <glyph glyph-name="uni20B4" unicode="&#x20b4;" horiz-adv-x="1128" 
d="M1121 410h-1114v88h722q17 14 17 38v2q0 11 -6.5 21.5t-24.5 19t-50 13.5t-83 5h-10q-60 0 -95.5 -5.5t-54 -14.5t-24 -19.5t-6.5 -20.5h-309v8q0 44 19 83t69 67.5t138 45t226 16.5h89q124 0 206.5 -16.5t132 -44t69.5 -63t20 -73.5v-9q0 -27 -13 -53h82v-88zM1063 227
q0 -24 -5 -51.5t-21.5 -54t-46.5 -51t-80.5 -43.5t-124 -30t-176.5 -11h-91q-144 0 -234 21t-140.5 53t-68.5 70t-18 73v13q0 30 12 57h-62v88h1114v-88h-732q-9 -11 -12 -22.5t-3 -23.5v-2q0 -14 8 -27t28.5 -23t55.5 -16.5t90 -6.5h9q63 0 99.5 7.5t55.5 20t24.5 27.5
t6.5 30h312v-10z" />
    <glyph glyph-name="uni20B8" unicode="&#x20b8;" horiz-adv-x="971" 
d="M22 744h926v-88h-926v88zM22 608h926v-203h-321v-405h-284v405h-321v203z" />
    <glyph glyph-name="uni20BD" unicode="&#x20bd;" horiz-adv-x="1092" 
d="M1079 482q0 -51 -17 -96t-57.5 -79t-108.5 -54t-170 -20h-337v-49h390v-88h-390v-96h-283v96h-100v88h100v49h-100v87h100v424h620q103 0 171 -19t108.5 -52.5t57 -78.5t16.5 -96v-16zM389 395h302q50 0 72 21.5t22 58.5v3q0 37 -21.5 58.5t-72.5 21.5h-302v-163z" />
    <glyph glyph-name="uni2116" unicode="&#x2116;" horiz-adv-x="1768" 
d="M1422 321q-96 0 -154.5 22t-90 54t-42 68.5t-10.5 65.5v16q0 29 10.5 64.5t42.5 67t90 52.5t154 21h22q96 0 154 -21t89.5 -52.5t42 -67t10.5 -64.5v-16q0 -29 -10.5 -65.5t-42 -68.5t-89.5 -54t-154 -22h-22zM1432 453q32 0 54 7t35.5 19t19.5 26.5t6 29.5v6
q0 16 -5.5 30.5t-19 26t-35.5 18t-55 6.5q-32 0 -54 -6.5t-35.5 -18t-19 -26t-5.5 -30.5v-5q0 -15 6 -30t19.5 -27t35 -19t53.5 -7zM1135 289h602v-131h-602v131zM366 744l432 -423v423h282v-744h-284l-466 451v-451h-282v744h318z" />
    <glyph glyph-name="trademark" unicode="&#x2122;" horiz-adv-x="1112" 
d="M317 627v-241h-175v241h-127v117h429v-117h-127zM481 744h236l69 -176l70 176h225v-358h-153v223l-94 -223h-108l-94 223v-223h-151v358z" />
    <glyph glyph-name="onethird" unicode="&#x2153;" horiz-adv-x="1105" 
d="M15 580v93q31 1 53 7t37.5 15t25.5 21.5t16 27.5h154v-368h-186v204h-100zM967 744l-820 -744h-189l814 744h195zM797 -7q-87 0 -137 16t-76 38t-33 46t-7 39v5h184q0 -3 2.5 -10t11 -13.5t25.5 -11.5t47 -5q29 0 46.5 2.5t26.5 6.5t11.5 9t2.5 10v2q0 10 -8.5 15.5
t-34.5 5.5h-112v90h107q25 0 33 5t8 12v2q0 4 -2.5 8t-11.5 7t-25.5 5t-44.5 2q-30 0 -46 -4t-24 -9t-10 -10t-2 -8h-178v5q0 11 5.5 31.5t29 41t72 35.5t134.5 15h34q86 0 137 -8.5t77.5 -22t34 -30.5t7.5 -33v-4q0 -27 -22.5 -43.5t-54.5 -20.5q39 -6 66 -28.5t27 -61.5
v-4q0 -23 -9.5 -45.5t-38 -40.5t-81 -29.5t-138.5 -11.5h-33z" />
    <glyph glyph-name="twothirds" unicode="&#x2154;" horiz-adv-x="1329" 
d="M13 376v47q0 27 7 52.5t32.5 48.5t76.5 42.5t138 34.5q27 4 43 8.5t25 8t12 7.5t3 9v1q0 4 -2.5 8t-10 7t-21 5t-36.5 2q-27 0 -42.5 -4.5t-23.5 -11.5t-10.5 -14t-2.5 -13h-182v4q0 17 6.5 40t31.5 44t74.5 35.5t136.5 14.5h19q79 0 128.5 -9.5t76.5 -25.5t36.5 -37.5
t9.5 -45.5v-5q0 -27 -13 -45.5t-41.5 -31.5t-73 -21.5t-108.5 -15.5q-60 -8 -93 -13t-41 -16h369v-110h-524zM1191 744l-820 -744h-189l814 744h195zM1020 -7q-87 0 -137 16t-76 38t-33 46t-7 39v5h184q0 -3 2.5 -10t11 -13.5t25.5 -11.5t47 -5q29 0 46.5 2.5t26.5 6.5
t11.5 9t2.5 10v2q0 10 -8.5 15.5t-34.5 5.5h-112v90h107q25 0 33 5t8 12v2q0 4 -2.5 8t-11.5 7t-25.5 5t-44.5 2q-30 0 -46 -4t-24 -9t-10 -10t-2 -8h-178v5q0 11 5.5 31.5t29 41t72 35.5t134.5 15h34q86 0 137 -8.5t77.5 -22t34 -30.5t7.5 -33v-4q0 -27 -22.5 -43.5
t-54.5 -20.5q39 -6 66 -28.5t27 -61.5v-4q0 -23 -9.5 -45.5t-38 -40.5t-81 -29.5t-138.5 -11.5h-33z" />
    <glyph glyph-name="oneeighth" unicode="&#x215b;" horiz-adv-x="1118" 
d="M15 580v93q31 1 53 7t37.5 15t25.5 21.5t16 27.5h154v-368h-186v204h-100zM967 744l-820 -744h-189l814 744h195zM1097 271q0 -16 -7.5 -28.5t-20.5 -22t-29 -16t-34 -9.5q41 -6 71 -27t30 -56v-8q0 -16 -7.5 -35t-34.5 -36t-79.5 -28.5t-142.5 -11.5h-24
q-91 0 -143.5 11.5t-79.5 28.5t-34.5 36t-7.5 35v8q0 35 30 56t71 27q-36 6 -63.5 25t-27.5 51v6q0 16 7 33t33.5 31.5t77 24t137.5 9.5h24q87 0 137.5 -9.5t76.5 -24t33 -31.5t7 -33v-6zM908 263q0 5 -2.5 9.5t-10.5 8.5t-23.5 6t-41.5 2t-41 -2t-23 -6t-10.5 -8.5
t-2.5 -9.5v-2q0 -5 2.5 -10t10.5 -9t23 -6t41 -2t41.5 2t23.5 6t10.5 9t2.5 10v2zM917 121q0 6 -3 11.5t-12.5 9.5t-26.5 6.5t-45 2.5t-45 -2.5t-26 -6.5t-12 -9.5t-3 -11.5v-1q0 -6 3 -11.5t12.5 -10t26.5 -7t44 -2.5q28 0 45 2.5t26.5 7t12.5 10t3 11.5v1z" />
    <glyph glyph-name="threeeighths" unicode="&#x215c;" horiz-adv-x="1310" 
d="M1157 744l-820 -744h-189l814 744h195zM261 370q-87 0 -137 16t-76 38t-33 46t-7 39v5h184q0 -3 2.5 -10t11 -13.5t25.5 -11.5t47 -5q29 0 46.5 2.5t26.5 6.5t11.5 9t2.5 10v2q0 10 -8.5 15.5t-34.5 5.5h-112v90h107q25 0 33 5t8 12v2q0 4 -2.5 8t-11.5 7t-25.5 5
t-44.5 2q-30 0 -46 -4t-24 -9t-10 -10t-2 -8h-178v5q0 11 5.5 31.5t29 41t72 35.5t134.5 15h34q86 0 137 -8.5t77.5 -22t34 -30.5t7.5 -33v-4q0 -27 -22.5 -43.5t-54.5 -20.5q39 -6 66 -28.5t27 -61.5v-4q0 -23 -9.5 -45.5t-38 -40.5t-81 -29.5t-138.5 -11.5h-33zM1289 271
q0 -16 -7.5 -28.5t-20.5 -22t-29 -16t-34 -9.5q41 -6 71 -27t30 -56v-8q0 -16 -7.5 -35t-34.5 -36t-79.5 -28.5t-142.5 -11.5h-24q-91 0 -143.5 11.5t-79.5 28.5t-34.5 36t-7.5 35v8q0 35 30 56t71 27q-36 6 -63.5 25t-27.5 51v6q0 16 7 33t33.5 31.5t77 24t137.5 9.5h24
q87 0 137.5 -9.5t76.5 -24t33 -31.5t7 -33v-6zM1100 263q0 5 -2.5 9.5t-10.5 8.5t-23.5 6t-41.5 2t-41 -2t-23 -6t-10.5 -8.5t-2.5 -9.5v-2q0 -5 2.5 -10t10.5 -9t23 -6t41 -2t41.5 2t23.5 6t10.5 9t2.5 10v2zM1109 121q0 6 -3 11.5t-12.5 9.5t-26.5 6.5t-45 2.5t-45 -2.5
t-26 -6.5t-12 -9.5t-3 -11.5v-1q0 -6 3 -11.5t12.5 -10t26.5 -7t44 -2.5q28 0 45 2.5t26.5 7t12.5 10t3 11.5v1z" />
    <glyph glyph-name="fiveeighths" unicode="&#x215d;" horiz-adv-x="1282" 
d="M1129 744l-820 -744h-189l814 744h195zM261 369q-86 0 -134.5 14t-72 33.5t-29 40t-5.5 33.5v3h182q0 -2 2.5 -6t10.5 -8.5t22.5 -8t40.5 -3.5q23 0 37.5 3t22.5 8t11 11.5t3 13.5v3q0 13 -14.5 24t-59.5 11q-25 0 -40 -3.5t-23 -7.5t-10.5 -8.5t-2.5 -5.5h-175v228h482
v-95h-306v-56q3 2 11.5 7.5t25 11t41.5 9.5t61 4h3q59 0 96.5 -9t58.5 -24.5t29 -37t8 -45.5v-4q0 -24 -8.5 -48.5t-34 -44t-73 -31.5t-125.5 -12h-35zM1261 271q0 -16 -7.5 -28.5t-20.5 -22t-29 -16t-34 -9.5q41 -6 71 -27t30 -56v-8q0 -16 -7.5 -35t-34.5 -36t-79.5 -28.5
t-142.5 -11.5h-24q-91 0 -143.5 11.5t-79.5 28.5t-34.5 36t-7.5 35v8q0 35 30 56t71 27q-36 6 -63.5 25t-27.5 51v6q0 16 7 33t33.5 31.5t77 24t137.5 9.5h24q87 0 137.5 -9.5t76.5 -24t33 -31.5t7 -33v-6zM1072 263q0 5 -2.5 9.5t-10.5 8.5t-23.5 6t-41.5 2t-41 -2t-23 -6
t-10.5 -8.5t-2.5 -9.5v-2q0 -5 2.5 -10t10.5 -9t23 -6t41 -2t41.5 2t23.5 6t10.5 9t2.5 10v2zM1081 121q0 6 -3 11.5t-12.5 9.5t-26.5 6.5t-45 2.5t-45 -2.5t-26 -6.5t-12 -9.5t-3 -11.5v-1q0 -6 3 -11.5t12.5 -10t26.5 -7t44 -2.5q28 0 45 2.5t26.5 7t12.5 10t3 11.5v1z
" />
    <glyph glyph-name="seveneighths" unicode="&#x215e;" horiz-adv-x="1210" 
d="M536 744v-94q-10 -11 -34.5 -37.5t-52.5 -61.5q-20 -25 -31 -45t-16.5 -39.5t-7 -40t-1.5 -46.5v-4h-210v45q0 20 5 36.5t16 33t30 34.5t46 41q44 35 64 51.5t20 24.5h-170v-72h-177v174h519zM1057 744l-820 -744h-189l814 744h195zM1189 271q0 -16 -7.5 -28.5t-20.5 -22
t-29 -16t-34 -9.5q41 -6 71 -27t30 -56v-8q0 -16 -7.5 -35t-34.5 -36t-79.5 -28.5t-142.5 -11.5h-24q-91 0 -143.5 11.5t-79.5 28.5t-34.5 36t-7.5 35v8q0 35 30 56t71 27q-36 6 -63.5 25t-27.5 51v6q0 16 7 33t33.5 31.5t77 24t137.5 9.5h24q87 0 137.5 -9.5t76.5 -24
t33 -31.5t7 -33v-6zM1000 263q0 5 -2.5 9.5t-10.5 8.5t-23.5 6t-41.5 2t-41 -2t-23 -6t-10.5 -8.5t-2.5 -9.5v-2q0 -5 2.5 -10t10.5 -9t23 -6t41 -2t41.5 2t23.5 6t10.5 9t2.5 10v2zM1009 121q0 6 -3 11.5t-12.5 9.5t-26.5 6.5t-45 2.5t-45 -2.5t-26 -6.5t-12 -9.5t-3 -11.5
v-1q0 -6 3 -11.5t12.5 -10t26.5 -7t44 -2.5q28 0 45 2.5t26.5 7t12.5 10t3 11.5v1z" />
    <glyph glyph-name="minus" unicode="&#x2212;" horiz-adv-x="585" 
d="M555 385v-153h-525v153h525z" />
    <glyph glyph-name="uni24C5" unicode="&#x24c5;" horiz-adv-x="1185" 
d="M1162 359q0 -48 -10.5 -94.5t-35.5 -87.5t-66.5 -76t-103.5 -60t-146.5 -39t-195.5 -14h-23q-111 0 -195.5 14t-146.5 39.5t-103.5 60t-66.5 76t-35.5 87.5t-10.5 94v28q0 47 10.5 92.5t35 86.5t66 76t103.5 60t146.5 39.5t195.5 14.5h24q111 0 196 -14.5t147 -40
t103.5 -60t66 -75.5t35 -86.5t10.5 -92.5v-28zM603 82q124 0 206 22.5t130.5 61t68.5 90t20 108.5v17q0 61 -20 113t-68.5 89.5t-130.5 58.5t-206 21h-21q-124 0 -206 -21t-130.5 -58.5t-68.5 -89.5t-20 -113v-17q0 -57 20 -108.5t68.5 -90t130.5 -61t206 -22.5h21zM531 267
v-109h-207v432h360q74 0 121.5 -12t74.5 -33t37 -49.5t10 -61.5v-10q0 -33 -10.5 -61.5t-38 -50t-74.5 -33.5t-120 -12h-153zM531 383h129q59 0 59 44v3q0 43 -59 43h-129v-90z" />
    <glyph glyph-name="zero.den" unicode="&#xe402;" horiz-adv-x="627" 
d="M326 376q94 0 150 -18.5t86 -46.5t39.5 -60t9.5 -59v-15q0 -26 -9 -58t-39 -60t-86.5 -47t-150.5 -19h-23q-95 0 -151.5 19t-86.5 47t-39 60t-9 58v15q0 27 9 59t39 60t86.5 46.5t151.5 18.5h23zM418 190q0 12 -4.5 25.5t-16 25t-32 18.5t-51.5 7q-32 0 -52 -7
t-31.5 -18.5t-16 -25t-4.5 -25.5v-6q0 -13 4.5 -27t16 -26t31.5 -19.5t52 -7.5q31 0 51.5 7.5t32 19.5t16 26t4.5 27v6z" />
    <glyph glyph-name="one.den" unicode="&#xe403;" horiz-adv-x="334" 
d="M15 204v93q31 1 53 7t37.5 15t25.5 21.5t16 27.5h154v-368h-186v204h-100z" />
    <glyph glyph-name="two.den" unicode="&#xe404;" horiz-adv-x="554" 
d="M13 0v47q0 27 7 52.5t32.5 48.5t76.5 42.5t138 34.5q27 4 43 8.5t25 8t12 7.5t3 9v1q0 4 -2.5 8t-10 7t-21 5t-36.5 2q-27 0 -42.5 -4.5t-23.5 -11.5t-10.5 -14t-2.5 -13h-182v4q0 17 6.5 40t31.5 44t74.5 35.5t136.5 14.5h19q79 0 128.5 -9.5t76.5 -25.5t36.5 -37.5
t9.5 -45.5v-5q0 -27 -13 -45.5t-41.5 -31.5t-73 -21.5t-108.5 -15.5q-60 -8 -93 -13t-41 -16h369v-110h-524z" />
    <glyph glyph-name="three.den" unicode="&#xe405;" horiz-adv-x="569" 
d="M261 -7q-87 0 -137 16t-76 38t-33 46t-7 39v5h184q0 -3 2.5 -10t11 -13.5t25.5 -11.5t47 -5q29 0 46.5 2.5t26.5 6.5t11.5 9t2.5 10v2q0 10 -8.5 15.5t-34.5 5.5h-112v90h107q25 0 33 5t8 12v2q0 4 -2.5 8t-11.5 7t-25.5 5t-44.5 2q-30 0 -46 -4t-24 -9t-10 -10t-2 -8
h-178v5q0 11 5.5 31.5t29 41t72 35.5t134.5 15h34q86 0 137 -8.5t77.5 -22t34 -30.5t7.5 -33v-4q0 -27 -22.5 -43.5t-54.5 -20.5q39 -6 66 -28.5t27 -61.5v-4q0 -23 -9.5 -45.5t-38 -40.5t-81 -29.5t-138.5 -11.5h-33z" />
    <glyph glyph-name="four.den" unicode="&#xe406;" horiz-adv-x="556" 
d="M268 369h201v-190h75v-107h-75v-72h-185v72h-272v95zM284 179v100l-127 -100h127z" />
    <glyph glyph-name="five.den" unicode="&#xe407;" horiz-adv-x="551" 
d="M261 -7q-86 0 -134.5 14t-72 33.5t-29 40t-5.5 33.5v3h182q0 -2 2.5 -6t10.5 -8.5t22.5 -8t40.5 -3.5q23 0 37.5 3t22.5 8t11 11.5t3 13.5v3q0 13 -14.5 24t-59.5 11q-25 0 -40 -3.5t-23 -7.5t-10.5 -8.5t-2.5 -5.5h-175v228h482v-95h-306v-56q3 2 11.5 7.5t25 11
t41.5 9.5t61 4h3q59 0 96.5 -9t58.5 -24.5t29 -37t8 -45.5v-4q0 -24 -8.5 -48.5t-34 -44t-73 -31.5t-125.5 -12h-35z" />
    <glyph glyph-name="six.den" unicode="&#xe408;" horiz-adv-x="594" 
d="M285 -7q-90 0 -143 19t-80.5 47t-36 60.5t-8.5 59.5v12q0 27 8.5 59.5t36.5 60.5t80 46.5t139 18.5h27q82 0 132.5 -12t78.5 -30.5t37.5 -40t9.5 -39.5v-2h-181q-1 2 -3.5 6t-11 8.5t-24.5 8t-43 3.5q-33 0 -53 -8.5t-30.5 -20.5t-13.5 -25t-3 -22v-2q4 3 14 9t28.5 11.5
t47 10t70.5 4.5h7q67 0 109 -8.5t65 -23t31 -34t8 -41.5v-5q0 -21 -8 -44t-35.5 -42t-80 -31.5t-141.5 -12.5h-33zM215 121q0 -5 3 -11t12.5 -11t27.5 -8t47 -3q30 0 47.5 3t26.5 8t11.5 10.5t2.5 11.5v2q0 6 -3 11.5t-12 10.5t-26.5 8t-46.5 3t-47 -3t-27.5 -7.5
t-12.5 -10.5t-3 -12v-2z" />
    <glyph glyph-name="seven.den" unicode="&#xe409;" horiz-adv-x="550" 
d="M536 368v-94q-10 -11 -34.5 -37.5t-52.5 -61.5q-20 -25 -31 -45t-16.5 -39.5t-7 -40t-1.5 -46.5v-4h-210v45q0 20 5 36.5t16 33t30 34.5t46 41q44 35 64 51.5t20 24.5h-170v-72h-177v174h519z" />
    <glyph glyph-name="eight.den" unicode="&#xe40a;" horiz-adv-x="573" 
d="M553 271q0 -16 -7.5 -28.5t-20.5 -22t-29 -16t-34 -9.5q41 -6 71 -27t30 -56v-8q0 -16 -7.5 -35t-34.5 -36t-79.5 -28.5t-142.5 -11.5h-24q-91 0 -143.5 11.5t-79.5 28.5t-34.5 36t-7.5 35v8q0 35 30 56t71 27q-36 6 -63.5 25t-27.5 51v6q0 16 7 33t33.5 31.5t77 24
t137.5 9.5h24q87 0 137.5 -9.5t76.5 -24t33 -31.5t7 -33v-6zM364 263q0 5 -2.5 9.5t-10.5 8.5t-23.5 6t-41.5 2t-41 -2t-23 -6t-10.5 -8.5t-2.5 -9.5v-2q0 -5 2.5 -10t10.5 -9t23 -6t41 -2t41.5 2t23.5 6t10.5 9t2.5 10v2zM373 121q0 6 -3 11.5t-12.5 9.5t-26.5 6.5t-45 2.5
t-45 -2.5t-26 -6.5t-12 -9.5t-3 -11.5v-1q0 -6 3 -11.5t12.5 -10t26.5 -7t44 -2.5q28 0 45 2.5t26.5 7t12.5 10t3 11.5v1z" />
    <glyph glyph-name="nine.den" unicode="&#xe40b;" horiz-adv-x="595" 
d="M379 247q0 6 -3 11.5t-12.5 10.5t-27 8t-46.5 3q-30 0 -48 -3t-27 -8t-12 -10.5t-3 -11.5v-1q0 -6 3 -11.5t12.5 -10.5t27.5 -8t47 -3t46.5 3t27 7.5t12.5 10t3 11.5v2zM285 -7q-83 0 -133.5 12.5t-77.5 31.5t-36 40t-9 38v1h181q0 -2 3 -6t11 -8.5t24.5 -8t43.5 -3.5
q33 0 52.5 8.5t29.5 20.5t13 25t3 22v2q-4 -3 -14 -8.5t-28 -11t-45.5 -10t-67.5 -4.5h-6q-67 0 -109.5 9t-66.5 24.5t-32.5 35.5t-8.5 41v5q0 21 7.5 43t34 41t78 31t140.5 12h33q90 0 143.5 -18.5t82 -46t37.5 -59.5t9 -59v-13q0 -27 -9 -59.5t-36.5 -61t-79.5 -47.5
t-139 -19h-28z" />
    <glyph glyph-name="zero.num" unicode="&#xe416;" horiz-adv-x="627" 
d="M326 752q94 0 150 -18.5t86 -46.5t39.5 -60t9.5 -59v-15q0 -26 -9 -58t-39 -60t-86.5 -47t-150.5 -19h-23q-95 0 -151.5 19t-86.5 47t-39 60t-9 58v15q0 27 9 59t39 60t86.5 46.5t151.5 18.5h23zM418 566q0 12 -4.5 25.5t-16 25t-32 18.5t-51.5 7q-32 0 -52 -7
t-31.5 -18.5t-16 -25t-4.5 -25.5v-6q0 -13 4.5 -27t16 -26t31.5 -19.5t52 -7.5q31 0 51.5 7.5t32 19.5t16 26t4.5 27v6z" />
    <glyph glyph-name="one.num" unicode="&#xe417;" horiz-adv-x="334" 
d="M15 580v93q31 1 53 7t37.5 15t25.5 21.5t16 27.5h154v-368h-186v204h-100z" />
    <glyph glyph-name="two.num" unicode="&#xe418;" horiz-adv-x="554" 
d="M13 376v47q0 27 7 52.5t32.5 48.5t76.5 42.5t138 34.5q27 4 43 8.5t25 8t12 7.5t3 9v1q0 4 -2.5 8t-10 7t-21 5t-36.5 2q-27 0 -42.5 -4.5t-23.5 -11.5t-10.5 -14t-2.5 -13h-182v4q0 17 6.5 40t31.5 44t74.5 35.5t136.5 14.5h19q79 0 128.5 -9.5t76.5 -25.5t36.5 -37.5
t9.5 -45.5v-5q0 -27 -13 -45.5t-41.5 -31.5t-73 -21.5t-108.5 -15.5q-60 -8 -93 -13t-41 -16h369v-110h-524z" />
    <glyph glyph-name="three.num" unicode="&#xe419;" horiz-adv-x="569" 
d="M261 369q-87 0 -137 16t-76 38t-33 46t-7 39v5h184q0 -3 2.5 -10t11 -13.5t25.5 -11.5t47 -5q29 0 46.5 2.5t26.5 6.5t11.5 9t2.5 10v2q0 10 -8.5 15.5t-34.5 5.5h-112v90h107q25 0 33 5t8 12v2q0 4 -2.5 8t-11.5 7t-25.5 5t-44.5 2q-30 0 -46 -4t-24 -9t-10 -10t-2 -8
h-178v5q0 11 5.5 31.5t29 41t72 35.5t134.5 15h34q86 0 137 -8.5t77.5 -22t34 -30.5t7.5 -33v-4q0 -27 -22.5 -43.5t-54.5 -20.5q39 -6 66 -28.5t27 -61.5v-4q0 -23 -9.5 -45.5t-38 -40.5t-81 -29.5t-138.5 -11.5h-33z" />
    <glyph glyph-name="four.num" unicode="&#xe41a;" horiz-adv-x="556" 
d="M268 745h201v-190h75v-107h-75v-72h-185v72h-272v95zM284 555v100l-127 -100h127z" />
    <glyph glyph-name="five.num" unicode="&#xe41b;" horiz-adv-x="551" 
d="M261 369q-86 0 -134.5 14t-72 33.5t-29 40t-5.5 33.5v3h182q0 -2 2.5 -6t10.5 -8.5t22.5 -8t40.5 -3.5q23 0 37.5 3t22.5 8t11 11.5t3 13.5v3q0 13 -14.5 24t-59.5 11q-25 0 -40 -3.5t-23 -7.5t-10.5 -8.5t-2.5 -5.5h-175v228h482v-95h-306v-56q3 2 11.5 7.5t25 11
t41.5 9.5t61 4h3q59 0 96.5 -9t58.5 -24.5t29 -37t8 -45.5v-4q0 -24 -8.5 -48.5t-34 -44t-73 -31.5t-125.5 -12h-35z" />
    <glyph glyph-name="six.num" unicode="&#xe41c;" horiz-adv-x="594" 
d="M285 369q-90 0 -143 19t-80.5 47t-36 60.5t-8.5 59.5v12q0 27 8.5 59.5t36.5 60.5t80 46.5t139 18.5h27q82 0 132.5 -12t78.5 -30.5t37.5 -40t9.5 -39.5v-2h-181q-1 2 -3.5 6t-11 8.5t-24.5 8t-43 3.5q-33 0 -53 -8.5t-30.5 -20.5t-13.5 -25t-3 -22v-2q4 3 14 9
t28.5 11.5t47 10t70.5 4.5h7q67 0 109 -8.5t65 -23t31 -34t8 -41.5v-5q0 -21 -8 -44t-35.5 -42t-80 -31.5t-141.5 -12.5h-33zM215 497q0 -5 3 -11t12.5 -11t27.5 -8t47 -3q30 0 47.5 3t26.5 8t11.5 10.5t2.5 11.5v2q0 6 -3 11.5t-12 10.5t-26.5 8t-46.5 3t-47 -3t-27.5 -7.5
t-12.5 -10.5t-3 -12v-2z" />
    <glyph glyph-name="seven.num" unicode="&#xe41d;" horiz-adv-x="550" 
d="M536 744v-94q-10 -11 -34.5 -37.5t-52.5 -61.5q-20 -25 -31 -45t-16.5 -39.5t-7 -40t-1.5 -46.5v-4h-210v45q0 20 5 36.5t16 33t30 34.5t46 41q44 35 64 51.5t20 24.5h-170v-72h-177v174h519z" />
    <glyph glyph-name="eight.num" unicode="&#xe41e;" horiz-adv-x="573" 
d="M553 647q0 -16 -7.5 -28.5t-20.5 -22t-29 -16t-34 -9.5q41 -6 71 -27t30 -56v-8q0 -16 -7.5 -35t-34.5 -36t-79.5 -28.5t-142.5 -11.5h-24q-91 0 -143.5 11.5t-79.5 28.5t-34.5 36t-7.5 35v8q0 35 30 56t71 27q-36 6 -63.5 25t-27.5 51v6q0 16 7 33t33.5 31.5t77 24
t137.5 9.5h24q87 0 137.5 -9.5t76.5 -24t33 -31.5t7 -33v-6zM364 639q0 5 -2.5 9.5t-10.5 8.5t-23.5 6t-41.5 2t-41 -2t-23 -6t-10.5 -8.5t-2.5 -9.5v-2q0 -5 2.5 -10t10.5 -9t23 -6t41 -2t41.5 2t23.5 6t10.5 9t2.5 10v2zM373 497q0 6 -3 11.5t-12.5 9.5t-26.5 6.5t-45 2.5
t-45 -2.5t-26 -6.5t-12 -9.5t-3 -11.5v-1q0 -6 3 -11.5t12.5 -10t26.5 -7t44 -2.5q28 0 45 2.5t26.5 7t12.5 10t3 11.5v1z" />
    <glyph glyph-name="nine.num" unicode="&#xe41f;" horiz-adv-x="595" 
d="M379 623q0 6 -3 11.5t-12.5 10.5t-27 8t-46.5 3q-30 0 -48 -3t-27 -8t-12 -10.5t-3 -11.5v-1q0 -6 3 -11.5t12.5 -10.5t27.5 -8t47 -3t46.5 3t27 7.5t12.5 10t3 11.5v2zM285 369q-83 0 -133.5 12.5t-77.5 31.5t-36 40t-9 38v1h181q0 -2 3 -6t11 -8.5t24.5 -8t43.5 -3.5
q33 0 52.5 8.5t29.5 20.5t13 25t3 22v2q-4 -3 -14 -8.5t-28 -11t-45.5 -10t-67.5 -4.5h-6q-67 0 -109.5 9t-66.5 24.5t-32.5 35.5t-8.5 41v5q0 21 7.5 43t34 41t78 31t140.5 12h33q90 0 143.5 -18.5t82 -46t37.5 -59.5t9 -59v-13q0 -27 -9 -59.5t-36.5 -61t-79.5 -47.5
t-139 -19h-28z" />
    <glyph glyph-name="f_f_i" unicode="&#xfb03;" horiz-adv-x="1308" 
d="M1274 583h-272v161h272v-161zM1274 0h-272v538h272v-538zM119 0v373h-106v165h106v53q0 32 9.5 60t32 48.5t60.5 32.5t95 12h193v-144h-83q-23 0 -30 -9.5t-7 -29.5v-23h172v53q0 32 9.5 60t32 48.5t60.5 32.5t95 12h191v-144h-81q-23 0 -30 -9.5t-7 -29.5v-23h118v-165
h-118v-373h-270v373h-172v-373h-270z" />
    <glyph glyph-name="f_f_l" unicode="&#xfb04;" horiz-adv-x="1308" 
d="M119 0v373h-106v165h106v53q0 32 9.5 60t32 48.5t60.5 32.5t95 12h193v-144h-83q-23 0 -30 -9.5t-7 -29.5v-23h172v53q0 32 9.5 60t32 48.5t60.5 32.5t95 12h191v-144h-81q-23 0 -30 -9.5t-7 -29.5v-23h118v-165h-118v-373h-270v373h-172v-373h-270zM1274 0h-272v744h272
v-744z" />
    <glyph glyph-name="idotaccent" horiz-adv-x="352" 
d="M312 583h-272v161h272v-161zM312 0h-272v538h272v-538z" />
    <glyph glyph-name="space_uni0326" 
d="M302 -296q11 21 21 46.5t14 45.5h-113v159h258v-125q0 -15 -5 -32.5t-12.5 -34.5t-16.5 -32.5t-16 -26.5h-130z" />
    <glyph glyph-name="J.alt" horiz-adv-x="534" 
d="M26 212h95q47 0 68.5 23t21.5 82v427h284v-489q0 -130 -62.5 -192.5t-190.5 -62.5h-216v212z" />
    <glyph glyph-name="IJ.alt" horiz-adv-x="908" 
d="M331 0h-283v744h283v-744zM399 212h95q47 0 68.5 23t21.5 82v427h284v-489q0 -130 -62.5 -192.5t-190.5 -62.5h-216v212z" />
    <glyph glyph-name="a.alt" horiz-adv-x="826" 
d="M521 254l-180 -32q-35 -6 -50.5 -16t-15.5 -30v-1q0 -9 4 -19t13.5 -18t26 -13t41.5 -5q37 0 67 9.5t51 25t32 35.5t11 41v23zM526 72q-10 -10 -28.5 -24t-48.5 -27t-73.5 -22t-101.5 -9h-11q-68 0 -115 14.5t-77 39t-43.5 55.5t-13.5 64v12q0 34 11.5 60.5t37.5 46
t67.5 32t101.5 17.5l259 23q17 2 23.5 8.5t6.5 17.5q0 7 -3.5 14.5t-15.5 13.5t-35 9.5t-63 3.5h-4q-43 0 -67 -6t-35.5 -15t-14.5 -18.5t-4 -15.5h-252v6q0 27 8.5 58.5t43 58.5t103.5 45t190 18h56q126 0 198 -16.5t107.5 -42.5t44.5 -58t9 -63v-190q0 -44 1 -73.5
t3 -49.5t4.5 -32.5t5.5 -21.5v-5h-263q-4 7 -8 25t-4 47z" />
    <glyph glyph-name="a.alt2" horiz-adv-x="910" 
d="M598 274q0 22 -10.5 44t-30.5 40t-49.5 29t-67.5 11h-5q-40 0 -66.5 -11t-43 -29t-23.5 -40t-7 -44v-5q0 -21 8 -43.5t25 -41t44 -30.5t65 -12h5q38 0 67.5 11.5t49 30t29.5 41t10 44.5v5zM870 538v-538h-271v79q-7 -9 -25 -24t-48.5 -29.5t-73.5 -25t-101 -10.5h-16
q-83 0 -142.5 22.5t-98 60t-57 87t-18.5 102.5v21q0 50 18 98t55.5 85t95.5 59.5t138 22.5h18q57 0 100.5 -9t74.5 -21.5t50.5 -25.5t28.5 -22v68h272z" />
    <glyph glyph-name="r.alt" horiz-adv-x="589" 
d="M312 0h-272v538h270v-128q12 23 31 47.5t49 45t72 34t100 13.5v-246q-11 2 -35 6.5t-67 4.5q-80 0 -114 -29t-34 -78v-208z" />
    <glyph glyph-name="Jcircumflex.alt" horiz-adv-x="534" 
d="M654 789h-244l-62 58l-61 -58h-241l162 155h282zM26 212h95q47 0 68.5 23t21.5 82v427h284v-489q0 -130 -62.5 -192.5t-190.5 -62.5h-216v212z" />
    <glyph glyph-name="aacute.alt" horiz-adv-x="826" 
d="M365 744h269l-111 -159h-245zM521 254l-180 -32q-35 -6 -50.5 -16t-15.5 -30v-1q0 -9 4 -19t13.5 -18t26 -13t41.5 -5q37 0 67 9.5t51 25t32 35.5t11 41v23zM526 72q-10 -10 -28.5 -24t-48.5 -27t-73.5 -22t-101.5 -9h-11q-68 0 -115 14.5t-77 39t-43.5 55.5t-13.5 64v12
q0 34 11.5 60.5t37.5 46t67.5 32t101.5 17.5l259 23q17 2 23.5 8.5t6.5 17.5q0 7 -3.5 14.5t-15.5 13.5t-35 9.5t-63 3.5h-4q-43 0 -67 -6t-35.5 -15t-14.5 -18.5t-4 -15.5h-252v6q0 27 8.5 58.5t43 58.5t103.5 45t190 18h56q126 0 198 -16.5t107.5 -42.5t44.5 -58t9 -63
v-190q0 -44 1 -73.5t3 -49.5t4.5 -32.5t5.5 -21.5v-5h-263q-4 7 -8 25t-4 47z" />
    <glyph glyph-name="aacute.alt2" horiz-adv-x="910" 
d="M400 744h268l-111 -161h-246zM598 274q0 22 -10.5 44t-30.5 40t-49.5 29t-67.5 11h-5q-40 0 -66.5 -11t-43 -29t-23.5 -40t-7 -44v-5q0 -21 8 -43.5t25 -41t44 -30.5t65 -12h5q38 0 67.5 11.5t49 30t29.5 41t10 44.5v5zM870 538v-538h-271v79q-7 -9 -25 -24t-48.5 -29.5
t-73.5 -25t-101 -10.5h-16q-83 0 -142.5 22.5t-98 60t-57 87t-18.5 102.5v21q0 50 18 98t55.5 85t95.5 59.5t138 22.5h18q57 0 100.5 -9t74.5 -21.5t50.5 -25.5t28.5 -22v68h272z" />
    <glyph glyph-name="abreve.alt" horiz-adv-x="826" 
d="M384 578q-71 0 -115 18.5t-68 44t-32 53.5t-8 48v2h181q0 -5 2.5 -13t9 -15.5t19 -13t32.5 -5.5q19 0 31 5.5t19 13t9.5 15.5t2.5 13h178v-2q0 -20 -10 -48t-35.5 -53.5t-68 -44t-107.5 -18.5h-40v0zM521 254l-180 -32q-35 -6 -50.5 -16t-15.5 -30v-1q0 -9 4 -19
t13.5 -18t26 -13t41.5 -5q37 0 67 9.5t51 25t32 35.5t11 41v23zM526 72q-10 -10 -28.5 -24t-48.5 -27t-73.5 -22t-101.5 -9h-11q-68 0 -115 14.5t-77 39t-43.5 55.5t-13.5 64v12q0 34 11.5 60.5t37.5 46t67.5 32t101.5 17.5l259 23q17 2 23.5 8.5t6.5 17.5q0 7 -3.5 14.5
t-15.5 13.5t-35 9.5t-63 3.5h-4q-43 0 -67 -6t-35.5 -15t-14.5 -18.5t-4 -15.5h-252v6q0 27 8.5 58.5t43 58.5t103.5 45t190 18h56q126 0 198 -16.5t107.5 -42.5t44.5 -58t9 -63v-190q0 -44 1 -73.5t3 -49.5t4.5 -32.5t5.5 -21.5v-5h-263q-4 7 -8 25t-4 47z" />
    <glyph glyph-name="abreve.alt2" horiz-adv-x="910" 
d="M598 274q0 22 -10.5 44t-30.5 40t-49.5 29t-67.5 11h-5q-40 0 -66.5 -11t-43 -29t-23.5 -40t-7 -44v-5q0 -21 8 -43.5t25 -41t44 -30.5t65 -12h5q38 0 67.5 11.5t49 30t29.5 41t10 44.5v5zM870 538v-538h-271v79q-7 -9 -25 -24t-48.5 -29.5t-73.5 -25t-101 -10.5h-16
q-83 0 -142.5 22.5t-98 60t-57 87t-18.5 102.5v21q0 50 18 98t55.5 85t95.5 59.5t138 22.5h18q57 0 100.5 -9t74.5 -21.5t50.5 -25.5t28.5 -22v68h272zM674 742q0 -20 -10 -48.5t-35 -54.5t-68 -44t-108 -18h-40q-72 0 -115.5 18t-67.5 44t-32 54.5t-8 48.5v2h181
q0 -5 2 -13t9 -16t19 -13.5t33 -5.5q20 0 32 5.5t18.5 13.5t9 16t2.5 13h178v-2v0z" />
    <glyph glyph-name="acircumflex.alt" horiz-adv-x="826" 
d="M694 584h-236l-58 64l-58 -64h-234l153 160h280zM521 254l-180 -32q-35 -6 -50.5 -16t-15.5 -30v-1q0 -9 4 -19t13.5 -18t26 -13t41.5 -5q37 0 67 9.5t51 25t32 35.5t11 41v23zM526 72q-10 -10 -28.5 -24t-48.5 -27t-73.5 -22t-101.5 -9h-11q-68 0 -115 14.5t-77 39
t-43.5 55.5t-13.5 64v12q0 34 11.5 60.5t37.5 46t67.5 32t101.5 17.5l259 23q17 2 23.5 8.5t6.5 17.5q0 7 -3.5 14.5t-15.5 13.5t-35 9.5t-63 3.5h-4q-43 0 -67 -6t-35.5 -15t-14.5 -18.5t-4 -15.5h-252v6q0 27 8.5 58.5t43 58.5t103.5 45t190 18h56q126 0 198 -16.5
t107.5 -42.5t44.5 -58t9 -63v-190q0 -44 1 -73.5t3 -49.5t4.5 -32.5t5.5 -21.5v-5h-263q-4 7 -8 25t-4 47z" />
    <glyph glyph-name="acircumflex.alt2" horiz-adv-x="910" 
d="M726 582h-237l-58 66l-58 -66h-233l152 162h281zM598 274q0 22 -10.5 44t-30.5 40t-49.5 29t-67.5 11h-5q-40 0 -66.5 -11t-43 -29t-23.5 -40t-7 -44v-5q0 -21 8 -43.5t25 -41t44 -30.5t65 -12h5q38 0 67.5 11.5t49 30t29.5 41t10 44.5v5zM870 538v-538h-271v79
q-7 -9 -25 -24t-48.5 -29.5t-73.5 -25t-101 -10.5h-16q-83 0 -142.5 22.5t-98 60t-57 87t-18.5 102.5v21q0 50 18 98t55.5 85t95.5 59.5t138 22.5h18q57 0 100.5 -9t74.5 -21.5t50.5 -25.5t28.5 -22v68h272z" />
    <glyph glyph-name="adieresis.alt" horiz-adv-x="826" 
d="M663 585h-239v159h239v-159zM378 585h-238v159h238v-159zM521 254l-180 -32q-35 -6 -50.5 -16t-15.5 -30v-1q0 -9 4 -19t13.5 -18t26 -13t41.5 -5q37 0 67 9.5t51 25t32 35.5t11 41v23zM526 72q-10 -10 -28.5 -24t-48.5 -27t-73.5 -22t-101.5 -9h-11q-68 0 -115 14.5
t-77 39t-43.5 55.5t-13.5 64v12q0 34 11.5 60.5t37.5 46t67.5 32t101.5 17.5l259 23q17 2 23.5 8.5t6.5 17.5q0 7 -3.5 14.5t-15.5 13.5t-35 9.5t-63 3.5h-4q-43 0 -67 -6t-35.5 -15t-14.5 -18.5t-4 -15.5h-252v6q0 27 8.5 58.5t43 58.5t103.5 45t190 18h56q126 0 198 -16.5
t107.5 -42.5t44.5 -58t9 -63v-190q0 -44 1 -73.5t3 -49.5t4.5 -32.5t5.5 -21.5v-5h-263q-4 7 -8 25t-4 47z" />
    <glyph glyph-name="adieresis.alt2" horiz-adv-x="910" 
d="M694 583h-238v161h238v-161zM410 583h-237v161h237v-161zM598 274q0 22 -10.5 44t-30.5 40t-49.5 29t-67.5 11h-5q-40 0 -66.5 -11t-43 -29t-23.5 -40t-7 -44v-5q0 -21 8 -43.5t25 -41t44 -30.5t65 -12h5q38 0 67.5 11.5t49 30t29.5 41t10 44.5v5zM870 538v-538h-271v79
q-7 -9 -25 -24t-48.5 -29.5t-73.5 -25t-101 -10.5h-16q-83 0 -142.5 22.5t-98 60t-57 87t-18.5 102.5v21q0 50 18 98t55.5 85t95.5 59.5t138 22.5h18q57 0 100.5 -9t74.5 -21.5t50.5 -25.5t28.5 -22v68h272z" />
    <glyph glyph-name="agrave.alt" horiz-adv-x="826" 
d="M283 585l-111 159h270l88 -159h-247zM521 254l-180 -32q-35 -6 -50.5 -16t-15.5 -30v-1q0 -9 4 -19t13.5 -18t26 -13t41.5 -5q37 0 67 9.5t51 25t32 35.5t11 41v23zM526 72q-10 -10 -28.5 -24t-48.5 -27t-73.5 -22t-101.5 -9h-11q-68 0 -115 14.5t-77 39t-43.5 55.5
t-13.5 64v12q0 34 11.5 60.5t37.5 46t67.5 32t101.5 17.5l259 23q17 2 23.5 8.5t6.5 17.5q0 7 -3.5 14.5t-15.5 13.5t-35 9.5t-63 3.5h-4q-43 0 -67 -6t-35.5 -15t-14.5 -18.5t-4 -15.5h-252v6q0 27 8.5 58.5t43 58.5t103.5 45t190 18h56q126 0 198 -16.5t107.5 -42.5
t44.5 -58t9 -63v-190q0 -44 1 -73.5t3 -49.5t4.5 -32.5t5.5 -21.5v-5h-263q-4 7 -8 25t-4 47z" />
    <glyph glyph-name="agrave.alt2" horiz-adv-x="910" 
d="M598 274q0 22 -10.5 44t-30.5 40t-49.5 29t-67.5 11h-5q-40 0 -66.5 -11t-43 -29t-23.5 -40t-7 -44v-5q0 -21 8 -43.5t25 -41t44 -30.5t65 -12h5q38 0 67.5 11.5t49 30t29.5 41t10 44.5v5zM870 538v-538h-271v79q-7 -9 -25 -24t-48.5 -29.5t-73.5 -25t-101 -10.5h-16
q-83 0 -142.5 22.5t-98 60t-57 87t-18.5 102.5v21q0 50 18 98t55.5 85t95.5 59.5t138 22.5h18q57 0 100.5 -9t74.5 -21.5t50.5 -25.5t28.5 -22v68h272zM311 583l-111 161h270l88 -161h-247z" />
    <glyph glyph-name="amacron.alt" horiz-adv-x="826" 
d="M521 254l-180 -32q-35 -6 -50.5 -16t-15.5 -30v-1q0 -9 4 -19t13.5 -18t26 -13t41.5 -5q37 0 67 9.5t51 25t32 35.5t11 41v23zM526 72q-10 -10 -28.5 -24t-48.5 -27t-73.5 -22t-101.5 -9h-11q-68 0 -115 14.5t-77 39t-43.5 55.5t-13.5 64v12q0 34 11.5 60.5t37.5 46
t67.5 32t101.5 17.5l259 23q17 2 23.5 8.5t6.5 17.5q0 7 -3.5 14.5t-15.5 13.5t-35 9.5t-63 3.5h-4q-43 0 -67 -6t-35.5 -15t-14.5 -18.5t-4 -15.5h-252v6q0 27 8.5 58.5t43 58.5t103.5 45t190 18h56q126 0 198 -16.5t107.5 -42.5t44.5 -58t9 -63v-190q0 -44 1 -73.5
t3 -49.5t4.5 -32.5t5.5 -21.5v-5h-263q-4 7 -8 25t-4 47zM176 723h452v-129h-452v129z" />
    <glyph glyph-name="amacron.alt2" horiz-adv-x="910" 
d="M209 722h452v-129h-452v129zM598 274q0 22 -10.5 44t-30.5 40t-49.5 29t-67.5 11h-5q-40 0 -66.5 -11t-43 -29t-23.5 -40t-7 -44v-5q0 -21 8 -43.5t25 -41t44 -30.5t65 -12h5q38 0 67.5 11.5t49 30t29.5 41t10 44.5v5zM870 538v-538h-271v79q-7 -9 -25 -24t-48.5 -29.5
t-73.5 -25t-101 -10.5h-16q-83 0 -142.5 22.5t-98 60t-57 87t-18.5 102.5v21q0 50 18 98t55.5 85t95.5 59.5t138 22.5h18q57 0 100.5 -9t74.5 -21.5t50.5 -25.5t28.5 -22v68h272z" />
    </font>
</defs>
</svg>
