<?xml version="1.0" encoding="utf-8"?><svg xmlns="http://www.w3.org/2000/svg" xmlns:xlink="http://www.w3.org/1999/xlink"><symbol viewBox="0 0 481 401" id="1" xmlns="http://www.w3.org/2000/svg"><path d="M321.694 79.02H478.55L400.468 2.173l-80.347 78.248.028 319.578H160.523V240.21h159.612l158.437 159.789H320.288l-79.889-79.385H.023"/></symbol><symbol viewBox="0 0 484 325" id="2" xmlns="http://www.w3.org/2000/svg"><path d="M1.385 162.007c0-33.037 25.269-80.669 80.128-80.669s80.053 48.679 80.053 80.669m-160.18 0l.103 159.781h160.077V162.007m-160.18 0h160.18m0 0H321.53m0 0h159.964L321.47 321.787c.03-52.108.084-157.017.06-159.78zm0 0c-.241-27.673 6.693-72.246 46.434-112.837 37.732-38.54 83.622-47.296 113.53-47.296"/></symbol><symbol viewBox="0 0 484 483" id="3" xmlns="http://www.w3.org/2000/svg"><path d="M1.097 1.423l159.97 159.91c22.555 0 77.878 6.89 117.875 51.442 37.562 41.839 42.092 89.961 42.11 108.503h159.926V161.423h-160.08l.154 160.17L481.073 481.21H161.141m0 0V321.258H1.061V481.21h160.08z"/></symbol><symbol viewBox="0 0 38.2 72.1" id="arr-next" xmlns="http://www.w3.org/2000/svg"><path d="M2.1 71.4l35.4-35.3L2.1.7l-.7.7 34.7 34.7L1.4 70.7z"/></symbol><symbol viewBox="0 0 38.2 72.1" id="arr-prev" xmlns="http://www.w3.org/2000/svg"><path d="M36.8 71.4L1.4 36.1 36.8.7l.7.7L2.8 36.1l34.7 34.6z"/></symbol><symbol viewBox="0 0 32 28" id="burger" xmlns="http://www.w3.org/2000/svg"><path d="M21.94 28L32 0H10.06L0 28h21.94z"/></symbol><symbol viewBox="0 0 172.9 172.9" id="fb" xmlns="http://www.w3.org/2000/svg"><path d="M172.5.5c.2.9.4 1.6.4 2.3v168c0 .5-.3 1-.5 1.6-.6.2-1.1.5-1.6.5H2.2c-.5 0-1-.3-1.6-.5-.2-.6-.5-1.1-.5-1.6V.8C1.3.5 2.3.2 3.4.1 4.6 0 6 0 7.3 0h158.3c2.2.1 4.5-.2 6.9.5zM159.9 13c-2.9-.1-5.1-.2-7.4-.2h-132c-1.3 0-2.7-.1-4 0-1.1.1-2.1.3-3.5.5-.1 2.2-.2 4-.2 5.9v134.3c0 2-.5 4.2.7 6.3 1.1.1 2.2.3 3.3.3h76c1.1 0 2.2-.3 3.5-.6v-52.2c0-.9-.2-1.8-.4-3-1.7-.1-3.2-.3-4.6-.3H73.6c-1.3 0-2.6-.2-3.8-.4-.9-5.7-.9-8 .3-12.1 8.4-.7 16.9.3 25.3-.5 1.3-2 .8-4 .9-5.8.3-5.7.4-11.4.9-17.1.8-10.1 6.4-16.9 15.4-21 4.4-2 9-3.1 13.8-3.5 4.7-.4 9.4-.9 14.3.4-.2 4.1-.4 8-1.7 12.1h-7.1c-4 0-7.9.8-11.8 1.9-6.6 2-10.3 6.2-10.5 13.2-.1 5.7-.3 11.4-.4 17.1 0 .9.4 1.7.6 2.8 2.2.1 4.1.2 5.9.2h16.6c1.1 0 2.1.3 3.4.5.1 4.2.8 8.1-.5 12.2-4.4 0-8.6-.1-12.7 0-4.3.1-8.7-.7-12.9.5-.7 6.2-.5 50.5.2 55.2.6.1 1.3.3 2.1.3h45.7c.7 0 1.4-.4 2.2-.6.1-48.6.1-97.2.1-146.4z"/></symbol></svg>