<?xml version="1.0" encoding="utf-8"?>
<!-- Generator: Adobe Illustrator 21.0.2, SVG Export Plug-In . SVG Version: 6.00 Build 0)  -->
<svg version="1.1" id="Layer_1" xmlns="http://www.w3.org/2000/svg" xmlns:xlink="http://www.w3.org/1999/xlink" x="0px" y="0px"
	 viewBox="0 0 172.9 172.9" style="enable-background:new 0 0 172.9 172.9;" xml:space="preserve">
<style type="text/css">
	.st0{fill:#341209;}
</style>
<g>
	<path class="st0" d="M172.5,0.5c0.2,0.9,0.4,1.6,0.4,2.3c0,56,0,112,0,168c0,0.5-0.3,1-0.5,1.6c-0.6,0.2-1.1,0.5-1.6,0.5
		c-56.2,0-112.4,0-168.6,0c-0.5,0-1-0.3-1.6-0.5c-0.2-0.6-0.5-1.1-0.5-1.6c0-56.6,0-113.1,0-170c1.2-0.3,2.2-0.6,3.3-0.7
		C4.6,0,6,0,7.3,0c52.8,0,105.5,0,158.3,0C167.8,0.1,170.1-0.2,172.5,0.5z M159.9,13c-2.9-0.1-5.1-0.2-7.4-0.2c-44,0-88,0-132,0
		c-1.3,0-2.7-0.1-4,0c-1.1,0.1-2.1,0.3-3.5,0.5c-0.1,2.2-0.2,4-0.2,5.9c0,13.3,0,26.7,0,40c0,31.4,0,62.9,0,94.3
		c0,2-0.5,4.2,0.7,6.3c1.1,0.1,2.2,0.3,3.3,0.3c25.3,0,50.7,0,76,0c1.1,0,2.2-0.3,3.5-0.6c0-17.6,0-34.9,0-52.2c0-0.9-0.2-1.8-0.4-3
		c-1.7-0.1-3.2-0.3-4.6-0.3c-5.9,0-11.8,0-17.7,0c-1.3,0-2.6-0.2-3.8-0.4c-0.9-5.7-0.9-8,0.3-12.1c8.4-0.7,16.9,0.3,25.3-0.5
		c1.3-2,0.8-4,0.9-5.8c0.3-5.7,0.4-11.4,0.9-17.1c0.8-10.1,6.4-16.9,15.4-21c4.4-2,9-3.1,13.8-3.5c4.7-0.4,9.4-0.9,14.3,0.4
		c-0.2,4.1-0.4,8-1.7,12.1c-2.5,0-4.8,0-7.1,0c-4,0-7.9,0.8-11.8,1.9c-6.6,2-10.3,6.2-10.5,13.2c-0.1,5.7-0.3,11.4-0.4,17.1
		c0,0.9,0.4,1.7,0.6,2.8c2.2,0.1,4.1,0.2,5.9,0.2c5.5,0,11.1,0,16.6,0c1.1,0,2.1,0.3,3.4,0.5c0.1,4.2,0.8,8.1-0.5,12.2
		c-4.4,0-8.6-0.1-12.7,0c-4.3,0.1-8.7-0.7-12.9,0.5c-0.7,6.2-0.5,50.5,0.2,55.2c0.6,0.1,1.3,0.3,2.1,0.3c15.2,0,30.5,0,45.7,0
		c0.7,0,1.4-0.4,2.2-0.6C159.9,110.8,159.9,62.2,159.9,13z"/>
</g>
</svg>
